<svg width="121" height="120" viewBox="0 0 121 120" fill="none" xmlns="http://www.w3.org/2000/svg">
<rect x="0.100006" width="120" height="120" rx="60" fill="white"/>
<g opacity="0.1" clip-path="url(#clip0_8_9134)">
<g clip-path="url(#clip1_8_9134)">
<g clip-path="url(#clip2_8_9134)">
<path d="M34.125 105.15H22.55C32.7375 113.65 45.825 118.762 60.1 118.762C74.375 118.762 87.4625 113.65 97.6625 105.15H86.0875H34.125Z" fill="#00AA6C"/>
<path d="M60.1 1.2373C27.7 1.2373 1.33749 27.5998 1.33749 59.9998C1.33749 77.4498 8.99999 93.1498 21.1125 103.912H31.1C30.425 103.25 29.975 102.362 29.85 101.387C26.7 101.1 24.225 98.4748 24.225 95.2623C24.225 91.8498 27 89.0748 30.4125 89.0748H33.45L29.85 49.4873H26.7C24.3125 49.4873 22.375 47.5498 22.375 45.1623V26.5998C22.375 24.2123 24.3125 22.2748 26.7 22.2748H29.7875V19.7998H26.7V18.5623H93.5V19.7998H90.4125V22.2748H93.5C95.8875 22.2748 97.825 24.2123 97.825 26.5998V45.1623C97.825 47.5498 95.8875 49.4873 93.5 49.4873H90.0375L86.75 89.0748H89.7875C93.2 89.0748 95.975 91.8498 95.975 95.2623C95.975 98.4748 93.5 101.1 90.35 101.387C90.225 102.375 89.775 103.262 89.1 103.912H99.0875C111.213 93.1373 118.863 77.4498 118.863 59.9998C118.862 27.5998 92.5 1.2373 60.1 1.2373Z" fill="#C9F2E3"/>
<path d="M53.325 63.7499C54.4375 61.9999 56.1875 60.7749 58.175 60.2749C56.5125 59.7249 55.15 58.4999 54.45 56.8999H53.625C51.975 58.6624 50.725 61.0499 50.0875 63.7374H53.325V63.7499Z" fill="white"/>
<path d="M60.1 42.6752C61.9125 42.6752 63.625 41.9627 64.9125 40.6877C66.2 39.4002 66.9 37.7002 66.9 35.8752C66.9 34.0502 66.1875 32.3502 64.9125 31.0627C63.6375 29.7752 61.925 29.0752 60.1 29.0752C58.275 29.0752 56.575 29.7877 55.2875 31.0627C54 32.3377 53.3 34.0502 53.3 35.8752C53.3 37.7002 54.0125 39.4002 55.2875 40.6877C56.575 41.9752 58.2875 42.6752 60.1 42.6752ZM62.725 32.3752L63.6 33.2502L60.1 36.7502L59.225 35.8752L62.725 32.3752Z" fill="white"/>
<path d="M30.4125 33.4001C32.1177 33.4001 33.5 32.0178 33.5 30.3126C33.5 28.6074 32.1177 27.2251 30.4125 27.2251C28.7073 27.2251 27.325 28.6074 27.325 30.3126C27.325 32.0178 28.7073 33.4001 30.4125 33.4001Z" fill="#FF5D5D"/>
<path d="M66.875 63.7501H70.1125C69.475 61.0626 68.225 58.6751 66.575 56.9126H65.75C65.05 58.5126 63.6875 59.7251 62.025 60.2876C64.0125 60.7751 65.7625 62.0001 66.875 63.7501Z" fill="white"/>
<path d="M23.6 26.5998V45.1623C23.6 46.8623 24.9875 48.2498 26.6875 48.2498H29.725H60.1H90.15H93.5C95.2 48.2498 96.5875 46.8623 96.5875 45.1623V26.5998C96.5875 24.8998 95.2 23.5123 93.5 23.5123H26.7C24.9875 23.4998 23.6 24.8873 23.6 26.5998ZM30.4125 45.7748C28.025 45.7748 26.0875 43.8373 26.0875 41.4498C26.0875 39.0623 28.025 37.1248 30.4125 37.1248C32.8 37.1248 34.7375 39.0623 34.7375 41.4498C34.7375 43.8373 32.8 45.7748 30.4125 45.7748ZM92.8875 26.5998H94.125V45.1623H92.8875V26.5998ZM89.175 26.5998H90.4125V45.1623H89.175V26.5998ZM85.4625 26.5998H86.7V45.1623H85.4625V26.5998ZM54.4125 30.1873C55.925 28.6748 57.95 27.8373 60.1 27.8373C62.25 27.8373 64.2625 28.6748 65.7875 30.1873C67.3125 31.6998 68.1375 33.7248 68.1375 35.8748C68.1375 38.0248 67.3 40.0373 65.7875 41.5623C64.225 43.1248 62.1625 43.9123 60.1 43.9123C58.0375 43.9123 55.9875 43.1248 54.4125 41.5623C52.9 40.0498 52.0625 38.0248 52.0625 35.8748C52.0625 33.7248 52.9 31.7123 54.4125 30.1873ZM30.4125 25.9748C32.8 25.9748 34.7375 27.9123 34.7375 30.2998C34.7375 32.6873 32.8 34.6248 30.4125 34.6248C28.025 34.6248 26.0875 32.6873 26.0875 30.2998C26.0875 27.9123 28.025 25.9748 30.4125 25.9748Z" fill="#F2B203"/>
<path d="M70.6125 52.5748V49.4873H63.775C65.2875 50.6123 66.2875 52.3998 66.2875 54.4373C66.2875 54.8623 66.25 55.2748 66.1625 55.6748H67.525C69.225 55.6748 70.6125 54.2873 70.6125 52.5748Z" fill="#FEE39A"/>
<path d="M74.625 71.75H71.5375V82.2625C71.5375 82.65 71.4875 83.025 71.4375 83.4125L77 76.8375C77.475 76.275 77.725 75.575 77.725 74.8375C77.725 73.1375 76.3375 71.75 74.625 71.75Z" fill="#8E6500"/>
<path d="M30.4125 44.5251C32.1177 44.5251 33.5 43.1428 33.5 41.4376C33.5 39.7324 32.1177 38.3501 30.4125 38.3501C28.7073 38.3501 27.325 39.7324 27.325 41.4376C27.325 43.1428 28.7073 44.5251 30.4125 44.5251Z" fill="#FF5D5D"/>
<path d="M60.1 59.3873C62.8338 59.3873 65.05 57.1711 65.05 54.4373C65.05 51.7035 62.8338 49.4873 60.1 49.4873C57.3662 49.4873 55.15 51.7035 55.15 54.4373C55.15 57.1711 57.3662 59.3873 60.1 59.3873Z" fill="#F2B203"/>
<path d="M70.3 82.2625V71.75H49.275V82.2625C49.275 86.0125 52.325 89.0625 56.075 89.0625H63.5C65.5125 89.0625 67.4 88.1875 68.7 86.65C69.725 85.4375 70.3 83.875 70.3 82.2625Z" fill="white"/>
<path d="M34.125 103.912C35.625 103.912 36.8625 102.85 37.15 101.438H31.0875C31.375 102.85 32.625 103.912 34.125 103.912Z" fill="#8E6500"/>
<path d="M86.075 103.912C87.575 103.912 88.8125 102.85 89.1 101.438H83.0375C83.3375 102.85 84.5875 103.912 86.075 103.912Z" fill="#8E6500"/>
<path d="M38.3875 101.438C38.25 102.4 37.8 103.262 37.1375 103.912H83.05C82.3875 103.262 81.9375 102.4 81.8 101.438H38.3875Z" fill="#C9F2E3"/>
<path d="M25.4625 95.2625C25.4625 97.9875 27.6875 100.212 30.4125 100.212H89.8C92.525 100.212 94.75 97.9875 94.75 95.2625C94.75 92.5375 92.525 90.3125 89.8 90.3125H86.6625H63.5H56.075H33.55H30.4C27.675 90.3125 25.4625 92.525 25.4625 95.2625Z" fill="#F2B203"/>
<path d="M89.175 19.7998H31.025V22.2748H89.175V19.7998Z" fill="#C9F2E3"/>
<path d="M51.8125 89.0748C49.55 87.6498 48.0375 85.1373 48.0375 82.2748V70.5248H70.925H71.5375H74.625C77.0125 70.5248 78.95 72.4623 78.95 74.8498C78.95 75.8748 78.5875 76.8623 77.925 77.6498L69.625 87.4623C69.0875 88.0998 68.45 88.6373 67.75 89.0748H85.4875L88.775 49.4873H71.85V52.5748C71.85 54.7373 70.25 56.5248 68.175 56.8373C69.7875 58.8373 70.95 61.4248 71.5 64.2498L71.6375 64.9873H66.175L66 64.6748C64.7875 62.5748 62.525 61.2748 60.1 61.2748C57.675 61.2748 55.425 62.5748 54.2 64.6748L54.025 64.9873H48.5625L48.7 64.2498C49.25 61.4248 50.4125 58.8498 52.025 56.8373C49.95 56.5248 48.35 54.7373 48.35 52.5748V49.4873H31.0875L34.6875 89.0748H51.8125Z" fill="#8E6500"/>
<path d="M56.425 49.4873H49.5875V52.5748C49.5875 54.2748 50.975 55.6623 52.675 55.6623H54.0375C53.95 55.2623 53.9125 54.8498 53.9125 54.4248C53.9125 52.3998 54.9125 50.6123 56.425 49.4873Z" fill="#FEE39A"/>
<path d="M60.1 0C27.0125 0 0.100006 26.9125 0.100006 60C0.100006 93.0875 27.0125 120 60.1 120C93.1875 120 120.1 93.0875 120.1 60C120.1 26.9125 93.1875 0 60.1 0ZM99.0875 103.912H89.1C89.775 103.25 90.225 102.363 90.35 101.387C93.5 101.1 95.975 98.475 95.975 95.2625C95.975 91.85 93.2 89.075 89.7875 89.075H86.75L90.0375 49.4875H93.5C95.8875 49.4875 97.825 47.55 97.825 45.1625V26.6C97.825 24.2125 95.8875 22.275 93.5 22.275H90.4125V19.8H93.5V18.5625H26.7V19.8H29.7875V22.275H26.7C24.3125 22.275 22.375 24.2125 22.375 26.6V45.1625C22.375 47.55 24.3125 49.4875 26.7 49.4875H29.85L33.45 89.075H30.4125C27 89.075 24.225 91.85 24.225 95.2625C24.225 98.475 26.7 101.1 29.85 101.387C29.975 102.375 30.425 103.262 31.1 103.912H21.1125C9.00001 93.15 1.33751 77.45 1.33751 60C1.33751 27.6 27.7 1.2375 60.1 1.2375C92.5 1.2375 118.863 27.6 118.863 60C118.863 77.45 111.2 93.15 99.0875 103.912ZM60.1 118.763C45.825 118.763 32.7375 113.65 22.5375 105.15H34.1125H86.075H97.65C87.4625 113.65 74.375 118.763 60.1 118.763ZM31.0875 101.438H37.15C36.8625 102.85 35.6125 103.912 34.125 103.912C32.625 103.912 31.375 102.85 31.0875 101.438ZM31.025 19.8H89.175V22.275H31.025V19.8ZM93.5 23.5C95.2 23.5 96.5875 24.8875 96.5875 26.5875V45.15C96.5875 46.85 95.2 48.2375 93.5 48.2375H90.15H60.1H29.7375H26.7C25 48.2375 23.6125 46.85 23.6125 45.15V26.6C23.6125 24.9 25 23.5125 26.7 23.5125H93.5V23.5ZM49.5875 49.4875H56.425C54.9125 50.6125 53.9125 52.4 53.9125 54.4375C53.9125 54.8625 53.95 55.275 54.0375 55.675H52.675C50.975 55.675 49.5875 54.2875 49.5875 52.5875V49.4875ZM65.05 54.4375C65.05 57.1625 62.825 59.3875 60.1 59.3875C57.375 59.3875 55.15 57.1625 55.15 54.4375C55.15 51.7125 57.375 49.4875 60.1 49.4875C62.825 49.4875 65.05 51.7 65.05 54.4375ZM53.625 56.9125H54.45C55.15 58.5125 56.5125 59.725 58.175 60.2875C56.2 60.775 54.45 62.0125 53.325 63.7625H50.0875C50.725 61.0625 51.9625 58.6625 53.625 56.9125ZM65.7625 56.9125H66.5875C68.2375 58.675 69.4875 61.0625 70.125 63.75H66.8875C65.775 62 64.025 60.775 62.0375 60.275C63.7 59.725 65.0625 58.5 65.7625 56.9125ZM66.1625 55.675C66.25 55.275 66.2875 54.8625 66.2875 54.4375C66.2875 52.4125 65.2875 50.6125 63.775 49.4875H70.6125V52.575C70.6125 54.275 69.225 55.6625 67.525 55.6625H66.1625V55.675ZM48.35 49.4875V52.575C48.35 54.7375 49.95 56.525 52.025 56.8375C50.4125 58.8375 49.25 61.425 48.7 64.25L48.5625 64.9875H54.025L54.2 64.675C55.4125 62.575 57.675 61.275 60.1 61.275C62.525 61.275 64.775 62.575 66 64.675L66.175 64.9875H71.6375L71.5 64.25C70.95 61.425 69.7875 58.85 68.175 56.8375C70.25 56.525 71.85 54.7375 71.85 52.575V49.4875H88.8L85.5125 89.075H67.775C68.4625 88.6375 69.1 88.1 69.65 87.4625L77.95 77.65C78.6125 76.875 78.975 75.875 78.975 74.85C78.975 72.4625 77.0375 70.525 74.65 70.525H71.5625H70.95H48.0375V82.275C48.0375 85.1375 49.55 87.65 51.8125 89.075H34.6875L31.0875 49.4875H48.35ZM71.5375 82.2625V71.75H74.625C76.325 71.75 77.7125 73.1375 77.7125 74.8375C77.7125 75.5625 77.45 76.275 76.9875 76.8375L71.425 83.4125C71.4875 83.0375 71.5375 82.65 71.5375 82.2625ZM70.3 82.2625C70.3 83.8625 69.725 85.425 68.7 86.65C67.4 88.1875 65.5125 89.0625 63.5 89.0625H56.075C52.325 89.0625 49.275 86.0125 49.275 82.2625V71.75H70.3V82.2625ZM56.075 90.3125H63.5H86.65H89.7875C92.5125 90.3125 94.7375 92.5375 94.7375 95.2625C94.7375 97.9875 92.5125 100.212 89.7875 100.212H30.4125C27.6875 100.212 25.4625 97.9875 25.4625 95.2625C25.4625 92.5375 27.6875 90.3125 30.4125 90.3125H33.5625H56.075ZM86.075 103.912C84.575 103.912 83.3375 102.85 83.05 101.438H89.1125C88.825 102.85 87.575 103.912 86.075 103.912ZM81.8125 101.438C81.95 102.4 82.4 103.262 83.0625 103.912H37.1375C37.8 103.262 38.25 102.4 38.3875 101.438H81.8125Z" fill="black"/>
<path d="M30.4125 34.6373C32.8 34.6373 34.7375 32.6998 34.7375 30.3123C34.7375 27.9248 32.8 25.9873 30.4125 25.9873C28.025 25.9873 26.0875 27.9248 26.0875 30.3123C26.0875 32.6998 28.025 34.6373 30.4125 34.6373ZM30.4125 27.2123C32.1125 27.2123 33.5 28.5998 33.5 30.2998C33.5 31.9998 32.1125 33.3873 30.4125 33.3873C28.7125 33.3873 27.325 31.9998 27.325 30.2998C27.3125 28.5998 28.7 27.2123 30.4125 27.2123Z" fill="black"/>
<path d="M30.4125 37.1123C28.025 37.1123 26.0875 39.0498 26.0875 41.4373C26.0875 43.8248 28.025 45.7623 30.4125 45.7623C32.8 45.7623 34.7375 43.8248 34.7375 41.4373C34.7375 39.0498 32.8 37.1123 30.4125 37.1123ZM30.4125 44.5373C28.7125 44.5373 27.325 43.1498 27.325 41.4498C27.325 39.7498 28.7125 38.3623 30.4125 38.3623C32.1125 38.3623 33.5 39.7498 33.5 41.4498C33.5 43.1498 32.1125 44.5373 30.4125 44.5373Z" fill="black"/>
<path d="M90.4125 26.6001H89.175V45.1626H90.4125V26.6001Z" fill="black"/>
<path d="M86.7 26.6001H85.4625V45.1626H86.7V26.6001Z" fill="black"/>
<path d="M94.125 26.6001H92.8875V45.1626H94.125V26.6001Z" fill="black"/>
<path d="M60.1 43.9124C62.1625 43.9124 64.2125 43.1249 65.7875 41.5624C67.3 40.0499 68.1375 38.0249 68.1375 35.8749C68.1375 33.7249 67.3 31.7124 65.7875 30.1874C64.275 28.6624 62.25 27.8374 60.1 27.8374C57.95 27.8374 55.9375 28.6749 54.4125 30.1874C52.8875 31.6999 52.0625 33.7249 52.0625 35.8749C52.0625 38.0249 52.9 40.0374 54.4125 41.5624C55.9875 43.1249 58.0375 43.9124 60.1 43.9124ZM55.2875 31.0624C56.575 29.7749 58.275 29.0749 60.1 29.0749C61.925 29.0749 63.625 29.7874 64.9125 31.0624C66.2 32.3374 66.9 34.0499 66.9 35.8749C66.9 37.6999 66.1875 39.3999 64.9125 40.6874C63.625 41.9749 61.925 42.6749 60.1 42.6749C58.275 42.6749 56.575 41.9624 55.2875 40.6874C54 39.3999 53.3 37.6999 53.3 35.8749C53.3 34.0499 54 32.3499 55.2875 31.0624Z" fill="black"/>
<path d="M62.7277 32.3797L59.2275 35.8799L60.1026 36.7549L63.6027 33.2548L62.7277 32.3797Z" fill="black"/>
</g>
</g>
</g>
<g opacity="0.5" clip-path="url(#clip3_8_9134)">
<g clip-path="url(#clip4_8_9134)">
<path fill-rule="evenodd" clip-rule="evenodd" d="M48.6585 52.5H48.0998C46.1665 52.5 44.6 54.0672 44.6 56V74C44.6 75.933 46.167 77.5 48.1 77.5H72.1C74.033 77.5 75.6 75.933 75.6 74V56C75.6 54.0672 74.0334 52.5 72.1002 52.5H71.5416C71.3268 49.7649 70.5114 47.0461 68.941 44.8718C67.0416 42.2417 64.0944 40.5 60.1 40.5C56.1056 40.5 53.1585 42.2417 51.259 44.8718C49.6886 47.0461 48.8732 49.7649 48.6585 52.5ZM51.6692 52.5H68.5308C68.323 50.2771 67.6482 48.2056 66.509 46.6282C65.1584 44.7583 63.1056 43.5 60.1 43.5C57.0944 43.5 55.0415 44.7583 53.691 46.6282C52.5518 48.2056 51.8769 50.2771 51.6692 52.5ZM48.0998 55.5C47.8239 55.5 47.6 55.7236 47.6 56V74C47.6 74.2762 47.8239 74.5 48.1 74.5H72.1C72.3762 74.5 72.6 74.2762 72.6 74V56C72.6 55.7236 72.3762 55.5 72.1002 55.5H48.0998ZM58.6 69V61H61.6V69H58.6Z" fill="black"/>
</g>
</g>
<defs>
<clipPath id="clip0_8_9134">
<rect width="120" height="120" fill="white" transform="translate(0.100006)"/>
</clipPath>
<clipPath id="clip1_8_9134">
<rect width="120" height="120" fill="white" transform="translate(0.100006)"/>
</clipPath>
<clipPath id="clip2_8_9134">
<rect width="120" height="120" fill="white" transform="translate(0.100006)"/>
</clipPath>
<clipPath id="clip3_8_9134">
<rect width="48" height="48" fill="white" transform="translate(36.1 36)"/>
</clipPath>
<clipPath id="clip4_8_9134">
<rect width="48" height="48" fill="white" transform="translate(36.1 36)"/>
</clipPath>
</defs>
</svg>
