<svg width="32" height="33" viewBox="0 0 32 33" fill="none" xmlns="http://www.w3.org/2000/svg">
<rect y="0.599976" width="32" height="32" rx="16" fill="black"/>
<path fill-rule="evenodd" clip-rule="evenodd" d="M14.0069 10.3474V9.10742H12.8652V10.4699H12.8744V14.6533H12.2527V13.1049H12.2444V11.9724H11.1027V13.1041H10.546V11.9724H9.40436V13.1041H8.85853V11.9724H7.71686V13.1041H7.7002V24.0924H14.6419V19.2091C14.6444 19.2033 14.6527 19.1774 14.6844 19.1483C14.7227 19.1133 14.8444 19.0249 15.1644 19.0249H16.8527C16.9312 19.0378 17.0055 19.0692 17.0694 19.1166C17.1027 19.1433 17.1283 19.1744 17.146 19.2099C17.1627 19.2441 17.1819 19.3016 17.1819 19.3933V24.0933H24.3019V13.1033H24.2894V11.9724H23.1477V13.1041H22.5385V11.9724H21.3969V13.1041H20.826V11.9724H19.6844V13.1041H19.6785V14.6541H18.8735V10.3474H18.8652V9.10742H17.7235V10.3474H17.2135V9.10742H16.0719V10.3474H15.6785V9.10742H14.5369V10.3474H14.0069ZM14.016 11.4891V15.7949H11.111V14.2449H8.84103V22.9516H13.4994V19.1741C13.506 18.9033 13.626 18.5716 13.9077 18.3099C14.2002 18.0399 14.6219 17.8833 15.1635 17.8833H16.9035L16.926 17.8849C17.1627 17.9041 17.4952 17.9966 17.7819 18.2249C18.0902 18.4724 18.3227 18.8616 18.3227 19.3933V22.9516H23.1594V14.2458H20.8194V15.7958H17.731V11.4883L14.016 11.4891Z" fill="white"/>
</svg>
