<svg width="20" height="21" viewBox="0 0 20 21" fill="none" xmlns="http://www.w3.org/2000/svg">
<rect y="0.950012" width="20" height="20" rx="10" fill="#FEE39A"/>
<path fill-rule="evenodd" clip-rule="evenodd" d="M13.4365 8.83001L12.8565 6.80501C12.8475 6.77337 12.8324 6.74381 12.8119 6.71803C12.7915 6.69225 12.7662 6.67075 12.7374 6.65478C12.7087 6.6388 12.6771 6.62865 12.6444 6.62492C12.6117 6.62118 12.5786 6.62393 12.547 6.63301L5.113 8.76151C5.06982 8.77394 5.03078 8.79777 5 8.83051L13.4365 8.83001ZM10.2165 8.08001H12.4415L12.273 7.49151L10.2165 8.08001Z" fill="black"/>
<path fill-rule="evenodd" clip-rule="evenodd" d="M5.75 9.14501V14.5265H14.25V9.14501H5.75ZM5.25 8.39501C5.1837 8.39501 5.12011 8.42135 5.07322 8.46824C5.02634 8.51512 5 8.57871 5 8.64501V15.0265C5 15.0928 5.02634 15.1564 5.07322 15.2033C5.12011 15.2502 5.1837 15.2765 5.25 15.2765H14.75C14.8163 15.2765 14.8799 15.2502 14.9268 15.2033C14.9737 15.1564 15 15.0928 15 15.0265V8.64501C15 8.57871 14.9737 8.51512 14.9268 8.46824C14.8799 8.42135 14.8163 8.39501 14.75 8.39501H5.25Z" fill="black"/>
<path d="M13.4361 11.595C13.4361 11.6705 13.4213 11.7453 13.3924 11.8151C13.3635 11.8848 13.3211 11.9482 13.2677 12.0016C13.2143 12.055 13.1509 12.0973 13.0812 12.1262C13.0114 12.1551 12.9366 12.17 12.8611 12.17C12.7856 12.17 12.7109 12.1551 12.6411 12.1262C12.5713 12.0973 12.5079 12.055 12.4545 12.0016C12.4012 11.9482 12.3588 11.8848 12.3299 11.8151C12.301 11.7453 12.2861 11.6705 12.2861 11.595C12.2861 11.4425 12.3467 11.2963 12.4545 11.1884C12.5624 11.0806 12.7086 11.02 12.8611 11.02C13.0136 11.02 13.1599 11.0806 13.2677 11.1884C13.3756 11.2963 13.4361 11.4425 13.4361 11.595Z" fill="black"/>
</svg>
