<svg width="121" height="120" viewBox="0 0 121 120" fill="none" xmlns="http://www.w3.org/2000/svg">
<rect x="0.0999756" width="120" height="120" rx="60" fill="white"/>
<g opacity="0.1" clip-path="url(#clip0_8_9177)">
<g clip-path="url(#clip1_8_9177)">
<g clip-path="url(#clip2_8_9177)">
<path d="M60.1 1.2373C36.2875 1.2373 15.75 15.4873 6.53748 35.8873L31.7625 46.9248C34.15 45.1623 36.7 43.6248 39.3875 42.3123C39.3875 41.3498 39.575 40.3873 40 39.5123C40.75 37.9498 42.125 36.7373 43.75 36.1873C49 34.4123 54.5 33.4873 60.1 33.4248V33.4123C60.2 33.4123 60.3 33.4123 60.4 33.4123C60.5 33.4123 60.6 33.4123 60.7 33.4123V33.4248C66.3 33.4873 71.7875 34.4123 77.05 36.1873C78.6875 36.7373 80.05 37.9498 80.8 39.5123C81.225 40.3873 81.4125 41.3498 81.4125 42.3123C84.0125 43.5748 86.4875 45.0623 88.8125 46.7498L113.65 35.8873C104.45 15.4873 83.9125 1.2373 60.1 1.2373ZM34.125 27.2123C31.7375 27.2123 29.8 25.2748 29.8 22.8873C29.8 20.4998 31.7375 18.5623 34.125 18.5623C36.5125 18.5623 38.45 20.4998 38.45 22.8873C38.45 25.2748 36.5125 27.2123 34.125 27.2123ZM63.0375 22.1123L60.1 27.9748L57.1625 22.0998L51.2875 19.1623L57.1625 16.2248L60.1 10.3748L63.0375 16.2498L68.9125 19.1873L63.0375 22.1123ZM86.075 27.2123C83.6875 27.2123 81.75 25.2748 81.75 22.8873C81.75 20.4998 83.6875 18.5623 86.075 18.5623C88.4625 18.5623 90.4 20.4998 90.4 22.8873C90.4 25.2748 88.4625 27.2123 86.075 27.2123Z" fill="white"/>
<path d="M60.1 13.1377L58.0875 17.1627L54.0625 19.1752L58.0875 21.1877L60.1 25.2127L62.1125 21.1877L66.1375 19.1752L62.1125 17.1627L60.1 13.1377Z" fill="white"/>
<path d="M43.4625 73.875C45.4 72.85 47.4375 72 49.5375 71.325C49.4875 71.2 49.4125 71.075 49.3625 70.95L39.75 44.5125C39.65 44.225 39.5875 43.925 39.525 43.625C34.6375 46.0625 30.225 49.2875 26.4125 53.2375C24.55 55.175 24.475 58.275 26.25 60.3L37.0875 72.675C38.6875 74.5375 41.3125 75.0125 43.4625 73.875Z" fill="#F2B203"/>
<path d="M64.6625 73.9252C67.1125 74.2627 69.4375 72.8752 70.2875 70.5252L79.9 44.0877C80.375 42.7752 80.3 41.3002 79.7 40.0377C79.1 38.7752 77.9875 37.8002 76.6625 37.3502C71.4375 35.5877 65.9625 34.6752 60.4 34.6377C54.8375 34.6752 49.3625 35.5752 44.1375 37.3502C42.8125 37.8002 41.7125 38.7752 41.1 40.0377C40.4875 41.3002 40.425 42.7752 40.9 44.0877L50.5125 70.5252C51.3625 72.8627 53.6875 74.2627 56.1375 73.9252C57.4375 73.7502 58.7625 73.6502 60.0875 73.6377V73.6127C60.1875 73.6127 60.2875 73.6252 60.3875 73.6252C60.4875 73.6252 60.5875 73.6127 60.6875 73.6127V73.6377C62.0375 73.6502 63.3625 73.7377 64.6625 73.9252Z" fill="#F2B203"/>
<path d="M89.9625 47.6127C91.85 49.0752 93.6375 50.6627 95.3 52.3877C97.25 54.4127 97.6 57.4502 96.35 59.8627L103.225 69.0377C104.35 70.5502 104.95 72.3377 104.95 74.2252C104.95 75.7627 104.537 77.2002 103.837 78.4627L114.187 82.9877C117.2 75.9252 118.875 68.1502 118.875 60.0002C118.875 51.8502 117.2 44.0752 114.187 37.0127L89.9625 47.6127Z" fill="#FFCCCC"/>
<path d="M86.075 25.9748C87.7802 25.9748 89.1625 24.5925 89.1625 22.8873C89.1625 21.1821 87.7802 19.7998 86.075 19.7998C84.3698 19.7998 82.9875 21.1821 82.9875 22.8873C82.9875 24.5925 84.3698 25.9748 86.075 25.9748Z" fill="#FEE39A"/>
<path d="M86.075 100.2C87.7802 100.2 89.1625 98.8176 89.1625 97.1124C89.1625 95.4072 87.7802 94.0249 86.075 94.0249C84.3698 94.0249 82.9875 95.4072 82.9875 97.1124C82.9875 98.8176 84.3698 100.2 86.075 100.2Z" fill="#FEE39A"/>
<path d="M34.125 25.9748C35.8302 25.9748 37.2125 24.5925 37.2125 22.8873C37.2125 21.1821 35.8302 19.7998 34.125 19.7998C32.4198 19.7998 31.0375 21.1821 31.0375 22.8873C31.0375 24.5925 32.4198 25.9748 34.125 25.9748Z" fill="#FEE39A"/>
<path d="M96.2875 82.8873C94.05 82.8873 91.9375 82.0373 90.3125 80.4998L87.4 77.7248C86.1875 76.5748 84.9 75.4998 83.5625 74.5123C82.4625 75.3123 81.15 75.7248 79.8125 75.7248C78.775 75.7248 77.7375 75.4748 76.775 74.9623C74.825 73.9248 72.775 73.0748 70.675 72.4248C69.475 74.1373 67.5 75.2123 65.375 75.2123C65.0875 75.2123 64.7875 75.1873 64.5 75.1498C63.1625 74.9623 61.7875 74.8748 60.4125 74.8623C59.0375 74.8748 57.675 74.9623 56.325 75.1498C56.025 75.1873 55.7375 75.2123 55.45 75.2123C53.3375 75.2123 51.35 74.1498 50.15 72.4248C48.05 73.0748 45.9875 73.9248 44.05 74.9623C43.0875 75.4748 42.0375 75.7248 41.0125 75.7248C39.55 75.7248 38.125 75.2248 36.9625 74.2748C35.5125 75.3248 34.1125 76.4748 32.8125 77.7248L29.9 80.4998C28.2875 82.0373 26.1625 82.8873 23.925 82.8873C21.1375 82.8873 18.6625 81.5623 17.075 79.4998L6.54999 84.1123C15.75 104.512 36.2875 118.762 60.1 118.762C83.9125 118.762 104.45 104.512 113.662 84.1123L103.137 79.4998C101.55 81.5623 99.075 82.8873 96.2875 82.8873ZM34.125 101.437C31.7375 101.437 29.8 99.4998 29.8 97.1123C29.8 94.7248 31.7375 92.7873 34.125 92.7873C36.5125 92.7873 38.45 94.7248 38.45 97.1123C38.45 99.4998 36.5125 101.437 34.125 101.437ZM63.0375 103.762L60.1 109.625L57.1625 103.75L51.2875 100.812L57.1625 97.8748L60.1 91.9998L63.0375 97.8748L68.9125 100.812L63.0375 103.762ZM86.075 101.437C83.6875 101.437 81.75 99.4998 81.75 97.1123C81.75 94.7248 83.6875 92.7873 86.075 92.7873C88.4625 92.7873 90.4 94.7248 90.4 97.1123C90.4125 99.4998 88.4625 101.437 86.075 101.437Z" fill="white"/>
<path d="M60.1 1.2373C36.2875 1.2373 15.75 15.4873 6.53748 35.8873L31.7625 46.9248C34.15 45.1623 36.7 43.6248 39.3875 42.3123C39.3875 41.3498 39.575 40.3873 40 39.5123C40.75 37.9498 42.125 36.7373 43.75 36.1873C49 34.4123 54.5 33.4873 60.1 33.4248V33.4123C60.2 33.4123 60.3 33.4123 60.4 33.4123C60.5 33.4123 60.6 33.4123 60.7 33.4123V33.4248C66.3 33.4873 71.7875 34.4123 77.05 36.1873C78.6875 36.7373 80.05 37.9498 80.8 39.5123C81.225 40.3873 81.4125 41.3498 81.4125 42.3123C84.0125 43.5748 86.4875 45.0623 88.8125 46.7498L113.65 35.8873C104.45 15.4873 83.9125 1.2373 60.1 1.2373ZM34.125 27.2123C31.7375 27.2123 29.8 25.2748 29.8 22.8873C29.8 20.4998 31.7375 18.5623 34.125 18.5623C36.5125 18.5623 38.45 20.4998 38.45 22.8873C38.45 25.2748 36.5125 27.2123 34.125 27.2123ZM63.0375 22.1123L60.1 27.9748L57.1625 22.0998L51.2875 19.1623L57.1625 16.2248L60.1 10.3748L63.0375 16.2498L68.9125 19.1873L63.0375 22.1123ZM86.075 27.2123C83.6875 27.2123 81.75 25.2748 81.75 22.8873C81.75 20.4998 83.6875 18.5623 86.075 18.5623C88.4625 18.5623 90.4 20.4998 90.4 22.8873C90.4 25.2748 88.4625 27.2123 86.075 27.2123Z" fill="#DFD3EE"/>
<path d="M96.2875 82.8873C94.05 82.8873 91.9375 82.0373 90.3125 80.4998L87.4 77.7248C86.1875 76.5748 84.9 75.4998 83.5625 74.5123C82.4625 75.3123 81.15 75.7248 79.8125 75.7248C78.775 75.7248 77.7375 75.4748 76.775 74.9623C74.825 73.9248 72.775 73.0748 70.675 72.4248C69.475 74.1373 67.5 75.2123 65.375 75.2123C65.0875 75.2123 64.7875 75.1873 64.5 75.1498C63.1625 74.9623 61.7875 74.8748 60.4125 74.8623C59.0375 74.8748 57.675 74.9623 56.325 75.1498C56.025 75.1873 55.7375 75.2123 55.45 75.2123C53.3375 75.2123 51.35 74.1498 50.15 72.4248C48.05 73.0748 45.9875 73.9248 44.05 74.9623C43.0875 75.4748 42.0375 75.7248 41.0125 75.7248C39.55 75.7248 38.125 75.2248 36.9625 74.2748C35.5125 75.3248 34.1125 76.4748 32.8125 77.7248L29.9 80.4998C28.2875 82.0373 26.1625 82.8873 23.925 82.8873C21.1375 82.8873 18.6625 81.5623 17.075 79.4998L6.54999 84.1123C15.75 104.512 36.2875 118.762 60.1 118.762C83.9125 118.762 104.45 104.512 113.662 84.1123L103.137 79.4998C101.55 81.5623 99.075 82.8873 96.2875 82.8873ZM34.125 101.437C31.7375 101.437 29.8 99.4998 29.8 97.1123C29.8 94.7248 31.7375 92.7873 34.125 92.7873C36.5125 92.7873 38.45 94.7248 38.45 97.1123C38.45 99.4998 36.5125 101.437 34.125 101.437ZM63.0375 103.762L60.1 109.625L57.1625 103.75L51.2875 100.812L57.1625 97.8748L60.1 91.9998L63.0375 97.8748L68.9125 100.812L63.0375 103.762ZM86.075 101.437C83.6875 101.437 81.75 99.4998 81.75 97.1123C81.75 94.7248 83.6875 92.7873 86.075 92.7873C88.4625 92.7873 90.4 94.7248 90.4 97.1123C90.4125 99.4998 88.4625 101.437 86.075 101.437Z" fill="#DFD3EE"/>
<path d="M15.25 74.2252C15.25 72.3377 15.85 70.5377 16.975 69.0377L24.1875 59.4127L24.2875 59.4877C23.25 57.1377 23.65 54.3127 25.5 52.3877C27.1 50.7252 28.8125 49.1877 30.6125 47.7752L6.02496 37.0127C3.01246 44.0752 1.33746 51.8502 1.33746 60.0002C1.33746 68.1502 3.01246 75.9252 6.02496 82.9877L16.375 78.4627C15.6625 77.2002 15.25 75.7627 15.25 74.2252Z" fill="#FFCCCC"/>
<path d="M34.125 100.2C35.8302 100.2 37.2125 98.8176 37.2125 97.1124C37.2125 95.4072 35.8302 94.0249 34.125 94.0249C32.4198 94.0249 31.0375 95.4072 31.0375 97.1124C31.0375 98.8176 32.4198 100.2 34.125 100.2Z" fill="#FEE39A"/>
<path d="M84.6625 73.5126C84.6125 73.5751 84.55 73.6251 84.5 73.6876C85.8 74.6626 87.0625 75.7126 88.25 76.8376L91.1625 79.6126C92.55 80.9376 94.3625 81.6626 96.2875 81.6626C100.375 81.6626 103.713 78.3376 103.713 74.2376C103.713 72.6251 103.2 71.0876 102.238 69.7876L95.625 60.9751C95.5875 61.0251 95.55 61.0876 95.5 61.1376L84.6625 73.5126Z" fill="#F2B203"/>
<path d="M60.1 94.7876L58.0875 98.8126L54.0625 100.825L58.0875 102.838L60.1 106.863L62.1125 102.838L66.1375 100.825L62.1125 98.8126L60.1 94.7876Z" fill="white"/>
<path d="M24.8875 60.5498L17.9625 69.7748C17 71.0623 16.4875 72.5998 16.4875 74.2248C16.4875 78.3123 19.8125 81.6498 23.9125 81.6498C25.825 81.6498 27.65 80.9248 29.0375 79.5998L31.95 76.8248C33.2375 75.5998 34.625 74.4498 36.05 73.4123L25.3125 61.1373C25.15 60.9498 25.025 60.7498 24.8875 60.5498Z" fill="#F2B203"/>
<path d="M81.2875 43.625C81.225 43.925 81.1625 44.225 81.0625 44.5125L71.45 70.95C71.4 71.0875 71.3375 71.2 71.275 71.325C73.3625 71.9875 75.4 72.8375 77.3375 73.875C79.4875 75.0125 82.1125 74.5375 83.725 72.7L94.5625 60.325C96.3375 58.3 96.2625 55.2 94.4 53.2625C90.6 49.2875 86.1875 46.0625 81.2875 43.625Z" fill="#F2B203"/>
<path d="M60.1 0C27.0125 0 0.0999756 26.9125 0.0999756 60C0.0999756 93.0875 27.0125 120 60.1 120C93.1875 120 120.1 93.0875 120.1 60C120.1 26.9125 93.1875 0 60.1 0ZM60.1 118.763C36.2875 118.763 15.75 104.512 6.53748 84.1125L17.0625 79.5C18.65 81.55 21.125 82.8875 23.9125 82.8875C26.15 82.8875 28.2625 82.0375 29.8875 80.5L32.8 77.725C34.1 76.4875 35.5 75.325 36.95 74.275C38.1125 75.225 39.55 75.725 41 75.725C42.025 75.725 43.075 75.475 44.0375 74.9625C45.9875 73.925 48.0375 73.075 50.1375 72.425C51.3375 74.1375 53.3125 75.2125 55.4375 75.2125C55.725 75.2125 56.025 75.1875 56.3125 75.15C57.65 74.9625 59.025 74.875 60.4 74.8625C61.7625 74.875 63.1375 74.9625 64.4875 75.15C64.7875 75.1875 65.075 75.2125 65.3625 75.2125C67.475 75.2125 69.4625 74.15 70.6625 72.425C72.7625 73.075 74.825 73.925 76.7625 74.9625C77.725 75.475 78.775 75.725 79.8 75.725C81.1375 75.725 82.45 75.3125 83.55 74.5125C84.8875 75.5 86.1875 76.575 87.3875 77.725L90.3 80.5C91.9125 82.0375 94.0375 82.8875 96.275 82.8875C99.0625 82.8875 101.537 81.5625 103.125 79.5L113.65 84.1125C104.45 104.512 83.9125 118.763 60.1 118.763ZM39.75 44.5125L49.3625 70.95C49.4125 71.0875 49.475 71.2 49.5375 71.325C47.45 71.9875 45.4 72.8375 43.4625 73.875C41.3125 75.025 38.6875 74.5375 37.075 72.7L26.2375 60.325C24.4625 58.3 24.5375 55.1875 26.4 53.2625C30.2125 49.3125 34.625 46.075 39.5125 43.65C39.5875 43.925 39.6375 44.225 39.75 44.5125ZM60.4 34.65C65.9625 34.6875 71.4375 35.5875 76.6625 37.3625C77.9875 37.8125 79.0875 38.7875 79.7 40.05C80.3125 41.3125 80.375 42.7875 79.9 44.1L70.2875 70.5375C69.4375 72.875 67.1125 74.275 64.6625 73.9375C63.3625 73.7625 62.0375 73.6625 60.7125 73.65V73.625C60.6125 73.625 60.5125 73.6375 60.4125 73.6375C60.3125 73.6375 60.2125 73.625 60.1125 73.625V73.65C58.7875 73.675 57.4625 73.7625 56.1625 73.9375C53.7 74.275 51.3875 72.8875 50.5375 70.5375L40.925 44.1C40.45 42.7875 40.525 41.3125 41.125 40.05C41.725 38.7875 42.8375 37.8125 44.1625 37.3625C49.375 35.5875 54.8375 34.675 60.4 34.65ZM81.0625 44.5125C81.1625 44.225 81.225 43.925 81.2875 43.625C86.175 46.0625 90.6 49.2875 94.4 53.2375C96.2625 55.175 96.3375 58.275 94.5625 60.3L83.725 72.675C82.1125 74.5125 79.4875 75 77.3375 73.85C75.4 72.825 73.3625 71.975 71.275 71.3C71.325 71.175 71.4 71.05 71.45 70.925L81.0625 44.5125ZM96.2875 81.65C94.375 81.65 92.55 80.925 91.1625 79.6L88.25 76.825C87.0625 75.7 85.8 74.65 84.5 73.675C84.55 73.6125 84.6125 73.5625 84.6625 73.5L95.5 61.125C95.55 61.075 95.575 61.0125 95.625 60.9625L102.237 69.775C103.2 71.0625 103.712 72.6 103.712 74.225C103.712 78.325 100.375 81.65 96.2875 81.65ZM16.4875 74.225C16.4875 72.6125 17 71.075 17.9625 69.775L24.8875 60.55C25.025 60.75 25.15 60.95 25.3 61.1375L36.0375 73.4125C34.6 74.4625 33.225 75.6 31.9375 76.825L29.025 79.6C27.6375 80.925 25.825 81.65 23.9 81.65C19.825 81.65 16.4875 78.325 16.4875 74.225ZM6.02498 37.0125L30.6375 47.775C28.8375 49.1875 27.125 50.725 25.525 52.3875C23.675 54.3125 23.275 57.1375 24.3125 59.4875L24.2125 59.4125L17 69.0375C15.875 70.55 15.275 72.3375 15.275 74.225C15.275 75.7625 15.6875 77.2 16.3875 78.4625L6.03748 82.9875C3.01248 75.925 1.33748 68.15 1.33748 60C1.33748 51.85 3.01248 44.075 6.02498 37.0125ZM114.175 82.9875L103.825 78.4625C104.525 77.2125 104.937 75.7625 104.937 74.225C104.937 72.3375 104.337 70.5375 103.212 69.0375L96.3375 59.8625C97.5875 57.45 97.2375 54.4125 95.2875 52.3875C93.625 50.65 91.8375 49.0625 89.95 47.6125L114.175 37.0125C117.187 44.075 118.862 51.85 118.862 60C118.862 68.15 117.187 75.925 114.175 82.9875ZM88.825 46.75C86.5 45.0625 84.025 43.575 81.425 42.3125C81.425 41.35 81.2375 40.3875 80.8125 39.5125C80.0625 37.95 78.6875 36.7375 77.0625 36.1875C71.8 34.4125 66.3125 33.4875 60.7125 33.425V33.4125C60.6125 33.4125 60.5125 33.4125 60.4125 33.4125C60.3125 33.4125 60.2125 33.4125 60.1125 33.4125V33.425C54.5125 33.4875 49.0125 34.4125 43.7625 36.1875C42.125 36.7375 40.7625 37.95 40.0125 39.5125C39.5875 40.3875 39.4 41.35 39.4 42.3125C36.7125 43.6125 34.1625 45.1625 31.775 46.925L6.53748 35.8875C15.75 15.4875 36.2875 1.2375 60.1 1.2375C83.9125 1.2375 104.45 15.4875 113.662 35.8875L88.825 46.75Z" fill="black"/>
<path d="M60.1 10.375L57.1625 16.25L51.2875 19.1875L57.1625 22.125L60.1 28L63.0375 22.125L68.9125 19.1875L63.0375 16.25L60.1 10.375ZM62.1125 21.1875L60.1 25.2125L58.0875 21.1875L54.0625 19.175L58.0875 17.1625L60.1 13.1375L62.1125 17.1625L66.1375 19.175L62.1125 21.1875Z" fill="black"/>
<path d="M86.075 18.5625C83.6875 18.5625 81.75 20.5 81.75 22.8875C81.75 25.275 83.6875 27.2125 86.075 27.2125C88.4625 27.2125 90.4 25.275 90.4 22.8875C90.4 20.5 88.4625 18.5625 86.075 18.5625ZM86.075 25.975C84.375 25.975 82.9875 24.5875 82.9875 22.8875C82.9875 21.1875 84.375 19.8 86.075 19.8C87.775 19.8 89.1625 21.1875 89.1625 22.8875C89.1625 24.5875 87.7875 25.975 86.075 25.975Z" fill="black"/>
<path d="M34.125 18.5625C31.7375 18.5625 29.8 20.5 29.8 22.8875C29.8 25.275 31.7375 27.2125 34.125 27.2125C36.5125 27.2125 38.45 25.275 38.45 22.8875C38.45 20.5 36.5125 18.5625 34.125 18.5625ZM34.125 25.975C32.425 25.975 31.0375 24.5875 31.0375 22.8875C31.0375 21.1875 32.425 19.8 34.125 19.8C35.825 19.8 37.2125 21.1875 37.2125 22.8875C37.2125 24.5875 35.825 25.975 34.125 25.975Z" fill="black"/>
<path d="M60.1 92.0249L57.1625 97.8999L51.2875 100.837L57.1625 103.775L60.1 109.625L63.0375 103.75L68.9125 100.812L63.0375 97.8749L60.1 92.0249ZM62.1125 102.837L60.1 106.862L58.0875 102.837L54.0625 100.825L58.0875 98.8124L60.1 94.7874L62.1125 98.8124L66.1375 100.825L62.1125 102.837Z" fill="black"/>
<path d="M34.125 92.7876C31.7375 92.7876 29.8 94.7251 29.8 97.1126C29.8 99.5001 31.7375 101.438 34.125 101.438C36.5125 101.438 38.45 99.5001 38.45 97.1126C38.45 94.7251 36.5125 92.7876 34.125 92.7876ZM34.125 100.2C32.425 100.2 31.0375 98.8126 31.0375 97.1126C31.0375 95.4126 32.425 94.0251 34.125 94.0251C35.825 94.0251 37.2125 95.4126 37.2125 97.1126C37.2125 98.8126 35.825 100.2 34.125 100.2Z" fill="black"/>
<path d="M86.075 92.7876C83.6875 92.7876 81.75 94.7251 81.75 97.1126C81.75 99.5001 83.6875 101.438 86.075 101.438C88.4625 101.438 90.4 99.5001 90.4 97.1126C90.4125 94.7251 88.4625 92.7876 86.075 92.7876ZM86.075 100.2C84.375 100.2 82.9875 98.8126 82.9875 97.1126C82.9875 95.4126 84.375 94.0251 86.075 94.0251C87.775 94.0251 89.1625 95.4126 89.1625 97.1126C89.175 98.8126 87.7875 100.2 86.075 100.2Z" fill="black"/>
</g>
</g>
</g>
<g opacity="0.5" clip-path="url(#clip3_8_9177)">
<g clip-path="url(#clip4_8_9177)">
<path fill-rule="evenodd" clip-rule="evenodd" d="M48.6584 52.5H48.0997C46.1665 52.5 44.6 54.0672 44.6 56V74C44.6 75.933 46.167 77.5 48.1 77.5H72.1C74.033 77.5 75.6 75.933 75.6 74V56C75.6 54.0672 74.0334 52.5 72.1002 52.5H71.5416C71.3268 49.7649 70.5114 47.0461 68.941 44.8718C67.0416 42.2417 64.0944 40.5 60.1 40.5C56.1056 40.5 53.1584 42.2417 51.259 44.8718C49.6886 47.0461 48.8732 49.7649 48.6584 52.5ZM51.6692 52.5H68.5308C68.323 50.2771 67.6482 48.2056 66.509 46.6282C65.1584 44.7583 63.1056 43.5 60.1 43.5C57.0944 43.5 55.0415 44.7583 53.691 46.6282C52.5518 48.2056 51.8769 50.2771 51.6692 52.5ZM48.0997 55.5C47.8238 55.5 47.6 55.7236 47.6 56V74C47.6 74.2762 47.8238 74.5 48.1 74.5H72.1C72.3762 74.5 72.6 74.2762 72.6 74V56C72.6 55.7236 72.3762 55.5 72.1002 55.5H48.0997ZM58.6 69V61H61.6V69H58.6Z" fill="black"/>
</g>
</g>
<defs>
<clipPath id="clip0_8_9177">
<rect width="120" height="120" fill="white" transform="translate(0.0999756)"/>
</clipPath>
<clipPath id="clip1_8_9177">
<rect width="120" height="120" fill="white" transform="translate(0.0999756)"/>
</clipPath>
<clipPath id="clip2_8_9177">
<rect width="120" height="120" fill="white" transform="translate(0.0999756)"/>
</clipPath>
<clipPath id="clip3_8_9177">
<rect width="48" height="48" fill="white" transform="translate(36.1 36)"/>
</clipPath>
<clipPath id="clip4_8_9177">
<rect width="48" height="48" fill="white" transform="translate(36.1 36)"/>
</clipPath>
</defs>
</svg>
