<svg width="121" height="121" viewBox="0 0 121 121" fill="none" xmlns="http://www.w3.org/2000/svg">
<rect x="0.0999985" y="0.200195" width="120" height="120" rx="60" fill="white"/>
<g opacity="0.1" clip-path="url(#clip0_8_8861)">
<g clip-path="url(#clip1_8_8861)">
<g clip-path="url(#clip2_8_8861)">
<path d="M71.2 49.6877C69.9625 49.6877 68.85 49.1627 68.0625 48.3252C67.9375 53.2002 67.525 57.8627 66.8375 61.9627L64.75 74.4377H67.5375L71.8125 61.6752C73.1375 57.7127 73.9375 53.2002 74.1875 48.4752C73.3873 49.2527 72.3157 49.6877 71.2 49.6877ZM66.0875 17.4377C71.6375 22.0502 75.5375 32.8252 75.5375 45.3627C75.5375 47.0627 76.925 48.4502 78.625 48.4502C80.325 48.4502 81.7125 47.0627 81.7125 45.3627C81.725 32.1252 75.1 20.9377 66.0875 17.4377Z" fill="#00AA6C"/>
<path d="M65.6375 61.7502C66.3125 57.7502 66.7125 53.1877 66.8375 48.4252C66.05 49.2002 64.975 49.6877 63.7875 49.6877C63.211 49.6884 62.6402 49.5725 62.1096 49.347C61.579 49.1214 61.0995 48.7909 60.7 48.3752V74.4252H63.525L65.6375 61.7502ZM55.375 74.4252L53.2875 61.9502C52.6 57.8627 52.1875 53.2002 52.075 48.3252C51.2875 49.1627 50.175 49.6877 48.9375 49.6877C47.775 49.6877 46.7125 49.2127 45.9375 48.4627C46.1875 53.1877 46.9875 57.7002 48.3125 61.6627L52.5875 74.4252H55.375Z" fill="#34E0A1"/>
<path d="M59.45 74.4252V48.3752C59.0487 48.7886 58.5689 49.1177 58.0387 49.3431C57.5085 49.5684 56.9386 49.6856 56.3625 49.6877C55.175 49.6877 54.1 49.2002 53.3125 48.4252C53.4375 53.1877 53.8375 57.7502 54.5125 61.7502L56.6375 74.4252H59.45Z" fill="#00AA6C"/>
<path d="M78.0375 61.5751C80.0125 57.6501 81.2125 53.1751 81.5875 48.5001C80.7894 49.2528 79.7345 49.6729 78.6375 49.6751C77.375 49.6751 76.2625 49.1251 75.4625 48.2751C75.225 53.2001 74.3875 57.9126 73.0125 62.0501L68.8625 74.4251H71.5875L78.0375 61.5751Z" fill="#34E0A1"/>
<path d="M29.4125 74.4251C29.65 73.3752 29.7625 72.3376 29.7625 71.3376C29.7625 63.4876 23.375 57.1126 15.5375 57.1126C15.225 57.1126 14.925 57.1376 14.625 57.1626L14.125 57.2001L13.8625 56.7252C12.2125 51.1502 8.675 46.3251 3.875 43.0251C2.2125 48.4501 1.3125 54.2251 1.3125 60.2001C1.3121 64.9955 1.89982 69.7729 3.0625 74.4251H29.4125Z" fill="white"/>
<path d="M97.8 37.9377C97.8 45.7877 104.187 52.1627 112.025 52.1627C114.15 52.1627 116.175 51.6877 118.063 50.8002C116.5 41.1002 112.55 32.2002 106.837 24.7002C101.425 26.8127 97.8 32.0752 97.8 37.9377Z" fill="#F2B203"/>
<path d="M45.85 45.3501C45.85 47.0501 47.2375 48.4376 48.9375 48.4376C50.6375 48.4376 52.025 47.0501 52.025 45.3501C52.025 33.6876 53.8 21.4501 57.15 16.9001C50.7 19.6626 45.85 31.3626 45.85 45.3501Z" fill="#00AA6C"/>
<path d="M71.2 48.4501C72.9 48.4501 74.2875 47.0626 74.2875 45.3626C74.2875 31.3751 69.425 19.6626 62.975 16.9126C66.325 21.4626 68.1 33.7001 68.1 45.3626C68.1066 46.1816 68.4357 46.965 69.016 47.5429C69.5963 48.1209 70.381 48.4468 71.2 48.4501ZM38.425 45.3501C38.425 47.0501 39.8125 48.4376 41.5125 48.4376C43.2125 48.4376 44.6 47.0501 44.6 45.3501C44.6 32.8126 48.5 22.0376 54.05 17.4251C45.0375 20.9376 38.425 32.1251 38.425 45.3501Z" fill="#34E0A1"/>
<path d="M63.7875 48.4502C65.4875 48.4502 66.875 47.0627 66.875 45.3627C66.875 29.3252 63.7375 17.8377 60.6875 16.4377V45.3627C60.6908 46.1827 61.0189 46.968 61.5999 47.5467C62.1809 48.1254 62.9675 48.4502 63.7875 48.4502ZM44.6875 48.2752C44.2855 48.7176 43.7953 49.0707 43.2484 49.3119C42.7016 49.553 42.1102 49.6768 41.5125 49.6752C40.4155 49.673 39.3606 49.2529 38.5625 48.5002C38.9375 53.1752 40.1375 57.6502 42.1125 61.5752L48.5625 74.4252H51.2875L47.1375 62.0502C45.75 57.9127 44.925 53.2002 44.6875 48.2752Z" fill="#00AA6C"/>
<path d="M56.325 85.5753C56.7 86.6878 56.9125 87.9628 56.9625 89.2753H63.2C63.25 87.9503 63.4625 86.6878 63.8375 85.5753L67.15 75.6753H53L56.325 85.5753Z" fill="#DFD3EE"/>
<path d="M82.8375 48.2378C82.4875 53.2003 81.225 57.9628 79.1375 62.1378L72.9625 74.4253H75.5875L84.2375 61.5128C86.85 57.6128 88.4375 53.1878 88.9375 48.5503C88.1625 49.2503 87.1625 49.6878 86.0375 49.6878C84.775 49.6878 83.6375 49.1128 82.8375 48.2378Z" fill="#00AA6C"/>
<path d="M55.15 85.9626L51.7 75.6626H45.375L51.9125 85.4251C52.6875 86.5751 53.1125 87.9001 53.225 89.2751H55.725C55.6625 88.0876 55.475 86.9501 55.15 85.9626Z" fill="#DFD3EE"/>
<path d="M69.9375 18.0127C77.6375 22.9002 82.9625 33.3252 82.9625 45.3627C82.9625 47.0627 84.35 48.4502 86.05 48.4502C87.75 48.4502 89.1375 47.0627 89.1375 45.3627C89.1375 32.7877 81.125 22.0502 69.9375 18.0127Z" fill="#34E0A1"/>
<path d="M53.2625 101.025C53.2625 102.725 54.65 104.113 56.35 104.113H63.775C65.475 104.113 66.8625 102.725 66.8625 101.025V90.5127H53.2625V101.025Z" fill="#8E6500"/>
<path d="M41 62.1378C38.9 57.9628 37.65 53.2128 37.3 48.2378C36.5125 49.1253 35.375 49.6878 34.0875 49.6878C32.975 49.6878 31.9625 49.2503 31.1875 48.5503C31.7 53.1878 33.2875 57.6128 35.8875 61.5128L44.5375 74.4253H47.1625L41 62.1378Z" fill="#34E0A1"/>
<path d="M34.0875 48.4502C35.7875 48.4502 37.175 47.0627 37.175 45.3627C37.175 33.3252 42.5 22.9002 50.2 18.0127C39.0125 22.0627 30.9875 32.7877 30.9875 45.3627C30.9941 46.1817 31.3232 46.9651 31.9035 47.543C32.4838 48.121 33.2685 48.4469 34.0875 48.4502Z" fill="#00AA6C"/>
<path d="M65 85.9626C64.675 86.9501 64.475 88.0876 64.425 89.2751H66.925C67.025 87.9001 67.4625 86.5751 68.2375 85.4251L74.775 75.6626H68.45L65 85.9626Z" fill="#DFD3EE"/>
<path d="M118.625 64.9001L118.787 61.7626L118.8 61.4751C113.25 63.0251 108.725 67.3001 106.875 72.7876L106.638 73.4751L105.987 73.1376C104.526 72.3576 102.894 71.9538 101.238 71.9626C96.25 71.9626 92.0375 75.5376 91.225 80.4626L91.05 81.5001L90.225 80.8501C89.0125 79.9001 87.5625 79.3876 86.025 79.3876C84.2225 79.3909 82.4949 80.1084 81.2203 81.3829C79.9458 82.6575 79.2283 84.3851 79.225 86.1876C79.225 87.2626 79.4875 88.3251 79.975 89.2751H111.1C111.2 89.1001 111.313 88.9251 111.413 88.7376L112.513 86.6751L112.912 85.8876C113.415 84.8665 113.882 83.8284 114.313 82.7751C114.338 82.7251 114.35 82.6626 114.375 82.6126C114.8 81.5876 115.188 80.5501 115.55 79.5001C115.6 79.3751 115.637 79.2501 115.675 79.1251C116.025 78.0751 116.362 77.0251 116.65 75.9626C116.662 75.9126 116.675 75.8626 116.687 75.8251C117.637 72.3751 118.262 68.8501 118.575 65.2751C118.608 65.1529 118.625 65.0268 118.625 64.9001Z" fill="white"/>
<path d="M56.3625 48.4503C58.0625 48.4503 59.45 47.0628 59.45 45.3628V16.4253C56.4125 17.8253 53.2625 29.3128 53.2625 45.3503C53.2625 46.1725 53.5891 46.961 54.1705 47.5423C54.7518 48.1237 55.5403 48.4503 56.3625 48.4503Z" fill="#34E0A1"/>
<path d="M118.325 52.0627C116.362 52.9252 114.275 53.4002 112.1 53.4002C108.001 53.3936 104.072 51.7624 101.174 48.8641C98.2753 45.9657 96.6441 42.0366 96.6375 37.9377C96.6375 31.6877 100.413 26.0752 106.125 23.6752C95.35 10.1377 78.7375 1.43774 60.1375 1.43774C34.1625 1.43774 12.0875 18.3752 4.35 41.7877C9.4 45.1627 13.15 50.1252 14.975 55.8877C15.2 55.8752 15.4 55.8627 15.6 55.8627C19.6989 55.8694 23.628 57.5006 26.5263 60.3989C29.4247 63.2973 31.0559 67.2264 31.0625 71.3252C31.0625 72.5877 30.8875 73.8877 30.5625 75.1877L30.4375 75.6502H3.45C10.2625 100.575 33.0875 118.95 60.1375 118.95C81.4625 118.95 100.163 107.538 110.462 90.5002H79.3375L79.1625 90.2002C78.45 88.9753 78.075 87.5877 78.075 86.1752C78.0783 84.0446 78.9262 82.0021 80.4328 80.4955C81.9394 78.9889 83.9818 78.141 86.1125 78.1377C87.5807 78.1334 89.0215 78.5358 90.275 79.3002C91.5375 74.2627 96.0375 70.7127 101.313 70.7127C102.93 70.7071 104.529 71.0525 106 71.7252C107.078 68.9149 108.81 66.4021 111.054 64.3955C113.297 62.3889 115.987 60.9464 118.9 60.1877C118.9 57.4252 118.688 54.7252 118.325 52.0627ZM85.3375 62.2002L69.325 86.1127C68.5756 87.2291 68.1752 88.5432 68.175 89.8877V101.025C68.175 101.593 68.0631 102.156 67.8458 102.68C67.6284 103.205 67.3099 103.682 66.9082 104.083C66.5066 104.485 66.0298 104.804 65.5051 105.021C64.9804 105.238 64.418 105.35 63.85 105.35H56.425C55.2779 105.35 54.1779 104.895 53.3668 104.083C52.5557 103.272 52.1 102.172 52.1 101.025V89.8877C52.1 88.5378 51.7 87.2253 50.95 86.1127L34.9375 62.2002C31.6 57.2127 29.825 51.3877 29.825 45.3502C29.825 28.6377 43.425 15.0377 60.1375 15.0377C76.85 15.0377 90.45 28.6377 90.45 45.3502C90.45 51.3877 88.675 57.2127 85.3375 62.2002Z" fill="#DFD3EE"/>
<path d="M90.375 45.3502C90.375 28.6377 76.775 15.0377 60.0625 15.0377C43.35 15.0377 29.7625 28.6377 29.7625 45.3502C29.7625 51.3752 31.525 57.2002 34.875 62.2002L50.8875 86.1127C51.6369 87.229 52.0373 88.5431 52.0375 89.8877V101.025C52.0375 102.172 52.4932 103.272 53.3043 104.083C54.1154 104.895 55.2154 105.35 56.3625 105.35H63.7875C64.9346 105.35 66.0346 104.895 66.8457 104.083C67.6568 103.272 68.1125 102.172 68.1125 101.025V89.8877C68.1125 88.5377 68.5125 87.2252 69.2625 86.1127L85.275 62.2002C88.6125 57.2127 90.375 51.3877 90.375 45.3502ZM89.1375 45.3502C89.1375 47.0502 87.75 48.4377 86.05 48.4377C84.35 48.4377 82.9625 47.0502 82.9625 45.3502C82.9625 33.3127 77.6375 22.8877 69.9375 18.0002C81.125 22.0502 89.1375 32.7877 89.1375 45.3502ZM68.8625 74.4252L73.0125 62.0502C74.4 57.9127 75.225 53.2002 75.4625 48.2752C75.8644 48.7175 76.3547 49.0707 76.9016 49.3118C77.4484 49.553 78.0398 49.6768 78.6375 49.6752C79.7345 49.673 80.7894 49.2528 81.5875 48.5002C81.2125 53.1752 80.0125 57.6502 78.0375 61.5752L71.5875 74.4252H68.8625ZM63.1875 89.2752H56.95C56.9 87.9502 56.6875 86.6877 56.3125 85.5752L53 75.6752H67.1375L63.825 85.5752C63.45 86.6752 63.2375 87.9502 63.1875 89.2752ZM48.5625 74.4252L42.1125 61.5752C40.1375 57.6502 38.9375 53.1752 38.5625 48.5002C39.3606 49.2528 40.4155 49.673 41.5125 49.6752C42.775 49.6752 43.8875 49.1252 44.6875 48.2752C44.925 53.2002 45.7625 57.9127 47.1375 62.0502L51.2875 74.4252H48.5625ZM60.6875 74.4252V48.3752C61.0888 48.7886 61.5686 49.1176 62.0988 49.343C62.629 49.5684 63.1989 49.6856 63.775 49.6877C64.9625 49.6877 66.0375 49.2002 66.825 48.4252C66.7 53.1877 66.3 57.7502 65.625 61.7502L63.5 74.4252H60.6875ZM56.625 74.4252L54.5 61.7502C53.825 57.7502 53.425 53.1877 53.3 48.4252C54.0875 49.2002 55.1625 49.6877 56.35 49.6877C56.9265 49.6884 57.4973 49.5725 58.0279 49.347C58.5585 49.1214 59.038 48.7909 59.4375 48.3752V74.4252H56.625ZM59.45 45.3502C59.45 47.0502 58.0625 48.4377 56.3625 48.4377C54.6625 48.4377 53.275 47.0502 53.275 45.3502C53.275 29.3127 56.4125 17.8252 59.4625 16.4252V45.3502H59.45ZM60.6875 16.4252C63.725 17.8252 66.875 29.3127 66.875 45.3502C66.875 47.0502 65.4875 48.4377 63.7875 48.4377C62.0875 48.4377 60.7 47.0502 60.7 45.3502V16.4252H60.6875ZM52.025 45.3502C52.025 47.0502 50.6375 48.4377 48.9375 48.4377C47.2375 48.4377 45.85 47.0502 45.85 45.3502C45.85 31.3627 50.7125 19.6502 57.1625 16.9002C53.8125 21.4502 52.025 33.6877 52.025 45.3502ZM62.9875 16.9002C69.4375 19.6627 74.3 31.3627 74.3 45.3502C74.3 47.0502 72.9125 48.4377 71.2125 48.4377C69.5125 48.4377 68.125 47.0502 68.125 45.3502C68.1125 33.6877 66.3375 21.4502 62.9875 16.9002ZM66.0875 17.4377C75.1 20.9377 81.725 32.1252 81.725 45.3502C81.725 47.0502 80.3375 48.4377 78.6375 48.4377C76.9375 48.4377 75.55 47.0502 75.55 45.3502C75.5375 32.8252 71.6375 22.0377 66.0875 17.4377ZM44.6125 45.3502C44.6125 47.0502 43.225 48.4377 41.525 48.4377C39.825 48.4377 38.4375 47.0502 38.4375 45.3502C38.4375 32.1252 45.05 20.9377 54.075 17.4252C48.5125 22.0377 44.6125 32.8252 44.6125 45.3502ZM48.3125 61.6627C46.9875 57.7002 46.1875 53.1877 45.9375 48.4627C46.7125 49.2127 47.775 49.6877 48.9375 49.6877C50.175 49.6877 51.2875 49.1627 52.075 48.3252C52.2 53.2002 52.6125 57.8627 53.2875 61.9627L55.375 74.4377H52.5875L48.3125 61.6627ZM64.7625 74.4252L66.85 61.9502C67.5375 57.8502 67.95 53.1877 68.075 48.3127C68.8625 49.1502 69.975 49.6752 71.2125 49.6752C72.375 49.6752 73.4375 49.2002 74.2125 48.4502C73.9625 53.1752 73.1625 57.6877 71.8375 61.6502L67.5625 74.4127H64.7625V74.4252ZM50.2125 18.0127C42.5125 22.9002 37.1875 33.3252 37.1875 45.3627C37.1875 47.0627 35.8 48.4502 34.1 48.4502C32.4 48.4502 31.0125 47.0627 31.0125 45.3627C31 32.7877 39.025 22.0502 50.2125 18.0127ZM31.1875 48.5502C31.9625 49.2502 32.9625 49.6877 34.0875 49.6877C35.3625 49.6877 36.5 49.1252 37.3 48.2377C37.65 53.2002 38.9125 57.9627 41 62.1377L47.175 74.4252H44.55L35.9 61.5127C33.2875 57.6127 31.7 53.1877 31.1875 48.5502ZM51.9125 85.4252L45.375 75.6627H51.7L55.15 85.9627C55.475 86.9502 55.675 88.0877 55.725 89.2752H53.225C53.1125 87.9002 52.6875 86.5752 51.9125 85.4252ZM66.875 101.025C66.875 102.725 65.4875 104.113 63.7875 104.113H56.3625C54.6625 104.113 53.275 102.725 53.275 101.025V90.5127H66.8875V101.025H66.875ZM68.225 85.4252C67.45 86.5752 67.025 87.9002 66.9125 89.2752H64.4125C64.4625 88.0877 64.65 86.9502 64.9875 85.9627L68.4375 75.6627H74.7625L68.225 85.4252ZM75.6 74.4252H72.975L79.15 62.1377C81.25 57.9627 82.5 53.2127 82.85 48.2377C83.6375 49.1252 84.775 49.6877 86.0625 49.6877C87.175 49.6877 88.1875 49.2502 88.9625 48.5502C88.45 53.1877 86.8625 57.6127 84.2625 61.5127L75.6 74.4252ZM120.1 59.8877C119.925 26.9502 93.075 0.200195 60.1 0.200195C27.0125 0.200195 0.0999985 27.1127 0.0999985 60.2002C0.0999985 93.2877 27.0125 120.2 60.1 120.2C82.1375 120.2 101.412 108.25 111.85 90.5127H111.875L112.05 90.2002C112.175 89.9877 112.275 89.7752 112.388 89.5752C112.787 88.861 113.175 88.1401 113.55 87.4127L113.987 86.5502C114.514 85.4769 115.01 84.3889 115.475 83.2877C115.488 83.2752 115.487 83.2502 115.5 83.2377C115.961 82.1165 116.39 80.9827 116.787 79.8377C116.837 79.7127 116.875 79.5752 116.925 79.4502C117.312 78.3002 117.675 77.1502 117.987 75.9877C118.65 73.5252 119.175 71.0252 119.525 68.4627C119.537 68.4127 119.537 68.3627 119.537 68.3127C119.7 67.1502 119.812 65.9752 119.912 64.8127L119.95 64.3627C120.044 62.9771 120.094 61.5889 120.1 60.2002C120.1 60.1127 120.1 60.0252 120.087 59.9502L120.1 59.8877ZM60.1 118.963C33.05 118.963 10.225 100.588 3.4125 75.6627H30.4L30.525 75.2002C30.8546 73.9391 31.0226 72.6412 31.025 71.3377C31.0184 67.2388 29.3872 63.3097 26.4888 60.4114C23.5905 57.513 19.6614 55.8818 15.5625 55.8752C15.3625 55.8752 15.1625 55.8877 14.9375 55.9002C13.1044 50.1276 9.35612 45.1535 4.3125 41.8002C12.05 18.3752 34.125 1.4377 60.1 1.4377C78.7 1.4377 95.3125 10.1377 106.088 23.6752C100.375 26.0752 96.6 31.6877 96.6 37.9377C96.6066 42.0366 98.2378 45.9657 101.136 48.864C104.035 51.7624 107.964 53.3936 112.062 53.4002C114.237 53.4002 116.325 52.9377 118.287 52.0627C118.663 54.7252 118.863 57.4377 118.863 60.1877C115.951 60.9483 113.262 62.3914 111.018 64.3978C108.775 66.4041 107.042 68.9159 105.963 71.7252C104.492 71.0525 102.892 70.707 101.275 70.7127C96 70.7127 91.5 74.2752 90.2375 79.3002C88.984 78.5358 87.5432 78.1334 86.075 78.1377C83.9443 78.141 81.9019 78.9889 80.3953 80.4955C78.8887 82.0021 78.0408 84.0445 78.0375 86.1752C78.0396 87.5892 78.4148 88.9775 79.125 90.2002L79.3 90.5127H110.425C100.125 107.55 81.425 118.963 60.1 118.963ZM1.3375 60.2002C1.3375 54.2252 2.2375 48.4502 3.9125 43.0127C8.7125 46.3127 12.25 51.1377 13.9 56.7127L14.1625 57.1877L14.6625 57.1502C14.9625 57.1252 15.2625 57.1002 15.575 57.1002C23.425 57.1002 29.8 63.4877 29.8 71.3252C29.8 72.3377 29.675 73.3752 29.45 74.4127H3.0875C1.95 69.8752 1.3375 65.1002 1.3375 60.2002ZM118.1 50.8002C116.2 51.6877 114.175 52.1627 112.062 52.1627C104.213 52.1627 97.8375 45.7752 97.8375 37.9377C97.8375 32.0752 101.463 26.8252 106.887 24.7002C112.588 32.1877 116.537 41.1002 118.1 50.8002ZM111.138 89.2752H80.025C79.5375 88.3127 79.275 87.2502 79.275 86.1877C79.2783 84.3852 79.9958 82.6575 81.2703 81.383C82.5449 80.1085 84.2725 79.391 86.075 79.3877C87.6125 79.3877 89.0625 79.8877 90.275 80.8502L91.1 81.5002L91.275 80.4627C92.0875 75.5377 96.3 71.9627 101.287 71.9627C102.962 71.9627 104.55 72.3627 106.037 73.1377L106.687 73.4752L106.925 72.7877C108.775 67.3002 113.3 63.0252 118.85 61.4752C118.85 61.5752 118.85 61.6752 118.837 61.7627C118.812 62.8127 118.75 63.8627 118.675 64.9002C118.662 65.0127 118.662 65.1377 118.65 65.2502C118.337 68.8252 117.713 72.3627 116.763 75.8002C116.75 75.8502 116.738 75.9002 116.725 75.9377C116.426 76.9998 116.101 78.0543 115.75 79.1002C115.712 79.2252 115.662 79.3502 115.625 79.4752C115.262 80.5252 114.863 81.5627 114.45 82.5877C114.425 82.6377 114.412 82.7002 114.387 82.7502C113.95 83.8002 113.475 84.8377 112.987 85.8627C112.862 86.1252 112.712 86.3877 112.587 86.6502C112.241 87.3481 111.874 88.0359 111.487 88.7127C111.338 88.9127 111.238 89.0877 111.138 89.2752Z" fill="black"/>
</g>
</g>
</g>
<g opacity="0.5" clip-path="url(#clip3_8_8861)">
<g clip-path="url(#clip4_8_8861)">
<path fill-rule="evenodd" clip-rule="evenodd" d="M48.6585 52.7002H48.0998C46.1665 52.7002 44.6 54.2674 44.6 56.2002V74.2002C44.6 76.1332 46.167 77.7002 48.1 77.7002H72.1C74.033 77.7002 75.6 76.1332 75.6 74.2002V56.2002C75.6 54.2674 74.0334 52.7002 72.1002 52.7002H71.5416C71.3268 49.9651 70.5114 47.2463 68.941 45.072C67.0416 42.4419 64.0944 40.7002 60.1 40.7002C56.1056 40.7002 53.1585 42.4419 51.259 45.072C49.6886 47.2463 48.8732 49.9651 48.6585 52.7002ZM51.6692 52.7002H68.5308C68.323 50.4773 67.6482 48.4058 66.509 46.8284C65.1584 44.9585 63.1056 43.7002 60.1 43.7002C57.0944 43.7002 55.0415 44.9585 53.691 46.8284C52.5518 48.4058 51.8769 50.4773 51.6692 52.7002ZM48.0998 55.7002C47.8239 55.7002 47.6 55.9238 47.6 56.2002V74.2002C47.6 74.4764 47.8239 74.7002 48.1 74.7002H72.1C72.3762 74.7002 72.6 74.4764 72.6 74.2002V56.2002C72.6 55.9238 72.3762 55.7002 72.1002 55.7002H48.0998ZM58.6 69.2002V61.2002H61.6V69.2002H58.6Z" fill="black"/>
</g>
</g>
<defs>
<clipPath id="clip0_8_8861">
<rect width="120" height="120" fill="white" transform="translate(0.0999985 0.200195)"/>
</clipPath>
<clipPath id="clip1_8_8861">
<rect width="120" height="120" fill="white" transform="translate(0.0999985 0.200195)"/>
</clipPath>
<clipPath id="clip2_8_8861">
<rect width="120" height="120" fill="white" transform="translate(0.0999985 0.200195)"/>
</clipPath>
<clipPath id="clip3_8_8861">
<rect width="48" height="48" fill="white" transform="translate(36.1 36.2002)"/>
</clipPath>
<clipPath id="clip4_8_8861">
<rect width="48" height="48" fill="white" transform="translate(36.1 36.2002)"/>
</clipPath>
</defs>
</svg>
