<svg width="49" height="49" viewBox="0 0 49 49" fill="none" xmlns="http://www.w3.org/2000/svg">
<rect width="48" height="48" transform="translate(0.399999 0.799988)" fill="white"/>
<g opacity="0.1" clip-path="url(#clip0_9_9433)">
<g clip-path="url(#clip1_9_9433)">
<g clip-path="url(#clip2_9_9433)">
<path d="M42.28 9.56999C38.015 4.56999 31.7 1.37499 24.645 1.29999V12.675H39.14L42.28 9.56999Z" fill="white"/>
<path d="M9.305 13.025L6.2 9.94998C2.935 13.94 0.959999 19.02 0.899999 24.555H9.305V13.025Z" fill="white"/>
<path d="M14.22 30.705C15.0208 30.705 15.67 30.0558 15.67 29.255C15.67 28.4542 15.0208 27.805 14.22 27.805C13.4192 27.805 12.77 28.4542 12.77 29.255C12.77 30.0558 13.4192 30.705 14.22 30.705Z" fill="#34E0A1"/>
<path d="M15.79 21.76C15.025 21.34 14.505 20.535 14.505 19.605C14.505 18.24 15.615 17.13 16.98 17.13C18.345 17.13 19.455 18.24 19.455 19.605C19.455 20.54 18.93 21.345 18.165 21.765C18.945 21.995 19.645 22.45 20.175 23.075C20.805 22.34 21.185 21.385 21.185 20.345C21.185 18.025 19.3 16.14 16.98 16.14C14.66 16.14 12.775 18.025 12.775 20.345C12.775 21.385 13.155 22.335 13.785 23.07C14.315 22.44 15.015 21.99 15.79 21.76Z" fill="#FFF7E1"/>
<path d="M39 36.43V13.17H9.8V36.43H21.56L24.4 40.685L27.235 36.43H39ZM24.4 15.645H36.275V16.14H24.4V15.645ZM36.525 29.255C36.525 30.325 35.655 31.2 34.58 31.2C33.51 31.2 32.635 30.33 32.635 29.255C32.635 28.185 33.505 27.31 34.58 27.31C35.65 27.31 36.525 28.18 36.525 29.255ZM24.4 18.615H36.275V19.11H24.4V18.615ZM24.4 21.585H36.275V22.08H24.4V21.585ZM24.4 24.555H36.275V25.05H24.4V24.555ZM31.435 29.255C31.435 30.325 30.565 31.2 29.49 31.2C28.42 31.2 27.545 30.33 27.545 29.255C27.545 28.185 28.415 27.31 29.49 27.31C30.56 27.31 31.435 28.18 31.435 29.255ZM24.4 27.31C25.47 27.31 26.345 28.18 26.345 29.255C26.345 30.325 25.475 31.2 24.4 31.2C23.325 31.2 22.455 30.33 22.455 29.255C22.455 28.18 23.33 27.31 24.4 27.31ZM16.975 15.645C19.565 15.645 21.675 17.755 21.675 20.345C21.675 22.935 19.565 25.045 16.975 25.045C14.385 25.045 12.275 22.935 12.275 20.345C12.275 17.755 14.385 15.645 16.975 15.645ZM21.255 29.255C21.255 30.325 20.385 31.2 19.31 31.2C18.235 31.2 17.365 30.33 17.365 29.255C17.365 28.185 18.235 27.31 19.31 27.31C20.385 27.31 21.255 28.18 21.255 29.255ZM14.22 27.31C15.29 27.31 16.165 28.18 16.165 29.255C16.165 30.325 15.295 31.2 14.22 31.2C13.145 31.2 12.275 30.33 12.275 29.255C12.275 28.18 13.15 27.31 14.22 27.31ZM12.525 33.955V33.46H36.28V33.955H12.525Z" fill="white"/>
<path d="M9.305 25.045H0.899999C0.959999 30.58 2.935 35.66 6.2 39.65L9.31 36.57V25.045H9.305Z" fill="white"/>
<path d="M39.495 36.575L42.605 39.655C45.865 35.66 47.84 30.58 47.9 25.045H39.495V36.575Z" fill="white"/>
<path d="M39.495 13.025V24.55H47.9C47.84 19.02 45.865 13.94 42.6 9.94998L39.495 13.025Z" fill="white"/>
<path d="M9.655 36.925L6.515 40.03C10.78 45.03 17.095 48.225 24.15 48.3V41.205L21.295 36.925H9.655Z" fill="white"/>
<path d="M27.5 36.925L24.645 41.205V48.3C31.7 48.225 38.015 45.03 42.28 40.03L39.14 36.925H27.5Z" fill="white"/>
<path d="M24.155 12.675V1.29999C17.1 1.37499 10.785 4.56999 6.52 9.56999L9.66 12.675H24.155Z" fill="white"/>
<path d="M28.04 29.255C28.04 30.055 28.69 30.705 29.49 30.705C30.29 30.705 30.94 30.055 30.94 29.255C30.94 28.455 30.29 27.805 29.49 27.805C28.69 27.805 28.04 28.455 28.04 29.255Z" fill="white"/>
<path d="M24.4 30.705C25.2008 30.705 25.85 30.0558 25.85 29.255C25.85 28.4542 25.2008 27.805 24.4 27.805C23.5992 27.805 22.95 28.4542 22.95 29.255C22.95 30.0558 23.5992 30.705 24.4 30.705Z" fill="white"/>
<path d="M19.31 30.705C20.1108 30.705 20.76 30.0558 20.76 29.255C20.76 28.4542 20.1108 27.805 19.31 27.805C18.5092 27.805 17.86 28.4542 17.86 29.255C17.86 30.0558 18.5092 30.705 19.31 30.705Z" fill="white"/>
<path d="M16.975 21.585C18.0685 21.585 18.955 20.6985 18.955 19.605C18.955 18.5115 18.0685 17.625 16.975 17.625C15.8815 17.625 14.995 18.5115 14.995 19.605C14.995 20.6985 15.8815 21.585 16.975 21.585Z" fill="white"/>
<path d="M16.975 22.08C15.865 22.08 14.83 22.575 14.125 23.43C14.875 24.125 15.875 24.555 16.975 24.555C18.075 24.555 19.075 24.13 19.825 23.435C19.125 22.585 18.08 22.08 16.975 22.08Z" fill="white"/>
<path d="M34.58 27.805C33.78 27.805 33.13 28.455 33.13 29.255C33.13 30.055 33.78 30.705 34.58 30.705C35.38 30.705 36.03 30.055 36.03 29.255C36.03 28.455 35.38 27.805 34.58 27.805Z" fill="white"/>
<path d="M24.4 0.799988C11.165 0.799988 0.399999 11.565 0.399999 24.8C0.399999 38.035 11.165 48.8 24.4 48.8C37.635 48.8 48.4 38.035 48.4 24.8C48.4 11.565 37.635 0.799988 24.4 0.799988ZM24.645 48.3V41.205L27.5 36.925H39.14L42.28 40.03C38.015 45.03 31.7 48.225 24.645 48.3ZM24.155 1.29999V12.675H9.655L6.515 9.56999C10.785 4.56999 17.1 1.37499 24.155 1.29999ZM42.28 9.56999L39.14 12.675H24.645V1.29999C31.7 1.37499 38.015 4.56999 42.28 9.56999ZM24.4 40.685L21.565 36.43H9.8V13.17H39V36.43H27.235L24.4 40.685ZM6.2 9.94999L9.31 13.03V24.555H0.899999C0.959999 19.02 2.935 13.94 6.2 9.94999ZM9.305 25.045V36.57L6.2 39.65C2.935 35.66 0.959999 30.58 0.899999 25.045H9.305ZM9.655 36.925H21.3L24.155 41.205V48.3C17.1 48.225 10.785 45.03 6.52 40.03L9.655 36.925ZM42.6 39.65L39.49 36.57V25.045H47.9C47.84 30.58 45.865 35.66 42.6 39.65ZM39.495 24.555V13.025L42.605 9.94499C45.865 13.94 47.84 19.02 47.9 24.555H39.495Z" fill="black"/>
<path d="M16.975 25.045C19.565 25.045 21.675 22.935 21.675 20.345C21.675 17.755 19.565 15.645 16.975 15.645C14.385 15.645 12.275 17.755 12.275 20.345C12.275 22.935 14.385 25.045 16.975 25.045ZM16.975 24.555C15.875 24.555 14.875 24.125 14.125 23.43C14.83 22.57 15.865 22.08 16.975 22.08C18.08 22.08 19.125 22.585 19.825 23.435C19.075 24.125 18.075 24.555 16.975 24.555ZM16.975 16.14C19.295 16.14 21.18 18.025 21.18 20.345C21.18 21.385 20.795 22.34 20.17 23.075C19.64 22.445 18.94 21.995 18.16 21.765C18.925 21.345 19.45 20.54 19.45 19.605C19.45 18.24 18.34 17.13 16.975 17.13C15.61 17.13 14.5 18.24 14.5 19.605C14.5 20.535 15.025 21.34 15.785 21.76C15.01 21.99 14.315 22.44 13.775 23.075C13.145 22.34 12.765 21.39 12.765 20.35C12.77 18.025 14.66 16.14 16.975 16.14ZM16.975 21.585C15.885 21.585 14.995 20.695 14.995 19.605C14.995 18.515 15.885 17.625 16.975 17.625C18.065 17.625 18.955 18.515 18.955 19.605C18.955 20.695 18.07 21.585 16.975 21.585Z" fill="black"/>
<path d="M14.22 31.2C15.29 31.2 16.165 30.33 16.165 29.255C16.165 28.185 15.295 27.31 14.22 27.31C13.145 27.31 12.275 28.18 12.275 29.255C12.275 30.325 13.15 31.2 14.22 31.2ZM14.22 27.805C15.02 27.805 15.67 28.455 15.67 29.255C15.67 30.055 15.02 30.705 14.22 30.705C13.42 30.705 12.77 30.055 12.77 29.255C12.77 28.455 13.42 27.805 14.22 27.805Z" fill="black"/>
<path d="M17.365 29.255C17.365 30.325 18.235 31.2 19.31 31.2C20.385 31.2 21.255 30.33 21.255 29.255C21.255 28.185 20.385 27.31 19.31 27.31C18.235 27.31 17.365 28.18 17.365 29.255ZM20.76 29.255C20.76 30.055 20.11 30.705 19.31 30.705C18.51 30.705 17.86 30.055 17.86 29.255C17.86 28.455 18.51 27.805 19.31 27.805C20.11 27.805 20.76 28.455 20.76 29.255Z" fill="black"/>
<path d="M24.4 31.2C25.47 31.2 26.345 30.33 26.345 29.255C26.345 28.185 25.475 27.31 24.4 27.31C23.325 27.31 22.455 28.18 22.455 29.255C22.455 30.325 23.33 31.2 24.4 31.2ZM24.4 27.805C25.2 27.805 25.85 28.455 25.85 29.255C25.85 30.055 25.2 30.705 24.4 30.705C23.6 30.705 22.95 30.055 22.95 29.255C22.95 28.455 23.6 27.805 24.4 27.805Z" fill="black"/>
<path d="M27.545 29.255C27.545 30.325 28.415 31.2 29.49 31.2C30.56 31.2 31.435 30.33 31.435 29.255C31.435 28.185 30.565 27.31 29.49 27.31C28.42 27.31 27.545 28.18 27.545 29.255ZM30.94 29.255C30.94 30.055 30.29 30.705 29.49 30.705C28.69 30.705 28.04 30.055 28.04 29.255C28.04 28.455 28.69 27.805 29.49 27.805C30.29 27.805 30.94 28.455 30.94 29.255Z" fill="black"/>
<path d="M34.58 27.31C33.51 27.31 32.635 28.18 32.635 29.255C32.635 30.325 33.505 31.2 34.58 31.2C35.65 31.2 36.525 30.33 36.525 29.255C36.525 28.18 35.65 27.31 34.58 27.31ZM34.58 30.705C33.78 30.705 33.13 30.055 33.13 29.255C33.13 28.455 33.78 27.805 34.58 27.805C35.38 27.805 36.03 28.455 36.03 29.255C36.03 30.055 35.38 30.705 34.58 30.705Z" fill="black"/>
<path d="M36.275 15.645H24.4V16.14H36.275V15.645Z" fill="black"/>
<path d="M36.275 18.615H24.4V19.11H36.275V18.615Z" fill="black"/>
<path d="M36.275 21.585H24.4V22.08H36.275V21.585Z" fill="black"/>
<path d="M36.275 24.555H24.4V25.05H36.275V24.555Z" fill="black"/>
<path d="M36.28 33.46H12.525V33.955H36.28V33.46Z" fill="black"/>
</g>
</g>
</g>
<path fill-rule="evenodd" clip-rule="evenodd" d="M18.68 21.05H18.4C17.9359 21.05 17.4908 21.2344 17.1626 21.5626C16.8344 21.8907 16.65 22.3359 16.65 22.8V31.8C16.65 32.766 17.434 33.55 18.4 33.55H30.4C30.8641 33.55 31.3092 33.3656 31.6374 33.0374C31.9656 32.7092 32.15 32.2641 32.15 31.8V22.8C32.15 22.3359 31.9656 21.8907 31.6374 21.5626C31.3092 21.2344 30.8641 21.05 30.4 21.05H30.12C30.013 19.682 29.606 18.323 28.82 17.236C27.87 15.92 26.398 15.05 24.4 15.05C22.402 15.05 20.93 15.92 19.98 17.236C19.194 18.323 18.787 19.682 18.68 21.05ZM20.185 21.05H28.615C28.511 19.939 28.175 18.903 27.605 18.114C26.929 17.18 25.903 16.55 24.4 16.55C22.897 16.55 21.87 17.18 21.196 18.114C20.626 18.903 20.288 19.939 20.185 21.05ZM18.4 22.55C18.3337 22.55 18.2701 22.5763 18.2232 22.6232C18.1763 22.6701 18.15 22.7337 18.15 22.8V31.8C18.15 31.938 18.262 32.05 18.4 32.05H30.4C30.4663 32.05 30.5299 32.0236 30.5768 31.9768C30.6237 31.9299 30.65 31.8663 30.65 31.8V22.8C30.65 22.7337 30.6237 22.6701 30.5768 22.6232C30.5299 22.5763 30.4663 22.55 30.4 22.55H18.4ZM23.65 29.3V25.3H25.15V29.3H23.65Z" fill="#757575"/>
<defs>
<clipPath id="clip0_9_9433">
<rect width="48" height="48" fill="white" transform="translate(0.399999 0.799988)"/>
</clipPath>
<clipPath id="clip1_9_9433">
<rect width="48" height="48" fill="white" transform="translate(0.399999 0.799988)"/>
</clipPath>
<clipPath id="clip2_9_9433">
<rect width="48" height="48" fill="white" transform="translate(0.399999 0.799988)"/>
</clipPath>
</defs>
</svg>
