<svg width="121" height="121" viewBox="0 0 121 121" fill="none" xmlns="http://www.w3.org/2000/svg">
<rect x="0.100006" y="0.200195" width="120" height="120" rx="60" fill="white"/>
<g opacity="0.1" clip-path="url(#clip0_8_8951)">
<g clip-path="url(#clip1_8_8951)">
<g clip-path="url(#clip2_8_8951)">
<path d="M48.9625 52.1501C50.6677 52.1501 52.05 50.7678 52.05 49.0626C52.05 47.3574 50.6677 45.9751 48.9625 45.9751C47.2573 45.9751 45.875 47.3574 45.875 49.0626C45.875 50.7678 47.2573 52.1501 48.9625 52.1501Z" fill="#F2B203"/>
<path d="M49.5625 100.4H70.625C70.7125 95.4876 71.8125 90.7626 73.925 86.3501L77.2625 79.3626H42.925L46.2625 86.3501C48.375 90.7751 49.475 95.5001 49.5625 100.4ZM79.275 71.3376C79.2755 72.1226 79.5749 72.878 80.1125 73.4501L82.5875 68.2626C82.5125 68.2626 82.4375 68.2501 82.3625 68.2501C80.6625 68.2376 79.275 69.6251 79.275 71.3376ZM74.65 27.4126H45.55C44.9924 31.1105 43.7004 34.6593 41.75 37.8501L39.825 41.0251H80.3875L78.4625 37.8501C76.5 34.6376 75.225 31.1251 74.65 27.4126Z" fill="#F2B203"/>
<path d="M82.9875 59.5878H85.275C85.3715 58.7659 85.4299 57.9401 85.45 57.1128H82.9875V59.5878Z" fill="#D11515"/>
<path d="M79.275 49.0626C79.275 50.7626 80.6625 52.1501 82.3625 52.1501C83.35 52.1501 84.2375 51.6751 84.825 50.9001C84.45 49.2501 83.925 47.6501 83.2375 46.1126C82.95 46.0251 82.6625 45.9751 82.375 45.9751C81.555 45.9751 80.7684 46.3 80.1874 46.8786C79.6064 47.4573 79.2783 48.2426 79.275 49.0626ZM45.9375 104.113H74.2625C73.975 102.7 72.725 101.638 71.2375 101.638H48.9625C47.475 101.638 46.225 102.713 45.9375 104.113Z" fill="#F2B203"/>
<path d="M71.2375 52.1501C72.9427 52.1501 74.325 50.7678 74.325 49.0626C74.325 47.3574 72.9427 45.9751 71.2375 45.9751C69.5323 45.9751 68.15 47.3574 68.15 49.0626C68.15 50.7678 69.5323 52.1501 71.2375 52.1501Z" fill="#F2B203"/>
<path d="M37.8375 52.1625C39.5375 52.1625 40.925 50.775 40.925 49.075C40.925 47.375 39.5375 45.9875 37.8375 45.9875C37.5375 45.9875 37.25 46.0375 36.975 46.125C36.2875 47.6625 35.75 49.275 35.3875 50.9125C35.95 51.6875 36.85 52.1625 37.8375 52.1625Z" fill="#F2B203"/>
<path d="M60.1 52.1501C61.8052 52.1501 63.1875 50.7678 63.1875 49.0626C63.1875 47.3574 61.8052 45.9751 60.1 45.9751C58.3948 45.9751 57.0125 47.3574 57.0125 49.0626C57.0125 50.7678 58.3948 52.1501 60.1 52.1501Z" fill="#F2B203"/>
<path d="M60.1 74.425C61.8052 74.425 63.1875 73.0427 63.1875 71.3375C63.1875 69.6323 61.8052 68.25 60.1 68.25C58.3948 68.25 57.0125 69.6323 57.0125 71.3375C57.0125 73.0427 58.3948 74.425 60.1 74.425Z" fill="#F2B203"/>
<path d="M77.8625 78.1378L79.5625 74.5878C78.6125 73.7753 78.0375 72.6003 78.0375 71.3378C78.0375 70.1907 78.4932 69.0907 79.3043 68.2796C80.1154 67.4685 81.2154 67.0128 82.3625 67.0128C82.6227 67.0124 82.8823 67.0375 83.1375 67.0878C83.525 66.2503 83.8625 65.4003 84.15 64.5378H78.0375V57.1128H71.85V59.5878H75.5625V64.5378H66.9V57.1128H60.7125V59.5878H64.425V64.5378H55.7625V57.1128H49.575V59.5878H53.2875V64.5378H44.625V57.1128H38.4375V59.5878H42.15V64.5378H36.0375C36.325 65.4003 36.6625 66.2503 37.05 67.0878C37.3053 67.0375 37.5648 67.0124 37.825 67.0128C38.9721 67.0128 40.0721 67.4685 40.8832 68.2796C41.6943 69.0907 42.15 70.1907 42.15 71.3378C42.15 72.6128 41.575 73.7753 40.625 74.5878L42.325 78.1378H77.8625ZM71.2375 67.0003C72.3846 67.0003 73.4846 67.456 74.2957 68.2671C75.1068 69.0782 75.5625 70.1782 75.5625 71.3253C75.5625 72.4724 75.1068 73.5724 74.2957 74.3835C73.4846 75.1946 72.3846 75.6503 71.2375 75.6503C70.0904 75.6503 68.9904 75.1946 68.1793 74.3835C67.3682 73.5724 66.9125 72.4724 66.9125 71.3253C66.9125 70.1782 67.3682 69.0782 68.1793 68.2671C68.9904 67.456 70.0904 67.0003 71.2375 67.0003ZM60.1 67.0003C61.2471 67.0003 62.3471 67.456 63.1582 68.2671C63.9693 69.0782 64.425 70.1782 64.425 71.3253C64.425 72.4724 63.9693 73.5724 63.1582 74.3835C62.3471 75.1946 61.2471 75.6503 60.1 75.6503C58.9529 75.6503 57.8529 75.1946 57.0418 74.3835C56.2307 73.5724 55.775 72.4724 55.775 71.3253C55.775 70.1782 56.2307 69.0782 57.0418 68.2671C57.8529 67.456 58.9529 67.0003 60.1 67.0003ZM48.9625 67.0003C50.1096 67.0003 51.2096 67.456 52.0207 68.2671C52.8318 69.0782 53.2875 70.1782 53.2875 71.3253C53.2875 72.4724 52.8318 73.5724 52.0207 74.3835C51.2096 75.1946 50.1096 75.6503 48.9625 75.6503C47.8154 75.6503 46.7154 75.1946 45.9043 74.3835C45.0932 73.5724 44.6375 72.4724 44.6375 71.3253C44.6375 70.1782 45.0932 69.0782 45.9043 68.2671C46.7154 67.456 47.8154 67.0003 48.9625 67.0003Z" fill="#D11515"/>
<path d="M48.9625 74.4252C50.6677 74.4252 52.05 73.0429 52.05 71.3377C52.05 69.6326 50.6677 68.2502 48.9625 68.2502C47.2573 68.2502 45.875 69.6326 45.875 71.3377C45.875 73.0429 47.2573 74.4252 48.9625 74.4252Z" fill="#F2B203"/>
<path d="M71.2375 74.4252C72.9427 74.4252 74.325 73.0429 74.325 71.3377C74.325 69.6326 72.9427 68.2502 71.2375 68.2502C69.5323 68.2502 68.15 69.6326 68.15 71.3377C68.15 73.0429 69.5323 74.4252 71.2375 74.4252Z" fill="#F2B203"/>
<path d="M60.1 1.43774C27.7 1.43774 1.33749 27.8002 1.33749 60.2002C1.33749 77.6502 8.99999 93.3502 21.1125 104.113H44.7C44.975 102.225 46.45 100.75 48.3375 100.463C48.2625 95.7127 47.2 91.1502 45.1625 86.8877L36.0875 67.9502C34.9326 65.5315 34.1488 62.9526 33.7625 60.3002C32.4 62.8127 29.7375 64.5252 26.6875 64.5252C25.325 64.5252 24.2125 63.4127 24.2125 62.0502C24.2125 60.6877 25.325 59.5752 26.6875 59.5752C28.3875 59.5752 29.775 58.1877 29.775 56.4877C29.775 56.1127 29.7125 55.7377 29.575 55.3877L23.1125 38.3877C22.6125 37.0502 22.35 35.6502 22.35 34.2127C22.35 27.7377 27.625 22.4627 34.1 22.4627H42.2125C41.7991 22.0615 41.4701 21.5816 41.2447 21.0514C41.0193 20.5212 40.9021 19.9514 40.9 19.3752V18.7627H79.25V19.3752C79.2507 19.9518 79.1348 20.5225 78.9093 21.0531C78.6837 21.5837 78.3532 22.0632 77.9375 22.4627H86.05C92.525 22.4627 97.8 27.7377 97.8 34.2127C97.8 35.6502 97.55 37.0502 97.0375 38.3877L90.575 55.3877C90.4375 55.7377 90.375 56.1127 90.375 56.4877C90.375 58.1877 91.7625 59.5752 93.4625 59.5752C94.825 59.5752 95.9375 60.6877 95.9375 62.0502C95.9375 63.4127 94.825 64.5252 93.4625 64.5252C90.4125 64.5252 87.75 62.8127 86.3875 60.3002C86.0125 62.9502 85.2375 65.5002 84.0625 67.9502L75 86.8877C72.9625 91.1502 71.9 95.7127 71.825 100.463C73.7125 100.738 75.1875 102.225 75.4625 104.113H99.05C111.175 93.3377 118.825 77.6502 118.825 60.2002C118.863 27.8002 92.5 1.43774 60.1 1.43774Z" fill="#FEE39A"/>
<path d="M37.3625 42.6878L40.7 37.2128C42.5284 34.2171 43.7515 30.8918 44.3 27.4253H34.125C32.3226 27.4286 30.5949 28.1461 29.3203 29.4206C28.0458 30.6951 27.3283 32.4228 27.325 34.2253C27.325 35.0628 27.475 35.8753 27.7625 36.6378L33.8 52.5253C34.325 49.0503 35.525 45.7003 37.3625 42.6878Z" fill="#FEE39A"/>
<path d="M22.5375 105.35C32.7375 113.85 45.825 118.963 60.1 118.963C74.375 118.963 87.4625 113.85 97.6625 105.35H75.5625H44.6375H22.5375Z" fill="#FF5D5D"/>
<path d="M26.7 60.8127C26.0125 60.8127 25.4625 61.3627 25.4625 62.0502C25.4625 62.7377 26.0125 63.2877 26.7 63.2877C28.5025 63.2844 30.2302 62.5669 31.5047 61.2924C32.7792 60.0178 33.4967 58.2902 33.5 56.4877C33.5 55.6502 33.35 54.8377 33.0625 54.0752L26.6 37.0752C26.25 36.1627 26.075 35.2002 26.075 34.2252C26.0783 32.0945 26.9262 30.0521 28.4328 28.5455C29.9394 27.0389 31.9818 26.191 34.1125 26.1877H75.725H86.075C88.2057 26.191 90.2481 27.0389 91.7547 28.5455C93.2613 30.0521 94.1092 32.0945 94.1125 34.2252C94.1125 35.2127 93.9375 36.1752 93.5875 37.0752L87.125 54.0752C86.8375 54.8502 86.6875 55.6627 86.6875 56.4877C86.6908 58.2902 87.4083 60.0178 88.6828 61.2924C89.9574 62.5669 91.6851 63.2844 93.4875 63.2877C94.175 63.2877 94.725 62.7377 94.725 62.0502C94.725 61.3627 94.175 60.8127 93.4875 60.8127C92.3404 60.8127 91.2404 60.357 90.4293 59.5459C89.6182 58.7348 89.1625 57.6348 89.1625 56.4877C89.1625 55.9627 89.2625 55.4377 89.4375 54.9502L95.9 37.9502C96.3538 36.7563 96.5867 35.4899 96.5875 34.2127C96.5842 31.4256 95.4756 28.7536 93.5048 26.7829C91.5341 24.8121 88.8621 23.7035 86.075 23.7002H74.9375H45.25H34.1125C31.3254 23.7035 28.6535 24.8121 26.6827 26.7829C24.7119 28.7536 23.6033 31.4256 23.6 34.2127C23.6 35.5002 23.825 36.7502 24.2875 37.9502L30.75 54.9502C30.934 55.4418 31.0271 55.9628 31.025 56.4877C31.025 57.6348 30.5693 58.7348 29.7582 59.5459C28.9471 60.357 27.8471 60.8127 26.7 60.8127ZM40.925 63.2877V60.8127H37.2125V55.8627H45.875V63.2877H52.0625V60.8127H48.35V55.8627H57.0125V63.2877H63.2V60.8127H59.4875V55.8627H68.15V63.2877H74.3375V60.8127H70.625V55.8627H79.2875V63.2877H84.55L85.1125 60.8127H81.7625V55.8627H85.45C85.425 54.7002 85.3125 53.5377 85.125 52.4002C84.3625 53.0252 83.4 53.3877 82.375 53.3877C81.2279 53.3877 80.1279 52.932 79.3168 52.1209C78.5057 51.3098 78.05 50.2098 78.05 49.0627C78.05 47.9156 78.5057 46.8156 79.3168 46.0045C80.1279 45.1934 81.2279 44.7377 82.375 44.7377C82.4465 44.7391 82.5177 44.7475 82.5875 44.7627L81.7875 43.3377L81.1375 42.2752H39.0625L38.4125 43.3377L37.6125 44.7627C37.6875 44.7627 37.7625 44.7377 37.825 44.7377C38.9721 44.7377 40.0722 45.1934 40.8832 46.0045C41.6943 46.8156 42.15 47.9156 42.15 49.0627C42.15 50.2098 41.6943 51.3098 40.8832 52.1209C40.0722 52.932 38.9721 53.3877 37.825 53.3877C36.8 53.3877 35.8375 53.0252 35.075 52.4002C34.8561 53.7518 34.7433 55.1185 34.7375 56.4877C34.7337 58.786 35.0449 61.0739 35.6625 63.2877H40.925ZM71.2375 44.7377C72.3846 44.7377 73.4846 45.1934 74.2957 46.0045C75.1068 46.8156 75.5625 47.9156 75.5625 49.0627C75.5625 50.2098 75.1068 51.3098 74.2957 52.1209C73.4846 52.932 72.3846 53.3877 71.2375 53.3877C70.0904 53.3877 68.9904 52.932 68.1793 52.1209C67.3682 51.3098 66.9125 50.2098 66.9125 49.0627C66.9125 47.9156 67.3682 46.8156 68.1793 46.0045C68.9904 45.1934 70.0904 44.7377 71.2375 44.7377ZM60.1 44.7377C61.2471 44.7377 62.3471 45.1934 63.1582 46.0045C63.9693 46.8156 64.425 47.9156 64.425 49.0627C64.425 50.2098 63.9693 51.3098 63.1582 52.1209C62.3471 52.932 61.2471 53.3877 60.1 53.3877C58.9529 53.3877 57.8529 52.932 57.0418 52.1209C56.2307 51.3098 55.775 50.2098 55.775 49.0627C55.775 47.9156 56.2307 46.8156 57.0418 46.0045C57.8529 45.1934 58.9529 44.7377 60.1 44.7377ZM48.9625 44.7377C50.1096 44.7377 51.2097 45.1934 52.0207 46.0045C52.8318 46.8156 53.2875 47.9156 53.2875 49.0627C53.2875 50.2098 52.8318 51.3098 52.0207 52.1209C51.2097 52.932 50.1096 53.3877 48.9625 53.3877C47.8154 53.3877 46.7154 52.932 45.9043 52.1209C45.0932 51.3098 44.6375 50.2098 44.6375 49.0627C44.6375 47.9156 45.0932 46.8156 45.9043 46.0045C46.7154 45.1934 47.8154 44.7377 48.9625 44.7377Z" fill="#D11515"/>
<path d="M74.95 22.4628C76.4375 22.4628 77.6875 21.4003 77.975 19.9878H42.225C42.5125 21.4003 43.7625 22.4628 45.25 22.4628H74.95Z" fill="#F2B203"/>
<path d="M92.4375 36.6378C92.725 35.8628 92.875 35.0503 92.875 34.2253C92.8717 32.4228 92.1542 30.6951 90.8797 29.4206C89.6052 28.1461 87.8775 27.4286 86.075 27.4253H75.9C76.45 30.9003 77.6625 34.2003 79.5 37.2128L82.8375 42.6878C84.675 45.7003 85.875 49.0503 86.4 52.5253L92.4375 36.6378Z" fill="#FEE39A"/>
<path d="M37.8375 68.2378C37.7625 68.2378 37.6875 68.2503 37.6125 68.2503L40.0875 73.4378C40.624 72.865 40.9233 72.1101 40.925 71.3253C40.925 69.6253 39.5375 68.2378 37.8375 68.2378Z" fill="#F2B203"/>
<path d="M98.09 75.0401L100.928 72.2026L103.765 75.0401L100.928 77.8776L98.09 75.0401Z" fill="white"/>
<path d="M86.9562 86.1788L89.7937 83.3413L92.6312 86.1788L89.7937 89.0163L86.9562 86.1788Z" fill="white"/>
<path d="M16.44 75.0401L19.2775 72.2026L22.115 75.0401L19.2775 77.8776L16.44 75.0401Z" fill="white"/>
<path d="M27.57 86.1827L30.4075 83.3452L33.245 86.1827L30.4075 89.0202L27.57 86.1827Z" fill="white"/>
<path d="M100.925 70.4626L96.3375 75.0501L100.925 79.6376L105.512 75.0501L100.925 70.4626ZM100.925 72.2126L103.762 75.0501L100.925 77.8876L98.0875 75.0501L100.925 72.2126Z" fill="black"/>
<path d="M85.2 86.1751L89.7875 90.7626L94.375 86.1751L89.7875 81.5876L85.2 86.1751ZM89.7875 89.0126L86.95 86.1751L89.7875 83.3376L92.625 86.1751L89.7875 89.0126Z" fill="black"/>
<path d="M14.6875 75.0501L19.275 79.6376L23.8625 75.0501L19.275 70.4626L14.6875 75.0501ZM19.275 77.8876L16.4375 75.0501L19.275 72.2126L22.1125 75.0501L19.275 77.8876Z" fill="black"/>
<path d="M25.825 86.1751L30.4125 90.7626L35 86.1751L30.4125 81.5876L25.825 86.1751ZM30.4125 89.0126L27.575 86.1751L30.4125 83.3376L33.25 86.1751L30.4125 89.0126Z" fill="black"/>
<path d="M60.1 0.200195C27.0125 0.200195 0.100006 27.1127 0.100006 60.2002C0.100006 93.2877 27.0125 120.2 60.1 120.2C93.1875 120.2 120.1 93.2877 120.1 60.2002C120.1 27.1127 93.1875 0.200195 60.1 0.200195ZM99.0875 104.113H75.5C75.225 102.225 73.75 100.75 71.8625 100.463C71.9375 95.7127 73 91.1502 75.0375 86.8877L84.1 67.9502C85.2549 65.5315 86.0387 62.9525 86.425 60.3002C87.7875 62.8127 90.45 64.5252 93.5 64.5252C94.8625 64.5252 95.975 63.4127 95.975 62.0502C95.975 60.6877 94.8625 59.5752 93.5 59.5752C91.8 59.5752 90.4125 58.1877 90.4125 56.4877C90.4125 56.1127 90.475 55.7377 90.6125 55.3877L97.075 38.3877C97.575 37.0502 97.8375 35.6502 97.8375 34.2127C97.8375 27.7377 92.5625 22.4627 86.0875 22.4627H77.975C78.3884 22.0614 78.7174 21.5816 78.9428 21.0514C79.1682 20.5212 79.2854 19.9513 79.2875 19.3752V18.7627H40.925V19.3752C40.9243 19.9517 41.0402 20.5225 41.2657 21.0531C41.4913 21.5837 41.8218 22.0632 42.2375 22.4627H34.125C27.65 22.4627 22.375 27.7377 22.375 34.2127C22.375 35.6502 22.625 37.0502 23.1375 38.3877L29.6 55.3877C29.7375 55.7377 29.8 56.1127 29.8 56.4877C29.8 58.1877 28.4125 59.5752 26.7125 59.5752C25.35 59.5752 24.2375 60.6877 24.2375 62.0502C24.2375 63.4127 25.35 64.5252 26.7125 64.5252C29.7625 64.5252 32.425 62.8127 33.7875 60.3002C34.1625 62.9502 34.9375 65.5002 36.1125 67.9502L45.175 86.8877C47.2125 91.1502 48.275 95.7127 48.35 100.463C46.4625 100.738 44.9875 102.225 44.7125 104.113H21.1125C9.00001 93.3502 1.33751 77.6502 1.33751 60.2002C1.33751 27.8002 27.7 1.4377 60.1 1.4377C92.5 1.4377 118.863 27.8002 118.863 60.2002C118.863 77.6502 111.2 93.3502 99.0875 104.113ZM60.1 118.963C45.825 118.963 32.7375 113.85 22.5375 105.35H44.625H75.55H97.6375C87.4625 113.85 74.375 118.963 60.1 118.963ZM37.6125 68.2627C37.6875 68.2627 37.7625 68.2502 37.8375 68.2502C39.5375 68.2502 40.925 69.6377 40.925 71.3377C40.9246 72.1227 40.6251 72.8781 40.0875 73.4502L37.6125 68.2627ZM42.1625 71.3377C42.1625 70.1906 41.7068 69.0906 40.8957 68.2795C40.0846 67.4684 38.9846 67.0127 37.8375 67.0127C37.5773 67.0123 37.3178 67.0374 37.0625 67.0877C36.675 66.2502 36.3375 65.4002 36.05 64.5377H42.1625V59.5877H38.45V57.1127H44.6375V64.5377H53.3V59.5877H49.5875V57.1127H55.775V64.5377H64.4375V59.5877H60.725V57.1127H66.9125V64.5377H75.575V59.5877H71.85V57.1127H78.0375V64.5377H84.15C83.8625 65.4002 83.525 66.2502 83.1375 67.0877C82.8822 67.0374 82.6227 67.0123 82.3625 67.0127C81.2154 67.0127 80.1154 67.4684 79.3043 68.2795C78.4932 69.0906 78.0375 70.1906 78.0375 71.3377C78.0375 72.6127 78.6125 73.7752 79.5625 74.5877L77.8625 78.1377H42.3375L40.6375 74.5877C41.5875 73.7752 42.1625 72.6002 42.1625 71.3377ZM30.75 54.9502L24.2875 37.9502C23.8337 36.7563 23.6008 35.4899 23.6 34.2127C23.6033 31.4256 24.7119 28.7536 26.6827 26.7829C28.6535 24.8121 31.3254 23.7035 34.1125 23.7002H45.25H74.9375H86.075C88.8621 23.7035 91.5341 24.8121 93.5048 26.7829C95.4756 28.7536 96.5842 31.4256 96.5875 34.2127C96.5875 35.5002 96.3625 36.7502 95.9 37.9502L89.4375 54.9502C89.2525 55.4415 89.1593 55.9627 89.1625 56.4877C89.1625 57.6348 89.6182 58.7348 90.4293 59.5459C91.2404 60.357 92.3404 60.8127 93.4875 60.8127C94.175 60.8127 94.725 61.3627 94.725 62.0502C94.725 62.7377 94.175 63.2877 93.4875 63.2877C91.6851 63.2844 89.9574 62.5669 88.6828 61.2924C87.4083 60.0178 86.6908 58.2901 86.6875 56.4877C86.6875 55.6502 86.8375 54.8377 87.125 54.0752L93.5875 37.0752C93.9375 36.1627 94.1125 35.2002 94.1125 34.2252C94.1092 32.0945 93.2613 30.0521 91.7547 28.5455C90.2481 27.0389 88.2057 26.191 86.075 26.1877H75.725H34.125C31.9943 26.191 29.9519 27.0389 28.4453 28.5455C26.9387 30.0521 26.0908 32.0945 26.0875 34.2252C26.0875 35.2127 26.2625 36.1752 26.6125 37.0752L33.075 54.0752C33.3625 54.8502 33.5125 55.6627 33.5125 56.4877C33.5092 58.2901 32.7917 60.0178 31.5172 61.2924C30.2427 62.5669 28.515 63.2844 26.7125 63.2877C26.025 63.2877 25.475 62.7377 25.475 62.0502C25.475 61.3627 26.025 60.8127 26.7125 60.8127C27.8596 60.8127 28.9596 60.357 29.7707 59.5459C30.5818 58.7348 31.0375 57.6348 31.0375 56.4877C31.0292 55.9626 30.932 55.4428 30.75 54.9502ZM42.225 20.0002H77.975C77.6875 21.4127 76.4375 22.4752 74.95 22.4752H45.25C43.7625 22.4627 42.5125 21.4002 42.225 20.0002ZM85.275 59.5877H82.9875V57.1127H85.45C85.425 57.9377 85.375 58.7627 85.275 59.5877ZM84.825 50.9002C84.2375 51.6752 83.35 52.1502 82.3625 52.1502C80.6625 52.1502 79.275 50.7627 79.275 49.0627C79.275 47.3627 80.6625 45.9752 82.3625 45.9752C82.6625 45.9752 82.95 46.0252 83.225 46.1127C83.925 47.6502 84.4625 49.2502 84.825 50.9002ZM82.8375 42.6877L79.5 37.2127C77.6716 34.217 76.4485 30.8917 75.9 27.4252H86.075C87.8775 27.4285 89.6051 28.146 90.8797 29.4205C92.1542 30.6951 92.8717 32.4227 92.875 34.2252C92.875 35.0627 92.725 35.8752 92.4375 36.6377L86.4 52.5252C85.875 49.0502 84.675 45.7002 82.8375 42.6877ZM80.3875 41.0252H39.8125L41.7375 37.8502C43.6845 34.6578 44.9763 31.1096 45.5375 27.4127H74.65C75.2076 31.1106 76.4996 34.6594 78.45 37.8502L80.3875 41.0252ZM27.7625 36.6377C27.475 35.8627 27.325 35.0502 27.325 34.2252C27.3283 32.4227 28.0458 30.6951 29.3203 29.4205C30.5949 28.146 32.3225 27.4285 34.125 27.4252H44.3C43.75 30.9002 42.5375 34.2002 40.7 37.2127L37.3625 42.6877C35.525 45.7002 34.325 49.0502 33.8 52.5252L27.7625 36.6377ZM36.9625 46.1127C37.25 46.0252 37.5375 45.9752 37.825 45.9752C39.525 45.9752 40.9125 47.3627 40.9125 49.0627C40.9125 50.7627 39.525 52.1502 37.825 52.1502C36.8375 52.1502 35.95 51.6752 35.3625 50.9002C35.7375 49.2502 36.275 47.6502 36.9625 46.1127ZM35.0875 52.4002C35.85 53.0252 36.8125 53.3877 37.8375 53.3877C38.9846 53.3877 40.0846 52.932 40.8957 52.1209C41.7068 51.3098 42.1625 50.2098 42.1625 49.0627C42.1625 47.9156 41.7068 46.8156 40.8957 46.0045C40.0846 45.1934 38.9846 44.7377 37.8375 44.7377C37.766 44.7391 37.6949 44.7475 37.625 44.7627C37.875 44.2752 38.1375 43.8002 38.425 43.3377L39.075 42.2752H81.15L81.8 43.3377C82.0875 43.8002 82.35 44.2752 82.6 44.7627C82.525 44.7627 82.45 44.7377 82.3875 44.7377C81.2404 44.7377 80.1404 45.1934 79.3293 46.0045C78.5182 46.8156 78.0625 47.9156 78.0625 49.0627C78.0625 50.2098 78.5182 51.3098 79.3293 52.1209C80.1404 52.932 81.2404 53.3877 82.3875 53.3877C83.4125 53.3877 84.375 53.0252 85.1375 52.4002C85.325 53.5377 85.425 54.7002 85.4625 55.8627H81.775V60.8127H85.125C84.9875 61.6502 84.8 62.4752 84.5625 63.2877H79.3V55.8627H70.6375V60.8127H74.35V63.2877H68.1625V55.8627H59.5V60.8127H63.2125V63.2877H57.025V55.8627H48.35V60.8127H52.0625V63.2877H45.875V55.8627H37.2125V60.8127H40.925V63.2877H35.6625C35.05 61.0877 34.7375 58.8127 34.7375 56.4877C34.7375 55.1127 34.8625 53.7502 35.0875 52.4002ZM80.1125 73.4377C79.576 72.8649 79.2767 72.11 79.275 71.3252C79.275 69.6252 80.6625 68.2377 82.3625 68.2377C82.4375 68.2377 82.5125 68.2502 82.5875 68.2502L80.1125 73.4377ZM77.275 79.3752L73.9375 86.3627C71.825 90.7752 70.725 95.5002 70.6375 100.413H49.5625C49.475 95.5002 48.375 90.7752 46.2625 86.3627L42.925 79.3752H77.275ZM48.9625 101.638H71.225C72.7125 101.638 73.9625 102.7 74.25 104.113H45.9375C46.225 102.713 47.475 101.638 48.9625 101.638Z" fill="black"/>
<path d="M60.1 53.4002C61.2471 53.4002 62.3472 52.9446 63.1583 52.1335C63.9694 51.3224 64.425 50.2223 64.425 49.0752C64.425 47.9282 63.9694 46.8281 63.1583 46.017C62.3472 45.2059 61.2471 44.7502 60.1 44.7502C58.953 44.7502 57.8529 45.2059 57.0418 46.017C56.2307 46.8281 55.775 47.9282 55.775 49.0752C55.775 50.2223 56.2307 51.3224 57.0418 52.1335C57.8529 52.9446 58.953 53.4002 60.1 53.4002ZM60.1 45.9752C61.8 45.9752 63.1875 47.3627 63.1875 49.0627C63.1875 50.7627 61.8 52.1502 60.1 52.1502C58.4 52.1502 57.0125 50.7627 57.0125 49.0627C57.0125 47.3627 58.4 45.9752 60.1 45.9752Z" fill="black"/>
<path d="M48.9625 53.4002C50.1096 53.4002 51.2097 52.9446 52.0207 52.1335C52.8318 51.3224 53.2875 50.2223 53.2875 49.0752C53.2875 47.9282 52.8318 46.8281 52.0207 46.017C51.2097 45.2059 50.1096 44.7502 48.9625 44.7502C47.8154 44.7502 46.7154 45.2059 45.9043 46.017C45.0932 46.8281 44.6375 47.9282 44.6375 49.0752C44.6375 50.2223 45.0932 51.3224 45.9043 52.1335C46.7154 52.9446 47.8154 53.4002 48.9625 53.4002ZM48.9625 45.9752C50.6625 45.9752 52.05 47.3627 52.05 49.0627C52.05 50.7627 50.6625 52.1502 48.9625 52.1502C47.2625 52.1502 45.875 50.7627 45.875 49.0627C45.875 47.3627 47.2625 45.9752 48.9625 45.9752Z" fill="black"/>
<path d="M71.2375 53.4002C72.3846 53.4002 73.4846 52.9446 74.2957 52.1335C75.1068 51.3224 75.5625 50.2223 75.5625 49.0752C75.5625 47.9282 75.1068 46.8281 74.2957 46.017C73.4846 45.2059 72.3846 44.7502 71.2375 44.7502C70.0904 44.7502 68.9904 45.2059 68.1793 46.017C67.3682 46.8281 66.9125 47.9282 66.9125 49.0752C66.9125 50.2223 67.3682 51.3224 68.1793 52.1335C68.9904 52.9446 70.0904 53.4002 71.2375 53.4002ZM71.2375 45.9752C72.9375 45.9752 74.325 47.3627 74.325 49.0627C74.325 50.7627 72.9375 52.1502 71.2375 52.1502C69.5375 52.1502 68.15 50.7627 68.15 49.0627C68.1375 47.3627 69.525 45.9752 71.2375 45.9752Z" fill="black"/>
<path d="M60.1 75.6627C61.2471 75.6627 62.3472 75.207 63.1583 74.3959C63.9694 73.5848 64.425 72.4848 64.425 71.3377C64.425 70.1906 63.9694 69.0906 63.1583 68.2795C62.3472 67.4684 61.2471 67.0127 60.1 67.0127C58.953 67.0127 57.8529 67.4684 57.0418 68.2795C56.2307 69.0906 55.775 70.1906 55.775 71.3377C55.775 72.4848 56.2307 73.5848 57.0418 74.3959C57.8529 75.207 58.953 75.6627 60.1 75.6627ZM60.1 68.2377C61.8 68.2377 63.1875 69.6252 63.1875 71.3252C63.1875 73.0252 61.8 74.4127 60.1 74.4127C58.4 74.4127 57.0125 73.0252 57.0125 71.3252C57.0125 69.6252 58.4 68.2377 60.1 68.2377Z" fill="black"/>
<path d="M48.9625 75.6627C50.1096 75.6627 51.2097 75.207 52.0207 74.3959C52.8318 73.5848 53.2875 72.4848 53.2875 71.3377C53.2875 70.1906 52.8318 69.0906 52.0207 68.2795C51.2097 67.4684 50.1096 67.0127 48.9625 67.0127C47.8154 67.0127 46.7154 67.4684 45.9043 68.2795C45.0932 69.0906 44.6375 70.1906 44.6375 71.3377C44.6375 72.4848 45.0932 73.5848 45.9043 74.3959C46.7154 75.207 47.8154 75.6627 48.9625 75.6627ZM48.9625 68.2377C50.6625 68.2377 52.05 69.6252 52.05 71.3252C52.05 73.0252 50.6625 74.4127 48.9625 74.4127C47.2625 74.4127 45.875 73.0252 45.875 71.3252C45.875 69.6252 47.2625 68.2377 48.9625 68.2377Z" fill="black"/>
<path d="M71.2375 75.6627C72.3846 75.6627 73.4846 75.207 74.2957 74.3959C75.1068 73.5848 75.5625 72.4848 75.5625 71.3377C75.5625 70.1906 75.1068 69.0906 74.2957 68.2795C73.4846 67.4684 72.3846 67.0127 71.2375 67.0127C70.0904 67.0127 68.9904 67.4684 68.1793 68.2795C67.3682 69.0906 66.9125 70.1906 66.9125 71.3377C66.9125 72.4848 67.3682 73.5848 68.1793 74.3959C68.9904 75.207 70.0904 75.6627 71.2375 75.6627ZM71.2375 68.2377C72.9375 68.2377 74.325 69.6252 74.325 71.3252C74.325 73.0252 72.9375 74.4127 71.2375 74.4127C69.5375 74.4127 68.15 73.0252 68.15 71.3252C68.1375 69.6252 69.525 68.2377 71.2375 68.2377Z" fill="black"/>
</g>
</g>
</g>
<g opacity="0.5" clip-path="url(#clip3_8_8951)">
<g clip-path="url(#clip4_8_8951)">
<path fill-rule="evenodd" clip-rule="evenodd" d="M48.6585 52.7002H48.0998C46.1665 52.7002 44.6 54.2674 44.6 56.2002V74.2002C44.6 76.1332 46.167 77.7002 48.1 77.7002H72.1C74.033 77.7002 75.6 76.1332 75.6 74.2002V56.2002C75.6 54.2674 74.0334 52.7002 72.1002 52.7002H71.5416C71.3268 49.9651 70.5114 47.2463 68.941 45.072C67.0416 42.4419 64.0944 40.7002 60.1 40.7002C56.1056 40.7002 53.1585 42.4419 51.259 45.072C49.6886 47.2463 48.8732 49.9651 48.6585 52.7002ZM51.6692 52.7002H68.5308C68.323 50.4773 67.6482 48.4058 66.509 46.8284C65.1584 44.9585 63.1056 43.7002 60.1 43.7002C57.0944 43.7002 55.0415 44.9585 53.691 46.8284C52.5518 48.4058 51.8769 50.4773 51.6692 52.7002ZM48.0998 55.7002C47.8239 55.7002 47.6 55.9238 47.6 56.2002V74.2002C47.6 74.4764 47.8239 74.7002 48.1 74.7002H72.1C72.3762 74.7002 72.6 74.4764 72.6 74.2002V56.2002C72.6 55.9238 72.3762 55.7002 72.1002 55.7002H48.0998ZM58.6 69.2002V61.2002H61.6V69.2002H58.6Z" fill="black"/>
</g>
</g>
<defs>
<clipPath id="clip0_8_8951">
<rect width="120" height="120" fill="white" transform="translate(0.100006 0.200195)"/>
</clipPath>
<clipPath id="clip1_8_8951">
<rect width="120" height="120" fill="white" transform="translate(0.100006 0.200195)"/>
</clipPath>
<clipPath id="clip2_8_8951">
<rect width="120" height="120" fill="white" transform="translate(0.100006 0.200195)"/>
</clipPath>
<clipPath id="clip3_8_8951">
<rect width="48" height="48" fill="white" transform="translate(36.1 36.2002)"/>
</clipPath>
<clipPath id="clip4_8_8951">
<rect width="48" height="48" fill="white" transform="translate(36.1 36.2002)"/>
</clipPath>
</defs>
</svg>
