<svg width="121" height="121" viewBox="0 0 121 121" fill="none" xmlns="http://www.w3.org/2000/svg">
<rect x="0.0999756" y="0.200195" width="120" height="120" rx="60" fill="white"/>
<g opacity="0.1" clip-path="url(#clip0_8_9010)">
<g clip-path="url(#clip1_8_9010)">
<g clip-path="url(#clip2_8_9010)">
<path d="M60.7125 18.7752C63.9125 18.8377 66.9875 19.4002 69.875 20.3877L75.975 3.6377C71.1125 2.2627 66 1.5127 60.7125 1.4502V18.7752Z" fill="#FEE39A"/>
<path d="M86.025 33.3876L105.037 22.4126C101.45 18.1501 97.2625 14.4001 92.6 11.2876L80.0375 26.2626C82.375 28.3126 84.4 30.7126 86.025 33.3876Z" fill="#FEE39A"/>
<path d="M60.1 20.0002C44.075 20.0002 31.025 33.0377 31.025 49.0752C31.025 57.4627 34.625 65.3752 40.9125 70.9002L59.4875 48.8502V36.9377L68.9125 41.6502L60.725 45.7377V48.8377L79.3 70.8877C85.5875 65.3627 89.1875 57.4502 89.1875 49.0627C89.175 33.0377 76.125 20.0002 60.1 20.0002Z" fill="#F2B203"/>
<path d="M60.7125 44.3502L66.1375 41.6377L60.7125 38.9377V44.3502Z" fill="#FF5D5D"/>
<path d="M59.4875 18.7752V1.4502C54.2 1.5002 49.0875 2.2627 44.225 3.6377L50.325 20.3877C53.2 19.4002 56.2875 18.8377 59.4875 18.7752Z" fill="#FFF7E1"/>
<path d="M71.0375 20.8126C73.9625 21.9501 76.675 23.5251 79.0875 25.4751L91.5625 10.6126C87.125 7.7876 82.3 5.5376 77.175 3.9751L71.0375 20.8126Z" fill="#FFF7E1"/>
<path d="M28.6375 10.6126L41.1125 25.4751C43.525 23.5376 46.2375 21.9501 49.1625 20.8126L43.0374 3.9751C37.8999 5.5376 33.075 7.7876 28.6375 10.6126Z" fill="#FEE39A"/>
<path d="M15.15 22.4001L34.1625 33.3751C35.7875 30.7001 37.8125 28.3126 40.15 26.2626L27.5875 11.2876C22.9375 14.3876 18.75 18.1376 15.15 22.4001Z" fill="#FFF7E1"/>
<path d="M80.0875 71.8377L88.625 81.9752L97.5375 71.4002L86.05 64.7627C84.45 67.3752 82.45 69.7627 80.0875 71.8377Z" fill="#FEE39A"/>
<path d="M95.3 75.9627L97.2125 77.8877L100.925 74.1752L104.637 77.8877L108.35 74.1752L112.062 77.8877L113.975 75.9627L104.637 64.8752L95.3 75.9627Z" fill="white"/>
<path d="M34.1625 64.7502L22.675 71.3877L31.5875 81.9627L40.125 71.8252C37.75 69.7627 35.75 67.3752 34.1625 64.7502Z" fill="#FFF7E1"/>
<path d="M114.775 76.9126L112.062 79.6251L108.35 75.9126L104.637 79.6251L100.925 75.9126L97.2125 79.6251L94.5 76.9126L89.4375 82.9251L103.562 99.7001C109.112 93.6126 113.375 86.3376 115.987 78.3376L114.775 76.9126Z" fill="#004F32"/>
<path d="M41.8625 71.6876C42.1375 71.9126 42.4 72.1251 42.6875 72.3376L51.575 79.0001C52.675 79.8251 53.3125 81.0876 53.3125 82.4626C53.3125 83.7001 52.775 84.8876 51.85 85.7127L44.4875 92.2001C43.025 93.4876 42.175 95.3501 42.175 97.3001C42.175 100.1 43.85 102.575 46.4375 103.613L68.2 112.375C70.6 113.338 72.6 115.075 73.9125 117.3C85.0875 114.6 95.025 108.688 102.7 100.6L71.9375 64.0876L67.525 68.5001L63.8125 64.7876L60.1 68.5001L56.3875 64.7876L52.675 68.5001L48.2625 64.0876L41.8625 71.6876Z" fill="#34E0A1"/>
<path d="M17.5 100.613C28.2125 111.9 43.35 118.963 60.1 118.963C64.4125 118.963 68.6 118.488 72.65 117.6C71.475 115.775 69.75 114.35 67.7375 113.538L45.975 104.775C42.9125 103.538 40.9375 100.613 40.9375 97.3127C40.9375 95.0002 41.925 92.8002 43.6625 91.2752L51.025 84.7877C51.6875 84.2002 52.075 83.3502 52.075 82.4627C52.075 81.4752 51.625 80.5752 50.8375 79.9877L41.95 73.3252C41.65 73.1002 41.3625 72.8627 41.075 72.6252L17.5 100.613Z" fill="#00AA6C"/>
<path d="M4.21246 78.3503C6.82496 86.3628 11.0875 93.6253 16.6375 99.7128L30.7625 82.9378L25.7 76.9253L22.9875 79.6378L19.275 75.9253L15.5625 79.6378L11.85 75.9253L8.13746 79.6378L5.42496 76.9253L4.21246 78.3503Z" fill="#004F32"/>
<path d="M118.825 58.7876C118.662 52.1876 117.437 45.8501 115.275 39.9626L90.05 44.4126C90.2875 45.9251 90.4125 47.4876 90.4125 49.0626C90.4125 50.6376 90.2875 52.1876 90.05 53.7126L118.825 58.7876Z" fill="#FEE39A"/>
<path d="M89.825 54.9377C89.225 58.0127 88.15 60.9627 86.65 63.6877L98.3375 70.4377L104.637 62.9627L116.425 76.9502C118.012 71.6377 118.862 66.0252 118.862 60.2127C118.862 60.1627 118.862 60.1127 118.862 60.0627L89.825 54.9377Z" fill="#FFF7E1"/>
<path d="M114.812 38.7878C112.612 33.1753 109.575 27.9878 105.85 23.3628L86.65 34.4503C88.1375 37.1378 89.225 40.0753 89.8375 43.1878L114.812 38.7878Z" fill="#FFF7E1"/>
<path d="M6.22498 75.9627L8.13748 77.8877L11.85 74.1752L15.5625 77.8877L19.275 74.1752L22.9875 77.8877L24.9 75.9627L15.5625 64.8752L6.22498 75.9627Z" fill="white"/>
<path d="M56.3875 63.0376L60.1 66.7501L63.8125 63.0376L67.525 66.7501L71.1375 63.1376L60.1 50.0251L49.0625 63.1376L52.675 66.7501L56.3875 63.0376Z" fill="white"/>
<path d="M33.55 34.4503L14.35 23.3628C10.6375 27.9878 7.59995 33.1878 5.38745 38.7878L30.3624 43.1878C30.975 40.0878 32.0625 37.1503 33.55 34.4503Z" fill="#FEE39A"/>
<path d="M15.5625 62.9503L21.8625 70.4253L33.55 63.6753C32.05 60.9503 30.975 58.0003 30.375 54.9253L1.33746 60.0503C1.33746 60.1003 1.33746 60.1503 1.33746 60.2003C1.33746 66.0128 2.19996 71.6378 3.77496 76.9378L15.5625 62.9503Z" fill="#FEE39A"/>
<path d="M4.925 39.9626C2.7625 45.8501 1.525 52.1876 1.375 58.7876L30.1625 53.7126C29.925 52.1876 29.8 50.6251 29.8 49.0626C29.8 47.4751 29.925 45.9251 30.1625 44.4126L4.925 39.9626Z" fill="#FFF7E1"/>
<path d="M60.1 0.200195C27.0125 0.200195 0.0999756 27.1127 0.0999756 60.2002C0.0999756 93.2877 27.0125 120.2 60.1 120.2C93.1875 120.2 120.1 93.2877 120.1 60.2002C120.1 27.1127 93.1875 0.200195 60.1 0.200195ZM114.812 38.7877L89.8375 43.2002C89.225 40.0877 88.1375 37.1502 86.65 34.4627L105.85 23.3752C109.562 27.9877 112.6 33.1877 114.812 38.7877ZM118.825 58.7877L90.0375 53.7127C90.275 52.1877 90.4 50.6252 90.4 49.0627C90.4 47.4752 90.275 45.9252 90.0375 44.4127L115.262 39.9627C117.437 45.8627 118.675 52.2002 118.825 58.7877ZM73.9125 117.313C72.6 115.1 70.5875 113.35 68.2 112.388L46.4375 103.625C43.85 102.588 42.175 100.1 42.175 97.3127C42.175 95.3627 43.0125 93.5002 44.4875 92.2127L51.85 85.7252C52.7875 84.9002 53.3125 83.7127 53.3125 82.4752C53.3125 81.1002 52.675 79.8377 51.575 79.0127L42.6875 72.3502C42.4125 72.1377 42.1375 71.9127 41.8625 71.7002L48.2625 64.0877L52.675 68.5002L56.3875 64.7877L60.1 68.5002L63.8125 64.7877L67.525 68.5002L71.9375 64.0877L102.7 100.613C95.025 108.7 85.0875 114.6 73.9125 117.313ZM60.1 118.963C43.35 118.963 28.2125 111.9 17.5 100.613L41.0625 72.6377C41.35 72.8752 41.6375 73.1127 41.9375 73.3377L50.825 80.0002C51.6125 80.5877 52.0625 81.5002 52.0625 82.4752C52.0625 83.3627 51.675 84.2127 51.0125 84.8002L43.65 91.2877C41.925 92.8127 40.925 95.0127 40.925 97.3252C40.925 100.625 42.9 103.55 45.9625 104.788L67.725 113.55C69.75 114.363 71.4625 115.788 72.6375 117.613C68.6 118.488 64.4125 118.963 60.1 118.963ZM4.92498 39.9627L30.15 44.4127C29.9125 45.9252 29.7875 47.4877 29.7875 49.0627C29.7875 50.6377 29.9125 52.1877 30.15 53.7127L1.37498 58.7877C1.52498 52.2002 2.76248 45.8627 4.92498 39.9627ZM14.3625 23.3752L33.5625 34.4627C32.075 37.1502 30.9875 40.0877 30.375 43.2002L5.38748 38.7877C7.59998 33.1877 10.6375 27.9877 14.3625 23.3752ZM27.5875 11.2877L40.1625 26.2752C37.825 28.3252 35.8 30.7252 34.175 33.3877L15.1625 22.4127C18.75 18.1377 22.9375 14.3877 27.5875 11.2877ZM43.025 3.9752L49.15 20.8127C46.225 21.9502 43.5125 23.5252 41.1 25.4752L28.6375 10.6127C33.075 7.7877 37.9 5.5377 43.025 3.9752ZM59.4875 1.4502V18.7752C56.2875 18.8377 53.2125 19.4002 50.325 20.3877L44.225 3.6377C49.0875 2.2627 54.2 1.5127 59.4875 1.4502ZM75.975 3.6377L69.875 20.3877C66.9875 19.4002 63.9125 18.8377 60.7125 18.7752V1.4502C66 1.5127 71.1125 2.2627 75.975 3.6377ZM91.5625 10.6127L79.0875 25.4752C76.675 23.5377 73.9625 21.9502 71.0375 20.8127L77.1625 3.9752C82.3 5.5377 87.125 7.7877 91.5625 10.6127ZM89.175 49.0627C89.175 57.4502 85.575 65.3627 79.2875 70.8877L60.7125 48.8377V45.7377L68.9 41.6502L59.475 36.9377V48.8502L40.9125 70.8877C34.625 65.3627 31.025 57.4502 31.025 49.0627C31.025 33.0377 44.0625 19.9877 60.1 19.9877C76.1375 19.9877 89.175 33.0377 89.175 49.0627ZM104.637 64.8752L113.975 75.9627L112.062 77.8752L108.35 74.1627L104.637 77.8752L100.925 74.1627L97.2125 77.8752L95.3 75.9627L104.637 64.8752ZM88.625 81.9752L80.0875 71.8377C82.45 69.7627 84.45 67.3752 86.0375 64.7502L97.525 71.3877L88.625 81.9752ZM60.1 50.0252L71.1375 63.1377L67.525 66.7502L63.8125 63.0377L60.1 66.7502L56.3875 63.0377L52.675 66.7502L49.0625 63.1377L60.1 50.0252ZM60.7125 44.3502V38.9252L66.1375 41.6377L60.7125 44.3502ZM31.575 81.9752L22.6625 71.4002L34.15 64.7627C35.7375 67.3877 37.7375 69.7752 40.1 71.8502L31.575 81.9752ZM24.9 75.9627L22.9875 77.8752L19.275 74.1627L15.5625 77.8752L11.85 74.1752L8.13748 77.8877L6.22498 75.9627L15.5625 64.8752L24.9 75.9627ZM1.33748 60.2002C1.33748 60.1502 1.33748 60.1002 1.33748 60.0502L30.375 54.9252C30.975 58.0002 32.05 60.9502 33.55 63.6752L21.8625 70.4252L15.5625 62.9502L3.77498 76.9377C2.19998 71.6377 1.33748 66.0127 1.33748 60.2002ZM4.21248 78.3502L5.41248 76.9127L8.12498 79.6252L11.8375 75.9127L15.55 79.6252L19.2625 75.9127L22.975 79.6252L25.6875 76.9127L30.75 82.9252L16.625 99.7002C11.1 93.6252 6.82498 86.3502 4.21248 78.3502ZM89.425 82.9377L94.4875 76.9252L97.2 79.6377L100.912 75.9252L104.625 79.6377L108.337 75.9252L112.05 79.6377L114.762 76.9252L115.962 78.3627C113.35 86.3752 109.087 93.6377 103.537 99.7252L89.425 82.9377ZM104.637 62.9502L98.3375 70.4252L86.65 63.6752C88.15 60.9502 89.225 58.0002 89.825 54.9252L118.862 60.0502C118.862 60.1002 118.862 60.1502 118.862 60.2002C118.862 66.0127 118 71.6377 116.425 76.9377L104.637 62.9502ZM86.025 33.3877C84.4 30.7127 82.375 28.3252 80.0375 26.2752L92.6125 11.2877C97.2625 14.3877 101.45 18.1377 105.05 22.4127L86.025 33.3877Z" fill="black"/>
</g>
</g>
</g>
<g opacity="0.5" clip-path="url(#clip3_8_9010)">
<g clip-path="url(#clip4_8_9010)">
<path fill-rule="evenodd" clip-rule="evenodd" d="M48.6584 52.7002H48.0997C46.1665 52.7002 44.6 54.2674 44.6 56.2002V74.2002C44.6 76.1332 46.167 77.7002 48.1 77.7002H72.1C74.033 77.7002 75.6 76.1332 75.6 74.2002V56.2002C75.6 54.2674 74.0334 52.7002 72.1002 52.7002H71.5416C71.3268 49.9651 70.5114 47.2463 68.941 45.072C67.0416 42.4419 64.0944 40.7002 60.1 40.7002C56.1056 40.7002 53.1584 42.4419 51.259 45.072C49.6886 47.2463 48.8732 49.9651 48.6584 52.7002ZM51.6692 52.7002H68.5308C68.323 50.4773 67.6482 48.4058 66.509 46.8284C65.1584 44.9585 63.1056 43.7002 60.1 43.7002C57.0944 43.7002 55.0415 44.9585 53.691 46.8284C52.5518 48.4058 51.8769 50.4773 51.6692 52.7002ZM48.0997 55.7002C47.8238 55.7002 47.6 55.9238 47.6 56.2002V74.2002C47.6 74.4764 47.8238 74.7002 48.1 74.7002H72.1C72.3762 74.7002 72.6 74.4764 72.6 74.2002V56.2002C72.6 55.9238 72.3762 55.7002 72.1002 55.7002H48.0997ZM58.6 69.2002V61.2002H61.6V69.2002H58.6Z" fill="black"/>
</g>
</g>
<defs>
<clipPath id="clip0_8_9010">
<rect width="120" height="120" fill="white" transform="translate(0.0999756 0.200195)"/>
</clipPath>
<clipPath id="clip1_8_9010">
<rect width="120" height="120" fill="white" transform="translate(0.0999756 0.200195)"/>
</clipPath>
<clipPath id="clip2_8_9010">
<rect width="120" height="120" fill="white" transform="translate(0.0999756 0.200195)"/>
</clipPath>
<clipPath id="clip3_8_9010">
<rect width="48" height="48" fill="white" transform="translate(36.1 36.2002)"/>
</clipPath>
<clipPath id="clip4_8_9010">
<rect width="48" height="48" fill="white" transform="translate(36.1 36.2002)"/>
</clipPath>
</defs>
</svg>
