<svg width="93" height="93" viewBox="0 0 93 93" fill="none" xmlns="http://www.w3.org/2000/svg">
<rect x="0.5" y="0.800049" width="92" height="92" rx="46" fill="white"/>
<g opacity="0.1" clip-path="url(#clip0_8_4598)">
<g clip-path="url(#clip1_8_4598)">
<g clip-path="url(#clip2_8_4598)">
<path d="M46.5 92.8C71.9051 92.8 92.5 72.2051 92.5 46.8C92.5 21.3949 71.9051 0.800049 46.5 0.800049C21.0949 0.800049 0.5 21.3949 0.5 46.8C0.5 72.2051 21.0949 92.8 46.5 92.8Z" fill="white"/>
<path d="M26.5858 34.9358C27.8931 34.9358 28.9529 33.876 28.9529 32.5687C28.9529 31.2614 27.8931 30.2017 26.5858 30.2017C25.2785 30.2017 24.2188 31.2614 24.2188 32.5687C24.2188 33.876 25.2785 34.9358 26.5858 34.9358Z" fill="white"/>
<path d="M52.5854 57.0542C54.0038 55.6358 55.8821 54.8596 57.8754 54.8596C59.8113 54.8596 61.6321 55.5975 63.0313 56.92C62.3892 48.3621 55.2304 41.5867 46.5 41.5867C37.3479 41.5867 29.9017 49.0329 29.9017 58.185C29.9017 60.0058 30.2083 61.7596 30.7546 63.3983H46.2413L52.5854 57.0542ZM37.4917 52.4925C37.4917 49.0904 40.2613 46.3304 43.6538 46.3304C47.0558 46.3304 49.8158 49.1 49.8158 52.4925C49.8158 55.885 47.0463 58.6546 43.6538 58.6546C40.2517 58.6546 37.4917 55.8946 37.4917 52.4925Z" fill="#C9F2E3"/>
<path d="M43.6538 57.706C46.533 57.706 48.8671 55.3719 48.8671 52.4926C48.8671 49.6134 46.533 47.2793 43.6538 47.2793C40.7745 47.2793 38.4404 49.6134 38.4404 52.4926C38.4404 55.3719 40.7745 57.706 43.6538 57.706Z" fill="#FF5D5D"/>
<path d="M69.2604 35.8941H74.9529C76.7833 35.8941 78.2687 34.4087 78.2687 32.5783C78.2687 30.7479 76.7833 29.2625 74.9529 29.2625H69.2604C67.43 29.2625 65.9446 30.7479 65.9446 32.5783C65.9446 34.4087 67.43 35.8941 69.2604 35.8941ZM69.2604 30.2016H74.9529C76.2562 30.2016 77.32 31.2654 77.32 32.5687C77.32 33.872 76.2562 34.9358 74.9529 34.9358H69.2604C67.9571 34.9358 66.8933 33.872 66.8933 32.5687C66.8933 31.2654 67.9571 30.2016 69.2604 30.2016Z" fill="black"/>
<path d="M46.5 40.6379C36.8208 40.6379 28.9529 48.5059 28.9529 58.185C28.9529 67.8642 36.8208 75.7321 46.5 75.7321C56.1792 75.7321 64.0471 67.8642 64.0471 58.185C64.0471 48.5059 56.1792 40.6379 46.5 40.6379ZM46.5 41.5867C55.2304 41.5867 62.3892 48.3621 63.0312 56.9296C61.6321 55.5975 59.8112 54.8692 57.8754 54.8692C55.8725 54.8692 53.9942 55.6454 52.5854 57.0638L46.2412 63.4079H30.7546C30.2083 61.7692 29.9017 60.0154 29.9017 58.1946C29.9017 49.0329 37.3479 41.5867 46.5 41.5867ZM31.0996 64.3471H45.2925L37.5204 72.1192C34.655 70.2696 32.3933 67.5575 31.0996 64.3471ZM46.5 74.7834C43.5387 74.7834 40.7596 73.9975 38.3542 72.6271L53.2562 57.725C54.4925 56.4888 56.1312 55.8084 57.8754 55.8084C59.6196 55.8084 61.2679 56.4888 62.5042 57.725C62.715 57.9359 62.9067 58.1659 63.0887 58.4054C62.9642 67.4521 55.5754 74.7834 46.5 74.7834Z" fill="black"/>
<path d="M43.6538 58.6547C47.0558 58.6547 49.8158 55.8851 49.8158 52.4927C49.8158 49.1002 47.0463 46.3306 43.6538 46.3306C40.2517 46.3306 37.4917 49.1002 37.4917 52.4927C37.4917 55.8851 40.2517 58.6547 43.6538 58.6547ZM43.6538 47.2697C46.5288 47.2697 48.8671 49.6081 48.8671 52.4831C48.8671 55.3581 46.5288 57.6964 43.6538 57.6964C40.7788 57.6964 38.4404 55.3581 38.4404 52.4831C38.4404 49.6081 40.7788 47.2697 43.6538 47.2697Z" fill="black"/>
<path d="M14.7313 32.5688C14.7313 34.3992 16.2167 35.8846 18.0471 35.8846C19.8775 35.8846 21.3629 34.3992 21.3629 32.5688C21.3629 30.7383 19.8775 29.2529 18.0471 29.2529C16.2167 29.2529 14.7313 30.7383 14.7313 32.5688ZM20.4142 32.5688C20.4142 33.8721 19.3504 34.9358 18.0471 34.9358C16.7438 34.9358 15.68 33.8721 15.68 32.5688C15.68 31.2654 16.7438 30.2017 18.0471 30.2017C19.3504 30.2017 20.4142 31.2654 20.4142 32.5688Z" fill="black"/>
<path d="M26.5858 35.8941C28.4162 35.8941 29.9017 34.4087 29.9017 32.5783C29.9017 30.7479 28.4162 29.2625 26.5858 29.2625C24.7554 29.2625 23.27 30.7479 23.27 32.5783C23.27 34.4087 24.7554 35.8941 26.5858 35.8941ZM26.5858 30.2016C27.8892 30.2016 28.9529 31.2654 28.9529 32.5687C28.9529 33.872 27.8892 34.9358 26.5858 34.9358C25.2825 34.9358 24.2187 33.872 24.2187 32.5687C24.2187 31.2654 25.2729 30.2016 26.5858 30.2016Z" fill="black"/>
<path d="M55.5083 17.8679H37.4917V24.5092H55.5083V17.8679ZM38.4404 18.8167H40.3379V23.5604H38.4404V18.8167ZM41.2867 18.8167H43.1842V23.5604H41.2867V18.8167ZM44.1329 18.8167H46.0304V23.5604H44.1329V18.8167ZM46.9696 18.8167H48.8671V23.5604H46.9696V18.8167ZM49.8158 18.8167H51.7133V23.5604H49.8158V18.8167ZM54.5596 23.5604H52.6621V18.8167H54.5596V23.5604Z" fill="black"/>
<path d="M92.5 46.8C92.5 21.433 71.8671 0.800049 46.5 0.800049C21.1329 0.800049 0.5 21.433 0.5 46.8C0.5 58.0605 4.57292 68.3817 11.3196 76.3934L11.2525 76.4605L11.9233 77.1313L11.9425 77.1121C20.3758 86.7146 32.7383 92.8 46.5 92.8C60.2617 92.8 72.6242 86.7146 81.0575 77.1121L81.0767 77.1313L81.7475 76.4605L81.6804 76.3934C88.4271 68.3817 92.5 58.0605 92.5 46.8ZM46.9696 91.8417V78.5496C53.5917 78.3963 59.4375 75.0709 63.0504 70.0396H73.985L80.3867 76.4413C72.2217 85.7659 60.2808 91.698 46.9696 91.8417ZM12.6133 76.4317L19.015 70.03H29.9496C33.5625 75.0709 39.4083 78.3867 46.0304 78.54V91.8417C32.7192 91.698 20.7783 85.7659 12.6133 76.4317ZM11.3004 18.7305L18.9767 26.4067H18.0471C14.645 26.4067 11.885 29.1763 11.885 32.5688V46.3209H1.45833C1.57333 35.9038 5.23417 26.3205 11.3004 18.7305ZM46.0304 1.75838V15.0217H34.8275L29.135 26.4067H20.3183L11.8946 17.983C20.0788 8.1888 32.3262 1.90213 46.0304 1.75838ZM81.345 18.28L81.0767 18.0117L72.6817 26.4067H63.865L58.1725 15.0217H46.9696V1.75838C60.8079 1.90213 73.1704 8.31338 81.345 18.28ZM63.7021 69.0909C64.6317 67.6246 65.3983 66.0338 65.935 64.3471H80.1471C79.9075 67.0017 77.6746 69.0909 74.9529 69.0909H63.7021ZM46.5 77.62C35.7762 77.62 27.0554 68.8992 27.0554 58.1755C27.0554 56.5271 27.2663 54.8884 27.6687 53.2975C29.8825 44.7205 37.6258 38.7309 46.4904 38.7309C55.355 38.7309 63.0983 44.7205 65.3121 53.2975C65.7242 54.8788 65.9254 56.5271 65.9254 58.1755C65.9446 68.8992 57.2237 77.62 46.5 77.62ZM18.0471 69.0909C15.335 69.0909 13.0925 67.0017 12.8529 64.3471H27.065C27.6017 66.0338 28.3683 67.6246 29.2979 69.0909H18.0471ZM74.9529 27.3555C77.8279 27.3555 80.1662 29.6938 80.1662 32.5688V40.6284H62.9162C60.3862 33.853 53.8792 29.253 46.5 29.253C39.1208 29.253 32.6138 33.853 30.0742 40.638H12.8242V32.5784C12.8242 29.7034 15.1625 27.365 18.0375 27.365H74.9529V27.3555ZM57.5879 15.98L62.8013 26.4163H30.1987L35.4121 15.98H57.5879ZM80.1662 46.3305H64.5071L63.4913 42.4013C63.4242 42.1234 63.3283 41.855 63.2421 41.5867H80.1662V46.3305ZM12.8337 47.2696H15.2008H28.2533L27.0267 52.0134H12.8337V47.2696ZM12.8337 58.6546H26.1354C26.1737 60.2934 26.4133 61.8746 26.8158 63.3984H12.8337V58.6546ZM26.1258 57.7059H12.8337V52.9621H26.7871L26.7583 53.0675C26.3654 54.5817 26.1546 56.1342 26.1258 57.7059ZM30.4287 42.6409C32.3167 35.3192 38.9292 30.2017 46.5 30.2017C54.0708 30.2017 60.6833 35.3192 62.5712 42.6409L63.7979 47.4038C60.1562 41.5484 53.6875 37.7917 46.5 37.7917C39.3125 37.7917 32.8438 41.5484 29.2021 47.4038L30.4287 42.6409ZM12.8337 41.5867H29.7579C29.6717 41.855 29.5854 42.1234 29.5087 42.4013L28.4929 46.3305H15.2008H12.8337V41.5867ZM80.1662 63.3984H66.1937C66.5963 61.8746 66.8358 60.2934 66.8742 58.6546H80.1758V63.3984H80.1662ZM80.1662 57.7059H66.8742C66.8358 56.1342 66.6346 54.5721 66.2417 53.0675L66.2129 52.9621H80.1662V57.7059ZM80.1662 52.0134H65.9733L64.7467 47.2696H80.1662V52.0134ZM74.9529 26.4067H74.0233L81.6996 18.7305C87.7658 26.3205 91.4267 35.9038 91.5417 46.3305H81.115V32.5688C81.115 29.1763 78.355 26.4067 74.9529 26.4067ZM11.885 47.2696V63.868C11.885 67.1455 14.4629 69.8288 17.6925 70.0109L11.9904 75.713C5.51208 67.9984 1.57333 58.0892 1.45833 47.2696H11.885ZM75.3171 70.0205C78.5467 69.8288 81.1246 67.155 81.1246 63.8775V47.2696H91.5417C91.4267 58.0796 87.4879 67.9984 81.0096 75.713L75.3171 70.0205Z" fill="black"/>
</g>
</g>
</g>
<g opacity="0.5" clip-path="url(#clip3_8_4598)">
<g clip-path="url(#clip4_8_4598)">
<path fill-rule="evenodd" clip-rule="evenodd" d="M36.9654 40.55H36.4998C34.8888 40.55 33.5833 41.8561 33.5833 43.4667V58.4667C33.5833 60.0776 34.8892 61.3834 36.5 61.3834H56.5C58.1108 61.3834 59.4167 60.0776 59.4167 58.4667V43.4667C59.4167 41.8561 58.1112 40.55 56.5002 40.55H56.0347C55.8557 38.2708 55.1762 36.0051 53.8675 34.1932C52.2847 32.0015 49.8287 30.55 46.5 30.55C43.1713 30.55 40.7154 32.0015 39.1325 34.1932C37.8239 36.0051 37.1443 38.2708 36.9654 40.55ZM39.4744 40.55H53.5257C53.3525 38.6976 52.7902 36.9714 51.8408 35.6569C50.7153 34.0986 49.0047 33.05 46.5 33.05C43.9953 33.05 42.2846 34.0986 41.1592 35.6569C40.2098 36.9714 39.6474 38.6976 39.4744 40.55ZM36.4998 43.05C36.2699 43.05 36.0833 43.2364 36.0833 43.4667V58.4667C36.0833 58.6969 36.2699 58.8834 36.5 58.8834H56.5C56.7302 58.8834 56.9167 58.6969 56.9167 58.4667V43.4667C56.9167 43.2364 56.7302 43.05 56.5002 43.05H36.4998ZM45.25 54.3001V47.6334H47.75V54.3001H45.25Z" fill="black"/>
</g>
</g>
<defs>
<clipPath id="clip0_8_4598">
<rect width="92" height="92" fill="white" transform="translate(0.5 0.800049)"/>
</clipPath>
<clipPath id="clip1_8_4598">
<rect width="92" height="92" fill="white" transform="translate(0.5 0.800049)"/>
</clipPath>
<clipPath id="clip2_8_4598">
<rect width="92" height="92" fill="white" transform="translate(0.5 0.800049)"/>
</clipPath>
<clipPath id="clip3_8_4598">
<rect width="40" height="40" fill="white" transform="translate(26.5 26.8)"/>
</clipPath>
<clipPath id="clip4_8_4598">
<rect width="40" height="40" fill="white" transform="translate(26.5 26.8)"/>
</clipPath>
</defs>
</svg>
