<svg width="32" height="33" viewBox="0 0 32 33" fill="none" xmlns="http://www.w3.org/2000/svg">
<rect y="0.200195" width="32" height="32" rx="16" fill="black"/>
<path fill-rule="evenodd" clip-rule="evenodd" d="M8.95654 7.65869C9.1223 7.65869 9.28127 7.72454 9.39848 7.84175C9.51569 7.95896 9.58154 8.11793 9.58154 8.28369V9.33369H17.0815V11.0004H23.6682L21.3015 16.2087L23.6682 21.4254H15.8315V19.7587H9.58154V24.742H8.33154V8.28369C8.33154 8.11793 8.39739 7.95896 8.5146 7.84175C8.63181 7.72454 8.79078 7.65869 8.95654 7.65869ZM9.58154 18.5087H15.8315V10.5837H9.58154V18.5087ZM17.0815 20.1754H21.7282L19.9282 16.2087L21.7274 12.2504H17.0815V20.1754Z" fill="white"/>
</svg>
