<svg width="49" height="49" viewBox="0 0 49 49" fill="none" xmlns="http://www.w3.org/2000/svg">
<rect width="48" height="48" transform="translate(0.399999 0.399994)" fill="white"/>
<g opacity="0.1" clip-path="url(#clip0_9_9474)">
<g clip-path="url(#clip1_9_9474)">
<g clip-path="url(#clip2_9_9474)">
<path d="M24.4 48.4C37.6548 48.4 48.4 37.6548 48.4 24.4C48.4 11.1452 37.6548 0.399994 24.4 0.399994C11.1452 0.399994 0.399999 11.1452 0.399999 24.4C0.399999 37.6548 11.1452 48.4 24.4 48.4Z" fill="white"/>
<path d="M14.01 18.21C14.6921 18.21 15.245 17.6571 15.245 16.975C15.245 16.2929 14.6921 15.74 14.01 15.74C13.3279 15.74 12.775 16.2929 12.775 16.975C12.775 17.6571 13.3279 18.21 14.01 18.21Z" fill="white"/>
<path d="M27.575 29.75C28.315 29.01 29.295 28.605 30.335 28.605C31.345 28.605 32.295 28.99 33.025 29.68C32.69 25.215 28.955 21.68 24.4 21.68C19.625 21.68 15.74 25.565 15.74 30.34C15.74 31.29 15.9 32.205 16.185 33.06H24.265L27.575 29.75ZM19.7 27.37C19.7 25.595 21.145 24.155 22.915 24.155C24.69 24.155 26.13 25.6 26.13 27.37C26.13 29.14 24.685 30.585 22.915 30.585C21.14 30.585 19.7 29.145 19.7 27.37Z" fill="#C9F2E3"/>
<path d="M22.915 30.09C24.4172 30.09 25.635 28.8722 25.635 27.37C25.635 25.8678 24.4172 24.65 22.915 24.65C21.4128 24.65 20.195 25.8678 20.195 27.37C20.195 28.8722 21.4128 30.09 22.915 30.09Z" fill="#FF5D5D"/>
<path d="M36.275 18.71H39.245C40.2 18.71 40.975 17.935 40.975 16.98C40.975 16.025 40.2 15.25 39.245 15.25H36.275C35.32 15.25 34.545 16.025 34.545 16.98C34.545 17.935 35.32 18.71 36.275 18.71ZM36.275 15.74H39.245C39.925 15.74 40.48 16.295 40.48 16.975C40.48 17.655 39.925 18.21 39.245 18.21H36.275C35.595 18.21 35.04 17.655 35.04 16.975C35.04 16.295 35.595 15.74 36.275 15.74Z" fill="black"/>
<path d="M24.4 21.185C19.35 21.185 15.245 25.29 15.245 30.34C15.245 35.39 19.35 39.495 24.4 39.495C29.45 39.495 33.555 35.39 33.555 30.34C33.555 25.29 29.45 21.185 24.4 21.185ZM24.4 21.68C28.955 21.68 32.69 25.215 33.025 29.685C32.295 28.99 31.345 28.61 30.335 28.61C29.29 28.61 28.31 29.015 27.575 29.755L24.265 33.065H16.185C15.9 32.21 15.74 31.295 15.74 30.345C15.74 25.565 19.625 21.68 24.4 21.68ZM16.365 33.555H23.77L19.715 37.61C18.22 36.645 17.04 35.23 16.365 33.555ZM24.4 39C22.855 39 21.405 38.59 20.15 37.875L27.925 30.1C28.57 29.455 29.425 29.1 30.335 29.1C31.245 29.1 32.105 29.455 32.75 30.1C32.86 30.21 32.96 30.33 33.055 30.455C32.99 35.175 29.135 39 24.4 39Z" fill="black"/>
<path d="M22.915 30.585C24.69 30.585 26.13 29.14 26.13 27.37C26.13 25.6 24.685 24.155 22.915 24.155C21.14 24.155 19.7 25.6 19.7 27.37C19.7 29.14 21.14 30.585 22.915 30.585ZM22.915 24.645C24.415 24.645 25.635 25.865 25.635 27.365C25.635 28.865 24.415 30.085 22.915 30.085C21.415 30.085 20.195 28.865 20.195 27.365C20.195 25.865 21.415 24.645 22.915 24.645Z" fill="black"/>
<path d="M7.825 16.975C7.825 17.93 8.6 18.705 9.555 18.705C10.51 18.705 11.285 17.93 11.285 16.975C11.285 16.02 10.51 15.245 9.555 15.245C8.6 15.245 7.825 16.02 7.825 16.975ZM10.79 16.975C10.79 17.655 10.235 18.21 9.555 18.21C8.875 18.21 8.32 17.655 8.32 16.975C8.32 16.295 8.875 15.74 9.555 15.74C10.235 15.74 10.79 16.295 10.79 16.975Z" fill="black"/>
<path d="M14.01 18.71C14.965 18.71 15.74 17.935 15.74 16.98C15.74 16.025 14.965 15.25 14.01 15.25C13.055 15.25 12.28 16.025 12.28 16.98C12.28 17.935 13.055 18.71 14.01 18.71ZM14.01 15.74C14.69 15.74 15.245 16.295 15.245 16.975C15.245 17.655 14.69 18.21 14.01 18.21C13.33 18.21 12.775 17.655 12.775 16.975C12.775 16.295 13.325 15.74 14.01 15.74Z" fill="black"/>
<path d="M29.1 9.30499H19.7V12.77H29.1V9.30499ZM20.195 9.79999H21.185V12.275H20.195V9.79999ZM21.68 9.79999H22.67V12.275H21.68V9.79999ZM23.165 9.79999H24.155V12.275H23.165V9.79999ZM24.645 9.79999H25.635V12.275H24.645V9.79999ZM26.13 9.79999H27.12V12.275H26.13V9.79999ZM28.605 12.275H27.615V9.79999H28.605V12.275Z" fill="black"/>
<path d="M48.4 24.4C48.4 11.165 37.635 0.399994 24.4 0.399994C11.165 0.399994 0.399999 11.165 0.399999 24.4C0.399999 30.275 2.525 35.66 6.045 39.84L6.01 39.875L6.36 40.225L6.37 40.215C10.77 45.225 17.22 48.4 24.4 48.4C31.58 48.4 38.03 45.225 42.43 40.215L42.44 40.225L42.79 39.875L42.755 39.84C46.275 35.66 48.4 30.275 48.4 24.4ZM24.645 47.9V40.965C28.1 40.885 31.15 39.15 33.035 36.525H38.74L42.08 39.865C37.82 44.73 31.59 47.825 24.645 47.9ZM6.72 39.86L10.06 36.52H15.765C17.65 39.15 20.7 40.88 24.155 40.96V47.9C17.21 47.825 10.98 44.73 6.72 39.86ZM6.035 9.75499L10.04 13.76H9.555C7.78 13.76 6.34 15.205 6.34 16.975V24.15H0.899999C0.959999 18.715 2.87 13.715 6.035 9.75499ZM24.155 0.899994V7.81999H18.31L15.34 13.76H10.74L6.345 9.36499C10.615 4.25499 17.005 0.974994 24.155 0.899994ZM42.58 9.51999L42.44 9.37999L38.06 13.76H33.46L30.49 7.81999H24.645V0.899994C31.865 0.974994 38.315 4.31999 42.58 9.51999ZM33.375 36.03C33.86 35.265 34.26 34.435 34.54 33.555H41.955C41.83 34.94 40.665 36.03 39.245 36.03H33.375ZM24.4 40.48C18.805 40.48 14.255 35.93 14.255 30.335C14.255 29.475 14.365 28.62 14.575 27.79C15.73 23.315 19.77 20.19 24.395 20.19C29.02 20.19 33.06 23.315 34.215 27.79C34.43 28.615 34.535 29.475 34.535 30.335C34.545 35.93 29.995 40.48 24.4 40.48ZM9.555 36.03C8.14 36.03 6.97 34.94 6.845 33.555H14.26C14.54 34.435 14.94 35.265 15.425 36.03H9.555ZM39.245 14.255C40.745 14.255 41.965 15.475 41.965 16.975V21.18H32.965C31.645 17.645 28.25 15.245 24.4 15.245C20.55 15.245 17.155 17.645 15.83 21.185H6.83V16.98C6.83 15.48 8.05 14.26 9.55 14.26H39.245V14.255ZM30.185 8.31999L32.905 13.765H15.895L18.615 8.31999H30.185ZM41.965 24.155H33.795L33.265 22.105C33.23 21.96 33.18 21.82 33.135 21.68H41.965V24.155ZM6.835 24.645H8.07H14.88L14.24 27.12H6.835V24.645ZM6.835 30.585H13.775C13.795 31.44 13.92 32.265 14.13 33.06H6.835V30.585ZM13.77 30.09H6.835V27.615H14.115L14.1 27.67C13.895 28.46 13.785 29.27 13.77 30.09ZM16.015 22.23C17 18.41 20.45 15.74 24.4 15.74C28.35 15.74 31.8 18.41 32.785 22.23L33.425 24.715C31.525 21.66 28.15 19.7 24.4 19.7C20.65 19.7 17.275 21.66 15.375 24.715L16.015 22.23ZM6.835 21.68H15.665C15.62 21.82 15.575 21.96 15.535 22.105L15.005 24.155H8.07H6.835V21.68ZM41.965 33.06H34.675C34.885 32.265 35.01 31.44 35.03 30.585H41.97V33.06H41.965ZM41.965 30.09H35.03C35.01 29.27 34.905 28.455 34.7 27.67L34.685 27.615H41.965V30.09ZM41.965 27.12H34.56L33.92 24.645H41.965V27.12ZM39.245 13.76H38.76L42.765 9.75499C45.93 13.715 47.84 18.715 47.9 24.155H42.46V16.975C42.46 15.205 41.02 13.76 39.245 13.76ZM6.34 24.645V33.305C6.34 35.015 7.685 36.415 9.37 36.51L6.395 39.485C3.015 35.46 0.959999 30.29 0.899999 24.645H6.34ZM39.435 36.515C41.12 36.415 42.465 35.02 42.465 33.31V24.645H47.9C47.84 30.285 45.785 35.46 42.405 39.485L39.435 36.515Z" fill="black"/>
</g>
</g>
</g>
<path fill-rule="evenodd" clip-rule="evenodd" d="M18.68 20.65H18.4C17.9359 20.65 17.4908 20.8344 17.1626 21.1626C16.8344 21.4907 16.65 21.9359 16.65 22.4V31.4C16.65 32.366 17.434 33.15 18.4 33.15H30.4C30.8641 33.15 31.3092 32.9656 31.6374 32.6374C31.9656 32.3092 32.15 31.8641 32.15 31.4V22.4C32.15 21.9359 31.9656 21.4907 31.6374 21.1626C31.3092 20.8344 30.8641 20.65 30.4 20.65H30.12C30.013 19.282 29.606 17.923 28.82 16.836C27.87 15.52 26.398 14.65 24.4 14.65C22.402 14.65 20.93 15.52 19.98 16.836C19.194 17.923 18.787 19.282 18.68 20.65ZM20.185 20.65H28.615C28.511 19.539 28.175 18.503 27.605 17.714C26.929 16.78 25.903 16.15 24.4 16.15C22.897 16.15 21.87 16.78 21.196 17.714C20.626 18.503 20.288 19.539 20.185 20.65ZM18.4 22.15C18.3337 22.15 18.2701 22.1763 18.2232 22.2232C18.1763 22.2701 18.15 22.3337 18.15 22.4V31.4C18.15 31.538 18.262 31.65 18.4 31.65H30.4C30.4663 31.65 30.5299 31.6237 30.5768 31.5768C30.6237 31.5299 30.65 31.4663 30.65 31.4V22.4C30.65 22.3337 30.6237 22.2701 30.5768 22.2232C30.5299 22.1763 30.4663 22.15 30.4 22.15H18.4ZM23.65 28.9V24.9H25.15V28.9H23.65Z" fill="#757575"/>
<defs>
<clipPath id="clip0_9_9474">
<rect width="48" height="48" fill="white" transform="translate(0.399999 0.399994)"/>
</clipPath>
<clipPath id="clip1_9_9474">
<rect width="48" height="48" fill="white" transform="translate(0.399999 0.399994)"/>
</clipPath>
<clipPath id="clip2_9_9474">
<rect width="48" height="48" fill="white" transform="translate(0.399999 0.399994)"/>
</clipPath>
</defs>
</svg>
