<svg width="32" height="33" viewBox="0 0 32 33" fill="none" xmlns="http://www.w3.org/2000/svg">
<rect y="0.600006" width="32" height="32" rx="16" fill="black"/>
<path fill-rule="evenodd" clip-rule="evenodd" d="M17.3148 10.6758L19.5415 8.45001L20.4248 9.33335L18.199 11.56C17.6332 12.1258 17.3198 12.7783 17.2657 13.3925C17.2298 13.8092 17.3107 14.2283 17.5382 14.6192L21.6248 10.5333L22.5082 11.4167L18.4198 15.505C18.814 15.7392 19.2315 15.8275 19.6415 15.8C20.2398 15.7608 20.864 15.4717 21.3882 14.9475C22.099 14.2359 22.8085 13.5228 23.5165 12.8083L23.7048 12.6183L24.594 13.4975L24.4048 13.6892C23.6951 14.4044 22.984 15.1183 22.2715 15.8308C21.564 16.5383 20.6657 16.9842 19.724 17.0467C18.9364 17.0992 18.1554 16.8726 17.5182 16.4067L16.4923 17.4333L22.9257 23.8667L22.0415 24.75L17.0665 19.775L14.5665 22.275L13.1082 20.8167L9.17484 24.75L8.29151 23.8667L12.2248 19.9333L8.56484 16.2742C8.19722 15.9066 7.9056 15.4702 7.70664 14.9899C7.50768 14.5096 7.40527 13.9949 7.40527 13.475C7.40527 12.9551 7.50768 12.4404 7.70664 11.9601C7.9056 11.4798 8.19722 11.0434 8.56484 10.6758L9.14984 10.0908L15.6082 16.5492L16.6357 15.5225C16.1674 14.8751 15.9492 14.08 16.0215 13.2842C16.1048 12.3283 16.579 11.4125 17.3148 10.6758ZM16.1832 18.8917L9.17318 11.8817C8.79365 12.4034 8.61281 13.0434 8.66323 13.6866C8.71364 14.3298 8.992 14.9338 9.44818 15.39L14.5665 20.5075L16.1832 18.8917Z" fill="white"/>
</svg>
