<svg width="121" height="120" viewBox="0 0 121 120" fill="none" xmlns="http://www.w3.org/2000/svg">
<rect x="0.0999756" width="120" height="120" rx="60" fill="white"/>
<g opacity="0.1" clip-path="url(#clip0_8_9220)">
<g clip-path="url(#clip1_8_9220)">
<g clip-path="url(#clip2_8_9220)">
<path d="M11.85 63.0876C13.5551 63.0876 14.9375 61.7053 14.9375 60.0001C14.9375 58.2949 13.5551 56.9126 11.85 56.9126C10.1448 56.9126 8.76245 58.2949 8.76245 60.0001C8.76245 61.7053 10.1448 63.0876 11.85 63.0876Z" fill="#FFCCCC"/>
<path d="M93.5 39.1123L91.4875 43.1373L87.4625 45.1498L91.4875 47.1623L93.5 51.1998L95.5125 47.1623L99.5375 45.1498L95.5125 43.1373L93.5 39.1123Z" fill="#FEE39A"/>
<path d="M26.7 68.7998L24.6875 72.8373L20.6625 74.8498L24.6875 76.8623L26.7 80.8873L28.7125 76.8623L32.7375 74.8498L28.7125 72.8373L26.7 68.7998Z" fill="#FEE39A"/>
<path d="M24.6875 43.1373L20.6625 45.1498L24.6875 47.1623L26.7 51.1998L28.7125 47.1623L32.7375 45.1498L28.7125 43.1373L26.7 39.1123L24.6875 43.1373Z" fill="#FEE39A"/>
<path d="M60.1 1.2373C27.7 1.2373 1.33746 27.5998 1.33746 59.9998C1.33746 73.7873 6.12496 86.4623 14.1 96.4998H40.975C41.2125 94.8498 42.3625 93.4748 44 92.9748L57.2875 88.9498C58.575 88.5623 59.4875 87.3373 59.4875 85.9873V54.8123C58.4 54.6623 57.375 54.1498 56.6375 53.3248L29.025 22.3748H78.3L84.9875 14.1623L85.4625 14.5498L85.9375 14.9373L79.8875 22.3748H91.1625L63.575 53.3248C62.8375 54.1623 61.8125 54.6623 60.725 54.8123V85.9748C60.725 87.3248 61.625 88.5498 62.925 88.9373L76.2125 92.9623C77.85 93.4623 79 94.8373 79.2375 96.4873H106.112C114.087 86.4498 118.875 73.7748 118.875 59.9873C118.862 27.5998 92.5 1.2373 60.1 1.2373ZM11.85 64.3248C9.46246 64.3248 7.52496 62.3873 7.52496 59.9998C7.52496 57.6123 9.46246 55.6748 11.85 55.6748C14.2375 55.6748 16.175 57.6123 16.175 59.9998C16.175 62.3873 14.2375 64.3248 11.85 64.3248ZM29.6375 77.7748L26.7 83.6498L23.7625 77.7748L17.8875 74.8373L23.7625 71.8998L26.7 66.0248L29.6375 71.8998L35.5125 74.8373L29.6375 77.7748ZM41.5375 55.6748C43.925 55.6748 45.8625 57.6123 45.8625 59.9998C45.8625 62.3873 43.925 64.3248 41.5375 64.3248C39.15 64.3248 37.2125 62.3873 37.2125 59.9998C37.2125 57.6123 39.15 55.6748 41.5375 55.6748ZM29.6375 42.2248L35.5125 45.1623L29.6375 48.0998L26.7 53.9748L23.7625 48.0998L17.8875 45.1623L23.7625 42.2248L26.7 36.3498L29.6375 42.2248ZM78.6625 64.3248C76.275 64.3248 74.3375 62.3873 74.3375 59.9998C74.3375 57.6123 76.275 55.6748 78.6625 55.6748C81.05 55.6748 82.9875 57.6123 82.9875 59.9998C82.9875 62.3873 81.05 64.3248 78.6625 64.3248ZM96.4375 77.7748L93.5 83.6498L90.5625 77.7748L84.6875 74.8373L90.5625 71.8998L93.5 66.0248L96.4375 71.8998L102.312 74.8373L96.4375 77.7748ZM108.35 55.6748C110.737 55.6748 112.675 57.6123 112.675 59.9998C112.675 62.3873 110.737 64.3248 108.35 64.3248C105.962 64.3248 104.025 62.3873 104.025 59.9998C104.025 57.6123 105.962 55.6748 108.35 55.6748ZM96.4375 48.0873L93.5 53.9623L90.5625 48.0873L84.6875 45.1498L90.5625 42.2123L93.5 36.3373L96.4375 42.2123L102.312 45.1498L96.4375 48.0873Z" fill="#34E0A1"/>
<path d="M41.5375 63.0876C43.2426 63.0876 44.6249 61.7053 44.6249 60.0001C44.6249 58.2949 43.2426 56.9126 41.5375 56.9126C39.8323 56.9126 38.45 58.2949 38.45 60.0001C38.45 61.7053 39.8323 63.0876 41.5375 63.0876Z" fill="#FFCCCC"/>
<path d="M108.35 63.0876C110.055 63.0876 111.437 61.7053 111.437 60.0001C111.437 58.2949 110.055 56.9126 108.35 56.9126C106.645 56.9126 105.262 58.2949 105.262 60.0001C105.262 61.7053 106.645 63.0876 108.35 63.0876Z" fill="#FFCCCC"/>
<path d="M78.6624 63.0876C80.3676 63.0876 81.7499 61.7053 81.7499 60.0001C81.7499 58.2949 80.3676 56.9126 78.6624 56.9126C76.9573 56.9126 75.575 58.2949 75.575 60.0001C75.575 61.7053 76.9573 63.0876 78.6624 63.0876Z" fill="#FFCCCC"/>
<path d="M40.925 97.7373H15.1C25.8875 110.587 42.05 118.762 60.1 118.762C78.15 118.762 94.3125 110.575 105.1 97.7373H79.275H40.925Z" fill="#DFD3EE"/>
<path d="M93.5 68.7998L91.4875 72.8373L87.4625 74.8498L91.4875 76.8623L93.5 80.8873L95.5125 76.8623L99.5375 74.8498L95.5125 72.8373L93.5 68.7998Z" fill="#FEE39A"/>
<path d="M88.4125 23.6123H78.8875L71.8125 32.2998H80.6625L88.4125 23.6123Z" fill="#34E0A1"/>
<path d="M39.5375 32.2998H70.225L77.2875 23.6123H31.7875L39.5375 32.2998Z" fill="#34E0A1"/>
<path d="M44.35 94.1501C43.2625 94.4751 42.45 95.4001 42.225 96.4876H77.975C77.75 95.4001 76.9375 94.4751 75.85 94.1501L62.55 90.1251C61.4875 89.8001 60.6375 89.1126 60.1 88.2251C59.5625 89.1126 58.7 89.8001 57.65 90.1251L44.35 94.1501Z" fill="white"/>
<path d="M62.65 52.5001L79.5625 33.5376H70.8125L67.5375 37.5626C68.9125 39.2251 68.5624 42.1751 66.5624 44.6376C65.0874 46.4376 63.1749 47.4501 61.5 47.4501C60.9 47.4501 60.3249 47.3126 59.8249 47.0501L58.5499 48.6126L58.075 48.2251L57.6 47.8376L58.8874 46.2501C58.2624 45.4876 57.9625 44.4626 58.075 43.2501C58.2125 41.8751 58.8375 40.4251 59.8499 39.1751C60.8624 37.9251 62.15 37.0126 63.475 36.6126C64.6375 36.2501 65.7125 36.3376 66.575 36.7876L69.2125 33.5501H40.6375L57.5499 52.5001C58.8499 53.9501 61.35 53.9501 62.65 52.5001Z" fill="white"/>
<path d="M64.925 37.6001C64.5875 37.6001 64.225 37.6626 63.8375 37.7751C62.75 38.1126 61.675 38.8876 60.8125 39.9376C59.95 41.0001 59.4125 42.2126 59.3 43.3501C59.2 44.4001 59.475 45.2376 60.075 45.7376C61.375 46.7876 63.9 45.9376 65.6 43.8501C67.2875 41.7751 67.625 39.1126 66.325 38.0626C65.9625 37.7501 65.475 37.6001 64.925 37.6001Z" fill="#00AA6C"/>
<path d="M60.1 0C27.0125 0 0.0999756 26.9125 0.0999756 60C0.0999756 93.0875 27.0125 120 60.1 120C93.1875 120 120.1 93.0875 120.1 60C120.1 26.9125 93.1875 0 60.1 0ZM60.1 118.763C42.05 118.763 25.8875 110.575 15.1 97.7375H40.925H79.275H105.1C94.3125 110.575 78.15 118.763 60.1 118.763ZM60.0875 45.7375C59.4875 45.25 59.2125 44.4 59.3125 43.35C59.425 42.2125 59.9625 41 60.825 39.9375C61.6875 38.875 62.7625 38.1125 63.85 37.775C64.2375 37.6625 64.6 37.6 64.9375 37.6C65.4875 37.6 65.9625 37.75 66.3375 38.0625C67.6375 39.125 67.3 41.775 65.6125 43.85C63.9125 45.9375 61.375 46.7875 60.0875 45.7375ZM80.6625 32.3H71.8125L78.8875 23.6125H88.4125L80.6625 32.3ZM70.225 32.3H39.5375L31.7875 23.6125H77.2875L70.225 32.3ZM69.2125 33.5375L66.575 36.775C65.7125 36.3125 64.6375 36.2375 63.475 36.6C62.15 37.0125 60.8625 37.925 59.85 39.1625C58.8375 40.4 58.2 41.85 58.075 43.2375C57.9625 44.45 58.25 45.4875 58.8875 46.2375L57.6 47.825L58.075 48.2125L58.55 48.6L59.825 47.0375C60.325 47.3125 60.9 47.4375 61.5 47.4375C63.175 47.4375 65.1 46.4375 66.5625 44.625C68.5625 42.175 68.9125 39.2125 67.5375 37.55L70.8125 33.525H79.5625L62.65 52.5C61.35 53.95 58.85 53.95 57.55 52.5L40.6375 33.5375H69.2125ZM60.1 88.225C60.6375 89.1125 61.5 89.8 62.55 90.125L75.8375 94.15C76.925 94.475 77.7375 95.4 77.9625 96.4875H42.225C42.45 95.4 43.2625 94.475 44.35 94.15L57.6375 90.125C58.7 89.8 59.5625 89.1125 60.1 88.225ZM106.1 96.5H79.225C78.9875 94.85 77.8375 93.475 76.2 92.975L62.9125 88.95C61.625 88.5625 60.7125 87.3375 60.7125 85.9875V54.8125C61.8 54.6625 62.825 54.15 63.5625 53.325L91.175 22.375H79.9L85.95 14.9375L85.475 14.55L85 14.1625L78.3125 22.375H29.025L56.625 53.325C57.3625 54.1625 58.3875 54.6625 59.475 54.8125V85.975C59.475 87.325 58.575 88.55 57.275 88.9375L43.9875 92.9625C42.35 93.4625 41.2 94.8375 40.9625 96.4875H14.1C6.12498 86.4625 1.33748 73.7875 1.33748 60C1.33748 27.6 27.7 1.2375 60.1 1.2375C92.5 1.2375 118.862 27.6 118.862 60C118.862 73.7875 114.075 86.4625 106.1 96.5Z" fill="black"/>
<path d="M93.5 36.3501L90.5625 42.2251L84.6875 45.1626L90.5625 48.1001L93.5 53.9751L96.4375 48.1001L102.312 45.1626L96.4375 42.2251L93.5 36.3501ZM95.5125 47.1626L93.5 51.1876L91.4875 47.1626L87.4625 45.1501L91.4875 43.1376L93.5 39.1126L95.5125 43.1376L99.5375 45.1501L95.5125 47.1626Z" fill="black"/>
<path d="M93.5 66.0376L90.5625 71.9126L84.6875 74.8501L90.5625 77.7876L93.5 83.6626L96.4375 77.7876L102.312 74.8501L96.4375 71.9126L93.5 66.0376ZM95.5125 76.8626L93.5 80.8876L91.4875 76.8626L87.4625 74.8501L91.4875 72.8376L93.5 68.8126L95.5125 72.8376L99.5375 74.8501L95.5125 76.8626Z" fill="black"/>
<path d="M23.7625 42.2251L17.8875 45.1626L23.7625 48.1001L26.7 53.9751L29.6375 48.1001L35.5125 45.1626L29.6375 42.2251L26.7 36.3501L23.7625 42.2251ZM32.7375 45.1501L28.7125 47.1626L26.7 51.1876L24.6875 47.1626L20.6625 45.1501L24.6875 43.1376L26.7 39.1126L28.7125 43.1376L32.7375 45.1501Z" fill="black"/>
<path d="M26.7 66.0376L23.7625 71.9126L17.8875 74.8501L23.7625 77.7876L26.7 83.6626L29.6375 77.7876L35.5125 74.8501L29.6375 71.9126L26.7 66.0376ZM28.7125 76.8626L26.7 80.8876L24.6875 76.8626L20.6625 74.8501L24.6875 72.8376L26.7 68.8126L28.7125 72.8376L32.7375 74.8501L28.7125 76.8626Z" fill="black"/>
<path d="M78.6625 55.6748C76.275 55.6748 74.3375 57.6123 74.3375 59.9998C74.3375 62.3873 76.275 64.3248 78.6625 64.3248C81.05 64.3248 82.9875 62.3873 82.9875 59.9998C82.9875 57.6123 81.05 55.6748 78.6625 55.6748ZM78.6625 63.0873C76.9625 63.0873 75.575 61.6998 75.575 59.9998C75.575 58.2998 76.9625 56.9123 78.6625 56.9123C80.3625 56.9123 81.75 58.2998 81.75 59.9998C81.75 61.6998 80.3625 63.0873 78.6625 63.0873Z" fill="black"/>
<path d="M108.35 64.3248C110.737 64.3248 112.675 62.3873 112.675 59.9998C112.675 57.6123 110.737 55.6748 108.35 55.6748C105.962 55.6748 104.025 57.6123 104.025 59.9998C104.025 62.3873 105.962 64.3248 108.35 64.3248ZM108.35 56.9123C110.05 56.9123 111.437 58.2998 111.437 59.9998C111.437 61.6998 110.05 63.0873 108.35 63.0873C106.65 63.0873 105.262 61.6998 105.262 59.9998C105.262 58.2998 106.637 56.9123 108.35 56.9123Z" fill="black"/>
<path d="M11.85 55.6748C9.46246 55.6748 7.52496 57.6123 7.52496 59.9998C7.52496 62.3873 9.46246 64.3248 11.85 64.3248C14.2375 64.3248 16.175 62.3873 16.175 59.9998C16.175 57.6123 14.2375 55.6748 11.85 55.6748ZM11.85 63.0873C10.15 63.0873 8.76246 61.6998 8.76246 59.9998C8.76246 58.2998 10.15 56.9123 11.85 56.9123C13.55 56.9123 14.9375 58.2998 14.9375 59.9998C14.9375 61.6998 13.5625 63.0873 11.85 63.0873Z" fill="black"/>
<path d="M41.5375 64.3248C43.925 64.3248 45.8625 62.3873 45.8625 59.9998C45.8625 57.6123 43.925 55.6748 41.5375 55.6748C39.15 55.6748 37.2125 57.6123 37.2125 59.9998C37.2125 62.3873 39.15 64.3248 41.5375 64.3248ZM41.5375 56.9123C43.2375 56.9123 44.625 58.2998 44.625 59.9998C44.625 61.6998 43.2375 63.0873 41.5375 63.0873C39.8375 63.0873 38.45 61.6998 38.45 59.9998C38.45 58.2998 39.8375 56.9123 41.5375 56.9123Z" fill="black"/>
</g>
</g>
</g>
<g opacity="0.5" clip-path="url(#clip3_8_9220)">
<g clip-path="url(#clip4_8_9220)">
<path fill-rule="evenodd" clip-rule="evenodd" d="M48.6584 52.5H48.0997C46.1665 52.5 44.6 54.0672 44.6 56V74C44.6 75.933 46.167 77.5 48.1 77.5H72.1C74.033 77.5 75.6 75.933 75.6 74V56C75.6 54.0672 74.0334 52.5 72.1002 52.5H71.5416C71.3268 49.7649 70.5114 47.0461 68.941 44.8718C67.0416 42.2417 64.0944 40.5 60.1 40.5C56.1056 40.5 53.1584 42.2417 51.259 44.8718C49.6886 47.0461 48.8732 49.7649 48.6584 52.5ZM51.6692 52.5H68.5308C68.323 50.2771 67.6482 48.2056 66.509 46.6282C65.1584 44.7583 63.1056 43.5 60.1 43.5C57.0944 43.5 55.0415 44.7583 53.691 46.6282C52.5518 48.2056 51.8769 50.2771 51.6692 52.5ZM48.0997 55.5C47.8238 55.5 47.6 55.7236 47.6 56V74C47.6 74.2762 47.8238 74.5 48.1 74.5H72.1C72.3762 74.5 72.6 74.2762 72.6 74V56C72.6 55.7236 72.3762 55.5 72.1002 55.5H48.0997ZM58.6 69V61H61.6V69H58.6Z" fill="black"/>
</g>
</g>
<defs>
<clipPath id="clip0_8_9220">
<rect width="120" height="120" fill="white" transform="translate(0.0999756)"/>
</clipPath>
<clipPath id="clip1_8_9220">
<rect width="120" height="120" fill="white" transform="translate(0.0999756)"/>
</clipPath>
<clipPath id="clip2_8_9220">
<rect width="120" height="120" fill="white" transform="translate(0.0999756)"/>
</clipPath>
<clipPath id="clip3_8_9220">
<rect width="48" height="48" fill="white" transform="translate(36.1 36)"/>
</clipPath>
<clipPath id="clip4_8_9220">
<rect width="48" height="48" fill="white" transform="translate(36.1 36)"/>
</clipPath>
</defs>
</svg>
