<svg width="32" height="33" viewBox="0 0 32 33" fill="none" xmlns="http://www.w3.org/2000/svg">
<rect y="0.199951" width="32" height="32" rx="16" fill="black"/>
<path fill-rule="evenodd" clip-rule="evenodd" d="M16.004 9.44409L24.2073 22.9558H7.7915L11.5707 17.0058L16.004 9.44409ZM12.6165 17.6916L10.0665 21.7066H21.9848L19.8482 18.1866L19.7882 18.2366C19.4248 18.5266 18.8723 18.7899 18.0957 18.7899C17.6382 18.7899 17.2457 18.6358 16.9123 18.4499C16.639 18.2906 16.3759 18.1141 16.1248 17.9216L16.009 17.8366C15.4373 17.4208 14.959 17.1233 14.3457 17.1233C13.6223 17.1233 13.1723 17.3024 12.9182 17.4524C12.8072 17.5181 12.7057 17.5985 12.6165 17.6916ZM19.179 17.0849L16.0215 11.8849L13.6573 15.9183C13.8684 15.8888 14.0979 15.8738 14.3457 15.8733C15.3998 15.8733 16.1707 16.4083 16.7448 16.8258L16.8732 16.9199C17.1182 17.0991 17.3182 17.2449 17.5215 17.3591C17.7482 17.4849 17.9282 17.5399 18.0957 17.5399C18.569 17.5399 18.8498 17.3866 19.0073 17.2599C19.0907 17.1933 19.1457 17.1299 19.1773 17.0866L19.179 17.0849Z" fill="white"/>
</svg>
