<svg width="32" height="32" viewBox="0 0 32 32" fill="none" xmlns="http://www.w3.org/2000/svg">
<rect width="32" height="32" rx="16" fill="black"/>
<path fill-rule="evenodd" clip-rule="evenodd" d="M24.5168 9.52979H24.5418V8.27979H10.4902V9.52979H10.516L10.5218 9.81062C10.5277 10.0906 10.596 10.469 10.7785 10.8365V15.9606L10.0768 15.1823H7.4585V16.4323H9.521L10.9543 18.0206V21.4373H11.371C11.4668 22.0724 11.7872 22.6521 12.2741 23.0711C12.761 23.4901 13.382 23.7205 14.0243 23.7205C14.6667 23.7205 15.2877 23.4901 15.7746 23.0711C16.2614 22.6521 16.5819 22.0724 16.6777 21.4373H21.3935C21.2854 21.6911 21.243 21.968 21.2703 22.2425C21.2976 22.517 21.3937 22.7802 21.5497 23.0077C21.7057 23.2352 21.9166 23.4196 22.1628 23.544C22.409 23.6684 22.6827 23.7286 22.9583 23.7192C23.234 23.7098 23.5029 23.6309 23.74 23.49C23.9772 23.3491 24.1749 23.1506 24.315 22.913C24.4551 22.6754 24.533 22.4062 24.5415 22.1305C24.5499 21.8548 24.4887 21.5814 24.3635 21.3356V16.6215H24.3443V10.6798H24.3243C24.4552 10.364 24.506 10.0506 24.511 9.81062L24.5168 9.52979ZM12.0285 16.6215V11.9098C12.2413 11.9759 12.4782 12.0095 12.7393 12.0106C13.4477 12.0106 13.9727 11.7456 14.331 11.3665C14.6902 11.7456 15.216 12.0106 15.9243 12.0106C16.6327 12.0106 17.1577 11.7456 17.516 11.3665C17.8752 11.7456 18.401 12.0106 19.1085 12.0106C19.8168 12.0106 20.3418 11.7456 20.701 11.3665C21.0593 11.7456 21.586 12.0106 22.2927 12.0106C22.5927 12.0106 22.8593 11.9631 23.0943 11.8798V16.6215H12.0285ZM14.0243 18.354C13.3218 18.354 12.6827 18.624 12.2043 19.0656V17.8715H23.1135V20.1865H16.5702C16.3917 19.6526 16.0498 19.1883 15.5929 18.8595C15.136 18.5306 14.5873 18.3537 14.0243 18.354ZM23.266 9.52895H21.3318L21.326 9.80062C21.3327 9.96728 21.3927 10.2231 21.5385 10.4223C21.666 10.5981 21.8768 10.7606 22.2935 10.7606C22.7102 10.7606 22.9202 10.5981 23.0485 10.4223C23.1985 10.2165 23.2568 9.95145 23.261 9.78478L23.266 9.52895ZM20.0702 9.52895H18.1468L18.1418 9.80062C18.1485 9.96728 18.2085 10.2231 18.3535 10.4223C18.4818 10.5981 18.6918 10.7606 19.1085 10.7606C19.5252 10.7606 19.736 10.5981 19.8635 10.4223C20.0085 10.2223 20.0693 9.96812 20.076 9.80062L20.0702 9.52895ZM16.886 9.52895H14.9618L14.9568 9.79312C14.9618 9.95979 15.0218 10.2198 15.1693 10.4223C15.2968 10.5981 15.5077 10.7606 15.9243 10.7606C16.341 10.7606 16.551 10.5981 16.6793 10.4223C16.8243 10.2223 16.8843 9.96812 16.891 9.80062L16.886 9.52895ZM13.701 9.52895H11.7668L11.7727 9.78478C11.776 9.95145 11.8352 10.2165 11.9852 10.4223C12.1127 10.5981 12.3235 10.7606 12.7402 10.7606C13.1568 10.7606 13.3668 10.5981 13.4952 10.4223C13.623 10.2363 13.6965 10.0185 13.7077 9.79312L13.701 9.52895ZM15.4577 21.0373C15.4577 21.4174 15.3067 21.782 15.0378 22.0508C14.769 22.3196 14.4045 22.4706 14.0243 22.4706C13.6442 22.4706 13.2796 22.3196 13.0108 22.0508C12.742 21.782 12.591 21.4174 12.591 21.0373C12.591 20.6571 12.742 20.2926 13.0108 20.0238C13.2796 19.755 13.6442 19.604 14.0243 19.604C14.4045 19.604 14.769 19.755 15.0378 20.0238C15.3067 20.2926 15.4577 20.6571 15.4577 21.0373ZM23.2927 22.0798C23.2927 22.1833 23.2515 22.2826 23.1783 22.3559C23.1051 22.4291 23.0058 22.4702 22.9022 22.4702C22.7987 22.4702 22.6994 22.4291 22.6262 22.3559C22.553 22.2826 22.5118 22.1833 22.5118 22.0798C22.5118 21.9762 22.553 21.8769 22.6262 21.8037C22.6994 21.7305 22.7987 21.6894 22.9022 21.6894C23.0058 21.6894 23.1051 21.7305 23.1783 21.8037C23.2515 21.8769 23.2927 21.9762 23.2927 22.0798Z" fill="white"/>
</svg>
