<svg width="23" height="23" viewBox="0 0 23 23" fill="none" xmlns="http://www.w3.org/2000/svg">
<rect x="0.19043" y="0.799988" width="22" height="22" rx="11" fill="#D11515"/>
<path d="M5.8623 11.8C5.8623 13.2688 6.38574 14.524 7.43262 15.5657C8.47949 16.6073 9.7373 17.1282 11.2061 17.1282V18.4719C9.40397 18.4719 7.82585 17.8261 6.47168 16.5344C5.1696 15.2428 4.51855 13.6646 4.51855 11.8C4.51855 9.93547 5.1696 8.35734 6.47168 7.06567L5.20605 5.80005H8.53418V9.12817L7.47168 8.06567C6.97168 8.53442 6.57845 9.09953 6.29199 9.76099C6.00553 10.4224 5.8623 11.1021 5.8623 11.8ZM11.5342 8.47192C11.7529 8.47192 11.8623 8.5813 11.8623 8.80005V12.5969C11.8623 12.7323 11.8415 12.8209 11.7998 12.8625L9.94043 14.7375C9.8571 14.8 9.77897 14.8313 9.70605 14.8313C9.6123 14.8313 9.53418 14.8 9.47168 14.7375L9.00293 14.2688C8.93001 14.1959 8.89355 14.1178 8.89355 14.0344C8.89355 13.9511 8.93001 13.873 9.00293 13.8L10.4717 12.3313C10.4717 12.3105 10.4821 12.2662 10.5029 12.1985C10.5238 12.1308 10.5342 12.0865 10.5342 12.0657V8.80005C10.5342 8.5813 10.6436 8.47192 10.8623 8.47192H11.5342ZM16.5342 11.8C16.5342 10.3313 16.0107 9.07609 14.9639 8.03442C13.917 6.99276 12.6644 6.47192 11.2061 6.47192V5.12817C13.0394 5.12817 14.6071 5.78182 15.9092 7.08911C17.2113 8.3964 17.8623 9.96672 17.8623 11.8H16.5342ZM17.0029 13.1282L17.8623 14.0657L14.0029 18.1282L11.8623 15.8625L12.7998 14.9407L14.0029 16.2688L17.0029 13.1282Z" fill="black"/>
</svg>
