<svg width="93" height="93" viewBox="0 0 93 93" fill="none" xmlns="http://www.w3.org/2000/svg">
<rect x="0.899998" y="0.800049" width="92" height="92" rx="46" fill="white"/>
<g opacity="0.1" clip-path="url(#clip0_8_4534)">
<g clip-path="url(#clip1_8_4534)">
<g clip-path="url(#clip2_8_4534)">
<path d="M81.17 17.6091C72.9954 8.0258 60.8917 1.90205 47.3696 1.7583V23.5604H75.1517L81.17 17.6091Z" fill="white"/>
<path d="M17.9679 24.2314L12.0167 18.3376C5.75875 25.9851 1.97333 35.7218 1.85833 46.3306H17.9679V24.2314Z" fill="white"/>
<path d="M27.3883 58.1179C28.9232 58.1179 30.1675 56.8736 30.1675 55.3387C30.1675 53.8038 28.9232 52.5596 27.3883 52.5596C25.8534 52.5596 24.6092 53.8038 24.6092 55.3387C24.6092 56.8736 25.8534 58.1179 27.3883 58.1179Z" fill="#34E0A1"/>
<path d="M30.3975 40.9733C28.9312 40.1683 27.9346 38.6254 27.9346 36.8429C27.9346 34.2267 30.0621 32.0992 32.6783 32.0992C35.2946 32.0992 37.4221 34.2267 37.4221 36.8429C37.4221 38.635 36.4158 40.1779 34.9496 40.9829C36.4446 41.4237 37.7862 42.2958 38.8021 43.4937C40.0096 42.085 40.7379 40.2546 40.7379 38.2612C40.7379 33.8146 37.125 30.2017 32.6783 30.2017C28.2317 30.2017 24.6187 33.8146 24.6187 38.2612C24.6187 40.2546 25.3471 42.0754 26.5546 43.4842C27.5704 42.2767 28.9121 41.4142 30.3975 40.9733Z" fill="#FFF7E1"/>
<path d="M74.8833 69.091V24.5093H18.9167V69.091H41.4567L46.9 77.2464L52.3337 69.091H74.8833ZM46.9 29.253H69.6604V30.2018H46.9V29.253ZM70.1396 55.3389C70.1396 57.3897 68.4721 59.0668 66.4117 59.0668C64.3608 59.0668 62.6838 57.3993 62.6838 55.3389C62.6838 53.288 64.3512 51.6109 66.4117 51.6109C68.4625 51.6109 70.1396 53.2784 70.1396 55.3389ZM46.9 34.9455H69.6604V35.8943H46.9V34.9455ZM46.9 40.638H69.6604V41.5868H46.9V40.638ZM46.9 46.3305H69.6604V47.2793H46.9V46.3305ZM60.3837 55.3389C60.3837 57.3897 58.7162 59.0668 56.6558 59.0668C54.605 59.0668 52.9279 57.3993 52.9279 55.3389C52.9279 53.288 54.5954 51.6109 56.6558 51.6109C58.7067 51.6109 60.3837 53.2784 60.3837 55.3389ZM46.9 51.6109C48.9508 51.6109 50.6279 53.2784 50.6279 55.3389C50.6279 57.3897 48.9604 59.0668 46.9 59.0668C44.8396 59.0668 43.1721 57.3993 43.1721 55.3389C43.1721 53.2784 44.8492 51.6109 46.9 51.6109ZM32.6687 29.253C37.6329 29.253 41.6771 33.2972 41.6771 38.2614C41.6771 43.2255 37.6329 47.2697 32.6687 47.2697C27.7046 47.2697 23.6604 43.2255 23.6604 38.2614C23.6604 33.2972 27.7046 29.253 32.6687 29.253ZM40.8721 55.3389C40.8721 57.3897 39.2046 59.0668 37.1442 59.0668C35.0837 59.0668 33.4162 57.3993 33.4162 55.3389C33.4162 53.288 35.0837 51.6109 37.1442 51.6109C39.2046 51.6109 40.8721 53.2784 40.8721 55.3389ZM27.3883 51.6109C29.4392 51.6109 31.1162 53.2784 31.1162 55.3389C31.1162 57.3897 29.4487 59.0668 27.3883 59.0668C25.3279 59.0668 23.6604 57.3993 23.6604 55.3389C23.6604 53.2784 25.3375 51.6109 27.3883 51.6109ZM24.1396 64.3472V63.3984H69.67V64.3472H24.1396Z" fill="white"/>
<path d="M17.9679 47.2695H1.85833C1.97333 57.8783 5.75875 67.6149 12.0167 75.2624L17.9775 69.3591V47.2695H17.9679Z" fill="white"/>
<path d="M75.8321 69.3687L81.7929 75.272C88.0412 67.6149 91.8267 57.8783 91.9417 47.2695H75.8321V69.3687Z" fill="white"/>
<path d="M75.8321 24.2314V46.321H91.9417C91.8267 35.7218 88.0412 25.9851 81.7833 18.3376L75.8321 24.2314Z" fill="white"/>
<path d="M18.6387 70.0396L12.6204 75.9908C20.795 85.5741 32.8988 91.6979 46.4208 91.8416V78.2429L40.9488 70.0396H18.6387Z" fill="white"/>
<path d="M52.8417 70.0396L47.3696 78.2429V91.8416C60.8917 91.6979 72.9954 85.5741 81.17 75.9908L75.1517 70.0396H52.8417Z" fill="white"/>
<path d="M46.4304 23.5604V1.7583C32.9083 1.90205 20.8046 8.0258 12.63 17.6091L18.6483 23.5604H46.4304Z" fill="white"/>
<path d="M53.8767 55.3387C53.8767 56.8721 55.1225 58.1179 56.6558 58.1179C58.1892 58.1179 59.435 56.8721 59.435 55.3387C59.435 53.8054 58.1892 52.5596 56.6558 52.5596C55.1225 52.5596 53.8767 53.8054 53.8767 55.3387Z" fill="white"/>
<path d="M46.9 58.1179C48.4349 58.1179 49.6792 56.8736 49.6792 55.3387C49.6792 53.8038 48.4349 52.5596 46.9 52.5596C45.3651 52.5596 44.1208 53.8038 44.1208 55.3387C44.1208 56.8736 45.3651 58.1179 46.9 58.1179Z" fill="white"/>
<path d="M37.1442 58.1179C38.679 58.1179 39.9233 56.8736 39.9233 55.3387C39.9233 53.8038 38.679 52.5596 37.1442 52.5596C35.6093 52.5596 34.365 53.8038 34.365 55.3387C34.365 56.8736 35.6093 58.1179 37.1442 58.1179Z" fill="white"/>
<path d="M32.6687 40.6378C34.7647 40.6378 36.4637 38.9388 36.4637 36.8429C36.4637 34.7469 34.7647 33.0479 32.6687 33.0479C30.5728 33.0479 28.8737 34.7469 28.8737 36.8429C28.8737 38.9388 30.5728 40.6378 32.6687 40.6378Z" fill="white"/>
<path d="M32.6687 41.5867C30.5412 41.5867 28.5575 42.5354 27.2062 44.1742C28.6437 45.5063 30.5604 46.3304 32.6687 46.3304C34.7771 46.3304 36.6937 45.5158 38.1312 44.1838C36.7896 42.5546 34.7867 41.5867 32.6687 41.5867Z" fill="white"/>
<path d="M66.4117 52.5596C64.8783 52.5596 63.6325 53.8054 63.6325 55.3387C63.6325 56.8721 64.8783 58.1179 66.4117 58.1179C67.945 58.1179 69.1908 56.8721 69.1908 55.3387C69.1908 53.8054 67.945 52.5596 66.4117 52.5596Z" fill="white"/>
<path d="M46.9 0.800049C21.5329 0.800049 0.899998 21.433 0.899998 46.8C0.899998 72.1671 21.5329 92.8 46.9 92.8C72.2671 92.8 92.9 72.1671 92.9 46.8C92.9 21.433 72.2671 0.800049 46.9 0.800049ZM47.3696 91.8417V78.243L52.8417 70.0396H75.1517L81.17 75.9909C72.9954 85.5742 60.8917 91.698 47.3696 91.8417ZM46.4304 1.75838V23.5605H18.6387L12.6204 17.6092C20.8046 8.02588 32.9083 1.90213 46.4304 1.75838ZM81.17 17.6092L75.1517 23.5605H47.3696V1.75838C60.8917 1.90213 72.9954 8.02588 81.17 17.6092ZM46.9 77.2463L41.4662 69.0909H18.9167V24.5092H74.8833V69.0909H52.3337L46.9 77.2463ZM12.0167 18.3375L17.9775 24.2409V46.3305H1.85833C1.97333 35.7217 5.75875 25.985 12.0167 18.3375ZM17.9679 47.2696V69.3592L12.0167 75.2625C5.75875 67.615 1.97333 57.8784 1.85833 47.2696H17.9679ZM18.6387 70.0396H40.9583L46.4304 78.243V91.8417C32.9083 91.698 20.8046 85.5742 12.63 75.9909L18.6387 70.0396ZM81.7833 75.2625L75.8225 69.3592V47.2696H91.9417C91.8267 57.8784 88.0412 67.615 81.7833 75.2625ZM75.8321 46.3305V24.2313L81.7929 18.328C88.0412 25.985 91.8267 35.7217 91.9417 46.3305H75.8321Z" fill="black"/>
<path d="M32.6688 47.2696C37.6329 47.2696 41.6771 43.2254 41.6771 38.2613C41.6771 33.2971 37.6329 29.2529 32.6688 29.2529C27.7046 29.2529 23.6604 33.2971 23.6604 38.2613C23.6604 43.2254 27.7046 47.2696 32.6688 47.2696ZM32.6688 46.3304C30.5604 46.3304 28.6437 45.5063 27.2062 44.1742C28.5575 42.5258 30.5413 41.5867 32.6688 41.5867C34.7867 41.5867 36.7896 42.5546 38.1312 44.1838C36.6937 45.5063 34.7771 46.3304 32.6688 46.3304ZM32.6688 30.2017C37.1154 30.2017 40.7283 33.8146 40.7283 38.2613C40.7283 40.2546 39.9904 42.085 38.7925 43.4938C37.7767 42.2863 36.435 41.4238 34.94 40.9829C36.4062 40.1779 37.4125 38.635 37.4125 36.8429C37.4125 34.2267 35.285 32.0992 32.6688 32.0992C30.0525 32.0992 27.925 34.2267 27.925 36.8429C27.925 38.6254 28.9312 40.1683 30.3879 40.9733C28.9025 41.4142 27.5704 42.2767 26.5354 43.4938C25.3279 42.085 24.5996 40.2642 24.5996 38.2708C24.6092 33.8146 28.2317 30.2017 32.6688 30.2017ZM32.6688 40.6379C30.5796 40.6379 28.8737 38.9321 28.8737 36.8429C28.8737 34.7538 30.5796 33.0479 32.6688 33.0479C34.7579 33.0479 36.4637 34.7538 36.4637 36.8429C36.4637 38.9321 34.7675 40.6379 32.6688 40.6379Z" fill="black"/>
<path d="M27.3883 59.0667C29.4392 59.0667 31.1162 57.3992 31.1162 55.3388C31.1162 53.2879 29.4487 51.6108 27.3883 51.6108C25.3279 51.6108 23.6604 53.2783 23.6604 55.3388C23.6604 57.3896 25.3375 59.0667 27.3883 59.0667ZM27.3883 52.5596C28.9217 52.5596 30.1675 53.8054 30.1675 55.3388C30.1675 56.8721 28.9217 58.1179 27.3883 58.1179C25.855 58.1179 24.6092 56.8721 24.6092 55.3388C24.6092 53.8054 25.855 52.5596 27.3883 52.5596Z" fill="black"/>
<path d="M33.4162 55.3388C33.4162 57.3896 35.0837 59.0667 37.1442 59.0667C39.2046 59.0667 40.8721 57.3992 40.8721 55.3388C40.8721 53.2879 39.2046 51.6108 37.1442 51.6108C35.0837 51.6108 33.4162 53.2783 33.4162 55.3388ZM39.9233 55.3388C39.9233 56.8721 38.6775 58.1179 37.1442 58.1179C35.6108 58.1179 34.365 56.8721 34.365 55.3388C34.365 53.8054 35.6108 52.5596 37.1442 52.5596C38.6775 52.5596 39.9233 53.8054 39.9233 55.3388Z" fill="black"/>
<path d="M46.9 59.0667C48.9508 59.0667 50.6279 57.3992 50.6279 55.3388C50.6279 53.2879 48.9604 51.6108 46.9 51.6108C44.8396 51.6108 43.1721 53.2783 43.1721 55.3388C43.1721 57.3896 44.8492 59.0667 46.9 59.0667ZM46.9 52.5596C48.4333 52.5596 49.6792 53.8054 49.6792 55.3388C49.6792 56.8721 48.4333 58.1179 46.9 58.1179C45.3667 58.1179 44.1208 56.8721 44.1208 55.3388C44.1208 53.8054 45.3667 52.5596 46.9 52.5596Z" fill="black"/>
<path d="M52.9279 55.3388C52.9279 57.3896 54.5954 59.0667 56.6558 59.0667C58.7067 59.0667 60.3837 57.3992 60.3837 55.3388C60.3837 53.2879 58.7163 51.6108 56.6558 51.6108C54.605 51.6108 52.9279 53.2783 52.9279 55.3388ZM59.435 55.3388C59.435 56.8721 58.1892 58.1179 56.6558 58.1179C55.1225 58.1179 53.8767 56.8721 53.8767 55.3388C53.8767 53.8054 55.1225 52.5596 56.6558 52.5596C58.1892 52.5596 59.435 53.8054 59.435 55.3388Z" fill="black"/>
<path d="M66.4117 51.6108C64.3608 51.6108 62.6837 53.2783 62.6837 55.3388C62.6837 57.3896 64.3512 59.0667 66.4117 59.0667C68.4625 59.0667 70.1396 57.3992 70.1396 55.3388C70.1396 53.2783 68.4625 51.6108 66.4117 51.6108ZM66.4117 58.1179C64.8783 58.1179 63.6325 56.8721 63.6325 55.3388C63.6325 53.8054 64.8783 52.5596 66.4117 52.5596C67.945 52.5596 69.1908 53.8054 69.1908 55.3388C69.1908 56.8721 67.945 58.1179 66.4117 58.1179Z" fill="black"/>
<path d="M69.6604 29.2529H46.9V30.2017H69.6604V29.2529Z" fill="black"/>
<path d="M69.6604 34.9456H46.9V35.8943H69.6604V34.9456Z" fill="black"/>
<path d="M69.6604 40.6379H46.9V41.5867H69.6604V40.6379Z" fill="black"/>
<path d="M69.6604 46.3306H46.9V47.2793H69.6604V46.3306Z" fill="black"/>
<path d="M69.67 63.3984H24.1396V64.3472H69.67V63.3984Z" fill="black"/>
</g>
</g>
</g>
<g opacity="0.5" clip-path="url(#clip3_8_4534)">
<g clip-path="url(#clip4_8_4534)">
<path fill-rule="evenodd" clip-rule="evenodd" d="M37.3654 40.55H36.8998C35.2887 40.55 33.9833 41.8561 33.9833 43.4667V58.4667C33.9833 60.0776 35.2892 61.3834 36.9 61.3834H56.9C58.5108 61.3834 59.8167 60.0776 59.8167 58.4667V43.4667C59.8167 41.8561 58.5112 40.55 56.9002 40.55H56.4347C56.2557 38.2708 55.5762 36.0051 54.2675 34.1932C52.6847 32.0015 50.2287 30.55 46.9 30.55C43.5713 30.55 41.1154 32.0015 39.5325 34.1932C38.2239 36.0051 37.5443 38.2708 37.3654 40.55ZM39.8743 40.55H53.9257C53.7525 38.6976 53.1902 36.9714 52.2408 35.6569C51.1153 34.0986 49.4047 33.05 46.9 33.05C44.3953 33.05 42.6846 34.0986 41.5592 35.6569C40.6098 36.9714 40.0474 38.6976 39.8743 40.55ZM36.8998 43.05C36.6699 43.05 36.4833 43.2364 36.4833 43.4667V58.4667C36.4833 58.6969 36.6699 58.8834 36.9 58.8834H56.9C57.1302 58.8834 57.3167 58.6969 57.3167 58.4667V43.4667C57.3167 43.2364 57.1302 43.05 56.9002 43.05H36.8998ZM45.65 54.3001V47.6334H48.15V54.3001H45.65Z" fill="black"/>
</g>
</g>
<defs>
<clipPath id="clip0_8_4534">
<rect width="92" height="92" fill="white" transform="translate(0.899998 0.800049)"/>
</clipPath>
<clipPath id="clip1_8_4534">
<rect width="92" height="92" fill="white" transform="translate(0.899998 0.800049)"/>
</clipPath>
<clipPath id="clip2_8_4534">
<rect width="92" height="92" fill="white" transform="translate(0.899998 0.800049)"/>
</clipPath>
<clipPath id="clip3_8_4534">
<rect width="40" height="40" fill="white" transform="translate(26.9 26.8)"/>
</clipPath>
<clipPath id="clip4_8_4534">
<rect width="40" height="40" fill="white" transform="translate(26.9 26.8)"/>
</clipPath>
</defs>
</svg>
