<svg width="32" height="33" viewBox="0 0 32 33" fill="none" xmlns="http://www.w3.org/2000/svg">
<rect y="0.799988" width="32" height="32" rx="16" fill="#E0E0E0"/>
<path fill-rule="evenodd" clip-rule="evenodd" d="M8.70976 11.3042C8.70976 10.9125 9.02643 10.5958 9.41809 10.5958H22.4381C22.8298 10.5958 23.1464 10.9125 23.1464 11.3042V16.845C23.7131 17.3133 24.1631 18.0058 24.1631 18.965V23.0042H22.9131V21.6083H9.08643V23.0033H7.83643V18.9417C7.85726 18.3967 8.08976 17.6183 8.71059 16.9833L8.70976 11.3042ZM10.9056 15.96C11.1245 15.9311 11.3567 15.9167 11.6023 15.9167H14.8489C14.4298 15.515 13.7573 15.1417 12.8214 15.1417C11.9131 15.1417 11.2973 15.5308 10.9056 15.96ZM17.0623 15.9167H20.7856L20.8156 15.92C20.9517 15.9322 21.1006 15.955 21.2623 15.9883C21.2062 15.9188 21.1446 15.8538 21.0781 15.7942C20.7056 15.4525 20.0948 15.1417 19.1998 15.1417C18.3014 15.1417 17.7414 15.3692 17.3831 15.6283C17.2661 15.7126 17.1585 15.8093 17.0623 15.9167ZM21.8956 14.8483C21.2906 14.3058 20.3856 13.8917 19.1998 13.8917C18.0773 13.8917 17.2514 14.1808 16.6498 14.615C16.3648 14.8217 16.1414 15.0525 15.9656 15.2833C15.3523 14.5658 14.2948 13.8917 12.8206 13.8917C11.4631 13.8917 10.5431 14.485 9.95893 15.1442V11.8458H21.8956V14.8483ZM9.08559 20.3583H22.9139V18.9642C22.9139 18.3783 22.6181 17.9742 22.1739 17.6767C21.7073 17.365 21.1214 17.2092 20.7239 17.1658H11.6031C10.6714 17.1658 10.0948 17.43 9.73893 17.7308C9.26393 18.1325 9.10143 18.6667 9.08643 18.9775L9.08559 20.3583Z" fill="black"/>
</svg>
