<svg width="121" height="121" viewBox="0 0 121 121" fill="none" xmlns="http://www.w3.org/2000/svg">
<rect x="0.100006" y="0.200195" width="120" height="120" rx="60" fill="white"/>
<g opacity="0.1" clip-path="url(#clip0_8_8902)">
<g clip-path="url(#clip1_8_8902)">
<g clip-path="url(#clip2_8_8902)">
<path d="M43.4 100.275L43.8625 100.8C45.1625 102.275 47.0125 103.113 48.9625 103.113C50.9125 103.113 52.775 102.263 54.0625 100.8L54.525 100.275L54.9875 100.8C56.2875 102.275 58.1375 103.113 60.0875 103.113C62.0375 103.113 63.9 102.263 65.1875 100.8L65.65 100.275L66.1125 100.8C67.4125 102.275 69.2625 103.113 71.2125 103.113C73.1625 103.113 75.025 102.263 76.3125 100.8L76.775 100.275L77.2375 100.8C78.7625 102.525 81.125 103.363 83.3625 103.025L84.2125 96.6878C83.6 96.8378 82.975 96.9377 82.3375 96.9377C80.2625 96.9377 78.2625 96.1252 76.775 94.6877C75.275 96.1252 73.2875 96.9377 71.2125 96.9377C69.1375 96.9377 67.1375 96.1252 65.65 94.6877C64.15 96.1252 62.1625 96.9377 60.0875 96.9377C58.0125 96.9377 56.0125 96.1252 54.525 94.6877C53.025 96.1252 51.0375 96.9377 48.9625 96.9377C46.8875 96.9377 44.8875 96.1252 43.4 94.6877C41.45 96.5627 38.575 97.3127 35.9625 96.7002L36.8 103.025C39.0375 103.363 41.4 102.538 42.925 100.8L43.4 100.275Z" fill="#C9F2E3"/>
<path d="M106 96.8378C105.625 96.8878 105.25 96.9253 104.863 96.9253C102.788 96.9253 100.788 96.1128 99.3 94.6753C98.225 95.7128 96.8625 96.4128 95.4125 96.7253L96.2 102.638C97.2 102.25 98.1125 101.625 98.8375 100.8L99.3 100.275L99.7625 100.8C100.2 101.3 100.725 101.713 101.288 102.063C102.963 100.413 104.525 98.6753 106 96.8378Z" fill="#C9F2E3"/>
<path d="M96.3625 103.888L96.6625 106.15C97.9375 105.138 99.175 104.063 100.363 102.95C99.9875 102.7 99.625 102.413 99.3 102.1C98.45 102.913 97.45 103.513 96.3625 103.888Z" fill="#C9F2E3"/>
<path d="M60.1 37.3128C67.9563 37.3128 74.325 30.944 74.325 23.0878C74.325 15.2315 67.9563 8.86279 60.1 8.86279C52.2438 8.86279 45.875 15.2315 45.875 23.0878C45.875 30.944 52.2438 37.3128 60.1 37.3128Z" fill="#F2B203"/>
<path d="M15.825 89.3127C13.7375 89.3127 11.75 88.5002 10.2625 87.0752C9.75001 87.5752 9.15001 87.9752 8.52501 88.3252C9.73751 90.5252 11.0875 92.6377 12.55 94.6627L12.75 94.7627C13.7125 95.2502 14.7375 95.5002 15.825 95.5002C17.775 95.5002 19.6375 94.6627 20.925 93.2002L21.3875 92.6752L21.85 93.2002C22.7 94.1627 23.7875 94.8502 24.9875 95.2127L25.7875 89.2252C24.1375 88.9877 22.6 88.2377 21.3875 87.0752C19.9 88.5002 17.9125 89.3127 15.825 89.3127Z" fill="#C9F2E3"/>
<path d="M60.1 1.43774C27.7 1.43774 1.33751 27.8002 1.33751 60.2002C1.33751 69.9377 3.73751 79.1252 7.93751 87.2127C8.62501 86.8377 9.26251 86.3627 9.78751 85.7627L10.25 85.2377L10.7125 85.7627C12 87.2252 13.8625 88.0627 15.8125 88.0627C17.7625 88.0627 19.625 87.2252 20.9125 85.7627L21.375 85.2377L21.8375 85.7627C22.9125 86.9752 24.3625 87.7503 25.9375 87.9877L27.825 73.8127C26.7625 73.0252 26.05 71.7627 26.05 70.3377C26.05 69.5752 26.2625 68.8627 26.625 68.2377C25.875 68.2252 25.175 68.0127 24.5625 67.6627L12.1375 80.0877L11.8625 79.0502C10.4375 73.7252 11.975 68.0002 15.8625 64.1127C17.2875 62.6877 18.9625 61.5877 20.775 60.8252H3.61251L4.15001 59.9002C6.91251 55.1252 12.0375 52.1627 17.55 52.1627C19.0625 52.1627 20.525 52.4002 21.9375 52.8252L10.5125 41.7002L11.5625 41.4252C16.8875 40.0002 22.6125 41.5377 26.5 45.4252C28.375 47.3002 29.7 49.5627 30.4125 52.0377C31.125 49.5627 32.45 47.3002 34.325 45.4252C38.2125 41.5377 43.95 40.0002 49.2625 41.4252L50.3125 41.7002L38.8875 52.8252C40.3 52.4002 41.775 52.1627 43.275 52.1627C48.775 52.1627 53.9125 55.1252 56.675 59.9002L57.2125 60.8252H40.8125C42.5125 61.5877 44.1 62.6252 45.45 63.9877C49.3375 67.8752 50.875 73.6002 49.45 78.9252L49.175 79.9627L36.6375 67.4127C35.9375 67.9127 35.0875 68.2252 34.1625 68.2377C34.5125 68.8627 34.7375 69.5752 34.7375 70.3377C34.7375 71.7877 34.0125 73.0627 32.9125 73.8502L34.7375 87.5002C35.6875 87.9877 36.75 88.2503 37.825 88.2503C39.775 88.2503 41.6375 87.4002 42.925 85.9377L43.3875 85.4127L43.85 85.9377C45.15 87.4127 47 88.2503 48.95 88.2503C50.9 88.2503 52.7625 87.4002 54.05 85.9377L54.5125 85.4127L54.975 85.9377C56.275 87.4127 58.125 88.2503 60.075 88.2503C62.025 88.2503 63.8875 87.4002 65.175 85.9377L65.6375 85.4127L66.1 85.9377C67.4 87.4127 69.25 88.2503 71.2 88.2503C73.15 88.2503 75.0125 87.4002 76.3 85.9377L76.7625 85.4127L77.225 85.9377C78.525 87.4127 80.375 88.2503 82.325 88.2503C83.4 88.2503 84.4625 87.9877 85.4125 87.5002L87.2375 73.8377C86.1375 73.0502 85.4125 71.7752 85.4125 70.3252C85.4125 69.5627 85.625 68.8502 85.9875 68.2252C85.9625 68.2252 85.9375 68.2127 85.9 68.2127C85.85 68.2127 85.8125 68.2252 85.775 68.2252C84.9 68.2252 84.0875 67.9627 83.4 67.5127L70.975 79.9377L70.7 78.9002C69.275 73.5752 70.8125 67.8502 74.7 63.9627C76.05 62.6127 77.6375 61.5627 79.3375 60.8002H63L63.5375 59.8752C66.3 55.1002 71.425 52.1377 76.9375 52.1377C78.45 52.1377 79.9125 52.3752 81.325 52.8002L69.9 41.6752L70.95 41.4002C76.275 39.9752 82 41.5127 85.8875 45.4002C87.7625 47.2752 89.0875 49.5377 89.8 52.0127C90.5125 49.5377 91.8375 47.2752 93.7125 45.4002C97.6 41.5127 103.338 39.9752 108.65 41.4002L109.7 41.6752L98.275 52.8002C99.6875 52.3752 101.163 52.1377 102.663 52.1377C108.163 52.1377 113.3 55.1002 116.063 59.8752L116.6 60.8002H99.4C101.213 61.5627 102.888 62.6627 104.313 64.0877C108.2 67.9752 109.738 73.7002 108.313 79.0252L108.038 80.0627L95.6125 67.6377C95 67.9877 94.3 68.2002 93.55 68.2127C93.9 68.8377 94.125 69.5502 94.125 70.3127C94.125 71.7377 93.425 73.0002 92.35 73.7877L94.275 88.2128C96.025 88.0752 97.6625 87.2627 98.825 85.9252L99.2875 85.4003L99.75 85.9252C101.05 87.4002 102.9 88.2377 104.85 88.2377C106.8 88.2377 108.663 87.3877 109.95 85.9252L110.413 85.4003L110.875 85.9252C111.288 86.3877 111.775 86.7752 112.288 87.1127C116.475 79.0377 118.85 69.8877 118.85 60.1752C118.863 27.8002 92.5 1.43774 60.1 1.43774ZM60.1 38.5502C51.575 38.5502 44.6375 31.6127 44.6375 23.0877C44.6375 14.5627 51.575 7.62524 60.1 7.62524C68.625 7.62524 75.5625 14.5627 75.5625 23.0877C75.5625 31.6127 68.625 38.5502 60.1 38.5502Z" fill="#FEE39A"/>
<path d="M24.8375 96.4378C23.55 96.0878 22.3625 95.4253 21.4 94.4878C19.9125 95.9128 17.9125 96.7253 15.8375 96.7253C15.2 96.7253 14.575 96.6503 13.9625 96.5128C15.525 98.4878 17.1875 100.363 18.9875 102.125C19.725 101.738 20.3875 101.25 20.9375 100.613L21.4 100.088L21.8625 100.613C22.4875 101.313 23.2375 101.863 24.0625 102.25L24.8375 96.4378Z" fill="#C9F2E3"/>
<path d="M19.9125 103.013C21.075 104.113 22.2875 105.15 23.5375 106.15L23.8875 103.538C22.9625 103.15 22.125 102.613 21.4 101.913C20.95 102.35 20.4375 102.7 19.9125 103.013Z" fill="#C9F2E3"/>
<path d="M76.8 87.2502C75.3 88.6877 73.3125 89.5002 71.2375 89.5002C69.1625 89.5002 67.1625 88.6877 65.675 87.2502C64.175 88.6877 62.1875 89.5002 60.1125 89.5002C58.0375 89.5002 56.0375 88.6877 54.55 87.2502C53.05 88.6877 51.0625 89.5002 48.9875 89.5002C46.9125 89.5002 44.9125 88.6877 43.425 87.2502C41.925 88.6877 39.9375 89.5002 37.8625 89.5002C36.8625 89.5002 35.8875 89.3127 34.9625 88.9502L35.8125 95.3502C38.3 96.1252 41.2 95.3752 42.9625 93.3627L43.425 92.8377L43.8875 93.3627C45.1875 94.8377 47.0375 95.6752 48.9875 95.6752C50.9375 95.6752 52.8 94.8252 54.0875 93.3627L54.55 92.8377L55.0125 93.3627C56.3125 94.8377 58.1625 95.6752 60.1125 95.6752C62.0625 95.6752 63.925 94.8252 65.2125 93.3627L65.675 92.8377L66.1375 93.3627C67.4375 94.8377 69.2875 95.6752 71.2375 95.6752C73.1875 95.6752 75.05 94.8252 76.3375 93.3627L76.8 92.8377L77.2625 93.3627C79.025 95.3627 81.925 96.1377 84.4125 95.3502L85.2625 88.9502C84.3375 89.3002 83.3625 89.4877 82.3625 89.4877C80.2875 89.5002 78.3 88.6877 76.8 87.2502Z" fill="#C9F2E3"/>
<path d="M95.5375 107.038L91.1875 74.4126C90.75 74.5626 90.2875 74.6626 89.8 74.6626C89.325 74.6626 88.8875 74.5626 88.4625 74.4251L83.15 114.238C87.575 112.35 91.7375 109.925 95.5375 107.038Z" fill="#8E6500"/>
<path d="M25.2625 102.713L25.225 102.875L24.6625 107.05C28.4625 109.925 32.6125 112.363 37.05 114.263L31.7375 74.4502C31.3125 74.5877 30.8625 74.6877 30.4 74.6877C29.9125 74.6877 29.45 74.5877 29.0125 74.4377L25.25 102.7C25.25 102.7 25.2625 102.7 25.2625 102.713Z" fill="#8E6500"/>
<path d="M71.2375 111.775C69.1625 111.775 67.1625 110.963 65.675 109.525C64.175 110.963 62.1875 111.775 60.1125 111.775C58.0375 111.775 56.0375 110.963 54.55 109.525C53.05 110.963 51.0625 111.775 48.9875 111.775C46.9125 111.775 44.9125 110.963 43.425 109.525C41.9625 110.925 40 111.725 38 111.763L38.4 114.788C45.1 117.475 52.425 118.963 60.1 118.963C67.775 118.963 75.1 117.475 81.825 114.788L82.225 111.763C80.2 111.725 78.2625 110.925 76.8 109.525C75.3125 110.963 73.3125 111.775 71.2375 111.775Z" fill="#C9F2E3"/>
<path d="M104.863 89.5002C102.788 89.5002 100.788 88.6877 99.3 87.2502C97.975 88.5252 96.2625 89.3002 94.45 89.4627L95.25 95.4877C96.625 95.1752 97.8875 94.4502 98.8375 93.3752L99.3 92.8502L99.7625 93.3752C101.6 95.4627 104.675 96.2002 107.25 95.2502C108.9 93.0377 110.4 90.7002 111.738 88.2502C111.275 87.9627 110.838 87.6377 110.438 87.2627C108.938 88.6877 106.938 89.5002 104.863 89.5002Z" fill="#C9F2E3"/>
<path d="M83.225 104.3C82.9375 104.325 82.6625 104.35 82.375 104.35C80.3 104.35 78.3 103.538 76.8125 102.1C75.3125 103.538 73.325 104.35 71.25 104.35C69.175 104.35 67.175 103.538 65.6875 102.1C64.1875 103.538 62.2 104.35 60.125 104.35C58.05 104.35 56.05 103.538 54.5625 102.1C53.0625 103.538 51.075 104.35 49 104.35C46.925 104.35 44.925 103.538 43.4375 102.1C41.7375 103.738 39.3375 104.538 37.0125 104.3L37.8375 110.525C39.7625 110.525 41.6625 109.7 42.9625 108.225L43.425 107.7L43.8875 108.225C45.1875 109.7 47.0375 110.538 48.9875 110.538C50.9375 110.538 52.8 109.688 54.0875 108.225L54.55 107.7L55.0125 108.225C56.3125 109.7 58.1625 110.538 60.1125 110.538C62.0625 110.538 63.925 109.688 65.2125 108.225L65.675 107.7L66.1375 108.225C67.4375 109.7 69.2875 110.538 71.2375 110.538C73.1875 110.538 75.05 109.688 76.3375 108.225L76.8 107.7L77.2625 108.225C78.5625 109.7 80.4625 110.525 82.3875 110.525L83.225 104.3Z" fill="#C9F2E3"/>
<path d="M16.7625 64.9878C13.4375 68.3128 11.9875 73.0753 12.8375 77.6628L23.5875 66.9128C22.8375 66.1378 22.3625 65.0753 22.3625 63.9128C22.3625 62.9253 22.7125 62.0253 23.2625 61.3003C20.85 61.9253 18.5875 63.1628 16.7625 64.9878Z" fill="#34E0A1"/>
<path d="M48.5 77.5251C49.35 72.9376 47.9 68.1751 44.575 64.8501C42.5625 62.8376 40 61.5126 37.2875 60.9751C38 61.7501 38.45 62.7751 38.45 63.9126C38.45 64.9126 38.1 65.8251 37.525 66.5501L48.5 77.5251Z" fill="#34E0A1"/>
<path d="M45.275 42.1377C41.5375 42.1377 37.8875 43.6002 35.1875 46.3002C32.5 48.9877 31.025 52.5627 31.025 56.3627V58.1877C32.325 56.5127 33.9375 55.1502 35.7625 54.1377L47.85 42.3752C47 42.2127 46.1375 42.1377 45.275 42.1377Z" fill="#34E0A1"/>
<path d="M29.7875 58.1753V56.3503C29.7875 52.5503 28.3125 48.9753 25.625 46.2878C22.3125 42.9753 17.55 41.5128 12.975 42.3628L25.0625 54.1253C26.875 55.1378 28.5 56.5003 29.7875 58.1753Z" fill="#34E0A1"/>
<path d="M31.525 59.5876H31.925H32.4875H34.1125H36.4375H55C52.3625 55.7501 47.9625 53.4001 43.2625 53.4001C40.875 53.4001 38.5625 54.0126 36.525 55.1126C34.55 56.1751 32.825 57.7001 31.525 59.5876Z" fill="#34E0A1"/>
<path d="M28.8875 59.5876H29.2875C27.9875 57.7001 26.2625 56.1751 24.2875 55.1126C22.25 54.0126 19.9375 53.4001 17.55 53.4001C12.85 53.4001 8.45 55.7501 5.8125 59.5876H26.7H28.8875Z" fill="#34E0A1"/>
<path d="M29.1875 73.1752C29.5625 73.3377 29.975 73.4377 30.4125 73.4377C30.825 73.4377 31.225 73.3502 31.5875 73.2002C32.025 73.0127 32.4125 72.7252 32.725 72.3752C33.2 71.8252 33.5 71.1252 33.5 70.3377C33.5 69.2627 32.9375 68.3127 32.1 67.7627C31.7125 67.5127 31.2625 67.3502 30.7875 67.2877C30.6625 67.2752 30.5375 67.2502 30.4 67.2502C30.25 67.2502 30.1 67.2752 29.9625 67.3002C29.475 67.3752 29.025 67.5377 28.65 67.8127C27.85 68.3752 27.3125 69.3002 27.3125 70.3502C27.3125 71.1002 27.6 71.7877 28.05 72.3252C28.35 72.6877 28.7375 72.9877 29.1875 73.1752Z" fill="#F2B203"/>
<path d="M107.362 77.6628C108.212 73.0753 106.762 68.3128 103.437 64.9878C101.612 63.1753 99.3625 61.9378 96.9375 61.3003C97.4875 62.0253 97.8375 62.9253 97.8375 63.9128C97.8375 65.0753 97.375 66.1378 96.6125 66.9128L107.362 77.6628Z" fill="#34E0A1"/>
<path d="M82.6 61.0503C80 61.6253 77.5625 62.9253 75.625 64.8628C72.3 68.1878 70.85 72.9503 71.7 77.5378L82.5375 66.7128L82.675 66.5753C82.1 65.8378 81.75 64.9378 81.75 63.9378C81.75 62.8003 82.2 61.7628 82.925 60.9878C82.8125 60.9878 82.7125 61.0253 82.6 61.0503Z" fill="#34E0A1"/>
<path d="M91.325 66.1002C91.8875 66.6627 92.65 67.0002 93.5 67.0002C93.925 67.0002 94.3375 66.9127 94.7125 66.7502C94.9125 66.6627 95.1 66.5627 95.275 66.4377C95.45 66.3127 95.6 66.1877 95.7375 66.0377C96.2625 65.4877 96.6 64.7377 96.6 63.9127C96.6 62.3002 95.3625 61.0002 93.7875 60.8502C93.6875 60.8377 93.6 60.8252 93.5 60.8252C93.4 60.8252 93.3125 60.8502 93.2125 60.8502C92.5 60.9127 91.8625 61.2127 91.375 61.6752C91.225 61.8127 91.0875 61.9752 90.975 62.1377C90.925 62.2127 90.875 62.3002 90.8375 62.3752C90.775 62.4752 90.7125 62.5752 90.6625 62.6877C90.5 63.0627 90.4125 63.4627 90.4125 63.9002C90.4125 64.7627 90.7625 65.5377 91.325 66.1002Z" fill="#F2B203"/>
<path d="M83.95 66.1502C84.1 66.3002 84.2625 66.4252 84.45 66.5252C84.8875 66.8002 85.4 66.9627 85.95 66.9877C86 66.9877 86.0375 67.0002 86.075 67.0002C86.9625 67.0002 87.75 66.6252 88.325 66.0252C88.85 65.4752 89.175 64.7252 89.175 63.9127C89.175 63.3877 89.0375 62.9002 88.8 62.4752C88.7625 62.4127 88.7375 62.3502 88.7 62.2877C88.5875 62.1127 88.4625 61.9502 88.325 61.7877C88.1875 61.6377 88.025 61.5002 87.8625 61.3877C87.3625 61.0377 86.75 60.8252 86.1 60.8252C86.05 60.8252 86.0125 60.8377 85.975 60.8377C84.325 60.9127 83.0125 62.2627 83.0125 63.9127C83.0125 64.5752 83.225 65.1752 83.575 65.6752C83.6625 65.8502 83.8 66.0002 83.95 66.1502Z" fill="#F2B203"/>
<path d="M89.175 58.1753V56.3503C89.175 52.5503 87.7 48.9753 85.0125 46.2878C81.7 42.9753 76.9375 41.5128 72.3625 42.3628L84.45 54.1253C86.25 55.1378 87.875 56.5003 89.175 58.1753Z" fill="#34E0A1"/>
<path d="M104.663 42.1377C100.925 42.1377 97.275 43.6002 94.575 46.3002C91.8875 48.9877 90.4125 52.5627 90.4125 56.3627V58.1877C91.7125 56.5127 93.325 55.1502 95.15 54.1377L107.238 42.3752C106.375 42.2127 105.513 42.1377 104.663 42.1377Z" fill="#34E0A1"/>
<path d="M85.8125 59.5876H86.075H87.7H88.2625H88.6625C87.3625 57.7001 85.6375 56.1751 83.6625 55.1126C81.625 54.0126 79.3125 53.4001 76.925 53.4001C72.225 53.4001 67.825 55.7501 65.1875 59.5876H83.7625H85.8125Z" fill="#34E0A1"/>
<path d="M102.65 53.4001C100.263 53.4001 97.95 54.0126 95.9125 55.1126C93.9375 56.1751 92.2125 57.7001 90.9125 59.5876H91.3125H93.5H114.388C111.75 55.7376 107.35 53.4001 102.65 53.4001Z" fill="#34E0A1"/>
<path d="M88.6125 73.2003C88.975 73.3503 89.375 73.4378 89.7875 73.4378C90.225 73.4378 90.6375 73.3503 91.0125 73.1753C91.4625 72.9878 91.8375 72.6753 92.15 72.3128C92.6 71.7753 92.8875 71.0878 92.8875 70.3378C92.8875 69.2878 92.3625 68.3628 91.55 67.8003C91.1625 67.5378 90.7125 67.3628 90.2375 67.2878C90.0875 67.2628 89.95 67.2378 89.8 67.2378C89.6625 67.2378 89.5375 67.2628 89.4125 67.2753C88.9375 67.3378 88.4875 67.5003 88.1 67.7503C87.2625 68.3003 86.7 69.2503 86.7 70.3253C86.7 71.1128 87 71.8128 87.475 72.3628C87.7875 72.7253 88.175 73.0128 88.6125 73.2003Z" fill="#F2B203"/>
<path d="M24.925 66.4377C25.1 66.5627 25.2875 66.6627 25.4875 66.7502C25.8625 66.9127 26.2625 67.0002 26.7 67.0002C27.55 67.0002 28.325 66.6502 28.875 66.1002C29.4375 65.5377 29.7875 64.7627 29.7875 63.9127C29.7875 63.4877 29.7 63.0752 29.5375 62.7002C29.4875 62.5877 29.425 62.4877 29.3625 62.3877C29.3125 62.3002 29.275 62.2252 29.225 62.1502C29.1 61.9752 28.975 61.8252 28.825 61.6752C28.2875 61.1627 27.5625 60.8377 26.775 60.8252C26.75 60.8252 26.725 60.8127 26.7 60.8127C26.625 60.8127 26.5625 60.8252 26.5 60.8377C24.8875 60.9377 23.6125 62.2752 23.6125 63.9127C23.6125 64.7377 23.9375 65.4877 24.475 66.0377C24.6 66.1877 24.7625 66.3252 24.925 66.4377Z" fill="#F2B203"/>
<path d="M31.875 66.0251C32.4375 66.6251 33.2375 67.0001 34.125 67.0001C34.725 67.0001 35.2875 66.8252 35.7625 66.5252C35.9375 66.4127 36.1 66.2876 36.2625 66.1501C36.4125 66.0126 36.55 65.8501 36.6625 65.6876C37.0125 65.1876 37.225 64.5751 37.225 63.9251C37.225 62.2251 35.8375 60.8376 34.1375 60.8376C33.475 60.8376 32.875 61.0501 32.375 61.4001C32.2 61.5251 32.05 61.6501 31.9125 61.8001C31.7625 61.9501 31.6375 62.1126 31.5375 62.3001C31.5 62.3626 31.4625 62.4252 31.4375 62.4877C31.2125 62.9252 31.0625 63.4001 31.0625 63.9251C31.025 64.7251 31.35 65.4751 31.875 66.0251Z" fill="#F2B203"/>
<path d="M60.1 0.200195C27.0125 0.200195 0.100006 27.1127 0.100006 60.2002C0.100006 93.2877 27.0125 120.2 60.1 120.2C93.1875 120.2 120.1 93.2877 120.1 60.2002C120.1 27.1127 93.1875 0.200195 60.1 0.200195ZM112.3 87.1377C111.788 86.8002 111.3 86.4252 110.888 85.9502L110.425 85.4252L109.963 85.9502C108.663 87.4252 106.812 88.2627 104.863 88.2627C102.913 88.2627 101.05 87.4127 99.7625 85.9502L99.3 85.4252L98.8375 85.9502C97.6625 87.2877 96.025 88.0877 94.2875 88.2377L92.35 73.8127C93.4125 73.0252 94.125 71.7627 94.125 70.3377C94.125 69.5752 93.9125 68.8627 93.55 68.2377C94.3 68.2252 95 68.0127 95.6125 67.6627L108.038 80.0877L108.313 79.0502C109.738 73.7252 108.2 68.0002 104.313 64.1127C102.888 62.6877 101.213 61.5877 99.4 60.8252H116.588L116.05 59.9002C113.288 55.1252 108.163 52.1627 102.65 52.1627C101.138 52.1627 99.675 52.4002 98.2625 52.8252L109.688 41.7002L108.638 41.4252C103.325 40.0002 97.5875 41.5377 93.7 45.4252C91.825 47.3002 90.5 49.5627 89.7875 52.0377C89.075 49.5627 87.75 47.3002 85.875 45.4252C81.9875 41.5377 76.25 40.0002 70.9375 41.4252L69.8875 41.7002L81.3125 52.8252C79.9 52.4002 78.425 52.1627 76.925 52.1627C71.425 52.1627 66.2875 55.1252 63.525 59.9002L62.9875 60.8252H79.375C77.675 61.5877 76.0875 62.6252 74.7375 63.9877C70.85 67.8752 69.3125 73.6002 70.7375 78.9252L71.0125 79.9627L83.4375 67.5377C84.125 67.9877 84.9375 68.2502 85.8125 68.2502C85.8625 68.2502 85.9 68.2377 85.9375 68.2377C85.9625 68.2377 85.9875 68.2502 86.025 68.2502C85.675 68.8752 85.45 69.5877 85.45 70.3502C85.45 71.8002 86.175 73.0752 87.275 73.8627L85.45 87.5252C84.5 88.0127 83.4375 88.2752 82.3625 88.2752C80.4125 88.2752 78.55 87.4252 77.2625 85.9627L76.8 85.4377L76.3375 85.9627C75.0375 87.4377 73.1875 88.2752 71.2375 88.2752C69.2875 88.2752 67.425 87.4252 66.1375 85.9627L65.675 85.4377L65.2125 85.9627C63.9125 87.4377 62.0625 88.2752 60.1125 88.2752C58.1625 88.2752 56.3 87.4252 55.0125 85.9627L54.55 85.4377L54.0875 85.9627C52.7875 87.4377 50.9375 88.2752 48.9875 88.2752C47.0375 88.2752 45.175 87.4252 43.8875 85.9627L43.425 85.4377L42.9625 85.9627C41.6625 87.4377 39.8125 88.2752 37.8625 88.2752C36.7875 88.2752 35.725 88.0127 34.775 87.5252L32.95 73.8752C34.05 73.0877 34.775 71.8127 34.775 70.3627C34.775 69.6002 34.5625 68.8877 34.2 68.2627C35.125 68.2502 35.975 67.9502 36.675 67.4377L49.175 79.9502L49.45 78.9127C50.875 73.5877 49.3375 67.8627 45.45 63.9752C44.1 62.6252 42.5125 61.5752 40.8125 60.8127H57.2L56.6625 59.8877C53.9 55.1127 48.775 52.1502 43.2625 52.1502C41.75 52.1502 40.2875 52.3877 38.875 52.8127L50.3 41.6877L49.25 41.4127C43.9375 39.9877 38.2 41.5252 34.3125 45.4127C32.4375 47.2877 31.1125 49.5502 30.4 52.0252C29.6875 49.5502 28.3625 47.2877 26.4875 45.4127C22.6 41.5252 16.875 39.9877 11.55 41.4127L10.5125 41.7002L21.9375 52.8252C20.525 52.4002 19.05 52.1627 17.55 52.1627C12.05 52.1627 6.91251 55.1252 4.15001 59.9002L3.61251 60.8252H20.8C18.9875 61.5877 17.3125 62.6877 15.8875 64.1127C12 68.0002 10.4625 73.7252 11.8875 79.0502L12.1625 80.0877L24.5875 67.6627C25.2 68.0127 25.9 68.2252 26.65 68.2377C26.3 68.8627 26.075 69.5752 26.075 70.3377C26.075 71.7627 26.775 73.0252 27.85 73.8127L25.9625 87.9877C24.3875 87.7502 22.925 86.9752 21.8625 85.7627L21.4 85.2377L20.9375 85.7627C19.65 87.2252 17.7875 88.0627 15.8375 88.0627C13.8875 88.0627 12.025 87.2252 10.7375 85.7627L10.275 85.2377L9.81251 85.7627C9.28751 86.3627 8.65001 86.8252 7.96251 87.2127C3.73751 79.1252 1.33751 69.9377 1.33751 60.2002C1.33751 27.8002 27.7 1.4377 60.1 1.4377C92.5 1.4377 118.863 27.8002 118.863 60.2002C118.863 69.9002 116.488 79.0627 112.3 87.1377ZM107.238 95.2502C104.675 96.2127 101.6 95.4752 99.75 93.3752L99.2875 92.8502L98.825 93.3752C97.875 94.4502 96.6125 95.1752 95.2375 95.4877L94.4375 89.4627C96.25 89.3002 97.975 88.5252 99.2875 87.2502C100.788 88.6877 102.775 89.5002 104.85 89.5002C106.925 89.5002 108.925 88.6877 110.413 87.2502C110.813 87.6252 111.25 87.9502 111.713 88.2377C110.388 90.6877 108.888 93.0252 107.238 95.2502ZM101.288 102.063C100.725 101.713 100.2 101.3 99.7625 100.8L99.3 100.275L98.8375 100.8C98.1125 101.625 97.2 102.238 96.2 102.638L95.4125 96.7252C96.8625 96.4127 98.225 95.7252 99.3 94.6752C100.8 96.1127 102.788 96.9252 104.863 96.9252C105.25 96.9252 105.625 96.8877 106 96.8377C104.525 98.6752 102.963 100.413 101.288 102.063ZM96.6625 106.15L96.3625 103.888C97.45 103.513 98.45 102.913 99.3 102.1C99.625 102.413 99.9875 102.688 100.363 102.95C99.175 104.063 97.9375 105.138 96.6625 106.15ZM83.1375 114.25L88.45 74.4377C88.875 74.5752 89.325 74.6752 89.7875 74.6752C90.275 74.6752 90.7375 74.5752 91.175 74.4252L95.525 107.05C91.7375 109.925 87.575 112.35 83.1375 114.25ZM60.1 118.963C52.425 118.963 45.1 117.475 38.375 114.788L37.975 111.763C39.975 111.713 41.9375 110.925 43.4 109.525C44.9 110.963 46.8875 111.775 48.9625 111.775C51.0375 111.775 53.0375 110.963 54.525 109.525C56.025 110.963 58.0125 111.775 60.0875 111.775C62.1625 111.775 64.1625 110.963 65.65 109.525C67.15 110.963 69.1375 111.775 71.2125 111.775C73.2875 111.775 75.2875 110.963 76.775 109.525C78.2375 110.925 80.175 111.725 82.2 111.763L81.8 114.788C75.1 117.475 67.775 118.963 60.1 118.963ZM19.9125 103.013C20.4375 102.7 20.95 102.35 21.3875 101.913C22.1125 102.613 22.9625 103.15 23.875 103.538L23.525 106.15C22.2875 105.15 21.075 104.113 19.9125 103.013ZM13.95 96.5127C14.5625 96.6627 15.1875 96.7252 15.825 96.7252C17.9125 96.7252 19.9 95.9127 21.3875 94.4877C22.3625 95.4127 23.5375 96.0752 24.825 96.4377L24.05 102.25C23.225 101.863 22.4625 101.313 21.85 100.613L21.3875 100.088L20.925 100.613C20.375 101.238 19.7125 101.738 18.975 102.125C17.1875 100.363 15.5125 98.4877 13.95 96.5127ZM25 95.2002C23.8 94.8377 22.7 94.1502 21.8625 93.1877L21.4 92.6627L20.9375 93.1877C19.65 94.6502 17.7875 95.4877 15.8375 95.4877C14.75 95.4877 13.725 95.2377 12.7625 94.7502L12.5625 94.6502C11.0875 92.6252 9.73751 90.5127 8.53751 88.3127C9.17501 87.9752 9.76251 87.5627 10.275 87.0627C11.7625 88.4877 13.7625 89.3002 15.8375 89.3002C17.9125 89.3002 19.9125 88.4877 21.4 87.0627C22.6125 88.2252 24.15 88.9627 25.8 89.2127L25 95.2002ZM24.6625 107.038L25.225 102.863L25.2625 102.7C25.25 102.7 25.25 102.7 25.25 102.688L29.025 74.4127C29.4625 74.5627 29.925 74.6627 30.4125 74.6627C30.8875 74.6627 31.325 74.5627 31.75 74.4252L37.0625 114.238C32.625 112.35 28.4625 109.925 24.6625 107.038ZM36.25 66.1502C36.1 66.3002 35.9375 66.4252 35.75 66.5252C35.275 66.8252 34.725 67.0002 34.1125 67.0002C33.225 67.0002 32.4375 66.6252 31.8625 66.0252C31.3375 65.4752 31.0125 64.7252 31.0125 63.9127C31.0125 63.3877 31.15 62.9002 31.3875 62.4752C31.425 62.4127 31.45 62.3502 31.4875 62.2877C31.6 62.1127 31.725 61.9502 31.8625 61.7877C32 61.6377 32.1625 61.5002 32.325 61.3877C32.825 61.0377 33.4375 60.8252 34.0875 60.8252C35.7875 60.8252 37.175 62.2127 37.175 63.9127C37.175 64.5752 36.9625 65.1752 36.6125 65.6752C36.5375 65.8502 36.4 66.0002 36.25 66.1502ZM38.45 63.9127C38.45 62.7752 38 61.7502 37.2875 60.9752C40 61.5127 42.5625 62.8377 44.575 64.8502C47.9 68.1752 49.35 72.9377 48.5 77.5252L37.525 66.5502C38.1 65.8252 38.45 64.9127 38.45 63.9127ZM34.125 59.5877H32.5H31.9375H31.5375C32.8375 57.7002 34.5625 56.1752 36.5375 55.1127C38.575 54.0127 40.8875 53.4002 43.275 53.4002C47.975 53.4002 52.375 55.7502 55.0125 59.5877H36.45H34.125ZM31.025 58.1752V56.3502C31.025 52.5502 32.5 48.9752 35.1875 46.2877C37.8875 43.5877 41.5375 42.1252 45.275 42.1252C46.1375 42.1252 46.9875 42.2002 47.85 42.3627L35.7625 54.1252C33.95 55.1377 32.325 56.5002 31.025 58.1752ZM29.7875 58.1752C28.4875 56.5002 26.875 55.1377 25.05 54.1252L12.9625 42.3627C17.5375 41.5252 22.3 42.9752 25.6125 46.2877C28.3 48.9752 29.775 52.5502 29.775 56.3502V58.1752H29.7875ZM29.2875 59.5877H28.8875H26.7H5.81251C8.45001 55.7502 12.85 53.4002 17.55 53.4002C19.9375 53.4002 22.25 54.0127 24.2875 55.1127C26.2625 56.1752 27.9875 57.7002 29.2875 59.5877ZM22.3625 63.9127C22.3625 65.0752 22.825 66.1377 23.5875 66.9127L12.8375 77.6627C11.9875 73.0752 13.4375 68.3127 16.7625 64.9877C18.5875 63.1627 20.85 61.9252 23.275 61.3002C22.7125 62.0252 22.3625 62.9252 22.3625 63.9127ZM23.6 63.9127C23.6 62.2752 24.875 60.9502 26.4875 60.8377C26.55 60.8377 26.625 60.8127 26.6875 60.8127C26.7125 60.8127 26.7375 60.8252 26.7625 60.8252C27.5625 60.8377 28.275 61.1627 28.8125 61.6752C28.9625 61.8127 29.1 61.9752 29.2125 62.1502C29.2625 62.2252 29.3125 62.3127 29.35 62.3877C29.4125 62.4877 29.475 62.5877 29.525 62.7002C29.6875 63.0752 29.775 63.4752 29.775 63.9127C29.775 64.7627 29.425 65.5377 28.8625 66.1002C28.3 66.6627 27.5375 67.0002 26.6875 67.0002C26.2625 67.0002 25.85 66.9127 25.475 66.7502C25.275 66.6627 25.0875 66.5627 24.9125 66.4377C24.7375 66.3127 24.5875 66.1877 24.4375 66.0377C23.9375 65.4877 23.6 64.7377 23.6 63.9127ZM28.65 67.8002C29.0375 67.5377 29.4875 67.3627 29.9625 67.2877C30.1125 67.2627 30.25 67.2377 30.4 67.2377C30.5375 67.2377 30.6625 67.2627 30.7875 67.2752C31.2625 67.3377 31.7125 67.5002 32.1 67.7502C32.9375 68.3002 33.5 69.2502 33.5 70.3252C33.5 71.1127 33.2 71.8127 32.725 72.3627C32.4125 72.7127 32.025 73.0002 31.5875 73.1877C31.225 73.3377 30.825 73.4252 30.4125 73.4252C29.975 73.4252 29.5625 73.3377 29.1875 73.1627C28.7375 72.9752 28.3625 72.6627 28.05 72.3002C27.6 71.7627 27.3125 71.0752 27.3125 70.3252C27.3125 69.2877 27.85 68.3627 28.65 67.8002ZM82.3875 110.525C80.4625 110.525 78.5625 109.7 77.2625 108.225L76.8 107.7L76.3375 108.225C75.0375 109.7 73.1875 110.538 71.2375 110.538C69.2875 110.538 67.425 109.688 66.1375 108.225L65.675 107.7L65.2125 108.225C63.9125 109.7 62.0625 110.538 60.1125 110.538C58.1625 110.538 56.3 109.688 55.0125 108.225L54.55 107.7L54.0875 108.225C52.7875 109.7 50.9375 110.538 48.9875 110.538C47.0375 110.538 45.175 109.688 43.8875 108.225L43.425 107.7L42.9625 108.225C41.6625 109.7 39.75 110.525 37.8375 110.525L37.0125 104.3C39.3375 104.538 41.7375 103.738 43.4375 102.1C44.9375 103.538 46.925 104.35 49 104.35C51.075 104.35 53.075 103.538 54.5625 102.1C56.0625 103.538 58.05 104.35 60.125 104.35C62.2 104.35 64.2 103.538 65.6875 102.1C67.1875 103.538 69.175 104.35 71.25 104.35C73.325 104.35 75.325 103.538 76.8125 102.1C78.3125 103.538 80.3 104.35 82.375 104.35C82.6625 104.35 82.95 104.338 83.225 104.3L82.3875 110.525ZM83.3875 103.025C81.15 103.363 78.7875 102.525 77.2625 100.8L76.8 100.275L76.3375 100.8C75.0375 102.275 73.1875 103.113 71.2375 103.113C69.2875 103.113 67.425 102.263 66.1375 100.8L65.675 100.275L65.2125 100.8C63.9125 102.275 62.0625 103.113 60.1125 103.113C58.1625 103.113 56.3 102.263 55.0125 100.8L54.55 100.275L54.0875 100.8C52.7875 102.275 50.9375 103.113 48.9875 103.113C47.0375 103.113 45.175 102.263 43.8875 100.8L43.425 100.275L42.9625 100.8C41.4375 102.525 39.075 103.35 36.8375 103.025L36 96.7002C38.6125 97.3002 41.4875 96.5627 43.4375 94.6877C44.9375 96.1252 46.925 96.9377 49 96.9377C51.075 96.9377 53.075 96.1252 54.5625 94.6877C56.0625 96.1252 58.05 96.9377 60.125 96.9377C62.2 96.9377 64.2 96.1252 65.6875 94.6877C67.1875 96.1252 69.175 96.9377 71.25 96.9377C73.325 96.9377 75.325 96.1252 76.8125 94.6877C78.3125 96.1252 80.3 96.9377 82.375 96.9377C83.0125 96.9377 83.6375 96.8377 84.25 96.6877L83.3875 103.025ZM84.4125 95.3627C81.925 96.1377 79.025 95.3752 77.2625 93.3752L76.8 92.8502L76.3375 93.3752C75.0375 94.8502 73.1875 95.6877 71.2375 95.6877C69.2875 95.6877 67.425 94.8377 66.1375 93.3752L65.675 92.8502L65.2125 93.3752C63.9125 94.8502 62.0625 95.6877 60.1125 95.6877C58.1625 95.6877 56.3 94.8377 55.0125 93.3752L54.55 92.8502L54.0875 93.3752C52.7875 94.8502 50.9375 95.6877 48.9875 95.6877C47.0375 95.6877 45.175 94.8377 43.8875 93.3752L43.425 92.8502L42.9625 93.3752C41.2 95.3752 38.3125 96.1377 35.8125 95.3627L34.9375 88.9502C35.8625 89.3002 36.8375 89.5002 37.8375 89.5002C39.9125 89.5002 41.9125 88.6877 43.4 87.2502C44.9 88.6877 46.8875 89.5002 48.9625 89.5002C51.0375 89.5002 53.0375 88.6877 54.525 87.2502C56.025 88.6877 58.0125 89.5002 60.0875 89.5002C62.1625 89.5002 64.1625 88.6877 65.65 87.2502C67.15 88.6877 69.1375 89.5002 71.2125 89.5002C73.2875 89.5002 75.2875 88.6877 76.775 87.2502C78.275 88.6877 80.2625 89.5002 82.3375 89.5002C83.325 89.5002 84.3125 89.3127 85.2375 88.9627L84.4125 95.3627ZM82.525 66.7002L71.6875 77.5252C70.8375 72.9377 72.2875 68.1752 75.6125 64.8502C77.55 62.9127 79.9875 61.6252 82.5875 61.0377C82.7 61.0127 82.8 60.9752 82.9125 60.9502C82.1875 61.7252 81.7375 62.7627 81.7375 63.9002C81.7375 64.9002 82.0875 65.8127 82.6625 66.5377L82.525 66.7002ZM91.325 66.1002C90.7625 65.5377 90.4125 64.7627 90.4125 63.9127C90.4125 63.4877 90.5 63.0752 90.6625 62.7002C90.7125 62.5877 90.775 62.4877 90.8375 62.3877C90.8875 62.3002 90.925 62.2252 90.975 62.1502C91.1 61.9752 91.225 61.8252 91.375 61.6877C91.8625 61.2252 92.5 60.9252 93.2125 60.8627C93.3125 60.8502 93.4 60.8377 93.5 60.8377C93.6 60.8377 93.6875 60.8627 93.7875 60.8627C95.3625 61.0127 96.6 62.3252 96.6 63.9252C96.6 64.7502 96.275 65.5002 95.7375 66.0502C95.6 66.2002 95.4375 66.3377 95.275 66.4502C95.1 66.5752 94.9125 66.6752 94.7125 66.7627C94.3375 66.9252 93.9375 67.0127 93.5 67.0127C92.65 67.0002 91.8875 66.6627 91.325 66.1002ZM97.8375 63.9127C97.8375 62.9252 97.5 62.0377 96.9375 61.3002C99.3625 61.9252 101.613 63.1627 103.438 64.9877C106.763 68.3127 108.213 73.0752 107.363 77.6627L96.6125 66.9127C97.3625 66.1377 97.8375 65.0752 97.8375 63.9127ZM93.5 59.5877H91.3125H90.9125C92.2125 57.7002 93.9375 56.1752 95.9125 55.1127C97.95 54.0127 100.263 53.4002 102.65 53.4002C107.35 53.4002 111.75 55.7502 114.388 59.5877H93.5ZM90.4125 58.1752V56.3502C90.4125 52.5502 91.8875 48.9752 94.575 46.2877C97.275 43.5877 100.925 42.1252 104.663 42.1252C105.525 42.1252 106.375 42.2002 107.238 42.3627L95.15 54.1252C93.325 55.1377 91.7 56.5002 90.4125 58.1752ZM89.175 58.1752C87.875 56.5002 86.2625 55.1377 84.4375 54.1252L72.35 42.3627C76.925 41.5252 81.6875 42.9752 85 46.2877C87.6875 48.9752 89.1625 52.5502 89.1625 56.3502V58.1752H89.175ZM88.675 59.5877H88.275H87.7125H86.0875H85.825H83.775H65.1875C67.825 55.7502 72.225 53.4002 76.925 53.4002C79.3125 53.4002 81.625 54.0127 83.6625 55.1127C85.65 56.1752 87.375 57.7002 88.675 59.5877ZM84.45 66.5252C84.275 66.4127 84.1125 66.2877 83.95 66.1502C83.8 66.0127 83.6625 65.8502 83.55 65.6877C83.2 65.1877 82.9875 64.5752 82.9875 63.9252C82.9875 62.2627 84.3 60.9127 85.95 60.8502C86 60.8502 86.0375 60.8377 86.075 60.8377C86.7375 60.8377 87.3375 61.0502 87.8375 61.4002C88.0125 61.5252 88.1625 61.6502 88.3 61.8002C88.45 61.9502 88.575 62.1127 88.675 62.3002C88.7125 62.3627 88.75 62.4252 88.775 62.4877C89 62.9252 89.15 63.4002 89.15 63.9252C89.15 64.7502 88.825 65.4877 88.3 66.0377C87.7375 66.6377 86.9375 67.0127 86.05 67.0127C86 67.0127 85.9625 67.0002 85.925 67.0002C85.4 66.9627 84.8875 66.8002 84.45 66.5252ZM88.0875 67.7627C88.475 67.5127 88.925 67.3502 89.4 67.2877C89.525 67.2752 89.65 67.2502 89.7875 67.2502C89.9375 67.2502 90.0875 67.2752 90.225 67.3002C90.7125 67.3752 91.1625 67.5377 91.5375 67.8127C92.3375 68.3752 92.875 69.3002 92.875 70.3502C92.875 71.1002 92.5875 71.7877 92.1375 72.3252C91.825 72.6877 91.45 72.9877 91 73.1877C90.625 73.3502 90.2125 73.4502 89.775 73.4502C89.3625 73.4502 88.9625 73.3627 88.6 73.2127C88.1625 73.0252 87.775 72.7377 87.4625 72.3877C86.9875 71.8377 86.6875 71.1377 86.6875 70.3502C86.7 69.2627 87.25 68.3127 88.0875 67.7627Z" fill="black"/>
<path d="M60.1 7.62524C51.575 7.62524 44.6375 14.5627 44.6375 23.0877C44.6375 31.6127 51.575 38.5502 60.1 38.5502C68.625 38.5502 75.5625 31.6127 75.5625 23.0877C75.5625 14.5627 68.625 7.62524 60.1 7.62524ZM60.1 37.3127C52.25 37.3127 45.875 30.9252 45.875 23.0877C45.875 15.2502 52.25 8.86274 60.1 8.86274C67.95 8.86274 74.325 15.2502 74.325 23.0877C74.325 30.9252 67.95 37.3127 60.1 37.3127Z" fill="black"/>
</g>
</g>
</g>
<g opacity="0.5" clip-path="url(#clip3_8_8902)">
<g clip-path="url(#clip4_8_8902)">
<path fill-rule="evenodd" clip-rule="evenodd" d="M48.6585 52.7002H48.0998C46.1665 52.7002 44.6 54.2674 44.6 56.2002V74.2002C44.6 76.1332 46.167 77.7002 48.1 77.7002H72.1C74.033 77.7002 75.6 76.1332 75.6 74.2002V56.2002C75.6 54.2674 74.0334 52.7002 72.1002 52.7002H71.5416C71.3268 49.9651 70.5114 47.2463 68.941 45.072C67.0416 42.4419 64.0944 40.7002 60.1 40.7002C56.1056 40.7002 53.1585 42.4419 51.259 45.072C49.6886 47.2463 48.8732 49.9651 48.6585 52.7002ZM51.6692 52.7002H68.5308C68.323 50.4773 67.6482 48.4058 66.509 46.8284C65.1584 44.9585 63.1056 43.7002 60.1 43.7002C57.0944 43.7002 55.0415 44.9585 53.691 46.8284C52.5518 48.4058 51.8769 50.4773 51.6692 52.7002ZM48.0998 55.7002C47.8239 55.7002 47.6 55.9238 47.6 56.2002V74.2002C47.6 74.4764 47.8239 74.7002 48.1 74.7002H72.1C72.3762 74.7002 72.6 74.4764 72.6 74.2002V56.2002C72.6 55.9238 72.3762 55.7002 72.1002 55.7002H48.0998ZM58.6 69.2002V61.2002H61.6V69.2002H58.6Z" fill="black"/>
</g>
</g>
<defs>
<clipPath id="clip0_8_8902">
<rect width="120" height="120" fill="white" transform="translate(0.100006 0.200195)"/>
</clipPath>
<clipPath id="clip1_8_8902">
<rect width="120" height="120" fill="white" transform="translate(0.100006 0.200195)"/>
</clipPath>
<clipPath id="clip2_8_8902">
<rect width="120" height="120" fill="white" transform="translate(0.100006 0.200195)"/>
</clipPath>
<clipPath id="clip3_8_8902">
<rect width="48" height="48" fill="white" transform="translate(36.1 36.2002)"/>
</clipPath>
<clipPath id="clip4_8_8902">
<rect width="48" height="48" fill="white" transform="translate(36.1 36.2002)"/>
</clipPath>
</defs>
</svg>
