<svg width="121" height="120" viewBox="0 0 121 120" fill="none" xmlns="http://www.w3.org/2000/svg">
<rect x="0.0999985" width="120" height="120" rx="60" fill="white"/>
<g opacity="0.1" clip-path="url(#clip0_8_9056)">
<g clip-path="url(#clip1_8_9056)">
<g clip-path="url(#clip2_8_9056)">
<path d="M94.7375 77.9374C95.9125 77.9374 96.9 77.1374 97.15 75.9999L103.2 48.7874C103.363 48.0499 103.187 47.2874 102.712 46.6999C102.237 46.1124 101.538 45.7749 100.788 45.7749H99.7C98.5375 45.7749 97.5375 46.5749 97.2875 47.7124L90.575 77.9374H94.7375Z" fill="#F2B203"/>
<path d="M47.3 18.5625H72.9L63.625 12.375H56.575L47.3 18.5625Z" fill="#34E0A1"/>
<path d="M90.675 71.75H74.325C72.9625 71.75 71.85 72.8625 71.85 74.225V75.4625C71.85 76.825 72.9625 77.9375 74.325 77.9375H89.2875L90.675 71.75Z" fill="#F2B203"/>
<path d="M60.1 22.2626C61.5875 22.2626 62.8375 21.2001 63.125 19.7876H57.0625C57.3625 21.2001 58.6125 22.2626 60.1 22.2626Z" fill="#FEE39A"/>
<path d="M22.925 47.7124C22.675 46.5749 21.675 45.7749 20.5125 45.7749H19.425C18.675 45.7749 17.9625 46.1124 17.5 46.6999C17.025 47.2874 16.85 48.0499 17.0125 48.7874L23.0625 75.9999C23.3125 77.1374 24.3125 77.9374 25.475 77.9374H29.65L22.925 47.7124Z" fill="#F2B203"/>
<path d="M64.425 7.425V11.425L117.312 46.6875C111.312 20.875 88.2625 1.5375 60.7125 1.25V7.425H64.425Z" fill="#00AA6C"/>
<path d="M55.775 11.425V7.425H59.4875V1.25C31.9375 1.5375 8.8875 20.875 2.875 46.6875L43.2125 19.8L55.775 11.425Z" fill="#00AA6C"/>
<path d="M44.7125 79.1748H27.1625L20.175 103.062C20.4875 103.35 20.8 103.637 21.125 103.925H48.2625L44.7125 79.1748Z" fill="#C9F2E3"/>
<path d="M75.4875 79.1751L71.95 103.913H99.0875C99.4 103.625 99.725 103.35 100.037 103.05L93.05 79.1626H75.4875V79.1751Z" fill="#C9F2E3"/>
<path d="M64.3625 19.7998C64.0625 21.8873 62.275 23.5123 60.1 23.5123C57.925 23.5123 56.1375 21.8998 55.8375 19.7998H45.45L2.4875 48.4248C1.7375 52.1623 1.3375 56.0373 1.3375 59.9998C1.3375 76.4998 8.175 91.4123 19.1625 102.1L25.875 79.1748H25.475C23.725 79.1748 22.2375 77.9748 21.85 76.2623L15.8 49.0498C15.55 47.9498 15.825 46.7998 16.525 45.9248C17.2375 45.0373 18.2875 44.5373 19.425 44.5373H20.5125C22.2625 44.5373 23.75 45.7373 24.1375 47.4373L29.2625 70.5123H45.875C47.925 70.5123 49.5875 72.1748 49.5875 74.2248V75.4623C49.5875 77.4748 47.975 79.1123 45.975 79.1623L49.5125 103.912H59.4875V64.3248H33.5V59.3748H44.6375V53.1248C42.55 52.8248 40.925 51.0373 40.925 48.8623V44.5373H49.5875V48.8623C49.5875 51.0373 47.975 52.8248 45.875 53.1248V59.3748H55.775V56.8998V44.5248V41.4373C55.775 40.4873 56.075 39.5998 56.6375 38.8373L58.8625 35.8623C59.2625 35.3248 59.475 34.6873 59.475 34.0123V30.2998H60.1H60.7125V34.0123C60.7125 34.6873 60.925 35.3248 61.325 35.8623L63.55 38.8373C64.1125 39.5873 64.4125 40.4873 64.4125 41.4373V59.3748H74.3125V53.1248C72.225 52.8248 70.6 51.0373 70.6 48.8623V44.5373H79.2625V48.8623C79.2625 51.0373 77.65 52.8248 75.55 53.1248V59.3748H86.6875V64.3248H60.7125V103.912H70.6875L74.225 79.1623C72.225 79.1123 70.6125 77.4748 70.6125 75.4623V74.2248C70.6125 72.1748 72.275 70.5123 74.325 70.5123H90.9375L96.0625 47.4373C96.4375 45.7248 97.9375 44.5373 99.6875 44.5373H100.775C101.913 44.5373 102.962 45.0373 103.675 45.9248C104.388 46.8123 104.65 47.9498 104.4 49.0498L98.35 76.2623C97.975 77.9748 96.475 79.1748 94.725 79.1748H94.325L101.038 102.1C112.025 91.4123 118.863 76.4998 118.863 59.9998C118.863 56.0373 118.462 52.1748 117.712 48.4248L74.7625 19.7998H64.3625Z" fill="#C9F2E3"/>
<path d="M60.1 118.762C74.375 118.762 87.4625 113.65 97.6625 105.15H22.5375C32.7375 113.65 45.825 118.762 60.1 118.762Z" fill="#004F32"/>
<path d="M45.875 77.9375C47.2375 77.9375 48.35 76.825 48.35 75.4625V74.225C48.35 72.8625 47.2375 71.75 45.875 71.75H29.525L30.9 77.9375H45.875Z" fill="#F2B203"/>
<path d="M63.2 8.6626H57.0125V11.1376H63.2V8.6626Z" fill="#F2B203"/>
<path d="M34.7375 60.6123V63.0873H85.4625V60.6123H64.425H55.775H34.7375Z" fill="#8E6500"/>
<path d="M62.575 39.5875L60.35 36.6125C60.2625 36.5 60.175 36.375 60.1 36.25C60.025 36.375 59.9375 36.5 59.85 36.6125L57.625 39.5875C57.225 40.125 57.0125 40.7625 57.0125 41.4375V44.525H60.725V56.9H57.0125V59.375H63.2V41.4375C63.1875 40.7625 62.975 40.125 62.575 39.5875Z" fill="#34E0A1"/>
<path d="M59.4875 45.7749H57.0125V55.6749H59.4875V45.7749Z" fill="white"/>
<path d="M78.0375 45.7749H71.85V48.8624C71.85 50.5624 73.2375 51.9499 74.9375 51.9499C76.6375 51.9499 78.025 50.5624 78.025 48.8624V45.7749H78.0375Z" fill="white"/>
<path d="M48.35 45.7749H42.1625V48.8624C42.1625 50.5624 43.55 51.9499 45.25 51.9499C46.95 51.9499 48.3375 50.5624 48.3375 48.8624V45.7749H48.35Z" fill="white"/>
<path d="M60.1 0C27.0125 0 0.0999985 26.9125 0.0999985 60C0.0999985 93.0875 27.0125 120 60.1 120C93.1875 120 120.1 93.0875 120.1 60C120.1 26.9125 93.1875 0 60.1 0ZM47.3 18.5625L56.575 12.375H63.625L72.9 18.5625H47.3ZM63.125 19.8C62.8375 21.2125 61.5875 22.275 60.1 22.275C58.6125 22.275 57.3625 21.2125 57.075 19.8H63.125ZM63.1875 11.1375H57V8.6625H63.1875V11.1375ZM59.4875 1.25V7.425H55.775V11.425L43.2125 19.8L2.875 46.6875C8.8875 20.875 31.9375 1.5375 59.4875 1.25ZM20.175 103.062L27.1625 79.175H44.725L48.2625 103.912H21.1125C20.8 103.637 20.4875 103.35 20.175 103.062ZM29.6375 77.9375H25.4625C24.3 77.9375 23.3 77.1375 23.05 76L17 48.7875C16.8375 48.05 17.0125 47.2875 17.4875 46.7C17.9625 46.1125 18.6625 45.775 19.4125 45.775H20.5C21.675 45.775 22.6625 46.575 22.9125 47.7125L29.6375 77.9375ZM29.525 71.75H45.8625C47.225 71.75 48.3375 72.8625 48.3375 74.225V75.4625C48.3375 76.825 47.225 77.9375 45.8625 77.9375H30.9L29.525 71.75ZM60.1 118.763C45.825 118.763 32.7375 113.65 22.5375 105.15H97.65C87.4625 113.65 74.375 118.763 60.1 118.763ZM99.0875 103.912H71.95L75.4875 79.175H93.05L100.037 103.062C99.7125 103.35 99.4 103.637 99.0875 103.912ZM89.3 77.9375H74.325C72.9625 77.9375 71.85 76.825 71.85 75.4625V74.225C71.85 72.8625 72.9625 71.75 74.325 71.75H90.6625L89.3 77.9375ZM97.275 47.7125C97.525 46.575 98.525 45.775 99.6875 45.775H100.775C101.525 45.775 102.238 46.1125 102.7 46.7C103.175 47.2875 103.35 48.05 103.188 48.7875L97.15 76C96.9 77.1375 95.9 77.9375 94.7375 77.9375H90.5625L97.275 47.7125ZM118.863 60C118.863 76.5 112.025 91.4125 101.037 102.1L94.325 79.175H94.725C96.475 79.175 97.9625 77.975 98.35 76.2625L104.4 49.05C104.65 47.95 104.375 46.8 103.675 45.925C102.963 45.0375 101.912 44.5375 100.775 44.5375H99.6875C97.9375 44.5375 96.45 45.7375 96.0625 47.4375L90.9375 70.5125H74.325C72.275 70.5125 70.6125 72.175 70.6125 74.225V75.4625C70.6125 77.475 72.225 79.1125 74.225 79.1625L70.6875 103.912H60.7125V64.325H86.6875V59.375H75.55V53.125C77.6375 52.825 79.2625 51.0375 79.2625 48.8625V44.5375H70.6V48.8625C70.6 51.0375 72.2125 52.825 74.3125 53.125V59.375H64.4125V41.4375C64.4125 40.4875 64.1125 39.6 63.55 38.8375L61.325 35.8625C60.925 35.325 60.7125 34.6875 60.7125 34.0125V30.3H60.1H59.4875V34.0125C59.4875 34.6875 59.275 35.325 58.875 35.8625L56.65 38.8375C56.0875 39.5875 55.7875 40.4875 55.7875 41.4375V44.525V56.9V59.375H45.8875V53.125C47.975 52.825 49.6 51.0375 49.6 48.8625V44.5375H40.9375V48.8625C40.9375 51.0375 42.55 52.825 44.65 53.125V59.375H33.5125V64.325H59.4875V103.912H49.5125L45.975 79.1625C47.975 79.1125 49.5875 77.475 49.5875 75.4625V74.225C49.5875 72.175 47.925 70.5125 45.875 70.5125H29.25L24.125 47.4375C23.75 45.725 22.25 44.5375 20.5 44.5375H19.4125C18.275 44.5375 17.225 45.0375 16.5125 45.925C15.8 46.8125 15.5375 47.95 15.7875 49.05L21.8375 76.2625C22.2125 77.975 23.7125 79.175 25.4625 79.175H25.8625L19.15 102.1C8.175 91.4125 1.3375 76.5 1.3375 60C1.3375 56.0375 1.7375 52.175 2.4875 48.425L45.4375 19.7875H55.825C56.125 21.875 57.9125 23.5 60.0875 23.5C62.2625 23.5 64.05 21.8875 64.35 19.7875H74.7375L117.688 48.425C118.463 52.175 118.863 56.0375 118.863 60ZM60.7125 56.9125V44.5375H57V41.45C57 40.775 57.2125 40.1375 57.6125 39.6L59.8375 36.625C59.9375 36.5 60.025 36.375 60.1 36.25C60.175 36.375 60.2625 36.5 60.35 36.6125L62.575 39.5875C62.975 40.125 63.1875 40.7625 63.1875 41.4375V59.375H57V56.9H60.7125V56.9125ZM57.0125 55.675V45.775H59.4875V55.675H57.0125ZM64.425 60.6125H85.45V63.0875H34.7375V60.6125H55.7625H64.425ZM74.95 51.9625C73.25 51.9625 71.8625 50.575 71.8625 48.875V45.7875H78.05V48.875C78.0375 50.575 76.65 51.9625 74.95 51.9625ZM45.25 51.9625C43.55 51.9625 42.1625 50.575 42.1625 48.875V45.7875H48.35V48.875C48.35 50.575 46.9625 51.9625 45.25 51.9625ZM64.425 11.425V7.425H60.7125V1.25C88.2625 1.5375 111.312 20.875 117.325 46.6875L64.425 11.425Z" fill="black"/>
</g>
</g>
</g>
<g opacity="0.5" clip-path="url(#clip3_8_9056)">
<g clip-path="url(#clip4_8_9056)">
<path fill-rule="evenodd" clip-rule="evenodd" d="M48.6585 52.5H48.0998C46.1665 52.5 44.6 54.0672 44.6 56V74C44.6 75.933 46.167 77.5 48.1 77.5H72.1C74.033 77.5 75.6 75.933 75.6 74V56C75.6 54.0672 74.0334 52.5 72.1002 52.5H71.5416C71.3268 49.7649 70.5114 47.0461 68.941 44.8718C67.0416 42.2417 64.0944 40.5 60.1 40.5C56.1056 40.5 53.1585 42.2417 51.259 44.8718C49.6886 47.0461 48.8732 49.7649 48.6585 52.5ZM51.6692 52.5H68.5308C68.323 50.2771 67.6482 48.2056 66.509 46.6282C65.1584 44.7583 63.1056 43.5 60.1 43.5C57.0944 43.5 55.0415 44.7583 53.691 46.6282C52.5518 48.2056 51.8769 50.2771 51.6692 52.5ZM48.0998 55.5C47.8239 55.5 47.6 55.7236 47.6 56V74C47.6 74.2762 47.8239 74.5 48.1 74.5H72.1C72.3762 74.5 72.6 74.2762 72.6 74V56C72.6 55.7236 72.3762 55.5 72.1002 55.5H48.0998ZM58.6 69V61H61.6V69H58.6Z" fill="black"/>
</g>
</g>
<defs>
<clipPath id="clip0_8_9056">
<rect width="120" height="120" fill="white" transform="translate(0.0999985)"/>
</clipPath>
<clipPath id="clip1_8_9056">
<rect width="120" height="120" fill="white" transform="translate(0.0999985)"/>
</clipPath>
<clipPath id="clip2_8_9056">
<rect width="120" height="120" fill="white" transform="translate(0.0999985)"/>
</clipPath>
<clipPath id="clip3_8_9056">
<rect width="48" height="48" fill="white" transform="translate(36.1 36)"/>
</clipPath>
<clipPath id="clip4_8_9056">
<rect width="48" height="48" fill="white" transform="translate(36.1 36)"/>
</clipPath>
</defs>
</svg>
