<svg width="49" height="49" viewBox="0 0 49 49" fill="none" xmlns="http://www.w3.org/2000/svg">
<rect x="0.600098" y="0.600098" width="48" height="48" rx="24" fill="#DFD3EE"/>
<path fill-rule="evenodd" clip-rule="evenodd" d="M24.6003 14.3293C24.1817 14.3293 23.7672 14.4118 23.3805 14.572C22.9937 14.7322 22.6423 14.967 22.3464 15.2629C22.0504 15.5589 21.8156 15.9103 21.6554 16.297C21.4952 16.6838 21.4128 17.0983 21.4128 17.5168C21.4128 17.9354 21.4952 18.3499 21.6554 18.7366C21.8156 19.1234 22.0504 19.4748 22.3464 19.7707C22.6423 20.0667 22.9937 20.3015 23.3805 20.4617C23.7672 20.6219 24.1817 20.7043 24.6003 20.7043C25.4456 20.7043 26.2564 20.3685 26.8542 19.7707C27.4519 19.173 27.7878 18.3622 27.7878 17.5168C27.7878 16.6715 27.4519 15.8607 26.8542 15.2629C26.2564 14.6652 25.4456 14.3293 24.6003 14.3293ZM19.2878 17.5168C19.2878 16.1079 19.8475 14.7566 20.8438 13.7603C21.84 12.7641 23.1913 12.2043 24.6003 12.2043C26.0092 12.2043 27.3605 12.7641 28.3568 13.7603C29.3531 14.7566 29.9128 16.1079 29.9128 17.5168C29.9128 18.9258 29.3531 20.2771 28.3568 21.2733C27.3605 22.2696 26.0092 22.8293 24.6003 22.8293C23.1913 22.8293 21.84 22.2696 20.8438 21.2733C19.8475 20.2771 19.2878 18.9258 19.2878 17.5168ZM13.869 29.8121C16.3383 26.8626 20.2327 24.9543 24.6215 24.9543C28.9877 24.9543 32.8665 26.8413 35.3287 29.7625L35.5794 30.06V36.996H13.6211V30.1082L13.869 29.8121ZM15.7461 30.8902V34.871H33.4544V30.8477C31.3932 28.5739 28.2269 27.0793 24.6229 27.0793C20.9963 27.0793 17.8158 28.5923 15.7461 30.8902Z" fill="black"/>
</svg>
