<svg width="121" height="120" viewBox="0 0 121 120" fill="none" xmlns="http://www.w3.org/2000/svg">
<rect x="0.100006" width="120" height="120" rx="60" fill="white"/>
<g opacity="0.1" clip-path="url(#clip0_8_9091)">
<g clip-path="url(#clip1_8_9091)">
<g clip-path="url(#clip2_8_9091)">
<path d="M60.1 56.9126C42.225 56.9126 27.6625 71.2876 27.3375 89.0751H92.875C92.5375 71.2751 77.975 56.9126 60.1 56.9126ZM32.1625 81.6251L30.975 81.2876C34.125 70.3501 43.3875 61.9501 54.575 59.8876L54.8 61.1001C44.075 63.0751 35.1875 71.1376 32.1625 81.6251Z" fill="#DFD3EE"/>
<path d="M60.1 55.6623C61.8052 55.6623 63.1875 54.28 63.1875 52.5748C63.1875 50.8696 61.8052 49.4873 60.1 49.4873C58.3948 49.4873 57.0125 50.8696 57.0125 52.5748C57.0125 54.28 58.3948 55.6623 60.1 55.6623Z" fill="#F2B203"/>
<path d="M66.8625 52.6123C67.5375 52.6123 68.1875 52.3998 68.725 51.9873L89.175 36.5248V19.7998H68.125H67.5125C66.2875 19.7998 65.0625 19.9623 63.8875 20.2623C62.2375 20.6998 60.6875 21.4248 59.2875 22.4123C56.2375 24.5748 54.1875 27.7873 53.525 31.4373L50.3375 48.8748C50.0875 50.2498 50.8 51.6373 52.0625 52.2248C53.6 52.9498 55.45 52.2873 56.175 50.7373C56.2875 50.4998 56.375 50.2373 56.4125 49.9748L59.6 32.5623C59.975 30.4998 61.1375 28.6873 62.8625 27.4623C64.225 26.4998 65.8375 25.9873 67.5125 25.9873C71.95 25.9873 75.55 29.5998 75.55 34.0248C75.55 36.3123 74.5625 38.5123 72.85 40.0373L64.7875 47.2123C64.125 47.7998 63.75 48.6373 63.75 49.5248C63.775 51.2248 65.1625 52.6123 66.8625 52.6123Z" fill="white"/>
<path d="M60.8 19.7998H41.5375C39.8375 19.7998 38.45 21.1873 38.45 22.8873C38.45 23.8623 38.925 24.7623 39.7 25.3373L60.8 19.7998Z" fill="white"/>
<path d="M34.7375 41.4376C34.7375 43.1376 36.125 44.5251 37.825 44.5251C38.475 44.5251 39.0875 44.3251 39.6125 43.9501L51.5125 35.5001L52.3 31.2001C52.65 29.3001 53.35 27.5126 54.3375 25.9126L36.0375 38.9126C35.225 39.5001 34.7375 40.4376 34.7375 41.4376Z" fill="white"/>
<path d="M26.7 97.7373H15.1C25.8875 110.587 42.05 118.762 60.1 118.762C78.15 118.762 94.3125 110.575 105.1 97.7373H93.5H26.7Z" fill="#8E6500"/>
<path d="M97.8375 42.0623V44.5373H116.788C114.225 35.1498 109.388 26.6873 102.9 19.7998H97.8375V42.0623ZM104.638 33.3998C107.025 33.3998 108.963 35.3373 108.963 37.7248C108.963 40.1123 107.025 42.0498 104.638 42.0498C102.25 42.0498 100.313 40.1123 100.313 37.7248C100.313 35.3373 102.25 33.3998 104.638 33.3998Z" fill="#301D49"/>
<path d="M26.7 96.5H93.5C97.0375 96.5 99.9625 93.775 100.275 90.3125H19.925C20.2375 93.775 23.15 96.5 26.7 96.5Z" fill="#F2B203"/>
<path d="M15.564 64.5788L12.7268 67.416L15.564 70.2533L18.4013 67.416L15.564 64.5788Z" fill="#F2B203"/>
<path d="M34.7375 30.3123C34.7375 32.0123 36.125 33.3998 37.825 33.3998C38.0375 33.3998 38.25 33.3748 38.45 33.3373L43.1 32.3873L58.0125 21.7998L37.0375 27.3123C35.6875 27.6748 34.7375 28.8998 34.7375 30.3123Z" fill="white"/>
<path d="M104.638 40.8249C106.343 40.8249 107.725 39.4426 107.725 37.7374C107.725 36.0322 106.343 34.6499 104.638 34.6499C102.932 34.6499 101.55 36.0322 101.55 37.7374C101.55 39.4426 102.932 40.8249 104.638 40.8249Z" fill="#F2B203"/>
<path d="M96.6 19.7998H90.4125V40.8248H96.6V19.7998Z" fill="#FEE39A"/>
<path d="M93.5076 53.4523L90.6704 56.2896L93.5076 59.1268L96.3449 56.2896L93.5076 53.4523Z" fill="white"/>
<path d="M96.6 45.7747V42.0622H89.175V38.0747L69.475 52.9747C68.725 53.5497 67.8125 53.8497 66.8625 53.8497C65.9375 53.8497 65.0875 53.5497 64.3875 53.0622C64.2625 54.1497 63.75 55.1122 62.975 55.8122C80.2 57.2497 93.8 71.5747 94.1125 89.0872H101.55V89.6997C101.55 92.5622 100.038 95.0747 97.775 96.4997H106.113C114.088 86.4622 118.875 73.7872 118.875 59.9997C118.875 55.0997 118.263 50.3247 117.125 45.7747H96.6ZM93.5 60.8747L88.9125 56.2872L93.5 51.6997L98.0875 56.2872L93.5 60.8747ZM104.638 72.0122L100.05 67.4247L104.638 62.8372L109.225 67.4247L104.638 72.0122Z" fill="#FEE39A"/>
<path d="M72.05 39.0999C73.5 37.8124 74.325 35.9624 74.325 34.0124C74.325 30.2624 71.275 27.2124 67.525 27.2124C66.1 27.2124 64.75 27.6499 63.5875 28.4624C62.125 29.4999 61.15 31.0374 60.825 32.7749L57.8875 48.8749C58.5375 48.4874 59.2875 48.2499 60.1 48.2499C61.025 48.2499 61.875 48.5499 62.5875 49.0374C62.7 47.9749 63.1875 46.9874 63.9875 46.2749L72.05 39.0999Z" fill="#FEE39A"/>
<path d="M18.6625 89.6873V89.0748H26.1C26.4125 71.5623 40.025 57.2498 57.2375 55.7998C56.4375 55.0873 55.925 54.0998 55.8125 52.9873C54.5875 53.8248 52.975 54.0248 51.5375 53.3498C49.7625 52.5123 48.7625 50.5873 49.1125 48.6498L51.2 37.2623L40.325 44.9748C39.5875 45.4998 38.725 45.7748 37.825 45.7748C35.4375 45.7748 33.5 43.8373 33.5 41.4498C33.5 40.0498 34.1875 38.7248 35.325 37.9123L40.6 34.1623L38.6875 34.5498C38.4 34.6123 38.1125 34.6373 37.8125 34.6373C35.425 34.6373 33.4875 32.6998 33.4875 30.3123C33.4875 28.3498 34.8125 26.6248 36.7125 26.1248L38.2625 25.7248C37.5875 24.9498 37.2 23.9498 37.2 22.8998C37.2 20.5123 39.1375 18.5748 41.525 18.5748H67.5H68.1125H89.15H89.7625H96.5625H97.8H101.688C91.075 7.8623 76.35 1.2373 60.1 1.2373C27.7 1.2373 1.33751 27.5998 1.33751 59.9998C1.33751 73.7873 6.12501 86.4623 14.1 96.4998H22.4375C20.1625 95.0748 18.6625 92.5623 18.6625 89.6873ZM26.7 51.6998L31.2875 56.2873L26.7 60.8748L22.1125 56.2873L26.7 51.6998ZM10.975 67.4248L15.5625 62.8373L20.15 67.4248L15.5625 72.0123L10.975 67.4248Z" fill="#FEE39A"/>
<path d="M26.698 53.4577L23.8608 56.2949L26.698 59.1322L29.5352 56.2949L26.698 53.4577Z" fill="white"/>
<path d="M104.629 64.5866L101.792 67.4238L104.629 70.2611L107.466 67.4238L104.629 64.5866Z" fill="#F2B203"/>
<path d="M60.1 0C27.0125 0 0.100006 26.9125 0.100006 60C0.100006 93.0875 27.0125 120 60.1 120C93.1875 120 120.1 93.0875 120.1 60C120.1 26.9125 93.1875 0 60.1 0ZM116.788 44.5375H97.8375V42.0625V19.8H102.9C109.375 26.6875 114.213 35.15 116.788 44.5375ZM118.863 60C118.863 73.7875 114.075 86.4625 106.1 96.5H97.7625C100.025 95.075 101.538 92.5625 101.538 89.7V89.0875H94.1C93.7875 71.575 80.175 57.2625 62.9625 55.8125C63.7375 55.125 64.2625 54.15 64.375 53.0625C65.075 53.5625 65.9375 53.85 66.85 53.85C67.8 53.85 68.7 53.55 69.4625 52.975L89.1625 38.075V42.0625H96.5875V45.775H117.1C118.25 50.325 118.863 55.1 118.863 60ZM60.1 118.763C42.05 118.763 25.8875 110.575 15.1 97.7375H26.7H93.5H105.1C94.3125 110.575 78.15 118.763 60.1 118.763ZM57.0125 52.575C57.0125 50.875 58.4 49.4875 60.1 49.4875C61.8 49.4875 63.1875 50.875 63.1875 52.575C63.1875 54.275 61.8 55.6625 60.1 55.6625C58.4 55.6625 57.0125 54.2875 57.0125 52.575ZM38.45 22.8875C38.45 21.1875 39.8375 19.8 41.5375 19.8H60.8L39.6875 25.35C38.925 24.7625 38.45 23.8625 38.45 22.8875ZM58.0125 21.8L43.1 32.3875L38.45 33.3375C38.25 33.375 38.0375 33.4 37.825 33.4C36.125 33.4 34.7375 32.0125 34.7375 30.3125C34.7375 28.9125 35.6875 27.675 37.0375 27.325L58.0125 21.8ZM54.35 25.925C53.3625 27.5375 52.6625 29.3125 52.3125 31.2125L51.525 35.5125L39.625 43.9625C39.1 44.3375 38.4875 44.5375 37.8375 44.5375C36.1375 44.5375 34.75 43.15 34.75 41.45C34.75 40.45 35.2375 39.5 36.05 38.925L54.35 25.925ZM53.525 31.4375C54.1875 27.775 56.2375 24.575 59.2875 22.4125C60.6875 21.425 62.2375 20.7 63.8875 20.2625C65.0625 19.95 66.2875 19.8 67.5125 19.8H68.125H89.1625V36.525L68.725 51.9875C68.1875 52.4 67.5375 52.6125 66.8625 52.6125C65.1625 52.6125 63.775 51.225 63.775 49.525C63.775 48.6375 64.15 47.8 64.8125 47.2125L72.875 40.0375C74.5875 38.5125 75.575 36.325 75.575 34.025C75.575 29.5875 71.9625 25.9875 67.5375 25.9875C65.8625 25.9875 64.25 26.5 62.8875 27.4625C61.1625 28.6875 60.0125 30.5 59.625 32.5625L56.4375 49.975C56.3875 50.2375 56.3125 50.4875 56.2 50.7375C55.475 52.275 53.625 52.95 52.0875 52.225C50.8125 51.625 50.1 50.25 50.3625 48.875L53.525 31.4375ZM60.1 48.25C59.2875 48.25 58.5375 48.4875 57.8875 48.875L60.8375 32.7875C61.1625 31.0375 62.1375 29.5 63.6 28.475C64.75 27.65 66.1125 27.225 67.5375 27.225C71.2875 27.225 74.3375 30.275 74.3375 34.025C74.3375 35.9625 73.5125 37.8125 72.0625 39.1125L64 46.2875C63.2 47 62.7125 47.9875 62.6 49.05C61.875 48.55 61.025 48.25 60.1 48.25ZM100.275 90.3125C99.9625 93.775 97.0375 96.5 93.5 96.5H26.7C23.1625 96.5 20.2375 93.775 19.925 90.3125H100.275ZM27.3375 89.075C27.6625 71.275 42.225 56.9125 60.1 56.9125C77.975 56.9125 92.5375 71.2875 92.8625 89.075H27.3375ZM96.6 40.825H90.4125V19.8H96.6V40.825ZM97.8375 18.5625H96.6H89.8H89.1875H68.125H67.5125H41.5375C39.15 18.5625 37.2125 20.5 37.2125 22.8875C37.2125 23.95 37.6 24.9375 38.275 25.7125L36.725 26.125C34.825 26.625 33.5 28.35 33.5 30.3125C33.5 32.7 35.4375 34.6375 37.825 34.6375C38.1125 34.6375 38.4125 34.6125 38.7 34.55L40.6125 34.1625L35.3375 37.9125C34.1875 38.725 33.5125 40.05 33.5125 41.45C33.5125 43.8375 35.45 45.775 37.8375 45.775C38.7375 45.775 39.6125 45.5 40.3375 44.975L51.2125 37.2625L49.125 48.65C48.775 50.575 49.7625 52.5125 51.55 53.35C52.9875 54.025 54.6 53.825 55.825 52.9875C55.9375 54.1 56.45 55.1 57.25 55.8C40.0125 57.2375 26.4125 71.5625 26.1 89.075H18.6625V89.6875C18.6625 92.55 20.175 95.0625 22.4375 96.4875H14.1C6.12501 86.4625 1.33751 73.7875 1.33751 60C1.33751 27.6 27.7 1.2375 60.1 1.2375C76.35 1.2375 91.075 7.8625 101.713 18.5625H97.8375Z" fill="black"/>
<path d="M30.975 81.2877L32.1625 81.6252C35.1875 71.1377 44.075 63.0752 54.8 61.1002L54.575 59.8877C43.3875 61.9502 34.125 70.3502 30.975 81.2877Z" fill="black"/>
<path d="M10.975 67.4249L15.5625 72.0124L20.15 67.4249L15.5625 62.8374L10.975 67.4249ZM15.5625 70.2624L12.725 67.4249L15.5625 64.5874L18.4 67.4249L15.5625 70.2624Z" fill="black"/>
<path d="M109.225 67.4249L104.637 62.8374L100.05 67.4249L104.637 72.0124L109.225 67.4249ZM104.637 64.5874L107.475 67.4249L104.637 70.2624L101.8 67.4249L104.637 64.5874Z" fill="black"/>
<path d="M88.9125 56.2877L93.5 60.8752L98.0875 56.2877L93.5 51.7002L88.9125 56.2877ZM93.5 59.1252L90.6625 56.2877L93.5 53.4502L96.3375 56.2877L93.5 59.1252Z" fill="black"/>
<path d="M22.1125 56.2877L26.7 60.8752L31.2875 56.2877L26.7 51.7002L22.1125 56.2877ZM26.7 59.1252L23.8625 56.2877L26.7 53.4502L29.5375 56.2877L26.7 59.1252Z" fill="black"/>
<path d="M104.637 42.0626C107.025 42.0626 108.962 40.1251 108.962 37.7376C108.962 35.3501 107.025 33.4126 104.637 33.4126C102.25 33.4126 100.312 35.3501 100.312 37.7376C100.312 40.1251 102.25 42.0626 104.637 42.0626ZM104.637 34.6376C106.337 34.6376 107.725 36.0251 107.725 37.7251C107.725 39.4251 106.337 40.8126 104.637 40.8126C102.937 40.8126 101.55 39.4251 101.55 37.7251C101.538 36.0251 102.925 34.6376 104.637 34.6376Z" fill="black"/>
</g>
</g>
</g>
<g opacity="0.5" clip-path="url(#clip3_8_9091)">
<g clip-path="url(#clip4_8_9091)">
<path fill-rule="evenodd" clip-rule="evenodd" d="M48.6585 52.5H48.0998C46.1665 52.5 44.6 54.0672 44.6 56V74C44.6 75.933 46.167 77.5 48.1 77.5H72.1C74.033 77.5 75.6 75.933 75.6 74V56C75.6 54.0672 74.0334 52.5 72.1002 52.5H71.5416C71.3268 49.7649 70.5114 47.0461 68.941 44.8718C67.0416 42.2417 64.0944 40.5 60.1 40.5C56.1056 40.5 53.1585 42.2417 51.259 44.8718C49.6886 47.0461 48.8732 49.7649 48.6585 52.5ZM51.6692 52.5H68.5308C68.323 50.2771 67.6482 48.2056 66.509 46.6282C65.1584 44.7583 63.1056 43.5 60.1 43.5C57.0944 43.5 55.0415 44.7583 53.691 46.6282C52.5518 48.2056 51.8769 50.2771 51.6692 52.5ZM48.0998 55.5C47.8239 55.5 47.6 55.7236 47.6 56V74C47.6 74.2762 47.8239 74.5 48.1 74.5H72.1C72.3762 74.5 72.6 74.2762 72.6 74V56C72.6 55.7236 72.3762 55.5 72.1002 55.5H48.0998ZM58.6 69V61H61.6V69H58.6Z" fill="black"/>
</g>
</g>
<defs>
<clipPath id="clip0_8_9091">
<rect width="120" height="120" fill="white" transform="translate(0.100006)"/>
</clipPath>
<clipPath id="clip1_8_9091">
<rect width="120" height="120" fill="white" transform="translate(0.100006)"/>
</clipPath>
<clipPath id="clip2_8_9091">
<rect width="120" height="120" fill="white" transform="translate(0.100006)"/>
</clipPath>
<clipPath id="clip3_8_9091">
<rect width="48" height="48" fill="white" transform="translate(36.1 36)"/>
</clipPath>
<clipPath id="clip4_8_9091">
<rect width="48" height="48" fill="white" transform="translate(36.1 36)"/>
</clipPath>
</defs>
</svg>
