<svg width="93" height="93" viewBox="0 0 93 93" fill="none" xmlns="http://www.w3.org/2000/svg">
<rect x="0.0999756" y="0.800049" width="92" height="92" rx="46" fill="white"/>
<g opacity="0.1" clip-path="url(#clip0_8_4647)">
<g clip-path="url(#clip1_8_4647)">
<g clip-path="url(#clip2_8_4647)">
<path d="M46.1 92.3304C71.2458 92.3304 91.6304 71.9457 91.6304 46.7999C91.6304 21.6542 71.2458 1.26953 46.1 1.26953C20.9542 1.26953 0.56958 21.6542 0.56958 46.7999C0.56958 71.9457 20.9542 92.3304 46.1 92.3304Z" fill="white"/>
<path d="M66.0142 47.2695C60.5325 47.2695 55.8846 51.3616 55.1946 56.7858C55.1371 57.2362 55.1083 57.7058 55.1083 58.1754C55.1083 58.8366 55.1754 59.4883 55.2904 60.1208L57.4754 57.4279L60.59 61.2612L61.7783 59.8045C60.5517 58.6449 59.8521 57.0445 59.8521 55.3387C59.8521 51.9366 62.6217 49.1766 66.0142 49.1766C69.4163 49.1766 72.1763 51.9462 72.1763 55.3387C72.1763 57.0445 71.4767 58.6449 70.25 59.8045L71.4383 61.2612L74.5529 57.4279L76.7379 60.1208C76.8529 59.4883 76.92 58.8462 76.92 58.1754C76.92 57.3991 76.8338 56.6229 76.6708 55.8658C75.6071 50.892 71.1221 47.2695 66.0142 47.2695Z" fill="#DFD3EE"/>
<path d="M26.1858 47.2695C20.7041 47.2695 16.0562 51.3616 15.3662 56.7858C15.3087 57.2362 15.28 57.7058 15.28 58.1754C15.28 58.8366 15.3471 59.4883 15.4621 60.1208L17.6471 57.4279L20.7616 61.2612L21.95 59.8045C20.7233 58.6449 20.0237 57.0445 20.0237 55.3387C20.0237 51.9366 22.7933 49.1766 26.1858 49.1766C29.5783 49.1766 32.3479 51.9462 32.3479 55.3387C32.3479 57.0445 31.6483 58.6449 30.4216 59.8045L31.61 61.2612L34.7246 57.4279L36.9096 60.1208C37.0246 59.4883 37.0916 58.8462 37.0916 58.1754C37.0916 57.3991 37.0054 56.6229 36.8425 55.8658C35.7691 50.892 31.2841 47.2695 26.1858 47.2695Z" fill="#DFD3EE"/>
<path d="M31.3991 55.3388C31.3991 52.4638 29.0608 50.1255 26.1858 50.1255C23.3108 50.1255 20.9725 52.4638 20.9725 55.3388C20.9725 56.7572 21.5475 58.0892 22.5537 59.0667L26.1954 54.5817L29.8371 59.0667C30.8241 58.0892 31.3991 56.7572 31.3991 55.3388Z" fill="#F2B203"/>
<path d="M71.237 55.3388C71.237 52.4638 68.8987 50.1255 66.0237 50.1255C63.1487 50.1255 60.8104 52.4638 60.8104 55.3388C60.8104 56.7572 61.3854 58.0892 62.3916 59.0667L66.0333 54.5817L69.6749 59.0667C70.662 58.0892 71.237 56.7572 71.237 55.3388Z" fill="#F2B203"/>
<path d="M46.1 0.800049C20.7329 0.800049 0.0999756 21.433 0.0999756 46.8C0.0999756 72.1671 20.7329 92.8 46.1 92.8C71.4671 92.8 92.1 72.1671 92.1 46.8C92.1 21.433 71.4671 0.800049 46.1 0.800049ZM78.2712 78.3005L71.7066 71.7359C76.9966 69.503 80.715 64.2705 80.715 58.185C80.715 57.7155 80.6862 57.2555 80.6479 56.805C80.6383 56.6613 80.6096 56.5175 80.6 56.3834C80.5616 56.0671 80.5137 55.7509 80.4562 55.4346C80.4275 55.2813 80.3987 55.1376 80.3604 54.9842C80.2933 54.6775 80.2166 54.3709 80.1208 54.0642C80.0825 53.93 80.0441 53.8055 80.0058 53.6713C79.9771 53.585 79.9579 53.4988 79.9291 53.4125L77.8208 47.2792H91.1416C91.0171 59.335 86.1296 70.2696 78.2712 78.3005ZM46.5696 91.8417V64.3184C48.7641 64.1459 50.6329 62.833 51.5816 60.9642C51.9937 63.13 52.885 65.1809 54.2362 66.9825C57.0441 70.7296 61.3375 72.8763 66.0046 72.8763C67.6529 72.8763 69.2341 72.5888 70.71 72.0905L77.5812 78.9617C69.5696 86.8296 58.635 91.7171 46.5696 91.8417ZM14.5996 78.9713L21.4708 72.1001C22.9466 72.5984 24.5279 72.8859 26.1762 72.8859C30.8529 72.8859 35.1462 70.7392 37.9446 66.9921C39.2958 65.1905 40.1871 63.1492 40.5991 60.9738C41.5479 62.8425 43.4262 64.1555 45.6112 64.328V91.8417C33.565 91.7171 22.6304 86.8296 14.5996 78.9713ZM1.05831 47.2696H14.3791L12.2708 53.403C12.2421 53.4892 12.2229 53.5755 12.1941 53.6617C12.1558 53.7959 12.1175 53.9205 12.0791 54.0546C11.9929 54.3613 11.9162 54.6584 11.8396 54.9746C11.8108 55.128 11.7725 55.2717 11.7437 55.425C11.6862 55.7413 11.6383 56.0575 11.6 56.3834C11.5808 56.5271 11.5616 56.6613 11.5521 56.805C11.5137 57.265 11.485 57.725 11.485 58.185C11.485 64.28 15.2129 69.5125 20.4933 71.7359L13.9287 78.3005C6.07039 70.2696 1.18289 59.335 1.05831 47.2696ZM13.9287 15.2996L24.6237 25.9946L22.9562 30.9205C20.5412 32.358 18.7204 34.6005 17.81 37.2551L14.705 46.3209H1.05831C1.18289 34.265 6.07039 23.3305 13.9287 15.2996ZM45.6304 1.75838V23.5892C43.6275 23.7425 41.9025 24.8542 40.8866 26.4642V26.215V24.0396C40.8866 19.8517 37.4846 16.4496 33.2966 16.4496C30.0383 16.4496 27.1537 18.5196 26.1091 21.6055L24.9687 24.9884L14.5996 14.6288C22.6304 6.77047 33.565 1.88297 45.6304 1.75838ZM77.6004 14.6288L67.2408 24.9884L66.1004 21.6055C65.0558 18.5196 62.1712 16.4496 58.9129 16.4496C54.725 16.4496 51.3229 19.8517 51.3229 24.0396V26.215V26.4642C50.3071 24.8542 48.5821 23.7425 46.5791 23.5892V1.75838C58.635 1.88297 69.5696 6.77047 77.6004 14.6288ZM77.3512 48.8317C74.6487 45.5638 70.5758 43.4746 66.0141 43.4746C59.7179 43.4746 54.3512 47.4613 52.2621 53.0292V43.9538V41.1075C52.2621 35.0892 57.1591 30.2017 63.1679 30.2017C65.0846 30.2017 66.9725 30.7096 68.6208 31.6584C70.9112 32.9809 72.6362 35.0796 73.4891 37.5713L77.3512 48.8317ZM66.0141 71.9371C61.6441 71.9371 57.6287 69.9246 55.0029 66.4267C53.2108 64.0309 52.2621 61.1846 52.2621 58.185C52.2621 50.6046 58.4337 44.433 66.0141 44.433C72.1283 44.433 77.3225 48.4484 79.105 53.978C79.1433 54.093 79.1721 54.1984 79.2008 54.3134C79.2871 54.6105 79.3637 54.898 79.4308 55.2046C79.4596 55.3388 79.4883 55.473 79.5171 55.6071C79.5746 55.9042 79.6225 56.2109 79.6512 56.508C79.6704 56.6325 79.6896 56.7667 79.6991 56.8913C79.7375 57.3225 79.7662 57.7442 79.7662 58.185C79.7662 65.7655 73.6041 71.9371 66.0141 71.9371ZM46.1 63.3984C43.225 63.3984 40.8866 61.06 40.8866 58.185C40.8866 55.31 43.225 52.9621 46.1 52.9621C48.975 52.9621 51.3133 55.3005 51.3133 58.1755C51.3133 61.0505 48.975 63.3984 46.1 63.3984ZM12.4337 58.185C12.4337 57.7442 12.4625 57.313 12.5008 56.8913C12.5104 56.7667 12.5296 56.6325 12.5487 56.508C12.5871 56.2013 12.635 55.9042 12.6829 55.6071C12.7116 55.473 12.7404 55.3388 12.7691 55.2046C12.8362 54.9075 12.9129 54.6105 12.9991 54.3134C13.0279 54.1984 13.0662 54.093 13.095 53.978C14.8775 48.4484 20.0716 44.433 26.1858 44.433C33.7662 44.433 39.9379 50.6046 39.9379 58.185C39.9379 61.1846 38.9891 64.0309 37.1971 66.4267C34.5712 69.9342 30.5558 71.9371 26.1858 71.9371C18.5958 71.9371 12.4337 65.7655 12.4337 58.185ZM18.7108 37.5713C19.5637 35.0796 21.2983 32.9809 23.5791 31.6584C25.2275 30.7096 27.1154 30.2017 29.0321 30.2017C35.0504 30.2017 39.9379 35.0988 39.9379 41.1075V43.9538V53.0292C37.8487 47.4613 32.4821 43.4746 26.1858 43.4746C21.6241 43.4746 17.5512 45.5638 14.8487 48.8221L18.7108 37.5713ZM27.0004 21.9121C27.9108 19.2096 30.4408 17.3984 33.2871 17.3984C36.9479 17.3984 39.9283 20.3788 39.9283 24.0396V26.215V29.7321V36.4692C38.1171 32.2334 33.91 29.253 29.0225 29.253C27.3358 29.253 25.6779 29.6267 24.1541 30.3167L27.0004 21.9121ZM46.1 24.5092C48.975 24.5092 51.3133 26.8475 51.3133 29.7225V34.9838C50.2208 33.2492 48.2946 32.0896 46.1 32.0896C43.9054 32.0896 41.9791 33.2492 40.8866 34.9838V29.7225C40.8866 26.8475 43.225 24.5092 46.1 24.5092ZM51.3133 54.668V54.9171C50.2208 53.1825 48.2946 52.023 46.1 52.023C43.9054 52.023 41.9791 53.1825 40.8866 54.9171V54.668V43.9538C40.8866 41.0788 43.225 38.7405 46.1 38.7405C48.975 38.7405 51.3133 41.0788 51.3133 43.9538V54.668ZM51.3133 40.6859C50.2208 38.9513 48.2946 37.7917 46.1 37.7917C43.9054 37.7917 41.9791 38.9513 40.8866 40.6859V38.2613C40.8866 35.3863 43.225 33.048 46.1 33.048C48.975 33.048 51.3133 35.3863 51.3133 38.2613V40.6859ZM63.1679 29.253C58.2804 29.253 54.0733 32.2334 52.2621 36.4692V29.7321V26.215V24.0396C52.2621 20.3788 55.2425 17.3984 58.9033 17.3984C61.7496 17.3984 64.2796 19.2096 65.19 21.9121L68.0362 30.3167C66.5125 29.6267 64.8546 29.253 63.1679 29.253ZM77.495 46.3305L74.39 37.2646C73.4796 34.61 71.6587 32.3675 69.2437 30.93L67.5762 26.0042L78.2712 15.3092C86.1296 23.3305 91.0171 34.2746 91.1416 46.3305H77.495Z" fill="black"/>
<path d="M46.1 54.8596C44.2695 54.8596 42.7841 56.345 42.7841 58.1755C42.7841 60.0059 44.2695 61.4913 46.1 61.4913C47.9304 61.4913 49.4158 60.0059 49.4158 58.1755C49.4158 56.345 47.9304 54.8596 46.1 54.8596ZM46.1 60.5521C44.7966 60.5521 43.7329 59.4884 43.7329 58.185C43.7329 56.8817 44.7966 55.8084 46.1 55.8084C47.4033 55.8084 48.467 56.8721 48.467 58.1755C48.467 59.4788 47.4033 60.5521 46.1 60.5521Z" fill="black"/>
<path d="M77.61 55.6743C76.4408 50.2597 71.5725 46.3306 66.0237 46.3306C60.0725 46.3306 55.0125 50.7772 54.265 56.6806C54.1979 57.1789 54.1691 57.6772 54.1691 58.1852C54.1691 64.721 59.4879 70.0397 66.0237 70.0397C72.5595 70.0397 77.8783 64.721 77.8783 58.1852C77.8687 57.3418 77.7825 56.4985 77.61 55.6743ZM55.1945 56.7956C55.8845 51.3714 60.5325 47.2793 66.0141 47.2793C71.122 47.2793 75.607 50.8922 76.6804 55.8756C76.8433 56.6327 76.9295 57.4089 76.9295 58.1852C76.9295 58.8464 76.8625 59.4981 76.7475 60.1306L74.5625 57.4376L71.4479 61.271L70.2595 59.8143C71.4862 58.6547 72.1858 57.0543 72.1858 55.3485C72.1858 51.9464 69.4162 49.1864 66.0237 49.1864C62.6216 49.1864 59.8616 51.956 59.8616 55.3485C59.8616 57.0543 60.5612 58.6547 61.7879 59.8143L60.5995 61.271L57.485 57.4376L55.3 60.1306C55.185 59.4981 55.1179 58.856 55.1179 58.1852C55.1083 57.7156 55.137 57.246 55.1945 56.7956ZM62.382 59.0668C61.3758 58.0893 60.8008 56.7572 60.8008 55.3389C60.8008 52.4639 63.1391 50.1256 66.0141 50.1256C68.8891 50.1256 71.2275 52.4639 71.2275 55.3389C71.2275 56.7572 70.6525 58.0893 69.6462 59.0668L66.0045 54.5818L62.382 59.0668ZM57.485 58.9327L59.967 61.9802L60.1108 61.8652L57.5425 65.0276C56.6608 63.9351 55.9804 62.6702 55.5683 61.2901L57.485 58.9327ZM66.0141 69.091C62.9379 69.091 60.1587 67.8068 58.175 65.7464L66.0141 56.0864L73.8533 65.7464C71.8695 67.8068 69.0904 69.091 66.0141 69.091ZM74.4954 65.0276L72.0516 62.0185L74.5529 58.9327L76.4695 61.2901C76.0575 62.6702 75.377 63.9351 74.4954 65.0276Z" fill="black"/>
<path d="M38.0404 58.1852C38.0404 57.3418 37.9542 56.4985 37.7721 55.6743C36.6029 50.2597 31.7346 46.3306 26.1858 46.3306C20.2346 46.3306 15.1746 50.7772 14.4271 56.6806C14.36 57.1789 14.3312 57.6772 14.3312 58.1852C14.3312 64.721 19.65 70.0397 26.1858 70.0397C32.7217 70.0397 38.0404 64.721 38.0404 58.1852ZM34.6575 65.0276L32.2137 62.0185L34.715 58.9327L36.6317 61.2901C36.2196 62.6702 35.5487 63.9351 34.6575 65.0276ZM15.3662 56.7956C16.0562 51.3714 20.7042 47.2793 26.1858 47.2793C31.2937 47.2793 35.7787 50.8922 36.8521 55.8756C37.015 56.6327 37.1012 57.4089 37.1012 58.1852C37.1012 58.8464 37.0342 59.4981 36.9192 60.1306L34.7342 57.4376L31.6196 61.271L30.4312 59.8143C31.6579 58.6547 32.3575 57.0543 32.3575 55.3485C32.3575 51.9464 29.5879 49.1864 26.1954 49.1864C22.8029 49.1864 20.0333 51.956 20.0333 55.3485C20.0333 57.0543 20.7329 58.6547 21.9596 59.8143L20.7712 61.271L17.6567 57.4376L15.4717 60.1306C15.3567 59.4981 15.2896 58.856 15.2896 58.1852C15.28 57.7156 15.3087 57.246 15.3662 56.7956ZM22.5442 59.0668C21.5379 58.0893 20.9629 56.7572 20.9629 55.3389C20.9629 52.4639 23.3012 50.1256 26.1762 50.1256C29.0512 50.1256 31.3896 52.4639 31.3896 55.3389C31.3896 56.7572 30.8146 58.0893 29.8083 59.0668L26.1667 54.5818L22.5442 59.0668ZM17.6471 58.9327L20.1292 61.9802L20.2729 61.8652L17.7046 65.0276C16.8229 63.9351 16.1425 62.6702 15.7304 61.2901L17.6471 58.9327ZM26.1858 56.0864L34.025 65.7464C32.0412 67.8068 29.2621 69.091 26.1858 69.091C23.1096 69.091 20.3304 67.8068 18.3467 65.7464L26.1858 56.0864Z" fill="black"/>
</g>
</g>
</g>
<g opacity="0.5" clip-path="url(#clip3_8_4647)">
<g clip-path="url(#clip4_8_4647)">
<path fill-rule="evenodd" clip-rule="evenodd" d="M36.5653 40.55H36.0998C34.4887 40.55 33.1833 41.8561 33.1833 43.4667V58.4667C33.1833 60.0776 34.4891 61.3834 36.1 61.3834H56.1C57.7108 61.3834 59.0166 60.0776 59.0166 58.4667V43.4667C59.0166 41.8561 57.7111 40.55 56.1001 40.55H55.6346C55.4556 38.2708 54.7761 36.0051 53.4675 34.1932C51.8846 32.0015 49.4286 30.55 46.1 30.55C42.7713 30.55 40.3153 32.0015 38.7324 34.1932C37.4238 36.0051 36.7443 38.2708 36.5653 40.55ZM39.0743 40.55H53.1256C52.9525 38.6976 52.3901 36.9714 51.4408 35.6569C50.3153 34.0986 48.6046 33.05 46.1 33.05C43.5953 33.05 41.8846 34.0986 40.7591 35.6569C39.8098 36.9714 39.2474 38.6976 39.0743 40.55ZM36.0998 43.05C35.8698 43.05 35.6833 43.2364 35.6833 43.4667V58.4667C35.6833 58.6969 35.8698 58.8834 36.1 58.8834H56.1C56.3301 58.8834 56.5166 58.6969 56.5166 58.4667V43.4667C56.5166 43.2364 56.3301 43.05 56.1001 43.05H36.0998ZM44.85 54.3001V47.6334H47.35V54.3001H44.85Z" fill="black"/>
</g>
</g>
<defs>
<clipPath id="clip0_8_4647">
<rect width="92" height="92" fill="white" transform="translate(0.0999756 0.800049)"/>
</clipPath>
<clipPath id="clip1_8_4647">
<rect width="92" height="92" fill="white" transform="translate(0.0999756 0.800049)"/>
</clipPath>
<clipPath id="clip2_8_4647">
<rect width="92" height="92" fill="white" transform="translate(0.0999756 0.800049)"/>
</clipPath>
<clipPath id="clip3_8_4647">
<rect width="40" height="40" fill="white" transform="translate(26.1 26.8)"/>
</clipPath>
<clipPath id="clip4_8_4647">
<rect width="40" height="40" fill="white" transform="translate(26.1 26.8)"/>
</clipPath>
</defs>
</svg>
