<svg width="18" height="18" viewBox="0 0 18 18" fill="none" xmlns="http://www.w3.org/2000/svg">
<rect y="6.10352e-05" width="18" height="18" rx="9" fill="#C9F2E3"/>
<path fill-rule="evenodd" clip-rule="evenodd" d="M8.71002 8.98407V6.28357H9.46002V9.29457L7.94602 10.8086L7.41602 10.2786L8.71002 8.98407ZM13.3885 10.4466L10.68 13.1546L9.23502 11.7096L9.76502 11.1796L10.68 12.0941L12.858 9.91607L13.3885 10.4466Z" fill="#004F32"/>
<path d="M13.2048 9.00005C13.2048 7.91708 12.7784 6.87767 12.0178 6.10672C11.2572 5.33577 10.2237 4.89527 9.14085 4.88055V4.13055C11.8043 4.16055 13.9543 6.32905 13.9543 9.00005C13.9543 9.04505 13.9538 9.08972 13.9528 9.13405H13.2023C13.2037 9.08905 13.2048 9.04439 13.2048 9.00005ZM9.06785 13.1196C8.23506 13.116 7.42289 12.8601 6.73844 12.3857C6.05398 11.9113 5.52936 11.2406 5.23374 10.4621C4.93812 9.68349 4.88539 8.83362 5.08249 8.02449C5.2796 7.21535 5.71728 6.48494 6.33785 5.92955L5.84885 5.36105C5.33455 5.8175 4.92296 6.37788 4.64129 7.00518C4.35961 7.63248 4.21427 8.31242 4.21485 9.00005C4.21485 11.6836 6.38635 13.8601 9.06785 13.8696V13.1196Z" fill="#004F32"/>
<path fill-rule="evenodd" clip-rule="evenodd" d="M5.70992 5.86655H4.04492V5.11655H6.45992V7.53155H5.70992V5.86655Z" fill="#004F32"/>
</svg>
