<svg width="51" height="51" viewBox="0 0 51 51" fill="none" xmlns="http://www.w3.org/2000/svg">
<path d="M40.4727 10.1868H8.16884C7.09792 10.1868 6.07082 9.76138 5.31356 9.0041C4.55631 8.24684 4.13086 7.21976 4.13086 6.14882C4.13086 5.07788 4.55631 4.0508 5.31356 3.29354C6.07082 2.53626 7.09792 2.11084 8.16884 2.11084H40.4727V10.1868Z" fill="white"/>
<path d="M42.4917 12.2059V46.5288C42.4917 47.0641 42.2789 47.5779 41.9004 47.9563C41.5218 48.335 41.0082 48.5478 40.4727 48.5478H8.16884C7.09792 48.5478 6.07082 48.1225 5.31356 47.3651C4.55631 46.6078 4.13086 45.5807 4.13086 44.5097V6.14893C4.13086 7.21984 4.55631 8.24692 5.31356 9.0042C6.07082 9.76148 7.09792 10.1869 8.16884 10.1869H40.4727C41.0082 10.1869 41.5218 10.3996 41.9004 10.7782C42.2789 11.1569 42.4917 11.6704 42.4917 12.2059Z" fill="#66E1FF"/>
<path d="M11.0281 44.5097V10.1869H8.15908C7.08811 10.1869 6.06106 9.76148 5.30378 9.0042C4.54652 8.24692 4.12109 7.21984 4.12109 6.14893V44.5097C4.12109 45.5807 4.54652 46.6078 5.30378 47.3651C6.06106 48.1225 7.08811 48.5478 8.15908 48.5478H15.0661C13.9951 48.5478 12.968 48.1225 12.2107 47.3651C11.4535 46.6078 11.0281 45.5807 11.0281 44.5097Z" fill="#C2F3FF"/>
<path d="M25.5016 48.5478H8.17665C7.10571 48.5478 6.07864 48.1225 5.32138 47.3651C4.56412 46.6078 4.13867 45.5807 4.13867 44.5097V6.14893" stroke="#191919" stroke-width="2.11077" stroke-linecap="round" stroke-linejoin="round"/>
<path d="M42.4994 2.11084H8.17665C7.10571 2.11084 6.07864 2.53626 5.32138 3.29354C4.56412 4.0508 4.13867 5.07788 4.13867 6.14882C4.13867 7.21976 4.56412 8.24684 5.32138 9.0041C6.07864 9.76138 7.10571 10.1868 8.17665 10.1868H40.4805C41.016 10.1868 41.5295 10.3995 41.9082 10.7782C42.2867 11.1568 42.4994 11.6703 42.4994 12.2058V25.3818" stroke="#191919" stroke-width="2.11077" stroke-linecap="round" stroke-linejoin="round"/>
<path d="M8.17578 6.14893H40.4797" stroke="#191919" stroke-width="2.11077" stroke-linecap="round" stroke-linejoin="round"/>
<path d="M33.4739 44.629C35.2826 44.629 37.0504 44.0926 38.5541 43.0879C40.058 42.0832 41.2299 40.6548 41.9221 38.9842C42.614 37.3133 42.7951 35.4748 42.4424 33.7009C42.0894 31.9272 41.2187 30.2979 39.9398 29.019C38.6609 27.7403 37.0316 26.8694 35.2579 26.5165C33.4841 26.1638 31.6456 26.3449 29.9747 27.037C28.304 27.7289 26.8757 28.901 25.8712 30.4047C24.8662 31.9085 24.3301 33.6764 24.3301 35.4849C24.3301 37.9102 25.2934 40.2358 27.0082 41.9506C28.7232 43.6654 31.0489 44.629 33.4739 44.629Z" fill="white" stroke="#191919" stroke-width="2.11077" stroke-linecap="round" stroke-linejoin="round"/>
<path d="M46.5359 48.5479L39.9824 41.9922" stroke="#191919" stroke-width="2.11077" stroke-linecap="round" stroke-linejoin="round"/>
<path d="M33.4739 44.629C35.2826 44.629 37.0504 44.0926 38.5541 43.0879C40.058 42.0832 41.2299 40.6548 41.9221 38.9842C42.614 37.3133 42.7951 35.4748 42.4424 33.7009C42.0894 31.9272 41.2187 30.2979 39.9398 29.019C38.6609 27.7403 37.0316 26.8694 35.2579 26.5165C33.4841 26.1638 31.6456 26.3449 29.9747 27.037C28.304 27.7289 26.8757 28.901 25.8712 30.4047C24.8662 31.9085 24.3301 33.6764 24.3301 35.4849C24.3301 37.9102 25.2934 40.2358 27.0082 41.9506C28.7232 43.6654 31.0489 44.629 33.4739 44.629Z" fill="#E3E3E3"/>
<path d="M33.4731 26.3388C31.6615 26.3386 29.8905 26.8768 28.3854 27.8847C26.88 28.8928 25.7081 30.3254 25.0185 32.0007C24.3287 33.6758 24.1524 35.5185 24.5117 37.2941C24.8709 39.0699 25.7499 40.6986 27.0366 41.9739L39.9581 29.0524C39.1108 28.1931 38.101 27.5109 36.9878 27.0451C35.8746 26.5792 34.6799 26.3392 33.4731 26.3388Z" fill="white"/>
<path d="M33.4739 44.629C35.2826 44.629 37.0504 44.0926 38.5541 43.0879C40.058 42.0832 41.2299 40.6548 41.9221 38.9842C42.614 37.3133 42.7951 35.4748 42.4424 33.7009C42.0894 31.9272 41.2187 30.2979 39.9398 29.019C38.6609 27.7403 37.0316 26.8694 35.2579 26.5165C33.4841 26.1638 31.6456 26.3449 29.9747 27.037C28.304 27.7289 26.8757 28.901 25.8712 30.4047C24.8662 31.9085 24.3301 33.6764 24.3301 35.4849C24.3301 37.9102 25.2934 40.2358 27.0082 41.9506C28.7232 43.6654 31.0489 44.629 33.4739 44.629Z" stroke="#191919" stroke-width="2.11077" stroke-linecap="round" stroke-linejoin="round"/>
<path d="M46.5359 48.5478L39.9824 41.9882" stroke="#191919" stroke-width="2.11077" stroke-linecap="round" stroke-linejoin="round"/>
</svg>
