<svg width="36" height="36" viewBox="0 0 36 36" fill="none" xmlns="http://www.w3.org/2000/svg">
<rect x="0.400391" width="35.6" height="35.6" rx="17.8" fill="white"/>
<path fill-rule="evenodd" clip-rule="evenodd" d="M9.9979 10.966C11.065 9.97807 12.4657 9.42948 13.9199 9.42999C15.3749 9.42999 16.7769 9.97799 17.8419 10.966L17.8469 10.971L18.1879 11.293L18.5199 10.976C19.5879 9.9852 20.9911 9.43505 22.4479 9.43599C23.9059 9.43599 25.3099 9.98599 26.3759 10.976L26.3799 10.98C27.4729 12.012 27.9779 13.304 27.9489 14.642C27.9189 15.965 27.3699 17.285 26.4489 18.427C25.5649 19.523 23.5989 21.37 21.9019 22.905C20.8615 23.8452 19.8104 24.7736 18.7489 25.69L18.6799 25.749L18.1949 26.165L17.7069 25.753C14.9986 23.4601 12.4117 21.0275 9.9569 18.465L9.9359 18.444L9.9159 18.421C8.1909 16.306 7.7129 13.101 9.9959 10.968L9.9979 10.966ZM18.1879 24.192L18.6599 23.78C19.4106 23.1234 20.156 22.4607 20.8959 21.792C22.6159 20.236 24.4859 18.472 25.2809 17.486C26.0379 16.547 26.4279 15.538 26.4489 14.609C26.4689 13.697 26.1359 12.814 25.3519 12.073C24.562 11.341 23.5248 10.9346 22.4479 10.935C21.3679 10.935 20.3309 11.342 19.5449 12.071L18.1949 13.363L16.8199 12.063C16.0303 11.3338 14.9947 10.9292 13.9199 10.93C12.8445 10.9295 11.8085 11.3348 11.0189 12.065C9.5119 13.473 9.6659 15.724 11.0609 17.45C13.326 19.8114 15.7044 22.0614 18.1879 24.192Z" fill="black"/>
</svg>
