<svg width="15" height="10" viewBox="0 0 15 10" fill="none" xmlns="http://www.w3.org/2000/svg">
<g clip-path="url(#clip0_6_1399)">
<g clip-path="url(#clip1_6_1399)">
<g clip-path="url(#clip2_6_1399)">
<path fill-rule="evenodd" clip-rule="evenodd" d="M1.68008 0.400024C0.934494 0.400024 0.330078 1.00444 0.330078 1.75002V8.05002C0.330078 8.79561 0.934494 9.40002 1.68008 9.40002H13.3801C14.1256 9.40002 14.7301 8.79561 14.7301 8.05002V1.75002C14.7301 1.00444 14.1256 0.400024 13.3801 0.400024H1.68008ZM4.83008 6.70002C4.33303 6.70002 3.93008 7.10297 3.93008 7.60002C3.93008 8.09708 4.33303 8.50002 4.83008 8.50002H10.2301C10.7271 8.50002 11.1301 8.09708 11.1301 7.60002C11.1301 7.10297 10.7271 6.70002 10.2301 6.70002H4.83008ZM1.23008 4.22502C1.23008 4.10076 1.33082 4.00002 1.45508 4.00002H2.80508C2.92934 4.00002 3.03008 4.10076 3.03008 4.22502V5.57502C3.03008 5.69929 2.92934 5.80002 2.80508 5.80002H1.68008C1.43155 5.80002 1.23008 5.59855 1.23008 5.35002V4.22502ZM1.68008 1.30002C1.43155 1.30002 1.23008 1.5015 1.23008 1.75002V2.87502C1.23008 2.99929 1.33082 3.10002 1.45508 3.10002H2.80508C2.92934 3.10002 3.03008 2.99929 3.03008 2.87502V1.52502C3.03008 1.40076 2.92934 1.30002 2.80508 1.30002H1.68008ZM3.93008 4.22502C3.93008 4.10076 4.03082 4.00002 4.15508 4.00002H5.50508C5.62934 4.00002 5.73008 4.10076 5.73008 4.22502V5.57502C5.73008 5.69929 5.62934 5.80002 5.50508 5.80002H4.15508C4.03082 5.80002 3.93008 5.69929 3.93008 5.57502V4.22502ZM4.15508 1.30002C4.03082 1.30002 3.93008 1.40076 3.93008 1.52502V2.87502C3.93008 2.99929 4.03082 3.10002 4.15508 3.10002H5.50508C5.62934 3.10002 5.73008 2.99929 5.73008 2.87502V1.52502C5.73008 1.40076 5.62934 1.30002 5.50508 1.30002H4.15508ZM6.63008 4.22502C6.63008 4.10076 6.73081 4.00002 6.85508 4.00002H8.20508C8.32934 4.00002 8.43008 4.10076 8.43008 4.22502V5.57502C8.43008 5.69929 8.32934 5.80002 8.20508 5.80002H6.85508C6.73081 5.80002 6.63008 5.69929 6.63008 5.57502V4.22502ZM6.85508 1.30002C6.73081 1.30002 6.63008 1.40076 6.63008 1.52502V2.87502C6.63008 2.99929 6.73081 3.10002 6.85508 3.10002H8.20508C8.32934 3.10002 8.43008 2.99929 8.43008 2.87502V1.52502C8.43008 1.40076 8.32934 1.30002 8.20508 1.30002H6.85508ZM9.33008 4.22502C9.33008 4.10076 9.43079 4.00002 9.55508 4.00002H10.9051C11.0294 4.00002 11.1301 4.10076 11.1301 4.22502V5.57502C11.1301 5.69929 11.0294 5.80002 10.9051 5.80002H9.55508C9.43079 5.80002 9.33008 5.69929 9.33008 5.57502V4.22502ZM9.55508 1.30002C9.43079 1.30002 9.33008 1.40076 9.33008 1.52502V2.87502C9.33008 2.99929 9.43079 3.10002 9.55508 3.10002H10.9051C11.0294 3.10002 11.1301 2.99929 11.1301 2.87502V1.52502C11.1301 1.40076 11.0294 1.30002 10.9051 1.30002H9.55508ZM12.0301 4.22502C12.0301 4.10076 12.1308 4.00002 12.2551 4.00002H13.6051C13.7294 4.00002 13.8301 4.10076 13.8301 4.22502V5.35002C13.8301 5.59855 13.6286 5.80002 13.3801 5.80002H12.2551C12.1308 5.80002 12.0301 5.69929 12.0301 5.57502V4.22502ZM12.2551 1.30002C12.1308 1.30002 12.0301 1.40076 12.0301 1.52502V2.87502C12.0301 2.99929 12.1308 3.10002 12.2551 3.10002H13.6051C13.7294 3.10002 13.8301 2.99929 13.8301 2.87502V1.75002C13.8301 1.5015 13.6286 1.30002 13.3801 1.30002H12.2551Z" fill="#3C4043"/>
</g>
</g>
</g>
<defs>
<clipPath id="clip0_6_1399">
<rect width="14.4" height="9" fill="white" transform="translate(0.330078 0.400024)"/>
</clipPath>
<clipPath id="clip1_6_1399">
<rect width="14.4" height="9" fill="white" transform="translate(0.330078 0.400024)"/>
</clipPath>
<clipPath id="clip2_6_1399">
<rect width="14.4" height="9" fill="white" transform="translate(0.330078 0.400024)"/>
</clipPath>
</defs>
</svg>
