<svg width="17" height="22" viewBox="0 0 17 22" fill="none" xmlns="http://www.w3.org/2000/svg">
<path d="M8.11355 12.6666V17.3333H9.44689V12.6666H8.11355ZM8.09089 10.6986C7.99837 10.8348 7.94826 10.9953 7.94689 11.1599C7.9451 11.2702 7.96539 11.3796 8.00656 11.4819C8.04772 11.5842 8.10893 11.6772 8.18658 11.7555C8.26423 11.8338 8.35675 11.8957 8.4587 11.9377C8.56065 11.9797 8.66997 12.0008 8.78022 11.9999C8.92394 11.9999 9.06522 11.9628 9.19035 11.8921C9.31548 11.8214 9.42019 11.7195 9.49432 11.5964C9.56845 11.4733 9.60948 11.3331 9.61341 11.1894C9.61735 11.0458 9.58407 10.9035 9.51679 10.7765C9.44952 10.6495 9.35054 10.5421 9.22947 10.4646C9.10841 10.3872 8.96937 10.3423 8.82586 10.3345C8.68236 10.3267 8.53926 10.3561 8.41048 10.4199C8.28169 10.4837 8.1716 10.5797 8.09089 10.6986Z" fill="#757575"/>
<path fill-rule="evenodd" clip-rule="evenodd" d="M8.78044 7.33325C5.09844 7.33325 2.11377 10.3179 2.11377 13.9999C2.11377 17.6819 5.09844 20.6666 8.78044 20.6666C12.4624 20.6666 15.4471 17.6819 15.4471 13.9999C15.4471 10.3179 12.4624 7.33325 8.78044 7.33325ZM3.4471 13.9999C3.4471 12.5854 4.00901 11.2289 5.0092 10.2287C6.00939 9.22849 7.36595 8.66659 8.78044 8.66659C10.1949 8.66659 11.5515 9.22849 12.5517 10.2287C13.5519 11.2289 14.1138 12.5854 14.1138 13.9999C14.1138 15.4144 13.5519 16.771 12.5517 17.7712C11.5515 18.7713 10.1949 19.3333 8.78044 19.3333C7.36595 19.3333 6.00939 18.7713 5.0092 17.7712C4.00901 16.771 3.4471 15.4144 3.4471 13.9999Z" fill="#757575"/>
</svg>
