<svg width="41" height="40" viewBox="0 0 41 40" fill="none" xmlns="http://www.w3.org/2000/svg">
<rect x="0.600098" width="40" height="40" rx="20" fill="white"/>
<path fill-rule="evenodd" clip-rule="evenodd" d="M17.3501 12V11.954C17.3621 11.4979 17.5518 11.0645 17.8787 10.7462C18.2056 10.4279 18.6439 10.2498 19.1001 10.25H22.1001C23.0661 10.25 23.8501 11.034 23.8501 12V12.95L25.0391 13.42L26.0241 12.85C26.4261 12.6181 26.9037 12.5554 27.3518 12.6756C27.8 12.7958 28.1821 13.0891 28.4141 13.491L29.9141 16.089C30.1461 16.4908 30.2089 16.9683 30.0889 17.4165C29.9689 17.8647 29.6758 18.2468 29.2741 18.479L28.3501 19.013V20.567L29.2741 21.101C29.6758 21.3332 29.9689 21.7153 30.0889 22.1635C30.2089 22.6117 30.1461 23.0892 29.9141 23.491L28.4141 26.089C28.182 26.4907 27.7998 26.7838 27.3516 26.9038C26.9034 27.0238 26.426 26.9609 26.0241 26.729L25.1021 26.198L23.8501 26.93V28C23.8501 28.2298 23.8049 28.4574 23.7169 28.6697C23.629 28.882 23.5001 29.0749 23.3376 29.2374C23.1751 29.3999 22.9821 29.5288 22.7698 29.6168C22.5575 29.7047 22.3299 29.75 22.1001 29.75H19.1001C18.636 29.75 18.1909 29.5656 17.8627 29.2374C17.5345 28.9092 17.3501 28.4641 17.3501 28V26.93L16.0981 26.198L15.1761 26.73C14.7743 26.9619 14.2968 27.0248 13.8486 26.9048C13.4004 26.7848 13.0183 26.4917 12.7861 26.09L11.2861 23.491C11.0542 23.0892 10.9913 22.6117 11.1113 22.1635C11.2313 21.7153 11.5244 21.3332 11.9261 21.101L12.8501 20.567V19.013L11.9261 18.48C11.5244 18.2478 11.2313 17.8657 11.1113 17.4175C10.9913 16.9693 11.0542 16.4918 11.2861 16.09L12.7861 13.491C13.0183 13.0893 13.4004 12.7962 13.8486 12.6762C14.2968 12.5562 14.7743 12.6191 15.1761 12.851L16.1611 13.419L17.3511 12.949L17.3501 12ZM18.8501 11.987V13.97L16.0391 15.08L14.4261 14.15C14.3977 14.1335 14.3663 14.1227 14.3337 14.1184C14.3011 14.114 14.268 14.1161 14.2362 14.1246C14.2045 14.133 14.1747 14.1477 14.1486 14.1676C14.1225 14.1876 14.1006 14.2125 14.0841 14.241L12.5841 16.839C12.5676 16.8675 12.557 16.8989 12.5527 16.9316C12.5484 16.9642 12.5506 16.9973 12.5591 17.0291C12.5677 17.0609 12.5824 17.0906 12.6025 17.1167C12.6226 17.1428 12.6476 17.1646 12.6761 17.181L14.3501 18.147V21.433L12.6761 22.399C12.6476 22.4154 12.6226 22.4372 12.6025 22.4633C12.5824 22.4894 12.5677 22.5191 12.5591 22.5509C12.5506 22.5827 12.5484 22.6158 12.5527 22.6484C12.557 22.6811 12.5676 22.7125 12.5841 22.741L14.0841 25.339C14.1005 25.3675 14.1223 25.3926 14.1484 25.4126C14.1745 25.4327 14.2042 25.4475 14.236 25.456C14.2678 25.4645 14.3009 25.4667 14.3336 25.4625C14.3662 25.4582 14.3976 25.4475 14.4261 25.431L16.1021 24.463L18.8501 26.07V28C18.8501 28.138 18.9621 28.25 19.1001 28.25H22.1001C22.1664 28.25 22.23 28.2237 22.2769 28.1768C22.3238 28.1299 22.3501 28.0663 22.3501 28V26.07L25.0981 24.463L26.7741 25.431C26.8026 25.4475 26.8341 25.4582 26.8667 25.4625C26.8993 25.4667 26.9324 25.4645 26.9642 25.456C26.996 25.4475 27.0258 25.4327 27.0518 25.4126C27.0779 25.3926 27.0997 25.3675 27.1161 25.339L28.6161 22.741C28.6491 22.6836 28.6579 22.6154 28.6406 22.5515C28.6234 22.4875 28.5815 22.4331 28.5241 22.4L26.8501 21.433V18.147L28.5241 17.181C28.5527 17.1646 28.5777 17.1428 28.5978 17.1167C28.6178 17.0906 28.6326 17.0609 28.6411 17.0291C28.6497 16.9973 28.6519 16.9642 28.6476 16.9316C28.6433 16.8989 28.6326 16.8675 28.6161 16.839L27.1161 14.241C27.0997 14.2125 27.0779 14.1874 27.0518 14.1674C27.0258 14.1473 26.996 14.1325 26.9642 14.124C26.9324 14.1155 26.8993 14.1133 26.8667 14.1175C26.8341 14.1218 26.8026 14.1325 26.7741 14.149L25.1611 15.081L22.3501 13.97V12C22.3501 11.9337 22.3238 11.8701 22.2769 11.8232C22.23 11.7763 22.1664 11.75 22.1001 11.75H19.1001C19.036 11.7499 18.9743 11.7745 18.9278 11.8186C18.8813 11.8627 18.8535 11.923 18.8501 11.987ZM20.6001 17.75C20.0034 17.75 19.4311 17.9871 19.0091 18.409C18.5872 18.831 18.3501 19.4033 18.3501 20C18.3501 20.5967 18.5872 21.169 19.0091 21.591C19.4311 22.0129 20.0034 22.25 20.6001 22.25C21.1969 22.25 21.7692 22.0129 22.1911 21.591C22.6131 21.169 22.8501 20.5967 22.8501 20C22.8501 19.4033 22.6131 18.831 22.1911 18.409C21.7692 17.9871 21.1969 17.75 20.6001 17.75ZM16.8501 20C16.8501 19.0054 17.2452 18.0516 17.9485 17.3483C18.6517 16.6451 19.6056 16.25 20.6001 16.25C21.5947 16.25 22.5485 16.6451 23.2518 17.3483C23.955 18.0516 24.3501 19.0054 24.3501 20C24.3501 20.9946 23.955 21.9484 23.2518 22.6517C22.5485 23.3549 21.5947 23.75 20.6001 23.75C19.6056 23.75 18.6517 23.3549 17.9485 22.6517C17.2452 21.9484 16.8501 20.9946 16.8501 20Z" fill="black"/>
</svg>
