<svg width="36" height="36" viewBox="0 0 36 36" fill="none" xmlns="http://www.w3.org/2000/svg">
<rect x="0.400391" width="35.6" height="35.6" rx="17.8" fill="white"/>
<path d="M25.8653 11.646C24.9363 10.784 23.7156 10.3053 22.4483 10.306C21.1783 10.306 19.9573 10.784 19.0313 11.646L18.1913 12.448L17.3323 11.636C16.4039 10.7766 15.1853 10.2995 13.9203 10.3C12.6552 10.2995 11.4367 10.7766 10.5083 11.636C8.60928 13.409 8.92928 16.144 10.4983 18.066C12.9344 20.6098 15.5019 23.0244 18.1903 25.3C18.1903 25.3 24.1853 20.157 25.8643 18.076C27.5433 15.996 27.7423 13.419 25.8643 11.646" fill="#FF5D5D"/>
<path fill-rule="evenodd" clip-rule="evenodd" d="M9.82779 10.902C10.9412 9.87144 12.4027 9.29929 13.9198 9.29999C15.4378 9.29999 16.8998 9.87199 18.0118 10.902L18.0188 10.909L18.1878 11.069L18.3498 10.913C19.4638 9.87885 20.9278 9.3044 22.4478 9.30499C23.9678 9.3044 25.4318 9.87885 26.5458 10.913L26.5518 10.918C27.6958 11.998 28.2298 13.358 28.1988 14.768C28.1678 16.156 27.5928 17.528 26.6428 18.704C25.7448 19.818 23.7628 21.679 22.0698 23.21C21.0278 24.1519 19.975 25.082 18.9118 26L18.8418 26.059L18.1958 26.614L17.5458 26.064C14.8302 23.7658 12.2366 21.3272 9.77579 18.758L9.74779 18.73L9.72279 18.699C7.94479 16.519 7.41479 13.157 9.82479 10.905L9.82779 10.902ZM18.1868 23.982L18.4958 23.712C19.0808 23.199 19.8788 22.495 20.7278 21.727C22.4518 20.167 24.3058 18.416 25.0868 17.449C25.8168 16.544 26.1798 15.587 26.1988 14.724C26.2178 13.882 25.9128 13.068 25.1808 12.375C24.4372 11.6866 23.4611 11.3045 22.4478 11.305C21.4351 11.3042 20.4594 11.6856 19.7158 12.373L18.1958 13.828L16.6488 12.366C15.9054 11.6798 14.9305 11.2991 13.9188 11.3C12.9068 11.2997 11.9319 11.6811 11.1888 12.368C9.81179 13.655 9.91279 15.745 11.2488 17.405C13.4553 19.7063 15.7706 21.9018 18.1868 23.982Z" fill="#FF5D5D"/>
</svg>
