<svg width="33" height="32" viewBox="0 0 33 32" fill="none" xmlns="http://www.w3.org/2000/svg">
<path d="M10.8366 17.6668C11.2786 17.6668 11.7025 17.4912 12.0151 17.1787C12.3277 16.8661 12.5033 16.4422 12.5033 16.0002C12.5033 15.5581 12.3277 15.1342 12.0151 14.8217C11.7025 14.5091 11.2786 14.3335 10.8366 14.3335C10.3946 14.3335 9.97064 14.5091 9.65808 14.8217C9.34552 15.1342 9.16992 15.5581 9.16992 16.0002C9.16992 16.4422 9.34552 16.8661 9.65808 17.1787C9.97064 17.4912 10.3946 17.6668 10.8366 17.6668ZM22.5033 17.6668C22.9453 17.6668 23.3692 17.4912 23.6818 17.1787C23.9943 16.8661 24.1699 16.4422 24.1699 16.0002C24.1699 15.5581 23.9943 15.1342 23.6818 14.8217C23.3692 14.5091 22.9453 14.3335 22.5033 14.3335C22.0612 14.3335 21.6373 14.5091 21.3247 14.8217C21.0122 15.1342 20.8366 15.5581 20.8366 16.0002C20.8366 16.4422 21.0122 16.8661 21.3247 17.1787C21.6373 17.4912 22.0612 17.6668 22.5033 17.6668ZM16.6699 17.6668C17.1119 17.6668 17.5359 17.4912 17.8484 17.1787C18.161 16.8661 18.3366 16.4422 18.3366 16.0002C18.3366 15.5581 18.161 15.1342 17.8484 14.8217C17.5359 14.5091 17.1119 14.3335 16.6699 14.3335C16.2279 14.3335 15.804 14.5091 15.4914 14.8217C15.1789 15.1342 15.0033 15.5581 15.0033 16.0002C15.0033 16.4422 15.1789 16.8661 15.4914 17.1787C15.804 17.4912 16.2279 17.6668 16.6699 17.6668Z" fill="black"/>
</svg>
