<svg width="49" height="37" viewBox="0 0 49 37" fill="none" xmlns="http://www.w3.org/2000/svg">
<path d="M1.79993 1.29999H1.29993V1.79999V35.8V36.3H1.79993H44.7999C46.7329 36.3 48.2999 34.733 48.2999 32.8V4.79999C48.2999 2.86699 46.7329 1.29999 44.7999 1.29999H1.79993Z" fill="white"/>
<path d="M1.79993 1.29999H1.29993V1.79999V35.8V36.3H1.79993H44.7999C46.7329 36.3 48.2999 34.733 48.2999 32.8V4.79999C48.2999 2.86699 46.7329 1.29999 44.7999 1.29999H1.79993Z" stroke="#E0E0E0"/>
<path d="M25.6202 18.3797C25.6202 18.3797 25.5633 18.3227 25.4493 18.2088C25.3354 18.0949 25.1189 18.0379 24.7999 18.0379C24.4809 18.0379 24.2075 18.1518 23.9796 18.3797C23.7517 18.6076 23.6378 18.881 23.6378 19.2C23.6378 19.519 23.7517 19.7925 23.9796 20.0203C24.2075 20.2482 24.4809 20.3621 24.7999 20.3621C25.1189 20.3621 25.3924 20.2482 25.6202 20.0203C25.8481 19.7925 25.962 19.519 25.962 19.2C25.962 18.881 25.8481 18.6076 25.6202 18.3797ZM23.1525 20.8543C23.1525 20.8543 23.0374 20.7404 22.8073 20.5125C22.5771 20.2846 22.462 19.8471 22.462 19.2C22.462 18.5529 22.6922 18.0014 23.1525 17.5457C23.6128 17.09 24.1619 16.8621 24.7999 16.8621C25.4379 16.8621 25.9871 17.09 26.4474 17.5457C26.9077 18.0014 27.1378 18.5529 27.1378 19.2C27.1378 19.8471 26.9077 20.3986 26.4474 20.8543C25.9871 21.31 25.4379 21.5379 24.7999 21.5379C24.1619 21.5379 23.6128 21.31 23.1525 20.8543ZM22.7628 14.4969C22.7719 14.187 22.8881 13.9204 23.1115 13.6971C23.3348 13.4738 23.6059 13.3621 23.9249 13.3621H25.6749C25.9939 13.3621 26.2674 13.4783 26.4952 13.7108C26.7231 13.9432 26.837 14.2189 26.837 14.5379V14.9891L27.3839 15.1942L27.8898 14.907C28.0812 14.7977 28.2771 14.743 28.4777 14.743C28.9243 14.743 29.2615 14.9389 29.4894 15.3309L30.3644 16.8484C30.4646 17.0307 30.5148 17.2221 30.5148 17.4227C30.5148 17.8875 30.3188 18.2248 29.9269 18.4344L29.462 18.7078V19.4461L29.9269 19.7195C30.3188 19.9474 30.5148 20.2846 30.5148 20.7313C30.5148 20.9318 30.4646 21.1232 30.3644 21.3055L29.4894 22.8231C29.2615 23.215 28.9243 23.4109 28.4777 23.4109C28.2771 23.4109 28.0812 23.3563 27.8898 23.2469L27.4249 22.9871L26.837 23.3289V23.8621C26.837 24.1811 26.7231 24.4568 26.4952 24.6893C26.2674 24.9217 25.9939 25.0379 25.6749 25.0379H23.9249C23.6059 25.0379 23.3325 24.9217 23.1046 24.6893C22.8767 24.4568 22.7628 24.1811 22.7628 23.8621V23.3289L22.1749 22.9871L21.7101 23.2469C21.5187 23.3563 21.3227 23.4109 21.1222 23.4109C20.6756 23.4109 20.3383 23.215 20.1105 22.8231L19.2355 21.3055C19.1352 21.1232 19.0851 20.9318 19.0851 20.7313C19.0851 20.2846 19.281 19.9474 19.673 19.7195L20.1378 19.4461V18.7078L19.673 18.4344C19.281 18.2248 19.0851 17.8875 19.0851 17.4227C19.0851 17.2221 19.1352 17.0307 19.2355 16.8484L20.1105 15.3309C20.3383 14.9389 20.6756 14.743 21.1222 14.743C21.3227 14.743 21.5187 14.7977 21.7101 14.907L22.2159 15.1942L22.7628 14.9891V14.5379V14.4969ZM23.9249 14.5379V15.782L22.1339 16.493L21.1222 15.9188L20.2472 17.4227L21.2999 18.0379V20.116L20.2472 20.7313L21.1222 22.2352L22.1749 21.6336L23.9249 22.659V23.8621H25.6749V22.659L27.4249 21.6336L28.4777 22.2352L29.3527 20.7313L28.2999 20.116V18.0379L29.3527 17.4227L28.4777 15.9188L27.4659 16.493L25.6749 15.782V14.5379H23.9249Z" fill="black"/>
</svg>
