<svg width="33" height="32" viewBox="0 0 33 32" fill="none" xmlns="http://www.w3.org/2000/svg">
<rect x="0.450195" width="32" height="32" rx="16" fill="white"/>
<path fill-rule="evenodd" clip-rule="evenodd" d="M16.4499 6.78333L19.8682 10.2008L18.9849 11.0842L17.0749 9.17583V16.4167H15.8249V9.17499L13.9157 11.0858L13.0315 10.2025L16.4499 6.78333ZM9.81904 12.9175C10.204 12.4417 10.7832 12.0417 11.4524 12.0417H13.1165V13.2917H11.4532C11.2899 13.2917 11.034 13.4033 10.7924 13.7033C10.559 13.9925 10.4082 14.3783 10.4082 14.75V21.38C10.4082 22.355 11.0082 22.875 11.4532 22.875H21.4465C21.8949 22.875 22.4915 22.3517 22.4915 21.38V14.75C22.4915 14.3767 22.3415 13.9917 22.1082 13.7025C21.8674 13.4033 21.6115 13.2917 21.4465 13.2917H19.7832V12.0417H21.4465C22.1182 12.0417 22.6974 12.4417 23.0824 12.9183C23.474 13.4058 23.7415 14.0617 23.7415 14.75V21.38C23.7415 22.745 22.8482 24.125 21.4465 24.125H11.4532C10.0582 24.125 9.1582 22.7542 9.1582 21.38V14.75C9.1582 14.0617 9.42654 13.405 9.81904 12.9183" fill="black"/>
</svg>
