<svg width="41" height="40" viewBox="0 0 41 40" fill="none" xmlns="http://www.w3.org/2000/svg">
<rect x="0.600098" width="40" height="40" rx="20" fill="white"/>
<path fill-rule="evenodd" clip-rule="evenodd" d="M12.9681 26.559C12.6081 26.809 12.2481 26.809 11.8881 26.432C11.6481 26.307 11.5271 26.057 11.6481 25.805C13.2081 20.91 17.1711 17.521 21.9751 16.768V13.002C22.0951 12.626 22.3351 12.5 22.6951 12.5C22.8151 12.5 22.9351 12.626 22.9351 12.626L29.4201 19.529C29.6601 19.78 29.6601 20.157 29.4201 20.408L23.5601 26.647L22.9351 27.312C22.6951 27.562 22.3351 27.562 22.2151 27.312C22.0951 27.186 22.0951 27.186 22.0951 27.061V23.169C21.595 23.1495 21.0941 23.1588 20.5951 23.197C17.7781 23.41 15.1121 24.531 12.9681 26.559ZM23.5951 24.419V21.724L22.1511 21.671C19.3461 21.566 16.6011 22.248 14.2091 23.721C15.9621 20.751 18.8601 18.774 22.2071 18.25L23.4751 18.05V15.39L27.7751 19.969L23.5951 24.419Z" fill="black"/>
</svg>
