<svg width="24" height="36" viewBox="0 0 24 36" fill="none" xmlns="http://www.w3.org/2000/svg">
<path fill-rule="evenodd" clip-rule="evenodd" d="M10.1199 10.14C8.53124 10.14 7.00766 10.7711 5.88431 11.8944C4.76097 13.0178 4.12988 14.5414 4.12988 16.13C4.12988 17.7187 4.76097 19.2422 5.88431 20.3656C7.00766 21.4889 8.53124 22.12 10.1199 22.12C11.7085 22.12 13.2321 21.4889 14.3555 20.3656C15.4788 19.2422 16.1099 17.7187 16.1099 16.13C16.1099 14.5414 15.4788 13.0178 14.3555 11.8944C13.2321 10.7711 11.7085 10.14 10.1199 10.14ZM2.62988 16.13C2.62986 14.9306 2.91785 13.7488 3.46965 12.6839C4.02145 11.619 4.82091 10.7022 5.80079 10.0106C6.78067 9.31894 7.91231 8.87275 9.10052 8.70952C10.2887 8.54629 11.4988 8.67079 12.6289 9.07256C13.7589 9.47432 14.776 10.1416 15.5945 11.0182C16.413 11.8949 17.0091 12.9553 17.3325 14.1102C17.6559 15.2652 17.6972 16.4809 17.4529 17.6552C17.2087 18.8294 16.686 19.9278 15.9289 20.858L21.3699 26.3L20.3099 27.361L14.8699 21.921C13.773 22.8207 12.4432 23.3903 11.0352 23.5637C9.62724 23.7371 8.19897 23.507 6.91663 22.9003C5.63429 22.2936 4.55061 21.3352 3.79172 20.1366C3.03282 18.9381 2.62991 17.5486 2.62988 16.13Z" fill="black"/>
</svg>
