<svg width="36" height="25" viewBox="0 0 36 25" fill="none" xmlns="http://www.w3.org/2000/svg">
<g clip-path="url(#clip0_187_3325)">
<rect x="0.230469" y="0.189941" width="35" height="24" rx="4" fill="#F2F2F2"/>
<g clip-path="url(#clip1_187_3325)">
<g clip-path="url(#clip2_187_3325)">
<path d="M3.38638 7.95243L3.76701 8.88285H2.49121L2.87888 7.95243L3.13263 7.33215L3.38638 7.95243Z" fill="#296DB6"/>
<path fill-rule="evenodd" clip-rule="evenodd" d="M30.1996 6.79629V5.62622H32.7301V11.3779H30.3476L29.6428 10.2642V11.3779H26.189L25.8435 10.5179H25.0541L24.7299 11.3779H22.707C22.0969 11.3932 21.4983 11.2101 21.0012 10.8563V11.3779H17.6108L16.7931 10.3488V11.3779H3.86596L3.54173 10.5179H2.75228L2.421 11.3779H0.813919V10.5178H1.88487L2.2232 9.6861H4.07699L4.41532 10.4896H5.5008L3.79504 6.51423H2.54039L0.813919 10.5178V8.27649L1.94169 5.59802H4.23954L4.90211 7.07823V5.59802H7.72155L8.14447 6.86677L8.56739 5.62622H21.0012V6.2042C21.5032 5.81218 22.1265 5.60776 22.7633 5.62622H26.5273L27.2322 7.10643V5.62622H29.4454L30.1996 6.79629ZM9.68769 10.4896H10.6181V6.51423H9.06036L8.27092 8.81207L8.14404 9.24909L8.01717 8.81207L7.24182 6.51423H5.68408V10.4896H6.60745V7.88166V7.27548L6.80481 7.88166L7.70703 10.4896H8.56696L9.50443 7.88166L9.68769 7.27548V7.88166V10.4896ZM14.5583 7.36006H12.3238V8.06492H14.5019V8.91075H12.3238V9.61561H14.5583V10.4614H11.3864V6.51423H14.5583V7.36006ZM16.6095 9.08007L17.7936 10.4898H19.0201L17.695 9.02369C18.326 8.9476 18.7959 8.40446 18.7804 7.76903C18.7856 7.40682 18.633 7.06026 18.3624 6.81943C18.0918 6.57861 17.7299 6.46728 17.3707 6.51438H15.1926V10.4898H16.1725V9.08007H16.6095ZM20.183 10.4896H19.2173V6.51423H20.183V10.4896ZM22.5936 10.4899H22.65L23.0376 9.64407H22.7346C22.442 9.65911 22.1579 9.54341 21.9591 9.32828C21.7603 9.11315 21.6674 8.82082 21.7055 8.53039V8.474C21.6719 8.18584 21.7669 7.89752 21.9651 7.68571C22.1634 7.4739 22.4447 7.36005 22.7346 7.37442H23.7848V6.51449H22.6641C22.1374 6.47702 21.621 6.67297 21.2517 7.05035C20.8825 7.42772 20.6979 7.94833 20.7469 8.474V8.53039C20.6879 9.04598 20.8592 9.56131 21.2152 9.93895C21.5711 10.3166 22.0754 10.5182 22.5936 10.4899ZM26.7239 10.4896L26.3855 9.6861H24.5035L24.1652 10.5178H23.1361L24.8419 6.51423H26.1106L27.8094 10.4896H26.7239ZM30.6644 10.4897H31.7922L31.8274 6.48615H30.8406V8.60073V9.08004L30.5727 8.62893L29.163 6.51434H27.9929V10.5179H28.9374V8.30469V7.83948L29.1912 8.27649L30.6644 10.4897ZM26.1178 8.88286L25.7372 7.95244L25.4834 7.33217L25.2297 7.95244L24.8631 8.88286H26.1178ZM16.1725 7.36017H17.2861C17.411 7.3462 17.5359 7.38576 17.6299 7.46905C17.7239 7.55234 17.7783 7.67157 17.7795 7.79718C17.783 7.92433 17.73 8.0465 17.6348 8.13083C17.5396 8.21516 17.4119 8.25301 17.2861 8.23419H16.1725V7.36017Z" fill="#296DB6"/>
<path fill-rule="evenodd" clip-rule="evenodd" d="M34.6464 14.028H32.5811C32.2273 13.9869 31.873 14.1017 31.6105 14.3425C31.348 14.5834 31.2032 14.9265 31.2137 15.2827C31.1923 15.6118 31.3188 15.9333 31.5588 16.1595C31.7987 16.3859 32.127 16.4933 32.4543 16.4527H33.3636C33.5063 16.424 33.6522 16.4842 33.7331 16.6052C33.8141 16.7262 33.8141 16.884 33.7331 17.0051C33.6522 17.126 33.5063 17.1863 33.3636 17.1576H31.3265V18.0034H33.3495C33.9093 18.0552 34.4346 17.7262 34.6323 17.1999V18.5391C34.2473 18.7771 33.8021 18.8994 33.3495 18.8916H22.3396L21.5219 17.8625V18.8916H19.1042V17.4395C18.7619 17.5454 18.4053 17.5977 18.0469 17.5946H17.6522V18.8916H14.0927L13.5006 18.0316L12.8944 18.8916H7.07227V13.1399H12.9085L13.5006 13.9857L14.1068 13.1399H34.6464V14.028ZM34.2655 14.8737H32.5316C32.3888 14.845 32.2429 14.9053 32.162 15.0262C32.081 15.1471 32.081 15.305 32.162 15.4261C32.2429 15.547 32.3888 15.6072 32.5316 15.5785H33.455C33.9426 15.5284 34.4078 15.795 34.611 16.2411V14.056L34.2655 14.8737ZM11.1816 14.8739H8.94718V15.5787H11.1393V16.4104H8.94718V17.1153H11.1816V17.9611H7.98857V14.028H11.1816V14.8739ZM13.5006 16.7347L14.4592 18.0034L15.6716 18.0316L14.0645 16.0298L15.6434 14.028H14.4733L13.5006 15.2827L12.5349 14.0421H11.3366L12.9367 16.0298L11.386 18.0034H12.5067L13.5006 16.7347ZM17.9836 16.6925H16.7854V18.0035H15.8408V14.0281H18.0329C18.4026 13.9887 18.771 14.1125 19.042 14.3671C19.3128 14.6218 19.4592 14.9819 19.4426 15.3533C19.4549 15.7297 19.3037 16.093 19.0281 16.3497C18.7525 16.6064 18.3794 16.7314 18.0047 16.6925H17.9836ZM21.3036 16.5939L22.4877 18.0036H23.7142L22.382 16.5375C22.8302 16.4846 23.2162 16.1967 23.3945 15.782C23.5728 15.3674 23.5164 14.8891 23.2465 14.5274C22.9766 14.1656 22.5342 13.9753 22.0859 14.0282H19.929V18.0036H20.8666V16.5939H21.3036ZM27.1259 14.8739H24.9127V15.5787H27.0906V16.4104H24.9127V17.1153H27.147V17.9611H23.9399V14.028H27.147L27.1259 14.8739ZM27.6543 18.0032H29.7125C30.0626 18.0315 30.4081 17.9092 30.6625 17.6669C30.9168 17.4247 31.0558 17.0856 31.0447 16.7345C31.0625 16.4087 30.9337 16.0919 30.6937 15.871C30.4536 15.65 30.1274 15.5479 29.8041 15.5926H28.8808C28.7381 15.6213 28.5921 15.561 28.5111 15.4401C28.4302 15.3191 28.4302 15.1612 28.5111 15.0402C28.5921 14.9193 28.7381 14.8591 28.8808 14.8878H30.5935L30.9742 14.0419H28.909C28.5576 14.0012 28.2057 14.1142 27.9437 14.3519C27.6817 14.5896 27.5351 14.9288 27.5415 15.2825C27.5201 15.6116 27.6466 15.9331 27.8865 16.1593C28.1264 16.3857 28.4547 16.4931 28.7821 16.4525H29.7125C29.8552 16.4239 30.0012 16.484 30.0821 16.605C30.163 16.726 30.163 16.8839 30.0821 17.0049C30.0012 17.1258 29.8552 17.1861 29.7125 17.1574H27.6543V18.0032ZM22.0011 14.8739H20.8875V15.7479H22.0011C22.1269 15.7667 22.2547 15.7288 22.3499 15.6445C22.4451 15.5601 22.498 15.438 22.4945 15.3109C22.4956 15.1845 22.4419 15.0638 22.3473 14.98C22.2527 14.8963 22.1265 14.8575 22.0011 14.8739ZM16.8064 14.8739H17.9482C18.2169 14.8739 18.4345 15.0917 18.4345 15.3604C18.4345 15.629 18.2169 15.8467 17.9482 15.8467H16.8064V14.8739Z" fill="#296DB6"/>
</g>
</g>
</g>
<defs>
<clipPath id="clip0_187_3325">
<rect x="0.230469" y="0.189941" width="35" height="24" rx="4" fill="white"/>
</clipPath>
<clipPath id="clip1_187_3325">
<rect width="35" height="24" fill="white" transform="translate(0.230469 0.189941)"/>
</clipPath>
<clipPath id="clip2_187_3325">
<rect width="35" height="23.3333" fill="white" transform="translate(0.230469 0.523254)"/>
</clipPath>
</defs>
</svg>
