<svg width="36" height="25" viewBox="0 0 36 25" fill="none" xmlns="http://www.w3.org/2000/svg">
<g clip-path="url(#clip0_187_3300)">
<rect x="0.230469" y="0.189941" width="35" height="24" rx="4" fill="#F2F2F2"/>
<g clip-path="url(#clip1_187_3300)">
<g clip-path="url(#clip2_187_3300)">
<path d="M34.4529 11.801V20.2344C34.4529 21.8053 33.1728 23.0787 31.5937 23.0787H3.00143C2.66964 23.0812 2.34018 23.0234 2.0293 22.9081C4.43105 22.5667 6.74701 22.1401 9.0201 21.6565C9.62053 21.5428 10.2067 21.4006 10.7928 21.2726C20.2425 19.1251 28.42 15.9679 33.0233 12.8676C33.538 12.5121 34.0241 12.1566 34.4529 11.801Z" fill="#EE7623"/>
<path fill-rule="evenodd" clip-rule="evenodd" d="M3.43945 8.02279H4.7223V7.9946C5.70436 7.92358 6.6202 8.49384 6.98976 9.40648C7.35931 10.3192 7.09828 11.3659 6.34348 11.9982C5.88288 12.3591 5.30646 12.5395 4.7223 12.5057H3.43945V8.02279ZM4.55274 11.8008C4.99371 11.8395 5.43143 11.6971 5.7651 11.4061C6.08245 11.1174 6.26188 10.7074 6.2585 10.2783C6.26462 9.84882 6.08472 9.43761 5.7651 9.15058C5.42586 8.87193 4.98953 8.74002 4.55274 8.78405H4.32718V11.8008H4.55274Z" fill="black" fill-opacity="0.9"/>
<path d="M8.44358 8.01575H7.5625V12.541H8.44358V8.01575Z" fill="black" fill-opacity="0.9"/>
<path d="M10.6071 9.7497C10.0785 9.55939 9.90228 9.42546 9.90228 9.17876C9.90228 8.93206 10.1772 8.67831 10.5578 8.67831C10.8355 8.68997 11.0936 8.82422 11.2627 9.04484L11.7208 8.44571C11.3592 8.11513 10.8857 7.9338 10.3957 7.93821C10.0347 7.91505 9.67989 8.04049 9.41366 8.28542C9.14743 8.53035 8.99292 8.87346 8.98596 9.23515C8.98596 9.86248 9.2679 10.1797 10.0926 10.4757C10.3046 10.5436 10.5098 10.631 10.7058 10.7365C10.872 10.8324 10.9742 11.0098 10.9737 11.2017C10.9724 11.3827 10.8955 11.555 10.7616 11.6768C10.6278 11.7986 10.4492 11.8589 10.2688 11.8431C9.85775 11.8476 9.48239 11.6103 9.3102 11.2369L8.73926 11.7867C9.07246 12.3509 9.69213 12.6824 10.3464 12.6467C10.7532 12.6745 11.1529 12.5299 11.4479 12.2483C11.7429 11.9668 11.9059 11.5742 11.8971 11.1665C11.8971 10.4475 11.608 10.1162 10.6071 9.7497Z" fill="black" fill-opacity="0.9"/>
<path d="M12.1866 10.2783C12.1807 10.9113 12.4315 11.5197 12.8818 11.9645C13.332 12.4094 13.9432 12.653 14.5761 12.6397C14.9605 12.6419 15.3398 12.5525 15.6827 12.3788V11.3427C15.4164 11.654 15.0279 11.8341 14.6183 11.8361C14.204 11.8465 13.8041 11.6835 13.5151 11.3865C13.2261 11.0894 13.0742 10.6852 13.0958 10.2713C13.0825 9.86828 13.232 9.47686 13.5104 9.18518C13.7888 8.89349 14.1729 8.72606 14.5761 8.72061C15.0008 8.72231 15.4043 8.90729 15.6827 9.22811V8.19196C15.3505 8.0078 14.9771 7.91081 14.5973 7.91002C13.9629 7.9025 13.3518 8.14825 12.8994 8.59281C12.4468 9.03737 12.1903 9.64403 12.1866 10.2783Z" fill="black" fill-opacity="0.9"/>
<path d="M22.6817 11.0537L21.4694 8.01575H20.5107L22.428 12.6537H22.9002L24.8597 8.01575H23.9011L22.6817 11.0537Z" fill="black" fill-opacity="0.9"/>
<path d="M25.2549 12.5409H27.7642V11.7727H26.1359V10.5532H27.7007V9.78495H26.1359V8.78405H27.7642V8.01575H25.2549V12.5409Z" fill="black" fill-opacity="0.9"/>
<path fill-rule="evenodd" clip-rule="evenodd" d="M31.2527 9.34797C31.3006 9.98259 30.8525 10.5474 30.2236 10.6449L31.6333 12.5058H30.5619L29.3354 10.7154H29.2368V12.5058H28.3486V8.02283H29.6456C30.6747 8.02283 31.2527 8.50213 31.2527 9.34797ZM29.2368 10.0951H29.5187C30.0403 10.0951 30.3504 9.91187 30.3504 9.43257C30.3504 8.95326 30.0544 8.72771 29.5187 8.72771H29.2368V10.0951Z" fill="black" fill-opacity="0.9"/>
<path d="M20.772 10.2788C20.772 11.6062 19.6958 12.6823 18.3684 12.6823C17.041 12.6823 15.9648 11.6062 15.9648 10.2788C15.9648 8.95131 17.041 7.87518 18.3684 7.87518C19.6943 7.87905 20.7681 8.95291 20.772 10.2788Z" fill="#EE7623"/>
<path fill-rule="evenodd" clip-rule="evenodd" d="M31.7179 8.10747C31.7157 8.15585 31.6808 8.19651 31.6333 8.20615L31.7602 8.38941H31.6474L31.5206 8.22024V8.38941H31.4219V7.98059H31.5628C31.6615 7.98059 31.7179 8.02288 31.7179 8.10747ZM31.6191 8.10762C31.6191 8.06533 31.5909 8.06533 31.5487 8.06533V8.14991H31.5628C31.6003 8.14991 31.6138 8.14991 31.6183 8.14353C31.6222 8.13793 31.6191 8.12741 31.6191 8.10762Z" fill="black" fill-opacity="0.9"/>
<path fill-rule="evenodd" clip-rule="evenodd" d="M31.2529 8.17809C31.2527 7.98883 31.4022 7.83323 31.5913 7.82566C31.6871 7.82182 31.7805 7.85726 31.8496 7.92377C31.9188 7.99029 31.9579 8.08213 31.9578 8.17809C31.9578 8.37274 31.8 8.53052 31.6054 8.53052C31.4107 8.53052 31.2529 8.37274 31.2529 8.17809ZM31.5911 8.47394C31.662 8.47617 31.7299 8.44484 31.7743 8.38936C31.8271 8.33142 31.8572 8.2563 31.8589 8.1779C31.8589 8.02997 31.7389 7.91005 31.5911 7.91005C31.4431 7.91005 31.3232 8.02997 31.3232 8.1779C31.3174 8.25319 31.3428 8.32755 31.3934 8.38355C31.4441 8.43954 31.5155 8.47223 31.5911 8.47394Z" fill="black" fill-opacity="0.9"/>
</g>
</g>
</g>
<defs>
<clipPath id="clip0_187_3300">
<rect x="0.230469" y="0.189941" width="35" height="24" rx="4" fill="white"/>
</clipPath>
<clipPath id="clip1_187_3300">
<rect width="35" height="24" fill="white" transform="translate(0.230469 0.189941)"/>
</clipPath>
<clipPath id="clip2_187_3300">
<rect width="35" height="23.3333" fill="white" transform="translate(0.230469 0.523254)"/>
</clipPath>
</defs>
</svg>
