<svg width="36" height="25" viewBox="0 0 36 25" fill="none" xmlns="http://www.w3.org/2000/svg">
<g clip-path="url(#clip0_187_3314)">
<rect x="0.230469" y="0.189941" width="35" height="24" rx="4" fill="#F2F2F2"/>
<g clip-path="url(#clip1_187_3314)">
<g opacity="0.01">
<path d="M31.5713 2.77863H4.28613V20.8231H31.5713V2.77863Z" fill="white"/>
</g>
<path d="M21.5277 5.92218H14.3311V17.6793H21.5277V5.92218Z" fill="#F26122"/>
<path d="M15.1063 11.8007C15.0945 9.51234 16.1338 7.34526 17.9258 5.92211C14.8598 3.51099 10.4556 3.86111 7.80911 6.72636C5.16259 9.59161 5.16259 14.0097 7.80911 16.875C10.4556 19.7402 14.8598 20.0903 17.9258 17.6792C16.1338 16.2561 15.0945 14.089 15.1063 11.8007Z" fill="#EA1D25"/>
<path fill-rule="evenodd" clip-rule="evenodd" d="M29.3011 16.1923V16.4319H29.2588V16.1923H29.1602V16.1429H29.4069V16.1923H29.3011ZM29.7806 16.1429V16.4319H29.7312V16.2134L29.6538 16.4037H29.5974L29.5128 16.2134V16.4319H29.4634V16.1429H29.5339L29.6256 16.3473L29.7101 16.1429H29.7806Z" fill="#F69E1E"/>
<path d="M30.0212 11.801C30.0194 14.6623 28.385 17.2717 25.8117 18.5224C23.2382 19.7731 20.1767 19.4459 17.9258 17.6796C21.1681 15.1265 21.7296 10.4295 19.1804 7.18413C18.815 6.71418 18.3936 6.2905 17.9258 5.92243C20.1767 4.15605 23.2382 3.82881 25.8117 5.07953C28.385 6.33027 30.0194 8.93969 30.0212 11.801Z" fill="#F69E1E"/>
</g>
</g>
<defs>
<clipPath id="clip0_187_3314">
<rect x="0.230469" y="0.189941" width="35" height="24" rx="4" fill="white"/>
</clipPath>
<clipPath id="clip1_187_3314">
<rect width="35" height="24" fill="white" transform="translate(0.230469 0.189941)"/>
</clipPath>
</defs>
</svg>
