<svg width="36" height="25" viewBox="0 0 36 25" fill="none" xmlns="http://www.w3.org/2000/svg">
<g clip-path="url(#clip0_187_3334)">
<rect x="0.230469" y="0.189941" width="35" height="24" rx="4" fill="#F2F2F2"/>
<g clip-path="url(#clip1_187_3334)">
<path fill-rule="evenodd" clip-rule="evenodd" d="M22.2341 13.0005C22.2385 11.8951 21.3268 11.4176 20.6193 11.0471C20.1714 10.8125 19.8053 10.6208 19.8053 10.3398C19.8053 10.1005 20.0373 9.84679 20.5303 9.78154C21.117 9.72349 21.7085 9.82625 22.2413 10.0788L22.5458 8.62879C22.0264 8.43403 21.4765 8.33337 20.9218 8.33154C19.2108 8.33154 18.0218 9.24504 18.0218 10.55C18.0218 11.5143 18.8846 12.0508 19.5371 12.3698C20.1896 12.6888 20.4433 12.9135 20.4361 13.2035C20.4361 13.653 19.8996 13.856 19.3993 13.8633C18.7822 13.8712 18.1733 13.7215 17.6303 13.4283L17.3186 14.8783C17.933 15.1181 18.5875 15.2387 19.2471 15.2335C21.0668 15.2335 22.2631 14.3345 22.2703 12.9425L22.2341 13.0005ZM17.5285 8.44774L16.0785 15.154H14.3385L15.7885 8.44774H17.5285ZM24.8219 12.7974L25.7354 10.2817L26.2646 12.7974H24.8219ZM28.3675 15.1755H26.758L26.5478 14.175H24.3655L24.0103 15.1755H22.1833L24.786 8.96225C24.906 8.66663 25.192 8.47217 25.511 8.46925H26.961L28.3675 15.1755ZM12.2724 15.1314L15.0854 8.42522H13.2004L11.3951 12.9854L10.6701 9.10672C10.6059 8.71257 10.2647 8.4236 9.86534 8.42522H6.91459L6.87109 8.62097C7.46294 8.73677 8.03781 8.92677 8.58209 9.18647C8.81392 9.29547 8.97102 9.51871 8.99534 9.77372L10.3801 15.1314H12.2724Z" fill="#2A2A6C"/>
</g>
</g>
<defs>
<clipPath id="clip0_187_3334">
<rect x="0.230469" y="0.189941" width="35" height="24" rx="4" fill="white"/>
</clipPath>
<clipPath id="clip1_187_3334">
<rect width="35" height="24" fill="white" transform="translate(0.230469 0.189941)"/>
</clipPath>
</defs>
</svg>
