<svg width="56" height="56" viewBox="0 0 56 56" fill="none" xmlns="http://www.w3.org/2000/svg">
<path fill-rule="evenodd" clip-rule="evenodd" d="M25.6496 18.175C23.6638 18.175 21.7593 18.9639 20.3551 20.368C18.951 21.7722 18.1621 23.6767 18.1621 25.6625C18.1621 27.6483 18.951 29.5528 20.3551 30.957C21.7593 32.3611 23.6638 33.15 25.6496 33.15C27.6354 33.15 29.5399 32.3611 30.9441 30.957C32.3482 29.5528 33.1371 27.6483 33.1371 25.6625C33.1371 23.6767 32.3482 21.7722 30.9441 20.368C29.5399 18.9639 27.6354 18.175 25.6496 18.175ZM16.2871 25.6625C16.2871 24.1633 16.6471 22.686 17.3368 21.3549C18.0266 20.0237 19.0259 18.8777 20.2507 18.0132C21.4756 17.1487 22.8901 16.5909 24.3754 16.3869C25.8607 16.1829 27.3732 16.3385 28.7858 16.8407C30.1984 17.3429 31.4698 18.177 32.4929 19.2728C33.5161 20.3686 34.2611 21.6941 34.6653 23.1378C35.0696 24.5815 35.1212 26.1012 34.8159 27.5689C34.5106 29.0367 33.8573 30.4098 32.9109 31.5725L39.7121 38.375L38.3871 39.7013L31.5871 32.9013C30.216 34.0258 28.5538 34.7379 26.7938 34.9546C25.0338 35.1713 23.2485 34.8838 21.6455 34.1254C20.0426 33.367 18.688 32.169 17.7394 30.6708C16.7908 29.1726 16.2871 27.4358 16.2871 25.6625Z" fill="black"/>
</svg>
