<svg width="32" height="221" viewBox="0 0 32 221" fill="none" xmlns="http://www.w3.org/2000/svg">
<rect width="32" height="32" rx="16" fill="black"/>
<path fill-rule="evenodd" clip-rule="evenodd" d="M7.875 9.95831H24.125V13.67L23.6783 13.8033C23.2059 13.945 22.7917 14.2352 22.4973 14.6309C22.2028 15.0267 22.0438 15.5067 22.0438 16C22.0438 16.4932 22.2028 16.9733 22.4973 17.369C22.7917 17.7647 23.2059 18.055 23.6783 18.1966L24.125 18.33V22.0416H7.875V18.33L8.32167 18.1966C8.79411 18.055 9.20828 17.7647 9.50273 17.369C9.79717 16.9733 9.95619 16.4932 9.95619 16C9.95619 15.5067 9.79717 15.0267 9.50273 14.6309C9.20828 14.2352 8.79411 13.945 8.32167 13.8033L7.875 13.67V9.95831ZM9.125 11.2083V12.7716C9.74641 13.052 10.2737 13.5057 10.6436 14.0784C11.0135 14.651 11.2102 15.3183 11.2102 16C11.2102 16.6817 11.0135 17.3489 10.6436 17.9216C10.2737 18.4942 9.74641 18.948 9.125 19.2283V20.7916H22.875V19.2283C22.2536 18.948 21.7263 18.4942 21.3564 17.9216C20.9865 17.3489 20.7898 16.6817 20.7898 16C20.7898 15.3183 20.9865 14.651 21.3564 14.0784C21.7263 13.5057 22.2536 13.052 22.875 12.7716V11.2083H9.125Z" fill="white"/>
<path d="M15.9998 18.0833C16.2209 18.0833 16.4328 18.1711 16.5891 18.3274C16.7454 18.4837 16.8332 18.6957 16.8332 18.9167C16.8332 19.1377 16.7454 19.3496 16.5891 19.5059C16.4328 19.6622 16.2209 19.75 15.9998 19.75C15.7788 19.75 15.5669 19.6622 15.4106 19.5059C15.2543 19.3496 15.1665 19.1377 15.1665 18.9167C15.1665 18.6957 15.2543 18.4837 15.4106 18.3274C15.5669 18.1711 15.7788 18.0833 15.9998 18.0833ZM15.9998 15.1667C16.2209 15.1667 16.4328 15.2545 16.5891 15.4107C16.7454 15.567 16.8332 15.779 16.8332 16C16.8332 16.221 16.7454 16.433 16.5891 16.5893C16.4328 16.7455 16.2209 16.8333 15.9998 16.8333C15.7788 16.8333 15.5669 16.7455 15.4106 16.5893C15.2543 16.433 15.1665 16.221 15.1665 16C15.1665 15.779 15.2543 15.567 15.4106 15.4107C15.5669 15.2545 15.7788 15.1667 15.9998 15.1667ZM15.9998 12.25C16.2209 12.25 16.4328 12.3378 16.5891 12.4941C16.7454 12.6504 16.8332 12.8623 16.8332 13.0833C16.8332 13.3043 16.7454 13.5163 16.5891 13.6726C16.4328 13.8289 16.2209 13.9167 15.9998 13.9167C15.7788 13.9167 15.5669 13.8289 15.4106 13.6726C15.2543 13.5163 15.1665 13.3043 15.1665 13.0833C15.1665 12.8623 15.2543 12.6504 15.4106 12.4941C15.5669 12.3378 15.7788 12.25 15.9998 12.25Z" fill="white"/>
<mask id="path-4-inside-1_6_320" fill="white">
<path d="M15.6001 32H16.6001V220.4H15.6001V32Z"/>
</mask>
<path d="M15.8001 32V220.4H17.4001V32H15.8001Z" fill="black" mask="url(#path-4-inside-1_6_320)"/>
</svg>
