<svg width="32" height="221" viewBox="0 0 32 221" fill="none" xmlns="http://www.w3.org/2000/svg">
<rect y="0.400024" width="32" height="32" rx="16" fill="black"/>
<path fill-rule="evenodd" clip-rule="evenodd" d="M7.875 10.3584H24.125V14.07L23.6783 14.2034C23.2059 14.3451 22.7917 14.6353 22.4973 15.031C22.2028 15.4267 22.0438 15.9068 22.0438 16.4C22.0438 16.8933 22.2028 17.3734 22.4973 17.7691C22.7917 18.1648 23.2059 18.455 23.6783 18.5967L24.125 18.73V22.4417H7.875V18.73L8.32167 18.5967C8.79411 18.455 9.20828 18.1648 9.50273 17.7691C9.79717 17.3734 9.95619 16.8933 9.95619 16.4C9.95619 15.9068 9.79717 15.4267 9.50273 15.031C9.20828 14.6353 8.79411 14.3451 8.32167 14.2034L7.875 14.07V10.3584ZM9.125 11.6084V13.1717C9.74641 13.452 10.2737 13.9058 10.6436 14.4784C11.0135 15.0511 11.2102 15.7183 11.2102 16.4C11.2102 17.0818 11.0135 17.749 10.6436 18.3216C10.2737 18.8943 9.74641 19.348 9.125 19.6284V21.1917H22.875V19.6284C22.2536 19.348 21.7263 18.8943 21.3564 18.3216C20.9865 17.749 20.7898 17.0818 20.7898 16.4C20.7898 15.7183 20.9865 15.0511 21.3564 14.4784C21.7263 13.9058 22.2536 13.452 22.875 13.1717V11.6084H9.125Z" fill="white"/>
<path d="M15.9998 18.4834C16.2209 18.4834 16.4328 18.5712 16.5891 18.7274C16.7454 18.8837 16.8332 19.0957 16.8332 19.3167C16.8332 19.5377 16.7454 19.7497 16.5891 19.9059C16.4328 20.0622 16.2209 20.15 15.9998 20.15C15.7788 20.15 15.5669 20.0622 15.4106 19.9059C15.2543 19.7497 15.1665 19.5377 15.1665 19.3167C15.1665 19.0957 15.2543 18.8837 15.4106 18.7274C15.5669 18.5712 15.7788 18.4834 15.9998 18.4834ZM15.9998 15.5667C16.2209 15.5667 16.4328 15.6545 16.5891 15.8108C16.7454 15.967 16.8332 16.179 16.8332 16.4C16.8332 16.621 16.7454 16.833 16.5891 16.9893C16.4328 17.1456 16.2209 17.2334 15.9998 17.2334C15.7788 17.2334 15.5669 17.1456 15.4106 16.9893C15.2543 16.833 15.1665 16.621 15.1665 16.4C15.1665 16.179 15.2543 15.967 15.4106 15.8108C15.5669 15.6545 15.7788 15.5667 15.9998 15.5667ZM15.9998 12.65C16.2209 12.65 16.4328 12.7378 16.5891 12.8941C16.7454 13.0504 16.8332 13.2623 16.8332 13.4834C16.8332 13.7044 16.7454 13.9163 16.5891 14.0726C16.4328 14.2289 16.2209 14.3167 15.9998 14.3167C15.7788 14.3167 15.5669 14.2289 15.4106 14.0726C15.2543 13.9163 15.1665 13.7044 15.1665 13.4834C15.1665 13.2623 15.2543 13.0504 15.4106 12.8941C15.5669 12.7378 15.7788 12.65 15.9998 12.65Z" fill="white"/>
<mask id="path-4-inside-1_6_262" fill="white">
<path d="M15.6001 32.4H16.6001V220.8H15.6001V32.4Z"/>
</mask>
<path d="M15.8001 32.4V220.8H17.4001V32.4H15.8001Z" fill="black" mask="url(#path-4-inside-1_6_262)"/>
</svg>
