<svg width="32" height="186" viewBox="0 0 32 186" fill="none" xmlns="http://www.w3.org/2000/svg">
<rect y="0.200012" width="32" height="32" rx="16" fill="black"/>
<path fill-rule="evenodd" clip-rule="evenodd" d="M19.9356 8.05085H11.9614V22.24H19.9356V8.05085ZM10.7114 6.80085V23.49H21.1856V6.80085H10.7114Z" fill="white"/>
<path fill-rule="evenodd" clip-rule="evenodd" d="M14.7543 19.7V23.3592H17.2459V19.7008L14.7543 19.7ZM22.5251 25.5992H9.4751V24.3492H22.5251V25.5992ZM14.0743 9.62168V11.4758H12.8243V9.62168H14.0743ZM16.5743 9.62168V11.4758H15.3243V9.62168H16.5743ZM19.0743 9.62168V11.4758H17.8243V9.62168H19.0743ZM14.0743 12.9592V14.8133H12.8243V12.9592H14.0743ZM16.5743 12.9592V14.8133H15.3243V12.9592H16.5743ZM19.0743 12.9592V14.8133H17.8243V12.9592H19.0743ZM14.0743 16.2967V18.1508H12.8243V16.2967H14.0743ZM16.5743 16.2967V18.1508H15.3243V16.2967H16.5743ZM19.0743 16.2967V18.1508H17.8243V16.2967H19.0743Z" fill="white"/>
<mask id="path-4-inside-1_6_186" fill="white">
<path d="M15.6001 32.2H16.6001V185.8H15.6001V32.2Z"/>
</mask>
<path d="M15.8001 32.2V185.8H17.4001V32.2H15.8001Z" fill="black" mask="url(#path-4-inside-1_6_186)"/>
</svg>
