<svg width="32" height="222" viewBox="0 0 32 222" fill="none" xmlns="http://www.w3.org/2000/svg">
<rect y="0.800049" width="32" height="32" rx="16" fill="black"/>
<path fill-rule="evenodd" clip-rule="evenodd" d="M7.875 10.7583H24.125V14.47L23.6783 14.6033C23.2059 14.745 22.7917 15.0352 22.4973 15.4309C22.2028 15.8266 22.0438 16.3067 22.0438 16.8C22.0438 17.2932 22.2028 17.7733 22.4973 18.169C22.7917 18.5647 23.2059 18.8549 23.6783 18.9966L24.125 19.13V22.8416H7.875V19.13L8.32167 18.9966C8.79411 18.8549 9.20828 18.5647 9.50273 18.169C9.79717 17.7733 9.95619 17.2932 9.95619 16.8C9.95619 16.3067 9.79717 15.8266 9.50273 15.4309C9.20828 15.0352 8.79411 14.745 8.32167 14.6033L7.875 14.47V10.7583ZM9.125 12.0083V13.5716C9.74641 13.852 10.2737 14.3057 10.6436 14.8784C11.0135 15.451 11.2102 16.1182 11.2102 16.8C11.2102 17.4817 11.0135 18.1489 10.6436 18.7216C10.2737 19.2942 9.74641 19.748 9.125 20.0283V21.5916H22.875V20.0283C22.2536 19.748 21.7263 19.2942 21.3564 18.7216C20.9865 18.1489 20.7898 17.4817 20.7898 16.8C20.7898 16.1182 20.9865 15.451 21.3564 14.8784C21.7263 14.3057 22.2536 13.852 22.875 13.5716V12.0083H9.125Z" fill="white"/>
<path d="M15.9998 18.8834C16.2209 18.8834 16.4328 18.9712 16.5891 19.1275C16.7454 19.2837 16.8332 19.4957 16.8332 19.7167C16.8332 19.9377 16.7454 20.1497 16.5891 20.306C16.4328 20.4623 16.2209 20.55 15.9998 20.55C15.7788 20.55 15.5669 20.4623 15.4106 20.306C15.2543 20.1497 15.1665 19.9377 15.1665 19.7167C15.1665 19.4957 15.2543 19.2837 15.4106 19.1275C15.5669 18.9712 15.7788 18.8834 15.9998 18.8834ZM15.9998 15.9667C16.2209 15.9667 16.4328 16.0545 16.5891 16.2108C16.7454 16.3671 16.8332 16.579 16.8332 16.8C16.8332 17.0211 16.7454 17.233 16.5891 17.3893C16.4328 17.5456 16.2209 17.6334 15.9998 17.6334C15.7788 17.6334 15.5669 17.5456 15.4106 17.3893C15.2543 17.233 15.1665 17.0211 15.1665 16.8C15.1665 16.579 15.2543 16.3671 15.4106 16.2108C15.5669 16.0545 15.7788 15.9667 15.9998 15.9667ZM15.9998 13.05C16.2209 13.05 16.4328 13.1378 16.5891 13.2941C16.7454 13.4504 16.8332 13.6624 16.8332 13.8834C16.8332 14.1044 16.7454 14.3164 16.5891 14.4726C16.4328 14.6289 16.2209 14.7167 15.9998 14.7167C15.7788 14.7167 15.5669 14.6289 15.4106 14.4726C15.2543 14.3164 15.1665 14.1044 15.1665 13.8834C15.1665 13.6624 15.2543 13.4504 15.4106 13.2941C15.5669 13.1378 15.7788 13.05 15.9998 13.05Z" fill="white"/>
<mask id="path-4-inside-1_6_715" fill="white">
<path d="M15.6001 32.8H16.6001V221.2H15.6001V32.8Z"/>
</mask>
<path d="M15.8001 32.8V221.2H17.4001V32.8H15.8001Z" fill="black" mask="url(#path-4-inside-1_6_715)"/>
</svg>
