<svg width="513" height="17" viewBox="0 0 513 17" fill="none" xmlns="http://www.w3.org/2000/svg">
<mask id="mask0_42_1165" style="mask-type:alpha" maskUnits="userSpaceOnUse" x="0" y="0" width="513" height="17">
<rect x="0.738281" y="0.243408" width="512.097" height="15.9615" fill="#C4C4C4"/>
</mask>
<g mask="url(#mask0_42_1165)">
<path d="M77.6577 -3.13403L78.9093 -3.34442L76.4738 -3.64606L77.6413 -3.86686C78.812 -3.86484 80.3289 -3.534 81.1542 -3.70979C81.2551 -3.87999 79.9803 -3.93462 79.655 -4.07023C79.3672 -4.20923 79.1323 -4.34732 78.953 -4.48285C79.5906 -4.48139 80.2915 -4.4486 81.0142 -4.38643C81.9863 -4.28488 82.9398 -4.23551 83.7694 -4.24378C85.466 -4.21635 87.105 -4.24371 88.9495 -4.23769L88.3358 -4.64731L90.7129 -4.55148C90.9649 -4.52028 91.2652 -4.57046 91.5127 -4.53186C93.5729 -4.20521 94.4446 -4.38321 95.4336 -4.5308C95.6364 -4.56899 95.8806 -4.5975 96.1599 -4.61559C98.9082 -4.53735 101.386 -4.0795 103.861 -3.84445C104.327 -3.78444 104.774 -3.70741 105.17 -3.61882C106.031 -3.44659 106.988 -3.30598 107.955 -3.20985C108.922 -3.11371 109.867 -3.06513 110.704 -3.06852C112.554 -3.07232 114.644 -2.95841 116.773 -2.7378C117.406 -2.66514 118.039 -2.61721 118.633 -2.59705C119.226 -2.5769 119.767 -2.58496 120.219 -2.62074L121.658 -2.38691C122.282 -2.48179 123.073 -2.53385 123.983 -2.53992C124.893 -2.546 125.904 -2.50596 126.953 -2.42224C128.071 -2.33142 129.207 -2.27019 130.367 -2.17417C132.763 -1.9906 135.095 -1.87834 137.291 -1.84086C140.561 -1.72981 143.755 -1.64394 147.054 -1.50549C149.117 -1.43865 151.128 -1.40189 153.074 -1.3954C155.404 -1.36926 157.925 -1.24271 160.515 -1.02187C160.392 -0.814662 159.256 -0.875874 158.494 -0.882888C156.036 -0.917327 153.519 -1.00657 150.99 -1.07361C149.85 -1.09978 148.742 -1.10969 147.672 -1.10327C145.882 -1.11186 143.996 -1.16707 142.045 -1.26796C138.963 -1.37897 135.979 -1.43234 133.125 -1.4275C132.901 -1.4193 132.696 -1.40475 132.513 -1.38412C132.475 -1.36624 132.467 -1.3437 132.491 -1.31866C132.515 -1.29362 132.569 -1.26691 132.649 -1.2411C132.729 -1.21528 132.831 -1.19123 132.946 -1.17123C133.061 -1.15123 133.186 -1.13596 133.307 -1.12688C134.441 -0.986461 135.659 -0.835642 136.728 -0.814426C136.769 -0.812841 136.813 -0.80922 136.857 -0.803823C136.9 -0.798426 136.942 -0.79139 136.98 -0.783222C139.373 -0.486773 141.341 -0.536939 143.206 -0.488709C146.301 -0.358356 149.286 -0.297468 152.113 -0.306965C152.54 -0.30632 153.002 -0.289374 153.481 -0.256743C156.442 -0.124463 159.211 -0.109667 161.658 -0.213027C162.665 -0.239212 163.602 -0.297996 164.684 -0.298981C165.351 -0.303025 165.931 -0.340537 166.39 -0.409272C166.849 -0.478005 167.177 -0.576541 167.355 -0.69895C167.812 -0.634503 168.275 -0.577068 168.741 -0.527329C169.019 -0.498889 169.285 -0.491335 169.486 -0.506217C169.688 -0.5211 169.809 -0.557305 169.825 -0.607509C169.908 -0.748113 169.274 -0.818724 168.724 -0.878936C169.056 -0.909089 169.43 -0.926829 169.837 -0.931726C172.13 -0.963853 174.59 -0.925934 177.162 -0.818801C179.16 -0.690566 180.754 -0.79494 182.856 -0.614102C183.107 -0.582898 183.315 -0.628698 183.547 -0.639694C184.152 -0.697607 184.905 -0.710623 185.741 -0.677606C186.578 -0.644589 187.472 -0.566537 188.348 -0.450214C189.437 -0.768008 191.792 -0.404956 193.53 -0.372328C194.065 -0.210715 193.451 -0.239125 193.425 -0.194724C193.398 -0.150324 193.425 -0.194734 193.215 -0.220738C191.479 0.00813492 189.101 0.058043 186.414 -0.0780323C185.917 -0.0774682 185.444 -0.06704 184.998 -0.0468533C184.324 -0.0182796 183.563 -0.0211316 182.75 -0.0552885C181.861 -0.0803742 181.045 -0.0684581 180.34 -0.0201216C179.934 -0.0209099 179.592 0.00330575 179.343 0.0502935C179.095 0.0972815 178.949 0.165519 178.919 0.248666C179.189 0.312763 179.489 0.371412 179.807 0.422288C181.467 0.62316 183.122 0.706305 184.447 0.655365C186.753 0.567597 189.497 0.653247 191.948 0.623283C193.606 0.611144 195.369 0.645721 197.206 0.726364C197.206 0.726364 197.158 0.807766 197.153 0.815166C197.371 0.85041 197.599 0.878688 197.825 0.89838C197.825 0.89838 197.825 0.89838 197.847 0.86138C197.747 0.825848 197.61 0.79242 197.454 0.764969L196.908 0.697356C197.279 0.67976 197.625 0.627373 198.012 0.65938C198.827 0.718846 199.605 0.74395 200.301 0.733203C200.997 0.722455 201.596 0.676069 202.061 0.596834C202.885 0.495284 203.911 0.449102 205.071 0.461271C205.96 0.450185 206.817 0.426356 207.637 0.389907C207.637 0.389907 207.69 0.301113 208.079 0.253917C207.711 0.195705 207.327 0.148174 206.945 0.113499C205.283 0.0268695 203.617 -0.0523598 201.985 -0.111588C201.383 -0.117985 200.818 -0.10806 200.3 -0.0820095C198.863 -0.0515246 197.249 -0.0947908 195.552 -0.209292C195.552 -0.209292 195.216 -0.250894 195.048 -0.271699C195.524 -0.466898 197.166 -0.271479 197.831 -0.403675C198.235 -0.401268 198.946 -0.384646 198.922 -0.419447C198.866 -0.465887 198.86 -0.50903 198.903 -0.545779C198.945 -0.58253 199.036 -0.611979 199.168 -0.632012C199.301 -0.652044 199.472 -0.662173 199.669 -0.661657C199.866 -0.661144 200.084 -0.649997 200.308 -0.629032C202.177 -0.515622 203.938 -0.484083 205.482 -0.53635C206.067 -0.53534 206.723 -0.501727 207.304 -0.493317C207.66 -0.483188 207.985 -0.488822 208.261 -0.509907C209.665 -0.665189 211.553 -0.676527 213.644 -0.542223C214.654 -0.493937 215.598 -0.487482 216.427 -0.523182C217.017 -0.529574 217.267 -0.419172 217.687 -0.367164L219.47 -0.257529L217.18 -0.120155C217.669 0.194664 218.059 0.29847 218.858 0.318084C220.025 0.347701 221.161 0.361083 222.26 0.358143C223.073 0.355556 223.744 0.287756 224.845 0.408179C225.039 0.42782 225.227 0.434177 225.375 0.426184C226.664 0.319275 228.216 0.294739 229.925 0.354252C230.81 0.154057 232.317 0.348697 233.712 0.505525C234.162 0.354726 233.347 0.285505 232.86 0.193494C234.027 0.202912 235.202 0.197533 236.406 0.219554C236.768 0.211537 237.182 0.225249 237.615 0.259612C238.048 0.293973 238.489 0.348042 238.903 0.417592C239.104 0.462533 239.347 0.496355 239.581 0.512038C239.815 0.527718 240.023 0.524061 240.16 0.501819C240.785 0.436228 241.786 0.496641 242.302 0.385844C242.485 0.360364 242.748 0.356807 243.042 0.375795C243.337 0.394782 243.644 0.435089 243.908 0.489486C243.619 0.506459 243.36 0.533186 243.14 0.569077C242.35 0.685668 242.64 0.880481 243.644 1.16371C245.186 1.14813 246.761 1.15255 248.19 1.09917C248.986 1.05126 249.962 1.06624 251.008 1.14243C252.054 1.21862 253.128 1.35301 254.109 1.53048C254.464 1.59872 254.869 1.64599 255.243 1.66289C255.618 1.67979 255.934 1.6651 256.129 1.62171C256.25 1.57153 256.288 1.50803 256.238 1.43671L255.23 1.31189C255.23 1.31189 255.27 1.24529 255.279 1.23049L256.728 1.2193C257.494 1.21891 258.294 1.23853 259.018 1.23294C260.083 1.19577 261.298 1.21649 262.588 1.29381C263.779 1.37309 264.949 1.43302 266.088 1.47306C267.19 1.51428 267.989 1.38288 269.039 1.36189C269.832 1.34608 270.705 1.36298 271.623 1.41194C273.21 1.49878 274.667 1.49895 275.86 1.41241C277.251 1.87865 277.928 1.95446 279.219 1.82847L279.827 1.79248L279.993 1.89248L280.457 1.87049C281.325 1.8509 282.193 1.83133 283.098 1.82434C284.358 1.86761 285.717 1.98402 287.045 2.1622C287.297 2.19341 287.64 2.29943 287.861 2.38244C288.082 2.46544 288.565 2.71586 288.919 2.87887C288.533 2.99786 288.105 3.11165 287.798 3.24846C287.768 3.27183 287.771 3.2997 287.807 3.32982C287.844 3.35995 287.913 3.39149 288.009 3.42192C288.105 3.45234 288.225 3.4808 288.36 3.505C288.494 3.52921 288.64 3.54849 288.785 3.56129C289.067 3.58887 289.346 3.60727 289.609 3.6157C290.907 3.63026 292.149 3.61944 293.324 3.58336C293.754 3.53247 294.341 3.52763 294.994 3.56963C295.647 3.61163 296.327 3.69807 296.928 3.81522C298.466 3.74489 300.253 3.76566 302.166 3.87611C304.189 3.80894 306.632 3.94478 308.523 3.7976C308.479 3.8716 308.674 3.99902 308.946 4.07242C309.376 4.18392 309.863 4.28726 310.387 4.37805L314.384 4.55532C314.533 4.64647 314.72 4.73874 314.942 4.83094C315.094 4.90377 315.358 4.97502 315.679 5.02962C316 5.08421 316.353 5.11785 316.662 5.12338C317.457 5.1504 318.124 5.09 319.072 5.23922C317.612 5.38027 315.642 5.36153 313.514 5.18634C311.515 5.05309 309.592 4.9865 307.817 4.98903C307.231 4.98803 306.46 4.99581 306.277 5.07641C305.872 5.30421 304.811 5.2682 303.574 5.22618C302.602 5.18018 301.715 5.18534 300.984 5.24124C300.254 5.29714 299.701 5.40218 299.372 5.54772C299.289 5.68832 299.488 5.80833 300.341 5.89015L303.888 6.21822C304.411 6.17604 304.907 6.12611 305.374 6.06864C306.161 5.99231 307.133 5.97135 308.214 6.00741C309.295 6.04347 310.456 6.13558 311.606 6.27655C312.194 6.34936 312.782 6.42217 313.208 6.38758C313.582 6.34783 313.927 6.30025 314.239 6.24518C314.302 6.20828 314.327 6.16579 314.313 6.11938C314.54 6.14096 314.766 6.16902 314.985 6.20259C316.737 6.59423 318.093 6.58746 319.325 6.48587C319.658 6.45568 319.912 6.40767 320.25 6.37008C320.588 6.33249 320.707 6.28369 321.014 6.29789C323.462 6.42633 324.167 5.99733 326.23 6.01456C326.331 5.9978 326.393 5.97275 326.412 5.94171C326.43 5.91067 326.404 5.87465 326.335 5.83695C326.19 5.80292 326.021 5.77365 325.845 5.75184C325.669 5.73003 325.491 5.71638 325.328 5.71214C324.378 5.65709 323.54 5.67396 322.955 5.75989C322.542 5.79501 322.104 5.82299 321.644 5.84368L319.578 5.22242C321.579 5.27937 323.472 5.27899 325.213 5.22131C325.593 5.18891 326.236 5.24473 326.77 5.25533L330.702 5.3134C331.511 5.31821 332.2 5.22082 333.327 5.44785C333.327 5.44785 334.072 5.48446 334.27 5.45346C334.469 5.42246 335.35 5.22967 335.875 5.10407C336.485 5.13988 337.329 5.2365 337.709 5.20411C338.372 5.12454 338.946 5.02253 339.421 4.89992L341.797 5.07496C341.794 5.23045 341.707 5.37673 341.538 5.51157C341.353 5.64161 341.359 5.79772 341.557 5.96712C341.754 6.13651 342.136 6.31439 342.673 6.48623L345.019 7.39631C345.401 7.45725 345.809 7.49827 346.187 7.51381C346.565 7.52934 346.895 7.51863 347.131 7.48313C348.14 7.37774 349.27 7.29536 350.279 7.18997C351.581 7.3512 351.247 7.61161 352.193 7.84003L355.258 8.21968C355.726 8.5715 356.202 8.90852 354.78 9.0263C354.498 9.0469 354.688 9.18172 354.43 9.23711C355.536 9.50114 356.751 9.58017 357.872 9.74279C358.313 9.85974 358.683 9.98355 358.962 10.1082C359.269 10.2959 359.891 10.4877 360.693 10.642C361.495 10.7964 362.414 10.901 363.251 10.9333C364.655 11.0321 366.092 11.1806 367.498 11.372C367.979 11.4385 368.473 11.487 368.946 11.5142C369.42 11.5414 369.863 11.5466 370.245 11.5294C371.606 11.4993 372.757 11.3957 373.625 11.2253C374.484 11.0807 375.64 11.011 376.991 11.0225C379.3 11.3086 379.766 11.7396 381.164 12.1192L378.75 12.1618C378.662 12.3098 378.822 12.4964 377.832 12.493C376.843 12.4896 377.345 12.6312 377.666 12.7742C377.779 12.8461 377.999 12.9201 378.29 12.9837C378.581 13.0472 378.924 13.0964 379.262 13.1228L381.317 13.3059C382.046 13.3755 382.751 13.4053 383.355 13.3919C383.96 13.3784 384.44 13.3223 384.743 13.2297C385.091 13.1418 385.571 13.0823 386.154 13.0549C386.896 12.9832 387.507 12.8765 387.963 12.739L390.865 12.9394C390.988 12.8012 391.387 12.7042 391.993 12.665C392.6 12.6257 393.376 12.6466 394.193 12.7241L396.148 12.8471C398.322 12.9813 398.799 12.9371 399.436 12.5473L396.828 11.8511C397.208 11.6677 397.574 11.5065 397.94 11.3453C397.29 11.1159 396.423 10.8989 395.428 10.7164C394.498 10.5203 393.543 10.3304 392.565 10.1473C391.503 9.96032 390.383 9.79769 389.065 9.58687C388.835 9.51866 388.501 9.39785 388.074 9.28143C387.647 9.16831 387.201 9.05742 386.739 8.9492C386.826 8.8012 386.905 8.668 386.737 8.49619C387.548 8.55101 388.386 8.64689 389.176 8.77519C389.966 8.90348 390.682 9.06016 391.259 9.23109C391.357 9.2614 391.476 9.28987 391.609 9.31458C391.742 9.33929 391.886 9.35966 392.031 9.37431C393.456 9.47933 394.137 9.69874 394.834 9.96776C395.304 10.1053 395.909 10.2274 396.566 10.3172C397.825 10.4732 399.059 10.6737 400.263 10.8467C400.632 10.9043 401.015 10.9518 401.397 10.9871C402.656 11.0993 403.924 11.2563 405.134 11.45C405.53 11.4992 405.909 11.5643 406.241 11.64C406.572 11.7156 406.846 11.7995 407.04 11.8846C406.741 11.9779 406.579 12.0957 406.565 12.2308C406.512 12.3196 407.397 12.5007 407.815 12.6319C408.233 12.7631 407.413 12.7013 407.135 12.7145C405.993 12.7398 405.781 12.793 406.465 13.0843C406.693 13.1758 406.845 13.2675 406.91 13.3534C406.975 13.4394 406.953 13.5179 406.845 13.5841C406.682 13.8579 406.189 14.0827 405.85 14.3505C406.376 14.5269 407.256 14.7153 407.352 14.9337C407.398 14.9822 407.495 15.0335 407.637 15.084C407.778 15.1345 407.961 15.1829 408.17 15.2258C408.723 15.3182 409.226 15.4287 409.639 15.5488C410.053 15.6689 410.366 15.7953 410.555 15.9182C410.616 15.9691 410.766 16.023 410.972 16.0692C411.179 16.1155 411.428 16.1506 411.669 16.1675C411.957 16.1882 412.215 16.1855 412.39 16.1598C412.565 16.1341 412.642 16.0874 412.607 16.0295C412.614 15.9205 412.576 15.8069 412.493 15.6897C412.541 15.6083 412.59 15.5269 412.399 15.392C413.26 15.4412 414.163 15.5398 415.012 15.6771C415.86 15.8144 416.621 15.9851 417.211 16.1707C417.864 16.3628 418.465 16.5644 419.189 16.789C419.04 17.0406 419.04 17.0406 420.579 17.4854L428.744 17.7024L430.418 17.997C431.978 18.2539 432.349 18.2363 433.329 18.1035L433.989 17.9787C435.375 18.1503 436.971 18.3479 437.837 18.0263C438.119 18.2359 438.303 18.3064 438.239 18.3381C437.825 18.6475 437.106 18.9099 436.11 19.1151C435.857 19.1631 435.678 19.2363 435.382 19.2791C434.428 19.5207 434.207 19.894 434.764 20.3226C435.04 20.5122 435.441 20.7065 435.955 20.899C435.203 21.1662 434.208 21.3875 432.995 21.5572C431.966 21.6884 431.119 21.8642 430.477 22.0794C429.901 22.2964 429.039 22.4595 427.939 22.5593C427.381 22.6018 426.974 22.6856 426.758 22.8023C426.694 23.1184 426.842 23.4568 427.198 23.81C427.265 23.9175 427.455 24.0335 427.754 24.1491C428.053 24.2647 428.453 24.3767 428.921 24.4762C428.921 24.4762 429.147 24.5518 429.255 24.597C429.346 24.9798 429.008 25.3171 428.264 25.5863C428.142 25.6626 427.892 25.7178 427.542 25.7458C427.192 25.7738 426.754 25.7736 426.276 25.7452C425.267 25.6996 424.323 25.694 423.347 25.6684C422.295 25.6322 421.368 25.6607 420.664 25.7511C419.96 25.8414 419.505 25.9902 419.347 26.1817C419.336 26.236 419.305 26.2879 419.254 26.3371C419.225 26.3625 419.209 26.3898 419.206 26.4186L421.449 27.0458L418.912 27.2956C418.763 27.5472 419.98 27.698 420.591 27.8848L420.214 27.989C419.728 28.048 419.074 27.9352 418.481 27.8698L417.893 27.797L417.823 27.9154C417.457 28.0766 416.122 27.8954 415.601 28.0136C415.081 28.1318 415.452 28.2652 416.233 28.3936C416.775 28.489 417.358 28.5651 417.936 28.6162C418.515 28.6672 419.075 28.6919 419.574 28.6882C419.872 28.6756 420.119 28.6467 420.3 28.6034C421.353 28.4191 422.517 28.2605 423.782 28.1291C424.751 28.011 425.966 27.9608 427.34 27.9819C427.743 27.973 428.229 28.001 428.713 28.0609C429.196 28.1208 429.647 28.2089 429.985 28.3096L430.696 28.3262C430.696 28.3262 431.086 28.43 431.03 28.447C430.76 28.7545 431.074 29.1306 431.928 29.5193L431.186 29.5545C430.125 29.5184 430.798 29.7527 430.639 29.8681C429.886 29.8462 428.907 29.7488 428.55 29.8952L428.015 29.8846L428.225 29.9106L428.479 29.8626L429.476 30.0815C429.003 30.1182 428.661 30.1632 428.244 30.183C428.013 30.2002 427.83 30.2307 427.704 30.2725C427.579 30.3143 427.514 30.3666 427.514 30.4262C427.515 30.518 427.39 30.5953 427.153 30.6507C426.915 30.706 426.571 30.7376 426.154 30.7424C425.657 30.7444 425.373 30.8442 425.081 30.8796L426.347 31.4813C426.347 31.4813 425.718 31.4032 426.06 31.5092L426.104 31.4352L426.871 31.5859C427.424 31.7179 427.811 31.7499 428.137 31.6553C428.464 31.5607 428.389 31.6865 428.546 31.6503C428.489 31.7465 428.134 31.8137 427.829 31.8713C427.477 31.9165 427.08 31.9498 426.643 31.9707C427.429 32.3937 427.467 32.4063 426.319 32.5183C425.171 32.6303 425.567 32.7985 424.606 32.8225C423.645 32.8465 424.738 33.1327 425.381 33.1885C425.857 33.2252 426.344 33.2824 426.806 33.356C427.268 33.4297 427.695 33.5182 428.058 33.6154L427.865 33.941C427.582 33.914 427.299 33.8789 427.025 33.8369C426.094 33.6581 425.247 33.4897 424.419 33.5937L424.814 33.8411L421.924 33.6977C421.999 33.8831 422.439 34.0943 423.152 34.2867C423.045 34.3924 422.979 34.5037 422.955 34.6197C422.907 34.7011 422.621 34.6499 422.436 34.6587C421.774 34.6723 421.231 34.7275 420.854 34.8193C420.478 34.9112 420.279 35.0369 420.276 35.1855C420.201 35.3113 421.218 35.5723 421.855 35.5637C423.443 35.5888 425.16 35.6856 426.914 35.8488C427.983 35.87 428.134 35.5392 429.894 35.7651C429.929 35.9178 429.703 36.0415 429.252 36.1174C428.8 36.1933 428.147 36.2173 427.391 36.1858C427.821 36.5251 430.202 36.6135 430.308 36.9681C429.715 36.9431 429.08 36.8841 428.468 36.7971C427.855 36.7101 427.286 36.5981 426.815 36.472C426.714 36.441 426.586 36.4124 426.445 36.3888C426.303 36.3653 426.152 36.3475 426.005 36.3373C425.858 36.327 425.721 36.3246 425.605 36.3301C425.49 36.3357 425.4 36.3492 425.344 36.3692C425.673 36.4974 426.036 36.6456 426.45 36.7842C426.864 36.9229 426.963 36.9829 427.262 37.0119C429.487 37.2875 430.545 37.784 432.471 38.1098C432.975 38.1722 433.037 38.3706 432.6 38.3482C432.184 38.3258 431.807 38.3287 431.512 38.3567C431.217 38.3846 431.014 38.4365 430.928 38.5066C430.605 38.5883 430.203 38.6533 429.732 38.7C431.707 39.2094 434.061 39.6596 436.574 40.0081C437.05 40.077 437.547 40.119 437.991 40.128C439.394 40.1285 440.882 40.1689 442.427 40.2484C442.974 40.2701 443.481 40.2681 443.918 40.2424C445.351 40.1817 446.489 40.3147 447.529 40.6897L449.25 41.2842C449.193 41.3804 448.904 41.4876 448.682 41.6348L450.026 41.9522L460.286 41.2211L462.345 41.929L465.298 41.8896C465.525 41.9101 465.752 41.9383 465.97 41.9728C466.568 42.1819 467.035 42.3827 467.683 42.5821C468.331 42.7815 469.488 42.8057 470.296 43.0408C471.103 43.2758 471.911 43.2806 472.91 43.4202C473.004 43.6021 472.907 43.7659 472.625 43.9012C472.533 44.0566 472.026 44.1526 471.938 44.3006C471.947 44.4502 471.759 44.5772 471.389 44.6701C471.019 44.763 470.48 44.8189 469.82 44.8326C467.971 45.1511 465.742 45.3779 463.2 45.5061C462.977 45.5154 462.792 45.537 462.656 45.5694C462.521 45.6018 462.438 45.6444 462.412 45.6945C462.416 45.8397 462.246 45.9652 461.916 46.0617C461.586 46.1583 461.103 46.2234 460.504 46.2525C460.344 46.2583 460.224 46.2766 460.158 46.3049C459.93 46.3232 459.764 46.3582 459.677 46.4065C459.589 46.4548 459.582 46.5148 459.656 46.5807C459.73 46.6466 459.883 46.7162 460.1 46.7827C460.318 46.8492 460.592 46.9104 460.896 46.9604C461.337 47.0409 461.788 47.1179 462.247 47.1912C462.22 47.2356 461.765 47.2428 461.832 47.2828C462.011 47.4105 462.053 47.5301 461.953 47.6322C461.854 47.7343 461.616 47.816 461.258 47.871L463.71 48.9055C465.198 49.0488 466.658 49.2918 467.812 49.5884C467.814 49.6369 467.747 49.6777 467.62 49.7064C467.492 49.7352 467.307 49.7511 467.084 49.7524C466.486 49.7735 465.92 49.8147 465.275 49.8381C464.881 49.8556 464.553 49.8941 464.31 49.9513C464.068 50.0085 463.915 50.0833 463.861 50.1713L465.301 50.5562C464.839 50.6499 464.497 50.6949 464.193 50.7525C464.365 50.8735 464.662 50.9986 465.06 51.1181C465.458 51.2377 465.947 51.3485 466.488 51.442C466.634 51.4613 466.782 51.4754 466.924 51.4834C467.066 51.4915 467.2 51.4934 467.317 51.489C468.432 51.357 469.736 51.5901 471.003 51.8105C472.27 52.0309 472.957 52.1637 473.892 52.3352L475.682 52.3582C476.134 52.4393 476.539 52.5348 476.862 52.6368C477.185 52.7389 477.418 52.8448 477.542 52.946C477.445 53.1088 476.597 53.0196 476.091 53.0364C474.891 53.1377 473.313 53.1161 471.62 52.9751C471.2 52.9231 470.769 52.9651 470.361 52.9701C469.479 52.9904 468.632 53.0233 467.823 53.0689C467.29 53.1113 466.793 53.1637 466.333 53.2259C466.21 53.4331 468.143 53.5931 467.046 53.6955C467.424 53.7423 467.566 53.8075 467.76 53.7839C469.005 53.9185 470.231 53.985 471.297 53.9758C473.343 53.9472 475.666 54.0416 478.075 54.2513C480.677 54.4685 483.172 54.5597 485.355 54.5174C486.187 54.5149 487.116 54.5594 488.072 54.6475C489.202 54.7694 490.324 54.8461 491.365 54.8725C491.709 54.8735 492.094 54.8942 492.486 54.9331C492.878 54.972 493.267 55.0279 493.621 55.0964C493.59 55.1482 493.253 55.1858 493.328 55.211C494.405 55.5986 494.842 56.0022 496.501 56.3983C497.634 56.5387 498.936 56.6999 499.677 56.5137C500.419 56.3275 500.153 56.1675 498.678 55.6909C498.998 55.684 499.384 55.7063 499.767 55.7538C500.151 55.8013 500.508 55.8711 500.777 55.9509L502.053 56.3075L503.203 56.6486C503.103 56.8188 503.024 56.952 502.94 57.0926C502.809 57.2419 502.953 57.4237 503.353 57.6124C503.595 57.7154 503.805 57.8185 503.982 57.9206C504.701 58.3291 504.909 58.7153 504.583 59.0357C503.959 59.4964 503.089 59.9203 501.985 60.3025C500.818 60.6743 500.179 61.1433 499.218 61.5485C498.727 61.733 498.132 61.8984 497.437 62.0429C496.12 62.3643 494.677 62.6701 493.355 62.9989C492.033 63.3276 490.541 63.5638 489.073 63.8348C486.888 64.1564 484.525 64.4342 481.999 64.6665C480.436 64.8701 478.831 65.0685 477.385 65.3025C475.678 65.5662 473.672 65.7557 471.417 65.866C469.426 65.9981 467.647 66.1935 466.114 66.4483C465.953 66.4759 465.826 66.511 465.737 66.5526C465.461 66.8125 464.687 66.9957 463.534 67.0741C463.604 67.1502 463.694 67.2276 463.803 67.306C463.963 67.3993 463.996 67.4867 463.898 67.5567C463.8 67.6267 463.576 67.6762 463.254 67.6988C462.332 67.7631 461.566 67.8725 460.989 68.0219C460.778 68.0594 460.646 68.114 460.607 68.1811C460.567 68.2481 460.62 68.3255 460.761 68.4067C460.887 68.4903 460.896 68.5673 460.788 68.6275C460.68 68.6878 460.459 68.7286 460.155 68.7447C459.375 68.8239 458.539 68.8875 457.653 68.9353C455.769 69.0407 453.577 69.0394 451.21 68.9316C450.958 68.9004 450.704 68.9484 450.41 68.912C448.737 68.7912 447.182 68.7725 445.935 68.8581C444.473 68.8915 442.944 68.8849 441.402 68.9005C439.175 68.89 437.12 68.9536 435.295 69.0894C433.21 68.9581 432.038 69.1863 430.277 69.1907C428.652 69.2141 427.111 69.2704 425.67 69.3588C423.347 69.4762 421.032 69.5788 418.742 69.7161C416.594 69.7816 414.616 69.9068 412.842 70.0895C412.162 70.1721 410.931 70.0434 410.468 70.2164C410.004 70.3894 409.07 70.369 408.315 70.4264L405.932 70.5682C405.522 70.6019 405.072 70.6233 404.587 70.632C402.372 70.6435 400.837 70.8745 398.781 70.9217L398.571 70.8957C394.92 71.239 390.742 71.4275 386.159 71.4555C383.483 71.5609 380.556 71.5558 377.715 71.633C377.038 71.7874 375.438 71.5971 374.588 71.7381C373.738 71.8791 372.35 71.7867 371.255 71.8099C370.159 71.8331 369.088 71.8911 367.918 71.889C366.901 71.8897 366.043 71.9527 365.42 72.0722C364 72.2698 362.269 72.386 360.304 72.4156C357.704 72.4669 355.246 72.5835 352.602 72.5578C352.64 72.7019 352.477 72.8244 352.132 72.9128C351.786 73.0012 351.27 73.0524 350.636 73.061C347.808 73.116 345.245 73.2591 342.38 73.3015L341.613 73.3019L333.045 73.3845C330.737 73.4005 328.513 73.4269 326.158 73.4451C325.276 73.3358 325.255 73.5238 324.645 73.488C324.475 73.3954 324.273 73.3546 323.973 73.4048L323.907 73.5158L314.129 73.6631C310.301 73.7707 306.274 73.803 302.082 73.7597C301.088 73.7706 300.16 73.8073 299.313 73.8694C298.527 73.8921 297.709 73.9021 296.861 73.8994C295.715 73.8715 294.595 73.8574 293.505 73.8572C290.641 73.8995 287.634 73.8767 284.497 73.8456C281.36 73.8146 278.984 73.8697 276.192 73.8655C274.301 73.8617 272.419 73.843 270.462 73.7992C269.527 73.7788 268.376 73.668 267.408 73.6275C266.44 73.5871 266.125 73.5877 265.997 73.6513C265.576 73.8295 264.517 73.7143 263.671 73.6969C262.021 73.6673 261.786 73.6065 261.338 73.1458L263.363 72.9995C263.859 72.9522 264.483 72.9439 265.175 72.9753C265.867 73.0068 266.604 73.0769 267.313 73.1789C267.593 73.2227 267.885 73.2572 268.173 73.2806C268.46 73.304 268.738 73.3157 268.991 73.3152C271.034 73.2902 273.048 73.2378 275.012 73.195L275.299 73.1671L275.317 72.7562C275.057 72.7159 274.788 72.6826 274.519 72.6574L264.67 72.3909C262.41 72.3254 260.064 72.1778 257.846 72.1175C255.628 72.0573 254.432 72.0205 252.711 71.9583C251.985 71.9228 251.245 71.8762 250.495 71.8188C250.539 71.7793 250.564 71.7372 250.57 71.693C250.609 71.6264 250.662 71.5376 250.344 71.4664C249.996 71.3659 249.532 71.28 249.044 71.226C248.585 71.1903 248.14 71.1701 247.727 71.1662C245.73 71.1317 243.448 70.9147 241.369 70.5614L240.644 70.7972C237.522 70.6648 234.354 70.5345 231.093 70.4087C230.44 70.3743 229.754 70.3085 229.088 70.216C228.374 70.1276 227.718 69.943 226.966 69.842C226.224 69.7693 225.486 69.7126 224.767 69.6729C224.962 69.6123 225.219 69.5638 225.529 69.529C225.834 69.5168 226.057 69.4788 226.164 69.4207C226.272 69.3626 226.258 69.2873 226.126 69.2058C225.894 69.0657 225.791 68.9339 226.297 68.9171C226.765 68.8852 227.099 68.8161 227.261 68.7179C227.423 68.6198 227.406 68.4967 227.211 68.3631C227.126 68.2851 227.066 68.2086 227.032 68.1343L226.822 68.1083C226.129 67.8319 224.746 67.7321 223.753 67.5059C223.284 67.4403 222.799 67.4025 222.374 67.3986C221.276 67.35 220.207 67.3288 219.071 67.2676C218.529 67.2394 217.962 67.188 217.403 67.1165C216.605 67.0177 216.521 67.0073 216.058 66.6481C216.777 66.6544 217.348 66.6007 217.672 66.4962C217.997 66.3917 218.056 66.2427 217.84 66.0745C217.247 65.7071 216.62 65.3197 213.935 65.0586C214.81 65.0457 215.653 65.0202 216.459 64.982C216.694 64.9738 216.869 64.9468 216.963 64.9047C217.056 64.8625 217.062 64.8072 216.981 64.7462C216.899 64.6851 216.734 64.6212 216.507 64.563C216.28 64.5048 216.002 64.4552 215.71 64.4206C214.293 64.2128 212.815 64.0736 211.441 64.0189C210.283 63.9947 209.238 64.0083 207.887 64.0077L206.291 63.81C206.317 63.7656 206.083 63.7048 206.142 63.6804C206.548 63.4526 206.995 63.23 207.456 62.9852C206.72 62.853 206.083 62.6935 205.617 62.5248C205.151 62.3561 204.875 62.185 204.821 62.0313C204.781 61.985 204.792 61.9427 204.851 61.9076C204.911 61.8724 205.019 61.8452 205.167 61.8279C205.587 61.7982 205.911 61.7414 206.115 61.662C206.318 61.5825 206.395 61.4824 206.34 61.3695L205.099 60.9537C201.363 60.657 197.694 60.445 194.16 60.3217L190.97 60.2285C190.585 60.1173 190.704 60.0685 191.066 60.0657C191.428 60.0629 192.447 60.0937 193.158 60.1103C193.773 60.1321 194.318 60.1178 194.742 60.0687C195.166 60.0196 195.454 59.9374 195.578 59.8301L194.507 59.3559C194.56 59.2671 194.634 59.1413 195.215 59.1497C195.612 59.1394 195.905 59.0947 196.045 59.0228C196.186 58.9509 196.167 58.856 195.991 58.7533C195.964 58.679 196.004 58.6114 196.109 58.5535C196.969 58.5487 197.823 58.5513 198.603 58.5287C198.966 58.5212 199.273 58.4937 199.502 58.4481C199.731 58.4025 199.878 58.3398 199.932 58.2643C199.96 58.1907 199.891 58.1068 199.732 58.0194C199.572 57.932 199.326 57.8436 199.013 57.7613C197.791 57.6595 196.673 57.6582 195.905 57.7576C195.631 57.8356 195.191 57.8782 194.643 57.8798C194.095 57.8814 193.464 57.8419 192.834 57.7666C192.113 57.6798 191.394 57.6416 190.805 57.659C190.217 57.6763 189.797 57.7481 189.623 57.8614C188.883 57.8174 188.227 57.7837 187.579 57.7353C186.816 57.6743 186.094 57.6563 185.492 57.6833C184.528 57.7024 183.49 57.6912 182.401 57.65C179.262 57.5472 176.118 57.4517 173.079 57.4089C172.274 57.3967 171.579 57.4297 170.783 57.4026C169.988 57.3756 169.359 57.4486 168.364 57.3016C168.175 57.2788 167.984 57.2641 167.807 57.2587C167.631 57.2534 167.473 57.2575 167.346 57.2708C165.599 57.3871 163.551 57.4035 161.322 57.3191C158.269 57.2985 155.104 57.24 152.047 57.2268C151.15 57.2382 150.303 57.2687 149.513 57.3181C148.913 57.348 148.284 57.3682 147.629 57.3787C147.128 57.3881 146.648 57.3605 146.733 57.5219C146.818 57.6833 146.066 57.5823 145.633 57.5525C144.145 57.4742 142.625 57.3683 141.088 57.2358C139.574 57.0918 138.091 57.0081 136.727 56.9895C135.741 56.9787 134.725 57.0197 133.459 56.7993C133.507 56.7179 133.555 56.6364 133.831 56.5514C132.798 56.3176 131.619 56.1163 130.393 55.9644C129.166 55.8125 127.926 55.7142 126.776 55.6777L125.191 55.2351C124.8 55.1831 124.402 55.1452 124.019 55.1238C123.637 55.1024 123.278 55.0978 122.966 55.1104C122.724 55.1168 122.43 55.1004 122.137 55.0641C121.844 55.0278 121.571 54.9741 121.37 54.9128C121.069 54.8348 120.701 54.7676 120.313 54.7195C119.924 54.6714 119.532 54.6446 119.186 54.6423C118.097 54.5942 116.934 54.4831 115.816 54.3203C115.526 54.2248 115.345 54.1263 115.294 54.0367C115.243 53.9471 115.325 53.8704 115.529 53.8161C115.859 53.7201 116.045 53.5979 116.074 53.4568C116.104 53.3158 115.976 53.1587 115.7 52.9952C115.559 52.8949 115.512 52.7998 115.561 52.7159C115.611 52.632 115.757 52.5608 115.99 52.5068C116.859 52.257 116.626 52.117 115.204 51.7026C114.973 51.6335 114.695 51.5689 114.386 51.5129C114.078 51.457 113.747 51.4109 113.414 51.3775C112.631 51.31 111.86 51.2598 111.113 51.2277C110.694 51.1757 110.263 51.2177 109.779 51.1975C107.36 51.0964 107.006 50.9334 106.222 50.5822L105.651 50.3288C104.592 50.1235 103.434 49.953 102.26 49.8296C101.086 49.7062 99.9258 49.6329 98.8624 49.6151C98.4398 49.6137 97.9538 49.5786 97.4792 49.5152C95.9344 49.3213 94.3699 49.1871 92.8895 49.1215C91.9669 49.0846 90.9725 48.9891 90.0256 48.8465C89.0787 48.7038 88.2195 48.5201 87.5514 48.3174C86.9513 48.1348 86.1661 47.9709 85.3051 47.8486C84.2973 47.7238 84.204 47.5772 84.7668 47.4642C85.3296 47.3512 86.2722 47.2058 87.1088 47.087C87.4 47.0466 87.5803 46.981 87.6299 46.8973C87.6795 46.8137 87.5963 46.7154 87.3895 46.6134C87.2568 46.4388 87.2337 46.2731 87.321 46.1203C87.3677 46.0569 87.3355 45.9841 87.2266 45.9069C87.1177 45.8297 86.9347 45.7499 86.6899 45.6729C86.445 45.5959 86.1441 45.5235 85.8073 45.4606C85.4705 45.3976 85.1057 45.3455 84.7375 45.3079C83.1838 45.1154 81.6721 44.9282 80.0877 44.7876C79.4237 44.7213 78.7604 44.6391 78.114 44.5431C76.791 44.3057 75.3755 44.1088 73.9499 43.9639C73.2733 43.8991 72.6118 43.7857 72.1086 43.6484C70.5213 43.2785 69.0588 42.8896 67.7474 42.4887C67.4314 42.3643 67.0178 42.243 66.5327 42.1324C66.0476 42.0217 65.5013 41.9241 64.9283 41.8456C64.4664 41.7884 64.0904 41.6624 63.7344 41.5786C63.4757 41.3845 63.448 41.205 63.6541 41.0568C63.8601 40.9087 64.2932 40.7968 64.9125 40.7316C65.4997 40.6534 66.0493 40.5626 66.5569 40.4666C67.1688 40.389 67.8963 40.3424 68.7123 40.3284C69.6787 40.2868 70.3933 40.1677 70.7629 39.9867C68.1174 39.659 65.6016 39.1886 63.2827 39.2985L61.5208 39.0009C61.591 38.8825 61.6524 38.7789 61.7094 38.6827C62.1284 38.5076 62.2593 38.2867 62.091 38.0388C61.9521 37.9189 61.9647 37.8098 62.1272 37.7226C62.2898 37.6353 62.5966 37.5729 63.0166 37.5418C65.5047 37.2225 68.382 37.0069 70.7153 36.6445C71.4468 36.5765 72.3032 36.5456 73.2484 36.5532C74.1628 36.5314 74.1246 36.3678 73.0723 36.1659C72.4816 36.0605 71.8796 35.9594 71.2685 35.8631C68.5735 35.8471 67.4756 36.3307 64.4002 36.196L62.9748 35.5588C62.5894 35.5489 62.2152 35.545 61.8548 35.5471L56.6982 35.8061C56.2687 35.8191 55.9343 35.8633 55.7331 35.9339C55.532 36.0045 55.472 36.0985 55.5601 36.2053C55.595 36.3359 55.524 36.4558 55.3495 36.5605C55.2371 36.6338 55.3091 36.7312 55.5496 36.8315C56.0918 37.0575 55.3961 37.0905 54.9568 37.1473C54.8445 37.1529 54.715 37.1523 54.5758 37.1456C54.4366 37.1389 54.2906 37.1262 54.146 37.1083C54.0015 37.0904 53.8614 37.0676 53.7339 37.0413C53.6063 37.015 53.4939 36.9856 53.4031 36.9549C52.629 36.7399 51.952 36.513 51.1912 36.2758C51.7314 36.0488 51.0958 35.6762 51.9387 35.4708C52.033 35.4298 52.0707 35.3798 52.0496 35.3239C52.0284 35.268 51.9488 35.2074 51.8158 35.1458C51.4725 34.9868 51.309 34.8317 51.3418 34.6963C51.3746 34.5609 51.6024 34.4499 52.0024 34.3746L52.0506 34.2932C50.9958 34.0195 51.2753 33.7761 50.861 33.4865L49.8462 33.2973C47.3217 32.8416 47.3173 32.849 45.1438 32.8658C44.7056 32.6924 45.2623 32.666 45.6797 32.6462L49.1756 32.4517C51.4612 32.3217 53.8134 32.2317 56.3667 32.1826C58.92 32.1334 61.7665 31.9696 64.4057 31.8517C64.5391 31.8425 64.6412 31.8245 64.7033 31.799C64.7655 31.7735 64.7859 31.7414 64.7629 31.7053C64.658 31.6662 64.5206 31.6285 64.3611 31.595C64.2015 31.5615 64.0237 31.533 63.8409 31.5116C63.001 31.4076 62.1393 31.3406 61.2443 31.2536L59.5759 31.1026L59.0626 30.9039C58.7285 30.7831 58.5003 30.6357 58.0559 30.5489C57.6897 30.4842 57.2922 30.435 56.9047 30.4066C56.5173 30.3782 56.1541 30.3715 55.853 30.3873C55.0182 30.4269 54.263 30.4842 53.4658 30.5364C52.6686 30.5886 52.2292 30.6454 51.5379 30.671C50.1334 30.6827 48.7761 30.7134 47.4718 30.7632C46.3732 30.8809 45.357 31.0203 44.4297 31.1807C43.8512 31.2441 43.3103 31.3201 42.3225 31.2375C41.8539 31.1626 41.4498 31.0642 41.1816 30.9597C40.9135 30.8552 40.7988 30.7515 40.8578 30.6669C40.9108 30.6005 41.0608 30.548 41.2937 30.5143C41.5267 30.4806 41.8347 30.4668 42.1889 30.4743C43.1804 30.4621 44.0972 30.421 44.9209 30.3519C46.0674 30.2267 47.4631 30.1728 49.0265 30.1932C49.5568 30.2112 49.9121 30.144 50.3759 30.122C50.8397 30.1 51.2326 30.0454 51.7497 30.0856C53.356 30.1892 54.1262 30.0304 55.0889 29.9272C55.4148 29.8815 55.6166 29.8076 55.6724 29.7135C55.7281 29.6195 55.6355 29.5091 55.4047 29.3944C54.9604 29.166 54.4169 28.9363 53.7826 28.709C53.4562 28.5972 53.038 28.4911 52.5608 28.3989C52.0837 28.3067 51.5605 28.231 51.0323 28.1777C50.7162 28.0378 50.5476 27.9003 50.5417 27.7775C50.5358 27.6547 50.6928 27.5506 50.9984 27.4745C51.7774 27.3009 52.468 27.1243 54.2135 27.2213C55.0342 27.2584 55.8065 27.2655 56.4998 27.2424C58.0375 27.2107 59.8114 27.28 61.6541 27.4439C62.1309 27.4858 62.5995 27.5145 63.0461 27.5289C66.2318 27.6295 69.2671 27.6798 72.3111 27.7152C73.9237 27.7323 75.5495 27.7271 77.2329 27.7767C81.1807 27.8844 84.7744 27.829 88.5849 27.8641C90.5806 27.8821 92.3669 27.8096 93.8501 27.6504C94.139 27.597 94.3871 27.5347 94.5915 27.4642C93.6086 27.2791 92.529 27.1327 91.456 27.0387C90.3831 26.9448 89.3528 26.9065 88.4638 26.9277C87.9752 26.9795 87.3434 26.9889 86.6393 26.955C85.9351 26.9211 85.1862 26.8451 84.4759 26.7356L86.541 26.6736C87.9104 26.6446 89.313 26.6357 90.6448 26.5941C92.7606 26.5225 94.7216 26.4079 96.9127 26.3616C98.6816 26.3189 100.265 26.2099 101.612 26.038C102.585 25.9126 103.697 25.8237 104.924 25.7731C105.797 25.7461 105.797 25.7461 106.354 25.4895C105.912 25.3235 105.34 25.3003 104.801 25.297C101.569 25.1926 98.494 25.1743 95.6377 25.2425C94.1966 25.2485 92.9181 25.3189 91.8636 25.4502C91.6054 25.5056 90.9448 25.4794 90.4145 25.4614C88.7524 25.434 87.1638 25.442 85.6677 25.4852C83.5993 25.5571 81.2957 25.5401 78.8462 25.4346C78.3818 25.3056 78.9164 25.3162 78.9427 25.2718C80.8398 25.1891 82.6994 25.0937 84.6341 25.0235C85.163 24.9985 85.7283 24.9861 86.3238 24.9865C88.5467 25.0301 90.3991 24.9095 91.6215 24.6418C91.6829 24.5382 92.487 24.5504 92.8423 24.4832C93.0172 24.4251 93.1336 24.3566 93.1882 24.2798C92.6705 24.0886 92.0851 24.0876 91.6345 24.0874C90.3269 24.1087 89.069 24.1492 87.8667 24.2085C86.7491 24.2651 85.512 24.2801 84.1889 24.2535C83.2125 24.2279 82.3777 24.2675 81.3925 24.2566C80.858 24.2339 80.3048 24.1973 79.7441 24.1478C80.3685 24.0145 81.2171 23.9326 82.2304 23.9076C82.9988 23.8281 83.9595 23.8041 84.0823 23.5969C83.7194 23.4487 83.3151 23.4462 82.9905 23.4616C82.3147 23.4611 81.662 23.4704 81.0357 23.4896C79.7078 23.5317 78.27 23.5323 76.7526 23.4913C75.9536 23.476 75.1954 23.4806 74.4907 23.5051C72.8938 23.5377 71.3633 23.6103 69.9012 23.6436C66.906 23.6778 64.1742 23.8002 61.2963 23.8647C60.6557 23.8807 60.0816 23.9367 59.2373 23.8401C58.3931 23.7435 58.3556 23.7309 58.2559 23.6709C58.0196 23.5708 57.9481 23.4737 58.056 23.3999C58.2234 23.3309 58.5496 23.2924 58.9765 23.2915C61.5492 23.1817 63.9894 23.0276 66.2817 22.83C67.2906 22.7904 68.1745 22.7097 68.9026 22.5906C69.4802 22.5086 70.1652 22.4543 70.9363 22.4294C72.0579 22.3701 73.227 22.3267 74.4392 22.2993C75.0032 22.2845 75.4827 22.2406 75.8496 22.1701C76.2165 22.0996 76.4634 22.0039 76.5756 21.8887L75.0896 21.506C74.8561 21.4882 74.6246 21.4728 74.3958 21.4598L62.0623 21.7354L60.8408 21.743C59.5021 21.7202 59.175 21.6638 57.9051 21.2206C60.8031 21.1163 63.0813 20.8124 64.5126 20.339C64.1687 20.2881 63.816 20.2445 63.4628 20.209C61.1468 20.0971 58.9575 20.0673 56.9792 20.1209C55.8041 20.1263 54.5958 20.1117 53.383 20.1045C53.7377 19.8863 55.0965 19.9513 55.982 19.9021C58.098 19.8251 59.9691 19.6661 61.5355 19.4302C62.0755 19.3382 62.7512 19.2793 63.5315 19.2564C64.3124 19.2485 64.9647 19.1928 65.4317 19.0942C65.8987 18.9956 66.1661 18.857 66.2107 18.6906C66.2842 18.5399 66.4428 18.3999 66.6838 18.2726C66.2573 18.092 65.58 17.9191 64.779 17.7862C63.9781 17.6534 63.1085 17.5698 62.3336 17.5511C60.6792 17.4767 58.9632 17.355 57.2294 17.189C56.3657 17.1053 55.5188 17.0572 54.7437 17.048C54.0602 17.0408 53.2832 16.9804 52.5314 16.8758C51.7795 16.7712 51.0941 16.6282 50.5796 16.4687C49.8851 16.2715 49.237 16.072 48.5889 15.8726C47.9408 15.6732 47.1888 15.4212 46.4323 15.1766C45.7653 15.1383 45.1157 15.1137 44.4925 15.1031C44.0076 15.1121 43.4419 15.0854 42.8619 15.0263C42.282 14.9671 41.7121 14.8779 41.2196 14.7693C41.5085 14.6621 41.835 14.5675 42.1791 14.4433C41.7068 14.2793 41.3644 14.112 41.1727 13.9517C40.981 13.7914 40.944 13.6414 41.064 13.5108C41.1342 13.3924 40.6208 13.1938 40.4434 13.0368C40.215 12.9014 40.1721 12.7751 40.3203 12.6744C40.4685 12.5737 40.8008 12.5033 41.2738 12.4724C41.8604 12.4154 42.3377 12.3296 42.6864 12.2184C42.8017 12.1895 42.8604 12.15 42.8571 12.1035C42.8538 12.0569 42.7887 12.0048 42.6676 11.9519C42.5465 11.8989 42.3733 11.8469 42.164 11.8005C41.9546 11.7541 41.7158 11.7149 41.4692 11.6864C40.7138 11.6055 39.9637 11.5531 39.2617 11.5321C38.0526 11.4936 36.895 11.4694 35.789 11.4595C34.5659 11.4446 33.2051 11.3528 31.8449 11.1934C30.6271 11.0426 29.5353 10.9073 28.9399 10.6191C28.3444 10.3309 27.3924 10.3401 26.6603 10.1303C27.0715 9.94113 27.8025 9.80973 28.7793 9.74929C29.4185 9.72772 29.9521 9.67111 30.3458 9.58308C30.7395 9.49505 30.9847 9.37754 31.0655 9.23811L28.843 8.65305C27.068 8.37761 26.086 8.58961 24.1682 8.47917L26.1442 8.2632C26.1839 8.24185 26.1988 8.21679 26.1881 8.1892C25.9962 7.75238 25.691 7.65896 23.671 7.41673L22.5372 7.27631L20.7428 7.10967C20.4554 7.02015 20.2567 6.92679 20.1664 6.83894C20.0761 6.75108 20.0974 6.67181 20.2282 6.60905C20.4911 6.50349 20.571 6.36862 20.4606 6.21683C20.2866 6.11628 20.2722 6.0236 20.42 5.95484C20.5678 5.88608 20.8684 5.8456 21.2697 5.84044C21.59 5.83244 21.6137 5.71623 21.788 5.65043C21.9611 5.55974 22.2574 5.49015 22.6566 5.44639C23.0559 5.40264 23.5487 5.38573 24.1017 5.39685C25.7321 5.40593 27.2637 5.37188 28.6694 5.29532L28.4174 5.26412C29.8825 5.33133 31.2522 5.33948 32.4598 5.28818C33.67 5.22359 35.2232 5.26502 36.5086 5.22564C37.555 5.23468 38.3517 5.14529 38.7296 4.97646C39.0956 4.81526 40.4255 4.85288 41.444 4.8837C42.0473 4.90363 42.6304 4.91208 43.187 4.90894C43.9341 4.87245 44.8683 4.90685 45.8337 5.00638C46.1234 5.03698 46.4088 5.05317 46.6623 5.0534C49.1166 5.09524 51.5664 5.14447 53.9875 5.16631C54.5464 5.15373 55.2017 5.18253 55.8765 5.24934C56.1601 5.27834 56.4362 5.29036 56.6675 5.28376C60.4931 5.21742 64.81 5.38669 68.5604 5.29514C69.0149 5.27352 69.5182 5.26903 70.0558 5.28177C71.264 5.33555 72.3131 5.30094 73.044 5.18321C73.4384 5.12059 73.9439 5.08608 74.5285 5.08189C75.113 5.0777 75.7637 5.10391 76.4391 5.15886C77.5629 5.23162 78.6016 5.23951 79.4454 5.1817C81.0908 5.12829 82.8212 5.10633 84.6229 5.11599C85.175 5.12533 85.6602 5.10458 86.0412 5.05533C86.4221 5.00608 86.6884 4.92967 86.8195 4.832C86.377 4.66599 85.8932 4.64578 85.4338 4.66038C83.6533 4.62255 81.8771 4.57732 80.1297 4.55949C78.5658 4.50857 77.0651 4.493 75.6498 4.51302C74.9471 4.5356 74.0702 4.48411 73.2106 4.36978C72.157 4.22498 71.0719 4.15304 70.1746 4.16852C69.5094 4.17236 68.8071 4.15989 68.0781 4.13128C67.6116 4.09679 67.1333 4.03755 66.6925 3.95966C66.5175 3.92583 66.3271 3.89739 66.1334 3.87615C65.9397 3.85491 65.7471 3.84135 65.5677 3.83632C65.3883 3.8313 65.226 3.83491 65.0914 3.84694C64.9568 3.85898 64.8528 3.87918 64.786 3.90624C64.111 4.13243 62.6018 4.017 61.3094 3.99198C59.3728 3.60913 57.9314 3.83573 56.1213 3.6195C55.9782 3.60516 55.8371 3.59647 55.7069 3.594C55.5766 3.59152 55.4598 3.5953 55.3636 3.60508C51.8608 3.73523 47.7783 3.62676 44.1006 3.67171C43.695 3.67828 43.2242 3.65575 42.7418 3.60669C39.5891 3.28195 36.5578 3.18975 34.2407 3.34814C33.9588 3.3624 33.6381 3.36301 33.2931 3.34993C31.7089 3.22087 30.1939 3.16941 28.8746 3.19986C26.807 3.19002 24.819 3.19799 22.7182 3.16816C21.2701 3.12571 19.9996 3.17107 19.0342 3.2997C19.0035 3.3515 18.3605 3.29568 17.8678 3.29028C17.5845 3.15986 17.3389 3.04207 17.0468 2.92646C16.7857 2.78343 16.3946 2.6387 15.9001 2.50207C15.4056 2.36545 14.8193 2.24013 14.1807 2.13459C13.0889 1.99937 12.9797 1.80315 13.7437 1.73095C15.7128 1.49211 18.1889 1.39436 20.9899 1.44486C23.3314 1.4489 25.715 1.45814 28.0897 1.48218C29.4747 1.50281 30.9349 1.54861 32.2824 1.55663C32.7371 1.57426 33.2042 1.60023 33.6788 1.63427C34.2612 1.68362 34.8266 1.71051 35.3447 1.71349C37.0082 1.67193 38.8647 1.70814 40.8256 1.82039C41.5438 1.84487 42.2335 1.85311 42.8843 1.84501C44.4241 1.81455 46.0934 1.83697 47.848 1.91169C48.9386 1.95382 49.996 1.97586 51.0094 1.97755C51.3672 1.98216 51.6587 1.94676 52.0034 1.97357C55.0375 2.25402 57.1859 2.05145 59.9166 2.1593C61.2437 2.18937 62.5117 2.18945 63.7026 2.15955C66.0268 2.161 68.4158 2.19175 70.86 2.25167C74.0921 2.35012 77.0872 2.31596 80.1732 2.35661C80.7825 2.36515 81.3708 2.3637 81.9338 2.35225C84.6725 2.27659 87.6471 2.29264 90.7851 2.39999C91.4977 2.4155 92.1376 2.39653 92.665 2.3443C93.1923 2.29206 93.5957 2.20767 93.8497 2.09641C93.9572 2.02006 93.8876 1.92088 93.6542 1.81801C93.2669 1.68664 92.8295 1.55792 92.3493 1.43398L74.8814 1.01808C74.1478 0.99636 73.4323 0.984668 72.7387 0.98305C70.6986 0.979437 68.5958 0.947082 66.4406 0.886149C64.311 0.828916 62.2765 0.839075 60.2133 0.821844C59.6056 0.816069 58.9818 0.80245 58.3445 0.781021C54.0365 0.61143 49.8359 0.507841 45.772 0.471007C44.0623 0.465782 42.2153 0.387948 40.4724 0.362719C38.7294 0.337489 36.3459 0.328254 34.2783 0.31842L27.8769 0.31993C26.6178 0.314913 25.3919 0.32989 24.1704 0.33747C22.6881 -0.203574 22.1773 -0.330389 20.1992 -0.567429C19.5225 -0.654864 18.8342 -0.707048 18.215 -0.717858C16.2515 -0.675086 13.7877 -0.85313 11.9257 -0.82956C10.8021 -0.841187 9.84873 -0.781083 9.16311 -0.655398C8.56794 -0.556761 7.88735 -0.47871 7.13185 -0.422428C5.06229 -0.885276 4.8799 -1.18589 6.43669 -1.30286C6.85847 -1.33006 7.43945 -1.32165 7.74403 -1.37924C7.9188 -1.41432 8.15754 -1.43438 8.44124 -1.43785C8.72493 -1.44132 9.04574 -1.4281 9.37849 -1.39923C10.4287 -1.32348 11.413 -1.30567 12.2327 -1.34758C13.0041 -1.40304 13.9497 -1.40083 14.9784 -1.34114C15.7342 -1.24752 16.3986 -1.37971 17.0523 -1.4179C17.7059 -1.45609 18.2424 -1.5247 19.2633 -1.42208C19.4503 -1.40165 19.6359 -1.38938 19.8059 -1.38622C19.976 -1.38306 20.1259 -1.3891 20.2442 -1.40386C21.3407 -1.46995 22.6493 -1.46301 24.0635 -1.3836C26.2326 -1.30545 28.2678 -1.30252 30.0983 -1.37491C31.1942 -1.43824 32.1285 -1.55056 32.8647 -1.70747C33.0654 -1.75995 33.3634 -1.79142 33.7302 -1.79887C35.572 -1.76612 37.5719 -1.6429 39.6009 -1.43716C40.3653 -1.35471 41.1286 -1.28951 41.8747 -1.24291C43.4081 -1.13941 44.8912 -1.08142 46.2801 -1.07064C48.2982 -1.06893 50.3994 -1.02911 52.565 -0.951537C53.9015 -0.908342 55.1893 -0.8924 56.4131 -0.903883C57.671 -0.909294 59.014 -0.876346 60.4118 -0.805805C61.8018 -0.748319 63.0267 -0.78144 63.9389 -0.901159C64.2393 -0.965673 64.4813 -1.04228 64.6603 -1.12955C62.6251 -1.41354 60.5202 -1.55786 58.7695 -1.53347C58.1045 -1.55228 57.5524 -1.53329 56.8517 -1.6439L56.8297 -1.6069C56.6903 -1.58289 56.4799 -1.57723 56.2387 -1.59099C55.9975 -1.60475 55.7423 -1.63697 55.5218 -1.68152C55.6051 -1.82212 55.684 -1.95533 55.7411 -2.05153C57.075 -2.03456 58.3701 -2.03593 59.62 -2.05566C60.6735 -2.08405 62.1037 -1.83542 63.0156 -1.92901C64.7943 -1.81198 65.9268 -1.97357 67.5218 -1.92694C69.1169 -1.88031 70.8736 -1.72628 72.4687 -1.67965C73.8605 -1.65406 75.212 -1.6485 76.5155 -1.66299C76.9654 -1.68333 77.4841 -1.67856 78.0397 -1.64897C78.8207 -1.5933 79.5472 -1.58397 80.1358 -1.62206C80.7244 -1.66015 81.1512 -1.74412 81.3676 -1.86433C81.1639 -1.97694 80.8894 -2.12214 80.5729 -2.27255C81.1552 -2.39614 82.0395 -2.44818 83.0947 -2.42092L84.5858 -2.42689C84.9809 -2.42363 85.2829 -2.45704 85.4294 -2.52022C85.576 -2.58339 85.5558 -2.67148 85.3729 -2.76629C82.5457 -3.24355 82.4415 -3.29616 80.3665 -2.98919L77.6113 -3.13184L77.6577 -3.13403ZM114.924 -1.823L114.714 -1.849L114.924 -1.823ZM458.272 48.9548L458.223 49.0362L458.276 48.9474L458.738 49.0046L458.768 48.9528L458.272 48.9548ZM391.206 13.2756C390.553 13.1868 389.894 13.1052 389.233 13.0312C389.059 13.0197 388.897 13.0171 388.76 13.0236C388.623 13.0301 388.514 13.0456 388.444 13.0686C388.392 13.1574 388.761 13.219 389.097 13.2606C389.52 13.3166 389.953 13.3522 390.35 13.3637C390.748 13.3752 391.095 13.3622 391.357 13.326L391.736 13.2936L391.206 13.2756ZM54.925 34.9192C55.3548 34.9342 55.7624 34.9366 56.1378 34.9264C57.803 34.8547 59.3973 34.7503 61.1045 34.6837C63.2585 34.5147 65.7338 34.4459 68.4373 34.4798C69.4935 34.4964 70.3858 34.4416 71.0101 34.3219C71.3838 34.2576 71.8661 34.22 72.4276 34.2115L79.5749 34.0164C80.0167 33.9759 80.3986 33.9191 80.7118 33.8474C80.0819 33.7694 79.662 33.7174 79.41 33.6862C78.8873 33.6774 78.438 33.7012 78.1071 33.7551C77.7517 33.8466 77.151 33.8828 76.4243 33.8565C75.6906 33.8348 74.9752 33.8231 74.2815 33.8215C72.9717 33.8261 71.6529 33.8454 70.3386 33.8574C69.8273 34.1118 68.3181 33.9964 67.0257 33.9714L66.0274 33.9828C62.7639 34.1146 59.6465 34.2961 56.6904 34.5262C56.119 34.5652 55.6268 34.6273 55.2289 34.7106C55.079 34.7756 55.031 34.8567 55.0886 34.9474L54.8787 34.9214L54.925 34.9192ZM200.658 59.244C201.45 59.2613 202.274 59.2969 203.119 59.3502C203.77 59.4047 204.406 59.4377 205 59.4481C208.328 59.5051 211.797 59.6368 215.359 59.8414C215.825 59.8724 216.272 59.8876 216.685 59.8865L219.6 59.8345C220.519 59.8053 220.536 59.7757 219.868 59.3831C219.313 59.3069 218.751 59.2374 218.188 59.175C217.852 59.1334 217.306 59.0658 217.178 59.1294C216.399 59.303 214.979 59.1906 213.783 59.1538C210.324 59.0589 206.756 58.9189 203.263 58.804C202.524 58.7759 201.809 58.7617 201.124 58.7616C200.7 58.7557 200.312 58.7668 199.978 58.7944C199.881 58.7972 199.799 58.8054 199.739 58.8185C199.678 58.8315 199.64 58.8491 199.628 58.8701C199.616 58.8911 199.629 58.915 199.666 58.9402C199.704 58.9655 199.765 58.9914 199.847 59.0164C200.132 59.1038 200.463 59.1875 200.826 59.2648L200.658 59.244ZM226.002 2.25927L229.41 2.21272C229.818 2.20772 230.165 2.15533 230.602 2.17774C232.936 2.24875 235.097 2.22897 236.993 2.11923C237.638 2.07445 238.393 2.0655 239.217 2.09286C241.738 2.17396 244.117 2.1773 246.288 2.10278C247.691 2.08783 249.004 2.0376 250.208 1.95284C250.301 1.93316 250.358 1.90645 250.377 1.87452C250.396 1.8426 250.376 1.80621 250.318 1.76783C250.302 1.74359 250.261 1.71751 250.197 1.69139C250.132 1.66528 250.046 1.63973 249.944 1.61654C249.842 1.59335 249.727 1.57305 249.606 1.55704C249.486 1.54103 249.362 1.52968 249.245 1.52379C247.724 1.40907 246.281 1.3691 245.032 1.40714C243.875 1.45264 242.628 1.46596 241.313 1.44688C240.053 1.44186 239.199 1.59025 237.644 1.47702C236.986 1.43974 236.405 1.45201 236 1.51179C235.185 1.61088 234.048 1.61639 232.791 1.52734C232.039 1.48228 231.32 1.46295 230.661 1.4701C229.064 1.50268 227.538 1.56786 226.058 1.63084C225.592 1.64541 225.093 1.64742 224.568 1.63682L217.158 1.5135C215.378 1.47567 213.601 1.43044 211.854 1.41261C210.425 1.3739 209.095 1.38603 207.911 1.44856C206.649 1.51428 205.273 1.54096 203.808 1.5281C201.533 1.56406 199.271 1.57782 196.794 1.57298C195.215 1.57596 193.598 1.56634 191.948 1.53671C191.113 1.49858 190.404 1.52964 189.958 1.62389C189.687 1.70149 189.048 1.63827 188.518 1.62026C185.69 1.44669 183.037 1.40556 180.746 1.49974C180.454 1.51509 180.133 1.52065 179.79 1.51632C177.583 1.51308 175.297 1.49205 173.178 1.49181C172.621 1.49913 172.096 1.51921 171.61 1.5518C171.662 1.60496 171.811 1.66258 172.024 1.71271C172.238 1.76284 172.501 1.80163 172.758 1.82103C174.761 1.96955 176.696 2.04801 178.48 2.05312C181.45 2.0342 184.561 2.07673 187.78 2.18027C190.278 2.28466 192.556 2.26268 194.444 2.11598C195.92 2.00651 197.84 2.0477 199.874 2.23246C200.745 2.32071 201.59 2.35599 202.294 2.3335C202.971 2.30399 203.748 2.31115 204.58 2.35454C206.333 2.43706 208.02 2.47534 209.606 2.46863C211.156 2.43825 212.603 2.35527 214.195 2.33009C215.788 2.30491 218.213 2.31934 220.177 2.27657C222.14 2.2338 224.082 2.22803 226.002 2.25927ZM84.7795 -2.06928C84.9594 -1.84047 85.5963 -1.69805 86.2813 -1.63703C88.6431 -1.36612 90.9779 -1.25083 92.894 -1.31053C93.929 -1.39379 95.3087 -1.36174 96.7622 -1.22067C98.4546 -1.07402 100.036 -1.0497 101.229 -1.15199C101.521 -1.16987 101.745 -1.20765 101.88 -1.26199C101.906 -1.30639 101.955 -1.38779 101.963 -1.40259C101.838 -1.44013 101.684 -1.4749 101.514 -1.50424C101.344 -1.53358 101.162 -1.5567 100.982 -1.57181L93.1591 -1.83373L91.7958 -1.89137C89.3058 -2.04238 86.9331 -2.10253 84.7795 -2.06928ZM100.167 1.5523C101.388 1.92593 101.392 1.91852 102.018 2.00393C105.036 2.35871 108.051 2.55022 110.706 2.55568C111.296 2.5546 111.797 2.51854 112.166 2.45052C112.355 2.4413 112.476 2.41201 112.502 2.36904C112.527 2.32606 112.455 2.27289 112.301 2.22111L111.331 1.95789C109.567 1.84393 107.83 1.75339 106.127 1.6868C104.146 1.60816 102.39 1.60513 100.335 1.57309L100.167 1.5523ZM200.512 57.5895C201.649 58.1038 201.654 58.0964 203.559 58.229C204.886 58.323 206.173 58.3781 207.383 58.3928C208.861 58.4091 210.376 58.4379 211.85 58.4615C212.209 58.4779 212.514 58.4643 212.705 58.4234C212.896 58.3824 212.959 58.317 212.883 58.2399C212.689 58.1563 212.387 58.0753 212.024 58.0102C211.662 57.9451 211.261 57.8998 210.886 57.8815L210.082 57.8693C209.106 57.8437 208.092 57.8054 207.148 57.7998C206.536 57.8211 205.827 57.8047 205.077 57.7516C204.326 57.6986 203.554 57.6106 202.822 57.4943L200.512 57.5895ZM106.242 -1.39692C106.546 -1.30786 106.889 -1.22257 107.264 -1.1433C108.713 -0.923603 110.246 -0.798822 111.564 -0.793422C112.187 -0.779813 112.756 -0.828404 113.391 -0.757792C114.528 -0.663434 115.631 -0.613172 116.639 -0.609725C116.639 -0.609725 116.921 -0.630328 117.014 -0.634727L117.207 -0.960335C116.73 -1.03577 116.232 -1.09739 115.737 -1.14237C114.076 -1.229 112.443 -1.28822 110.815 -1.35485C109.187 -1.42148 108.619 -1.45208 107.554 -1.4807C107.079 -1.46497 106.64 -1.43691 106.242 -1.39692ZM70.262 39.0826L72.4362 39.7491C73.1398 39.807 73.7971 39.8175 74.3081 39.779C74.8192 39.7404 75.1558 39.655 75.2671 39.5357C75.4461 39.4799 75.4641 39.3972 75.317 39.3049C75.17 39.2126 74.8695 39.118 74.4786 39.0409C74.1023 38.9494 73.6727 38.8674 73.2165 38.8C72.7602 38.7326 72.287 38.6811 71.8262 38.6488L70.262 39.0826ZM88.3651 35.7644C86.943 35.6514 85.5828 35.6052 84.3885 35.6293C83.636 35.6954 82.6164 35.6743 81.5388 35.5703C79.579 35.3629 77.6898 35.3055 76.2698 35.4102C76.2698 35.4102 76.2171 35.499 75.9764 35.5248C75.7358 35.5506 76.6903 35.6132 76.9003 35.6392C78.4402 35.7028 79.9888 35.7516 81.3275 35.7745C82.1587 35.7735 83.0378 35.7945 83.9498 35.8371C85.2046 35.9028 86.3946 35.9241 87.4733 35.9002C87.4733 35.9002 87.8907 35.8804 88.3607 35.7718L88.3651 35.7644ZM240.24 1.05184C239.56 0.926326 238.824 0.824315 238.085 0.753468C237.346 0.682619 236.625 0.644775 235.974 0.64276C235.476 0.63621 235.074 0.669351 234.829 0.736938C234.585 0.804526 234.514 0.902707 234.626 1.01595C235.13 1.07836 235.802 1.16157 236.18 1.20838C237.49 1.2038 238.608 1.14362 240.24 1.05184ZM367.391 11.6288C366.846 11.5278 366.246 11.4505 365.659 11.4059C365.072 11.3612 364.521 11.351 364.07 11.3763C363.838 11.3873 363.996 11.5022 363.956 11.5688C363.931 11.5839 363.931 11.6026 363.957 11.6231C363.984 11.6436 364.035 11.6651 364.106 11.6852C364.177 11.7054 364.265 11.7235 364.361 11.7377C364.457 11.7519 364.557 11.7617 364.651 11.766C365.242 11.8095 365.8 11.8224 366.275 11.8037C366.75 11.7849 367.128 11.735 367.374 11.6584L367.391 11.6288ZM375.911 13.0732C375.826 13.0136 375.647 12.9514 375.405 12.8982C375.164 12.8449 374.876 12.8041 374.595 12.7832C374.099 12.7803 373.648 12.7969 373.259 12.8321C372.837 12.8593 373.141 13.0319 373.711 13.1344C373.953 13.1755 374.211 13.2075 374.465 13.228C374.719 13.2485 374.962 13.2568 375.175 13.2523C375.387 13.2478 375.564 13.2306 375.69 13.2021C375.816 13.1735 375.889 13.1345 375.902 13.088L375.911 13.0732ZM128.358 -0.762756C127.087 -0.975785 126.109 -0.922192 125.033 -1.00781C123.957 -1.09343 123.692 -1.10244 123.836 -0.965434C123.98 -0.828425 124.718 -0.856213 125.18 -0.799003C125.804 -0.723089 126.432 -0.679501 126.993 -0.673098C127.554 -0.666697 128.027 -0.697739 128.358 -0.762756ZM393.219 35.2819C392.546 35.2341 391.886 35.2003 391.251 35.181C391.167 35.2009 391.114 35.2268 391.096 35.2573C391.078 35.2878 391.095 35.3222 391.145 35.3587C391.145 35.3587 391.576 35.4677 391.828 35.4989C392.757 35.6059 392.802 35.4527 393.219 35.2819ZM488.373 55.1295C488.828 55.2733 489.041 55.3711 489.406 55.4401C489.573 55.4641 489.746 55.4815 489.913 55.491C490.078 55.5006 490.233 55.502 490.365 55.4953C490.525 55.4539 490.562 55.3905 490.47 55.3177C490.47 55.3177 490.006 55.1887 489.829 55.1827C489.325 55.1522 488.836 55.1344 488.373 55.1295ZM106.723 -1.98073C105.758 -2.10035 104.834 -2.21478 104.165 -2.07518C105.699 -1.92496 105.699 -1.92495 106.723 -1.98073ZM122.366 -0.615244C121.391 -0.871069 120.819 -0.894283 120.351 -0.864889C120.251 -0.857485 120.185 -0.840984 120.163 -0.817892C120.141 -0.794799 120.163 -0.766367 120.227 -0.736898C120.291 -0.707426 120.393 -0.678524 120.518 -0.654558C120.642 -0.630593 120.783 -0.612867 120.917 -0.604068C121.426 -0.596705 121.911 -0.600443 122.366 -0.615244ZM172.56 -0.507066C172.582 -0.544066 172.608 -0.588467 172.356 -0.619672C172.29 -0.635515 172.213 -0.649135 172.132 -0.659177C172.051 -0.66922 171.969 -0.675322 171.895 -0.676873C171.895 -0.676873 171.868 -0.632471 171.851 -0.60287L172.56 -0.507066ZM207.416 60.9229L206.855 60.9567L207.107 60.9879L207.772 61.0067L207.416 60.9229ZM404.92 12.4958C404.71 12.4698 404.5 12.4438 404.47 12.4956C404.425 12.5036 404.398 12.5152 404.39 12.5294C404.381 12.5435 404.392 12.5599 404.421 12.577C404.421 12.577 404.715 12.6134 404.841 12.629L404.92 12.4958ZM372.221 12.9101C372.083 12.9072 371.958 12.9106 371.855 12.9203L371.828 12.9647L372.248 13.0167L372.221 12.9101ZM87.2561 23.4895C87.0939 23.4625 86.922 23.4412 86.7522 23.4271L86.5422 23.4011C86.5422 23.4011 86.7678 23.4767 86.8938 23.4923C87.0197 23.5079 87.1213 23.4887 87.2561 23.4895Z" fill="#DF6951"/>
</g>
</svg>
