<svg width="130" height="337" viewBox="0 0 130 337" fill="none" xmlns="http://www.w3.org/2000/svg">
<path d="M11.8002 18.3985C21.1467 7.07061 44.78 -10.346 64.5412 10.6106C84.3023 31.5671 57.6425 70.7899 41.8425 87.7817C34.0537 92.5016 17.8086 100.526 15.1382 94.8616C11.8002 87.7817 9.79734 72.9139 37.1692 60.17C54.7496 52.6181 92.7142 44.5942 103.93 72.9139C109.048 85.1857 109.938 113.694 72.5524 129.553L25.8199 150.085M25.8199 150.085C8.01705 150.798 -17.5746 142.31 22.4819 102.649C35.1664 96.5136 65.8764 84.1001 87.2399 83.5337C99.4793 86.1297 123.024 98.9679 119.285 129.553C119.73 135.689 111.407 150.935 74.5553 162.829C66.099 164.717 47.1834 168.634 39.1721 169.201L10.465 173.449L25.8199 150.085ZM25.8199 150.085C37.5017 146.781 65.072 141.164 81.899 145.129C102.933 150.085 111.274 145.837 127.964 173.449C130.857 187.608 128.765 216.636 97.254 219.468C65.7429 222.3 45.4031 216.872 39.1721 213.804V187.608M39.1721 187.608C62.0933 189.732 111.274 188.175 124.626 164.953C131.079 148.433 131.569 114.685 81.899 111.853C69.8821 112.325 44.246 113.836 37.8369 116.101L39.1721 166.369C62.5384 168.493 111.674 178.546 121.288 201.768C126.406 215.22 128.097 243.54 93.9159 249.204C81.2314 249.676 52.5243 247.929 39.1721 237.168M39.1721 187.608V237.168M39.1721 187.608C53.637 191.148 85.5041 200.919 97.254 211.68C111.496 223.48 132.37 252.744 101.927 275.399C92.3581 278.939 66.9445 281.771 41.8425 264.78M39.1721 237.168L41.8425 264.78M39.1721 237.168C55.1947 248.496 87.9075 275.966 90.5779 295.223C91.6906 307.023 88.7087 331.614 67.8793 335.579C62.5384 336.523 49.3198 336.428 39.1721 328.499L41.8425 264.78" stroke="#84829A" stroke-width="1.33012"/>
</svg>
