<svg width="143" height="48" viewBox="0 0 143 48" fill="none" xmlns="http://www.w3.org/2000/svg">
<rect y="0.463379" width="142.323" height="46.5543" rx="23.2771" fill="#080809"/>
<g clip-path="url(#clip0_181_2059)">
<path d="M37.919 23.0768L24.5599 35.9407C23.9343 35.5132 23.5629 34.802 23.5694 34.0444V12.1092C23.5629 11.3516 23.9343 10.6404 24.5599 10.2129L37.919 23.0768Z" fill="#2196F3"/>
<path d="M42.5932 18.5847L37.9187 23.078L24.5596 10.2141C24.6099 10.1751 24.6623 10.1388 24.7166 10.1054C25.4226 9.67742 26.3045 9.66361 27.0236 10.0691L42.5932 18.5847Z" fill="#4CAF50"/>
<path d="M48.2584 23.0792C48.2671 23.9346 47.8023 24.7247 47.0505 25.1327L42.5934 27.5726L37.9189 23.0792L42.5934 18.5859L47.0505 21.0258C47.8023 21.4338 48.2671 22.2239 48.2584 23.0792Z" fill="#F0BB1F"/>
<path d="M42.5932 27.5714L27.0236 36.087C26.3029 36.4862 25.4244 36.4724 24.7166 36.0508C24.6623 36.0173 24.6099 35.9811 24.5596 35.942L37.9187 23.0781L42.5932 27.5714Z" fill="#F15A2B"/>
</g>
<path d="M63.878 16.2651H60.143V17.7548H62.1329C61.8668 18.4677 61.2178 18.904 60.2281 18.904C58.781 18.904 57.8871 17.9783 57.8871 16.712C57.8871 15.4031 58.8235 14.4774 60.0792 14.4774C60.9198 14.4774 61.5902 14.8605 61.8988 15.3499L63.3459 14.5199C62.7181 13.5197 61.5157 12.8174 60.0898 12.8174C57.8978 12.8174 56.1846 14.5412 56.1846 16.7013C56.1846 18.8402 57.8658 20.564 60.2069 20.564C62.2925 20.564 63.878 19.1807 63.878 16.9035V16.2651Z" fill="white"/>
<path d="M66.0083 18.7763V17.4568H68.6686V15.8394H66.0083V14.6051H68.9346V12.9664H64.3058V20.415H68.9878V18.7763H66.0083Z" fill="white"/>
<path d="M74.4176 12.9664H68.8843V14.6051H70.7997V20.415H72.5023V14.6051H74.4176V12.9664Z" fill="white"/>
<path d="M76.7591 12.9664V20.415H78.4616V12.9664H76.7591Z" fill="white"/>
<path d="M84.2106 12.9664H78.6773V14.6051H80.5927V20.415H82.2953V14.6051H84.2106V12.9664Z" fill="white"/>
<path d="M90.1062 20.564C92.245 20.564 93.9795 18.8827 93.9795 16.6907C93.9795 14.4987 92.245 12.8174 90.1062 12.8174C87.9673 12.8174 86.2328 14.4987 86.2328 16.6907C86.2328 18.8827 87.9673 20.564 90.1062 20.564ZM90.1062 18.904C88.8931 18.904 87.9354 18.0208 87.9354 16.6907C87.9354 15.3606 88.8931 14.4774 90.1062 14.4774C91.3192 14.4774 92.2769 15.3606 92.2769 16.6907C92.2769 18.0208 91.3192 18.904 90.1062 18.904Z" fill="white"/>
<path d="M98.556 12.9664V17.0099L95.6829 12.9664H94.406V20.415H96.1086V16.3715L98.9816 20.415H100.259V12.9664H98.556Z" fill="white"/>
<path d="M63.878 28.9172V29.2045C63.878 30.1338 63.5481 30.9177 62.8884 31.5561C62.2286 32.1875 61.3596 32.5032 60.2813 32.5032C59.1463 32.5032 58.2099 32.1343 57.4721 31.3965C56.7344 30.6517 56.3655 29.7401 56.3655 28.6618C56.3655 27.5835 56.7308 26.6755 57.4615 25.9377C58.1922 25.1928 59.1179 24.8204 60.2388 24.8204C60.9198 24.8204 61.5441 24.9836 62.1116 25.3099C62.6862 25.6362 63.1296 26.0725 63.4417 26.6187L62.9416 26.9167C62.6933 26.4485 62.3244 26.0725 61.8349 25.7887C61.3525 25.505 60.8205 25.3631 60.2388 25.3631C59.274 25.3631 58.4795 25.6823 57.8552 26.3208C57.238 26.9521 56.9294 27.7325 56.9294 28.6618C56.9294 29.5911 57.2416 30.375 57.8658 31.0134C58.4901 31.6448 59.2953 31.9605 60.2813 31.9605C61.1539 31.9605 61.8598 31.7228 62.3989 31.2475C62.938 30.7723 63.2395 30.1728 63.3034 29.4492H60.143V28.9172H63.878Z" fill="white"/>
<path d="M71.4313 31.3859C70.6864 32.1307 69.7784 32.5032 68.7072 32.5032C67.636 32.5032 66.7279 32.1307 65.9831 31.3859C65.2382 30.6339 64.8658 29.7259 64.8658 28.6618C64.8658 27.5977 65.2382 26.6932 65.9831 25.9483C66.7279 25.1964 67.636 24.8204 68.7072 24.8204C69.7784 24.8204 70.6864 25.1964 71.4313 25.9483C72.1761 26.6932 72.5486 27.5977 72.5486 28.6618C72.5486 29.7259 72.1761 30.6339 71.4313 31.3859ZM66.3768 31.0028C67.0153 31.6413 67.792 31.9605 68.7072 31.9605C69.6223 31.9605 70.3955 31.6413 71.0269 31.0028C71.6654 30.3573 71.9846 29.5769 71.9846 28.6618C71.9846 27.7467 71.6654 26.9699 71.0269 26.3314C70.3955 25.6859 69.6223 25.3631 68.7072 25.3631C67.792 25.3631 67.0153 25.6859 66.3768 26.3314C65.7454 26.9699 65.4297 27.7467 65.4297 28.6618C65.4297 29.5769 65.7454 30.3573 66.3768 31.0028Z" fill="white"/>
<path d="M80.1186 31.3859C79.3737 32.1307 78.4657 32.5032 77.3945 32.5032C76.3233 32.5032 75.4153 32.1307 74.6704 31.3859C73.9256 30.6339 73.5531 29.7259 73.5531 28.6618C73.5531 27.5977 73.9256 26.6932 74.6704 25.9483C75.4153 25.1964 76.3233 24.8204 77.3945 24.8204C78.4657 24.8204 79.3737 25.1964 80.1186 25.9483C80.8635 26.6932 81.2359 27.5977 81.2359 28.6618C81.2359 29.7259 80.8635 30.6339 80.1186 31.3859ZM75.0641 31.0028C75.7026 31.6413 76.4794 31.9605 77.3945 31.9605C78.3096 31.9605 79.0829 31.6413 79.7143 31.0028C80.3527 30.3573 80.6719 29.5769 80.6719 28.6618C80.6719 27.7467 80.3527 26.9699 79.7143 26.3314C79.0829 25.6859 78.3096 25.3631 77.3945 25.3631C76.4794 25.3631 75.7026 25.6859 75.0641 26.3314C74.4328 26.9699 74.1171 27.7467 74.1171 28.6618C74.1171 29.5769 74.4328 30.3573 75.0641 31.0028Z" fill="white"/>
<path d="M89.753 28.9172V29.2045C89.753 30.1338 89.4231 30.9177 88.7634 31.5561C88.1037 32.1875 87.2346 32.5032 86.1564 32.5032C85.0213 32.5032 84.0849 32.1343 83.3471 31.3965C82.6094 30.6517 82.2405 29.7401 82.2405 28.6618C82.2405 27.5835 82.6058 26.6755 83.3365 25.9377C84.0672 25.1928 84.993 24.8204 86.1138 24.8204C86.7948 24.8204 87.4191 24.9836 87.9866 25.3099C88.5612 25.6362 89.0046 26.0725 89.3167 26.6187L88.8166 26.9167C88.5683 26.4485 88.1994 26.0725 87.7099 25.7887C87.2276 25.505 86.6955 25.3631 86.1138 25.3631C85.149 25.3631 84.3545 25.6823 83.7302 26.3208C83.113 26.9521 82.8045 27.7325 82.8045 28.6618C82.8045 29.5911 83.1166 30.375 83.7409 31.0134C84.3651 31.6448 85.1703 31.9605 86.1564 31.9605C87.0289 31.9605 87.7348 31.7228 88.2739 31.2475C88.8131 30.7723 89.1146 30.1728 89.1784 29.4492H86.018V28.9172H89.753Z" fill="white"/>
<path d="M91.7304 31.8541H95.2419V32.3861H91.1664V24.9375H91.7304V31.8541Z" fill="white"/>
<path d="M96.9781 31.8541H100.702V32.3861H96.4142V24.9375H100.649V25.4695H96.9781V28.3638H100.383V28.8959H96.9781V31.8541Z" fill="white"/>
<path d="M107.457 24.9375C108.124 24.9375 108.678 25.1574 109.117 25.5972C109.557 26.037 109.777 26.5868 109.777 27.2465C109.777 27.9063 109.557 28.4561 109.117 28.8959C108.678 29.3286 108.124 29.545 107.457 29.545H105.489V32.3861H104.925V24.9375H107.457ZM107.457 29.0129C107.968 29.0129 108.387 28.8462 108.713 28.5128C109.046 28.1794 109.213 27.7573 109.213 27.2465C109.213 26.7287 109.046 26.303 108.713 25.9696C108.387 25.6362 107.968 25.4695 107.457 25.4695H105.489V29.0129H107.457Z" fill="white"/>
<path d="M111.734 31.8541H115.246V32.3861H111.17V24.9375H111.734V31.8541Z" fill="white"/>
<path d="M121.638 32.3861L120.914 30.492H117.179L116.456 32.3861H115.86L118.754 24.9375H119.35L122.234 32.3861H121.638ZM117.392 29.96H120.712L119.052 25.6291L117.392 29.96Z" fill="white"/>
<path d="M127.533 24.9375L124.82 29.3215V32.3861H124.256V29.3215L121.543 24.9375H122.181L124.543 28.7788L126.895 24.9375H127.533Z" fill="white"/>
<defs>
<clipPath id="clip0_181_2059">
<rect width="26.6024" height="26.6024" fill="white" transform="translate(22.6123 9.77441)"/>
</clipPath>
</defs>
</svg>
