<svg width="143" height="48" viewBox="0 0 143 48" fill="none" xmlns="http://www.w3.org/2000/svg">
<rect y="0.973633" width="142.323" height="46.5543" rx="23.2771" fill="#080809"/>
<g clip-path="url(#clip0_42_760)">
<path d="M37.918 23.5871L24.5589 36.451C23.9333 36.0234 23.5619 35.3123 23.5684 34.5546V12.6195C23.5619 11.8618 23.9333 11.1507 24.5589 10.7231L37.918 23.5871Z" fill="#2196F3"/>
<path d="M42.5922 19.0949L37.9177 23.5882L24.5586 10.7243C24.6089 10.6853 24.6614 10.649 24.7156 10.6156C25.4216 10.1877 26.3035 10.1739 27.0227 10.5794L42.5922 19.0949Z" fill="#4CAF50"/>
<path d="M48.2574 23.5895C48.2661 24.4449 47.8013 25.2349 47.0495 25.6429L42.5925 28.0828L37.918 23.5895L42.5925 19.0962L47.0495 21.5361C47.8013 21.9441 48.2661 22.7342 48.2574 23.5895Z" fill="#F0BB1F"/>
<path d="M42.5922 28.0817L27.0227 36.5972C26.302 36.9965 25.4234 36.9826 24.7156 36.561C24.6614 36.5276 24.6089 36.4913 24.5586 36.4523L37.9178 23.5884L42.5922 28.0817Z" fill="#F15A2B"/>
</g>
<path d="M63.877 16.7753H60.142V18.265H62.1319C61.8659 18.978 61.2168 19.4143 60.2272 19.4143C58.78 19.4143 57.8861 18.4885 57.8861 17.2222C57.8861 15.9134 58.8226 14.9876 60.0782 14.9876C60.9188 14.9876 61.5892 15.3707 61.8978 15.8602L63.345 15.0302C62.7172 14.0299 61.5147 13.3276 60.0888 13.3276C57.8968 13.3276 56.1836 15.0515 56.1836 17.2116C56.1836 19.3504 57.8649 21.0743 60.2059 21.0743C62.2915 21.0743 63.877 19.6909 63.877 17.4138V16.7753Z" fill="white"/>
<path d="M66.0074 19.2866V17.9671H68.6676V16.3497H66.0074V15.1153H68.9336V13.4766H64.3048V20.9253H68.9868V19.2866H66.0074Z" fill="white"/>
<path d="M74.4167 13.4766H68.8833V15.1153H70.7987V20.9253H72.5013V15.1153H74.4167V13.4766Z" fill="white"/>
<path d="M76.7581 13.4766V20.9253H78.4606V13.4766H76.7581Z" fill="white"/>
<path d="M84.2097 13.4766H78.6764V15.1153H80.5917V20.9253H82.2943V15.1153H84.2097V13.4766Z" fill="white"/>
<path d="M90.1052 21.0743C92.244 21.0743 93.9785 19.393 93.9785 17.201C93.9785 15.0089 92.244 13.3276 90.1052 13.3276C87.9664 13.3276 86.2319 15.0089 86.2319 17.201C86.2319 19.393 87.9664 21.0743 90.1052 21.0743ZM90.1052 19.4143C88.8921 19.4143 87.9344 18.5311 87.9344 17.201C87.9344 15.8708 88.8921 14.9876 90.1052 14.9876C91.3183 14.9876 92.2759 15.8708 92.2759 17.201C92.2759 18.5311 91.3183 19.4143 90.1052 19.4143Z" fill="white"/>
<path d="M98.555 13.4766V17.5202L95.682 13.4766H94.405V20.9253H96.1076V16.8817L98.9807 20.9253H100.258V13.4766H98.555Z" fill="white"/>
<path d="M63.877 29.4274V29.7147C63.877 30.644 63.5471 31.4279 62.8874 32.0664C62.2277 32.6978 61.3587 33.0134 60.2804 33.0134C59.1453 33.0134 58.2089 32.6446 57.4712 31.9068C56.7334 31.1619 56.3645 30.2503 56.3645 29.172C56.3645 28.0938 56.7298 27.1857 57.4605 26.448C58.1912 25.7031 59.117 25.3307 60.2378 25.3307C60.9188 25.3307 61.5431 25.4938 62.1106 25.8201C62.6852 26.1465 63.1286 26.5827 63.4407 27.129L62.9406 27.4269C62.6923 26.9587 62.3234 26.5827 61.834 26.299C61.3516 26.0152 60.8195 25.8733 60.2378 25.8733C59.273 25.8733 58.4785 26.1926 57.8542 26.831C57.2371 27.4624 56.9285 28.2427 56.9285 29.172C56.9285 30.1014 57.2406 30.8852 57.8649 31.5237C58.4891 32.1551 59.2943 32.4707 60.2804 32.4707C61.1529 32.4707 61.8588 32.2331 62.3979 31.7578C62.9371 31.2825 63.2386 30.6831 63.3024 29.9595H60.142V29.4274H63.877Z" fill="white"/>
<path d="M71.4303 31.8961C70.6854 32.641 69.7774 33.0134 68.7062 33.0134C67.635 33.0134 66.727 32.641 65.9821 31.8961C65.2372 31.1442 64.8648 30.2361 64.8648 29.172C64.8648 28.1079 65.2372 27.2035 65.9821 26.4586C66.727 25.7066 67.635 25.3307 68.7062 25.3307C69.7774 25.3307 70.6854 25.7066 71.4303 26.4586C72.1751 27.2035 72.5476 28.1079 72.5476 29.172C72.5476 30.2361 72.1751 31.1442 71.4303 31.8961ZM66.3758 31.5131C67.0143 32.1515 67.7911 32.4707 68.7062 32.4707C69.6213 32.4707 70.3946 32.1515 71.0259 31.5131C71.6644 30.8675 71.9836 30.0872 71.9836 29.172C71.9836 28.2569 71.6644 27.4801 71.0259 26.8417C70.3946 26.1961 69.6213 25.8733 68.7062 25.8733C67.7911 25.8733 67.0143 26.1961 66.3758 26.8417C65.7445 27.4801 65.4288 28.2569 65.4288 29.172C65.4288 30.0872 65.7445 30.8675 66.3758 31.5131Z" fill="white"/>
<path d="M80.1176 31.8961C79.3728 32.641 78.4647 33.0134 77.3935 33.0134C76.3224 33.0134 75.4143 32.641 74.6695 31.8961C73.9246 31.1442 73.5522 30.2361 73.5522 29.172C73.5522 28.1079 73.9246 27.2035 74.6695 26.4586C75.4143 25.7066 76.3224 25.3307 77.3935 25.3307C78.4647 25.3307 79.3728 25.7066 80.1176 26.4586C80.8625 27.2035 81.2349 28.1079 81.2349 29.172C81.2349 30.2361 80.8625 31.1442 80.1176 31.8961ZM75.0632 31.5131C75.7016 32.1515 76.4784 32.4707 77.3935 32.4707C78.3087 32.4707 79.0819 32.1515 79.7133 31.5131C80.3517 30.8675 80.671 30.0872 80.671 29.172C80.671 28.2569 80.3517 27.4801 79.7133 26.8417C79.0819 26.1961 78.3087 25.8733 77.3935 25.8733C76.4784 25.8733 75.7016 26.1961 75.0632 26.8417C74.4318 27.4801 74.1161 28.2569 74.1161 29.172C74.1161 30.0872 74.4318 30.8675 75.0632 31.5131Z" fill="white"/>
<path d="M89.752 29.4274V29.7147C89.752 30.644 89.4222 31.4279 88.7624 32.0664C88.1027 32.6978 87.2337 33.0134 86.1554 33.0134C85.0204 33.0134 84.0839 32.6446 83.3462 31.9068C82.6084 31.1619 82.2395 30.2503 82.2395 29.172C82.2395 28.0938 82.6048 27.1857 83.3355 26.448C84.0662 25.7031 84.992 25.3307 86.1128 25.3307C86.7938 25.3307 87.4181 25.4938 87.9856 25.8201C88.5602 26.1465 89.0036 26.5827 89.3158 27.129L88.8156 27.4269C88.5673 26.9587 88.1985 26.5827 87.709 26.299C87.2266 26.0152 86.6945 25.8733 86.1128 25.8733C85.148 25.8733 84.3535 26.1926 83.7292 26.831C83.1121 27.4624 82.8035 28.2427 82.8035 29.172C82.8035 30.1014 83.1156 30.8852 83.7399 31.5237C84.3642 32.1551 85.1693 32.4707 86.1554 32.4707C87.0279 32.4707 87.7338 32.2331 88.2729 31.7578C88.8121 31.2825 89.1136 30.6831 89.1774 29.9595H86.0171V29.4274H89.752Z" fill="white"/>
<path d="M91.7294 32.3643H95.241V32.8964H91.1655V25.4477H91.7294V32.3643Z" fill="white"/>
<path d="M96.9772 32.3643H100.702V32.8964H96.4132V25.4477H100.648V25.9798H96.9772V28.8741H100.382V29.4061H96.9772V32.3643Z" fill="white"/>
<path d="M107.456 25.4477C108.123 25.4477 108.677 25.6676 109.116 26.1074C109.556 26.5473 109.776 27.0971 109.776 27.7568C109.776 28.4165 109.556 28.9663 109.116 29.4061C108.677 29.8389 108.123 30.0552 107.456 30.0552H105.488V32.8964H104.924V25.4477H107.456ZM107.456 29.5232C107.967 29.5232 108.386 29.3565 108.712 29.0231C109.046 28.6897 109.212 28.2676 109.212 27.7568C109.212 27.2389 109.046 26.8133 108.712 26.4799C108.386 26.1465 107.967 25.9798 107.456 25.9798H105.488V29.5232H107.456Z" fill="white"/>
<path d="M111.733 32.3643H115.245V32.8964H111.169V25.4477H111.733V32.3643Z" fill="white"/>
<path d="M121.637 32.8964L120.913 31.0023H117.178L116.455 32.8964H115.859L118.753 25.4477H119.349L122.233 32.8964H121.637ZM117.391 30.4702H120.711L119.051 26.1394L117.391 30.4702Z" fill="white"/>
<path d="M127.532 25.4477L124.819 29.8318V32.8964H124.255V29.8318L121.542 25.4477H122.18L124.542 29.2891L126.894 25.4477H127.532Z" fill="white"/>
<defs>
<clipPath id="clip0_42_760">
<rect width="26.6024" height="26.6024" fill="white" transform="translate(22.6113 10.2847)"/>
</clipPath>
</defs>
</svg>
