<svg width="94" height="89" viewBox="0 0 94 89" fill="none" xmlns="http://www.w3.org/2000/svg">
<ellipse cx="47.0877" cy="44.1726" rx="46.1619" ry="44.1726" fill="url(#paint0_linear_42_848)"/>
<path d="M70.3139 30.2783C71.2257 31.7896 71.1035 33.589 69.9937 34.9741L45.6284 65.399C44.6235 66.6536 42.969 67.2933 41.2772 66.9825C39.6204 66.6776 38.3068 65.522 37.8509 63.9677L34.2457 51.6895L33.8702 50.4124L32.9021 49.4627L23.5927 40.3359C22.4139 39.181 22.0249 37.5146 22.5773 35.9892C23.124 34.4812 24.4953 33.3871 26.186 33.175L65.9041 28.1959C67.7124 27.9687 69.4021 28.7672 70.3139 30.2783Z" fill="white"/>
<path d="M34.2465 51.6886L37.8516 63.9669C38.3075 65.5212 39.6211 66.6767 41.2779 66.9817C42.9698 67.2925 44.6243 66.6529 45.6291 65.3982L69.9944 34.9732C71.1042 33.5882 71.2264 31.7888 70.3146 30.2775L33.871 50.4115L34.2465 51.6886Z" fill="white"/>
<path d="M48.7006 42.2179C49.0714 42.8325 48.8519 43.6188 48.2088 43.9741L34.2459 51.6882L33.8704 50.4111L32.9023 49.4614L46.8653 41.7473C47.5083 41.3922 48.3298 41.6034 48.7006 42.2179Z" fill="url(#paint1_linear_42_848)"/>
<path d="M34.246 51.6891L48.2089 43.975C48.8519 43.6197 49.0715 42.8334 48.7007 42.2188L33.8705 50.412L34.246 51.6891Z" fill="url(#paint2_linear_42_848)"/>
<defs>
<linearGradient id="paint0_linear_42_848" x1="66.4054" y1="2.47862" x2="29.6532" y2="99.2548" gradientUnits="userSpaceOnUse">
<stop stop-color="#747DEF"/>
<stop offset="1" stop-color="#5E3BE1"/>
</linearGradient>
<linearGradient id="paint1_linear_42_848" x1="43.6683" y1="43.5968" x2="45.0656" y2="46.5248" gradientUnits="userSpaceOnUse">
<stop stop-color="#747DEF"/>
<stop offset="1" stop-color="#5E3BE1"/>
</linearGradient>
<linearGradient id="paint2_linear_42_848" x1="44.3214" y1="44.6799" x2="45.065" y2="46.126" gradientUnits="userSpaceOnUse">
<stop stop-color="#747DEF"/>
<stop offset="1" stop-color="#5E3BE1"/>
</linearGradient>
</defs>
</svg>
