<svg width="63" height="65" viewBox="0 0 63 65" fill="none" xmlns="http://www.w3.org/2000/svg">
<rect y="0.31958" width="62.5157" height="63.8458" rx="17.2916" fill="#006380"/>
<path d="M21.9464 35.0703C21.5517 35.0703 21.166 35.1873 20.8379 35.4066C20.5098 35.6258 20.2541 35.9374 20.103 36.302C19.952 36.6665 19.9125 37.0677 19.9895 37.4547C20.0665 37.8418 20.2565 38.1973 20.5355 38.4763C20.8146 38.7553 21.1701 38.9454 21.5571 39.0223C21.9441 39.0993 22.3453 39.0598 22.7099 38.9088C23.0745 38.7578 23.3861 38.5021 23.6053 38.174C23.8245 37.8459 23.9415 37.4601 23.9415 37.0655C23.9415 36.5363 23.7313 36.0289 23.3572 35.6547C22.983 35.2805 22.4755 35.0703 21.9464 35.0703ZM21.9464 38.0631C21.7491 38.0631 21.5562 38.0046 21.3921 37.895C21.2281 37.7854 21.1002 37.6295 21.0247 37.4473C20.9492 37.265 20.9294 37.0644 20.9679 36.8709C21.0064 36.6774 21.1014 36.4996 21.241 36.3601C21.3805 36.2206 21.5582 36.1256 21.7517 36.0871C21.9452 36.0486 22.1458 36.0683 22.3281 36.1438C22.5104 36.2193 22.6662 36.3472 22.7758 36.5113C22.8854 36.6753 22.9439 36.8682 22.9439 37.0655C22.9439 37.3301 22.8388 37.5838 22.6518 37.7709C22.4647 37.958 22.2109 38.0631 21.9464 38.0631Z" fill="white"/>
<path d="M41.8995 35.0703C41.5049 35.0703 41.1191 35.1873 40.791 35.4066C40.4629 35.6258 40.2072 35.9374 40.0562 36.302C39.9052 36.6665 39.8657 37.0677 39.9426 37.4547C40.0196 37.8418 40.2096 38.1973 40.4887 38.4763C40.7677 38.7553 41.1232 38.9454 41.5102 39.0223C41.8973 39.0993 42.2984 39.0598 42.663 38.9088C43.0276 38.7578 43.3392 38.5021 43.5584 38.174C43.7776 37.8459 43.8947 37.4601 43.8947 37.0655C43.8947 36.5363 43.6844 36.0289 43.3103 35.6547C42.9361 35.2805 42.4286 35.0703 41.8995 35.0703ZM41.8995 38.0631C41.7022 38.0631 41.5093 38.0046 41.3452 37.895C41.1812 37.7854 41.0533 37.6295 40.9778 37.4473C40.9023 37.265 40.8826 37.0644 40.9211 36.8709C40.9595 36.6774 41.0546 36.4996 41.1941 36.3601C41.3336 36.2206 41.5113 36.1256 41.7049 36.0871C41.8984 36.0486 42.0989 36.0683 42.2812 36.1438C42.4635 36.2193 42.6193 36.3472 42.7289 36.5113C42.8386 36.6753 42.8971 36.8682 42.8971 37.0655C42.8971 37.3301 42.792 37.5838 42.6049 37.7709C42.4178 37.958 42.1641 38.0631 41.8995 38.0631Z" fill="white"/>
<path d="M27.4336 37.563H36.4119V38.5606H27.4336V37.563Z" fill="white"/>
<path d="M27.4336 35.5691H36.4119V36.5667H27.4336V35.5691Z" fill="white"/>
<path d="M30.4258 28.0864H33.4186V29.084H30.4258V28.0864Z" fill="white"/>
<path d="M46.8867 32.5758V31.5782C46.8855 31.1817 46.7275 30.8018 46.4471 30.5214C46.1668 30.2411 45.7868 30.083 45.3903 30.0818H43.4151L42.3826 26.4606L42.0733 25.2286C41.9922 24.9051 41.8053 24.6179 41.5423 24.4128C41.2793 24.2077 40.9554 24.0963 40.6218 24.0963H36.412V22.1011C36.4112 21.8368 36.3059 21.5835 36.119 21.3966C35.932 21.2097 35.6788 21.1043 35.4144 21.1035H28.4313C28.1669 21.1043 27.9137 21.2097 27.7268 21.3966C27.5398 21.5835 27.4345 21.8368 27.4337 22.1011V24.0963H23.2239C22.8903 24.0963 22.5664 24.2077 22.3034 24.4128C22.0404 24.6179 21.8535 24.9051 21.7724 25.2286L21.4681 26.4556L20.4306 30.0818H18.4554C18.0589 30.083 17.6789 30.2411 17.3986 30.5214C17.1182 30.8018 16.9602 31.1817 16.959 31.5782V32.5758C16.9598 32.8285 17.0247 33.0768 17.1478 33.2976C17.2708 33.5183 17.4478 33.7042 17.6623 33.8378C17.2114 34.3011 16.959 34.9221 16.959 35.5686V41.5541C16.9597 41.7634 17.0044 41.9702 17.0904 42.1609C17.1763 42.3517 17.3015 42.5223 17.4578 42.6615V44.5469C17.459 44.9434 17.617 45.3233 17.8974 45.6037C18.1777 45.8841 18.5577 46.0421 18.9542 46.0433H22.9445C23.341 46.0421 23.721 45.8841 24.0013 45.6037C24.2817 45.3233 24.4397 44.9434 24.4409 44.5469V43.0505H39.4048V44.5469C39.406 44.9434 39.564 45.3233 39.8444 45.6037C40.1247 45.8841 40.5047 46.0421 40.9012 46.0433H44.8915C45.288 46.0421 45.668 45.8841 45.9483 45.6037C46.2287 45.3233 46.3867 44.9434 46.3879 44.5469V42.6615C46.5442 42.5223 46.6694 42.3517 46.7553 42.1609C46.8413 41.9702 46.886 41.7634 46.8867 41.5541V35.5686C46.8867 34.9221 46.6343 34.3011 46.1834 33.8378C46.3979 33.7042 46.5749 33.5183 46.698 33.2976C46.821 33.0768 46.8859 32.8285 46.8867 32.5758ZM28.4313 22.1011H35.4144V24.0963H28.4313V22.1011ZM22.74 25.473C22.7668 25.3648 22.8289 25.2687 22.9166 25.2C23.0043 25.1313 23.1125 25.094 23.2239 25.0939H40.6218C40.7332 25.094 40.8414 25.1313 40.9291 25.2C41.0168 25.2687 41.0789 25.3648 41.1057 25.473L41.2603 26.0915H22.5854L22.74 25.473ZM22.321 27.0891H41.5247L43.2305 33.0746H28.8852C28.768 32.3775 28.4075 31.7446 27.8678 31.2881C27.3281 30.8316 26.6442 30.5811 25.9373 30.5811C25.2305 30.5811 24.5465 30.8316 24.0068 31.2881C23.4671 31.7446 23.1067 32.3775 22.9894 33.0746H20.6152L22.321 27.0891ZM27.8627 33.0746H24.012C24.1209 32.6466 24.3693 32.2671 24.7179 31.996C25.0666 31.725 25.4957 31.5778 25.9373 31.5778C26.3789 31.5778 26.808 31.725 27.1567 31.996C27.5053 32.2671 27.7538 32.6466 27.8627 33.0746ZM17.9566 31.5782C17.9566 31.4459 18.0091 31.3191 18.1027 31.2255C18.1962 31.132 18.3231 31.0794 18.4554 31.0794H20.1463L19.5777 33.0746H18.4554C18.3231 33.0746 18.1962 33.0221 18.1027 32.9285C18.0091 32.835 17.9566 32.7081 17.9566 32.5758V31.5782ZM23.4433 44.5469C23.4433 44.6792 23.3908 44.8061 23.2972 44.8996C23.2037 44.9932 23.0768 45.0457 22.9445 45.0457H18.9542C18.8219 45.0457 18.695 44.9932 18.6015 44.8996C18.5079 44.8061 18.4554 44.6792 18.4554 44.5469V43.0505H23.4433V44.5469ZM45.3903 44.5469C45.3903 44.6792 45.3378 44.8061 45.2442 44.8996C45.1507 44.9932 45.0238 45.0457 44.8915 45.0457H40.9012C40.7689 45.0457 40.642 44.9932 40.5485 44.8996C40.4549 44.8061 40.4024 44.6792 40.4024 44.5469V43.0505H45.3903V44.5469ZM45.8891 41.5541C45.8891 41.6864 45.8366 41.8133 45.743 41.9068C45.6495 42.0004 45.5226 42.0529 45.3903 42.0529H18.4554C18.3231 42.0529 18.1962 42.0004 18.1027 41.9068C18.0091 41.8133 17.9566 41.6864 17.9566 41.5541V41.0553H45.8891V41.5541ZM45.8891 40.0577H17.9566V35.5686C17.9578 35.1721 18.1158 34.7922 18.3962 34.5118C18.6765 34.2314 19.0565 34.0734 19.453 34.0722H44.3927C44.7892 34.0734 45.1692 34.2314 45.4495 34.5118C45.7299 34.7922 45.8879 35.1721 45.8891 35.5686V40.0577ZM45.8891 32.5758C45.8891 32.7081 45.8366 32.835 45.743 32.9285C45.6495 33.0221 45.5226 33.0746 45.3903 33.0746H44.268L43.6994 31.0794H45.3903C45.5226 31.0794 45.6495 31.132 45.743 31.2255C45.8366 31.3191 45.8891 31.4459 45.8891 31.5782V32.5758Z" fill="white"/>
</svg>
