<svg width="63" height="65" viewBox="0 0 63 65" fill="none" xmlns="http://www.w3.org/2000/svg">
<rect y="0.31958" width="62.5157" height="63.8458" rx="17.2916" fill="#F15A2B"/>
<path d="M43.6531 42.7876C43.0544 42.7998 42.4662 42.6285 41.9677 42.2967C41.5966 42.0542 41.1629 41.9251 40.7197 41.9251C40.2764 41.9251 39.8427 42.0542 39.4717 42.2967C38.9681 42.6173 38.3834 42.7876 37.7864 42.7876C37.1894 42.7876 36.6048 42.6173 36.1012 42.2967C35.7301 42.0539 35.2964 41.9247 34.853 41.9247C34.4096 41.9247 33.9758 42.0539 33.6047 42.2967C33.1011 42.6173 32.5165 42.7876 31.9195 42.7876C31.3225 42.7876 30.7379 42.6173 30.2343 42.2967C29.8635 42.0541 29.43 41.9249 28.9869 41.9249C28.5438 41.9249 28.1104 42.0541 27.7395 42.2967C27.283 42.6001 26.7501 42.7687 26.2021 42.7833L26.1719 41.9205C26.5767 41.9109 26.9698 41.7828 27.3026 41.5521C27.806 41.2315 28.3905 41.0613 28.9873 41.0613C29.5842 41.0613 30.1687 41.2315 30.6721 41.5521C31.0432 41.7946 31.4769 41.9238 31.9202 41.9238C32.3635 41.9238 32.7971 41.7946 33.1682 41.5521C33.6719 41.2312 34.2566 41.0608 34.8538 41.0608C35.451 41.0608 36.0358 41.2312 36.5395 41.5521C36.9105 41.7946 37.3442 41.9238 37.7875 41.9238C38.2308 41.9238 38.6645 41.7946 39.0355 41.5521C39.5392 41.2316 40.1238 41.0613 40.7208 41.0613C41.3177 41.0613 41.9023 41.2316 42.406 41.5521C42.7779 41.7952 43.2127 41.9247 43.657 41.9247C44.1014 41.9247 44.5361 41.7952 44.908 41.5521C45.406 41.2212 45.9931 41.0502 46.5909 41.062V41.9248C46.1458 41.9126 45.7085 42.0427 45.3425 42.2962C44.8427 42.6286 44.2532 42.8 43.6531 42.7876Z" fill="white"/>
<path d="M20.1893 42.7871C19.5907 42.7995 19.0026 42.6281 18.5043 42.2962C18.1384 42.0425 17.701 41.9122 17.2559 41.9243V41.0615C17.8546 41.0491 18.4429 41.2204 18.9413 41.5524C19.3071 41.8062 19.7443 41.9365 20.1893 41.9243C20.6345 41.9365 21.072 41.8061 21.4378 41.552C21.9351 41.2202 22.5224 41.049 23.1202 41.0615C23.7035 41.0484 24.2771 41.2119 24.7659 41.5304L24.3307 42.275C23.9736 42.0347 23.5504 41.9121 23.1202 41.9243C22.6768 41.9123 22.2412 42.0423 21.8769 42.2953C21.378 42.6282 20.7889 42.7999 20.1893 42.7871Z" fill="white"/>
<path d="M43.654 39.7687C43.0548 39.7809 42.4662 39.6096 41.9672 39.2778C41.5958 39.0351 41.1618 38.9058 40.7181 38.9058C40.2745 38.9058 39.8404 39.0351 39.469 39.2778C38.9655 39.5983 38.3809 39.7686 37.784 39.7686C37.1871 39.7686 36.6026 39.5983 36.099 39.2778C35.7281 39.0352 35.2946 38.9061 34.8514 38.9061C34.4083 38.9061 33.9747 39.0352 33.6038 39.2778C33.1003 39.5984 32.5158 39.7687 31.9188 39.7687C31.3219 39.7687 30.7373 39.5984 30.2338 39.2778C29.8629 39.0352 29.4294 38.9061 28.9862 38.9061C28.5431 38.9061 28.1095 39.0352 27.7387 39.2778C27.2404 39.6098 26.6523 39.7811 26.0536 39.7687C25.455 39.7811 24.8669 39.6098 24.3686 39.2778C24.003 39.0241 23.5659 38.8938 23.1211 38.9059C22.6763 38.8938 22.2394 39.0241 21.8739 39.2778C21.3764 39.6094 20.7893 39.7807 20.1915 39.7687C19.5927 39.7811 19.0045 39.6098 18.506 39.2778C18.1397 39.0236 17.7016 38.8933 17.2559 38.9059V38.0431C17.8545 38.0308 18.4426 38.2021 18.9409 38.5341C19.3068 38.7878 19.7442 38.918 20.1893 38.9059C20.634 38.918 21.071 38.7877 21.4365 38.5341C21.934 38.2024 22.5211 38.0311 23.1189 38.0431C23.718 38.0304 24.3066 38.2018 24.8052 38.5341C25.171 38.7878 25.6082 38.9181 26.0532 38.9059C26.4982 38.9181 26.9355 38.7878 27.3012 38.5341C27.8047 38.2134 28.3893 38.043 28.9862 38.043C29.5832 38.043 30.1678 38.2134 30.6713 38.5341C31.0422 38.7766 31.4758 38.9058 31.9191 38.9058C32.3623 38.9058 32.7959 38.7766 33.1669 38.5341C33.6704 38.2134 34.2549 38.043 34.8519 38.043C35.4488 38.043 36.0334 38.2134 36.5369 38.5341C36.9078 38.7766 37.3414 38.9058 37.7847 38.9058C38.2279 38.9058 38.6615 38.7766 39.0325 38.5341C39.5365 38.2135 40.1215 38.0432 40.7188 38.0432C41.3161 38.0432 41.9011 38.2135 42.4051 38.5341C42.7767 38.7766 43.2109 38.9057 43.6546 38.9057C44.0984 38.9057 44.5325 38.7766 44.9041 38.5341C45.403 38.2023 45.9914 38.031 46.5904 38.0431V38.9059C46.1444 38.8933 45.7061 39.0236 45.3394 39.2778C44.8408 39.6094 44.2527 39.7807 43.654 39.7687Z" fill="white"/>
<path d="M43.6532 36.7492C43.0545 36.7614 42.4663 36.5901 41.9678 36.2583C41.6018 36.0046 41.1645 35.8743 40.7193 35.8864C40.3927 35.8752 40.0683 35.9448 39.775 36.0891L39.3945 35.3126C39.8064 35.1108 40.2608 35.0112 40.7193 35.0223C41.3188 35.0101 41.9076 35.1819 42.4065 35.5145C42.7784 35.7577 43.2132 35.8872 43.6575 35.8872C44.1019 35.8872 44.5366 35.7577 44.9086 35.5145C45.4063 35.1834 45.9933 35.0122 46.591 35.0236V35.8864C46.1459 35.8742 45.7086 36.0043 45.3426 36.2578C44.8428 36.5902 44.2533 36.7616 43.6532 36.7492Z" fill="white"/>
<path d="M37.7814 36.7484C37.1836 36.761 36.5964 36.5898 36.099 36.2579C35.7279 36.0152 35.2942 35.886 34.8508 35.886C34.4074 35.886 33.9736 36.0152 33.6026 36.2579C33.0989 36.5786 32.5143 36.7489 31.9173 36.7489C31.3203 36.7489 30.7357 36.5786 30.2321 36.2579C29.8611 36.0154 29.4274 35.8862 28.9841 35.8862C28.5408 35.8862 28.1071 36.0154 27.7361 36.2579C27.2379 36.5894 26.6502 36.7605 26.0519 36.7484C25.4533 36.7608 24.8652 36.5895 24.3669 36.2575C24.001 36.0038 23.5636 35.8735 23.1185 35.8856C22.6751 35.8737 22.2395 36.0037 21.8752 36.2566C21.3768 36.5892 20.7884 36.7609 20.1893 36.7484C19.5907 36.7608 19.0026 36.5895 18.5043 36.2575C18.1384 36.0038 17.701 35.8735 17.2559 35.8856V35.0229C17.8546 35.0104 18.4429 35.1818 18.9413 35.5138C19.3071 35.7676 19.7443 35.8978 20.1893 35.8856C20.6345 35.8979 21.072 35.7674 21.4378 35.5134C21.9351 35.1815 22.5224 35.0103 23.1202 35.0229C23.7188 35.0105 24.3069 35.1818 24.8052 35.5138C25.1709 35.7676 25.6082 35.8978 26.0532 35.8856C26.4983 35.8978 26.9357 35.7675 27.3017 35.5138C27.8053 35.1932 28.3899 35.0229 28.9869 35.0229C29.5839 35.0229 30.1685 35.1932 30.6721 35.5138C31.0432 35.7563 31.4768 35.8855 31.9201 35.8855C32.3634 35.8855 32.7971 35.7563 33.1681 35.5138C33.6718 35.1929 34.2566 35.0225 34.8538 35.0225C35.451 35.0225 36.0358 35.1929 36.5395 35.5138C36.9195 35.7694 37.3702 35.8993 37.828 35.8852C37.8613 35.8856 37.8946 35.8839 37.9277 35.88L38.0424 36.735C37.9558 36.7452 37.8686 36.7496 37.7814 36.7484Z" fill="white"/>
<path d="M43.654 33.7292C43.0548 33.7414 42.4662 33.5701 41.9672 33.2382C41.5958 32.9955 41.1618 32.8663 40.7181 32.8663C40.2745 32.8663 39.8404 32.9955 39.469 33.2382C38.9655 33.5588 38.3809 33.729 37.784 33.729C37.1871 33.729 36.6026 33.5588 36.099 33.2382C35.7281 32.9957 35.2946 32.8665 34.8514 32.8665C34.4083 32.8665 33.9747 32.9957 33.6038 33.2382C33.1003 33.5589 32.5158 33.7292 31.9188 33.7292C31.3219 33.7292 30.7373 33.5589 30.2338 33.2382C29.8629 32.9957 29.4294 32.8665 28.9862 32.8665C28.5431 32.8665 28.1095 32.9957 27.7387 33.2382C27.2404 33.5703 26.6523 33.7416 26.0536 33.7292C25.455 33.7416 24.8669 33.5703 24.3686 33.2382C24.003 32.9845 23.5659 32.8542 23.1211 32.8664C22.6763 32.8543 22.2394 32.9846 21.8739 33.2382C21.3764 33.5699 20.7893 33.7412 20.1915 33.7292C19.5927 33.7416 19.0045 33.5703 18.506 33.2382C18.1397 32.984 17.7016 32.8537 17.2559 32.8664V32.0036C17.8545 31.9912 18.4426 32.1625 18.9409 32.4945C19.3068 32.7482 19.7442 32.8785 20.1893 32.8664C20.634 32.8785 21.071 32.7482 21.4365 32.4945C21.934 32.1629 22.5211 31.9916 23.1189 32.0036C23.718 31.9909 24.3066 32.1622 24.8052 32.4945C25.171 32.7483 25.6082 32.8786 26.0532 32.8664C26.4982 32.8786 26.9355 32.7483 27.3012 32.4945C27.8047 32.1738 28.3893 32.0035 28.9862 32.0035C29.5832 32.0035 30.1678 32.1738 30.6713 32.4945C31.0422 32.7371 31.4758 32.8663 31.9191 32.8663C32.3623 32.8663 32.7959 32.7371 33.1669 32.4945C33.6704 32.1738 34.2549 32.0035 34.8519 32.0035C35.4488 32.0035 36.0334 32.1738 36.5369 32.4945C36.9078 32.7371 37.3414 32.8663 37.7847 32.8663C38.2279 32.8663 38.6615 32.7371 39.0325 32.4945C39.5365 32.174 40.1215 32.0037 40.7188 32.0037C41.3161 32.0037 41.9011 32.174 42.4051 32.4945C42.7767 32.737 43.2109 32.8662 43.6546 32.8662C44.0984 32.8662 44.5325 32.737 44.9041 32.4945C45.403 32.1627 45.9914 31.9914 46.5904 32.0036V32.8664C46.1444 32.8538 45.7061 32.9841 45.3394 33.2382C44.8408 33.5698 44.2527 33.7411 43.654 33.7292Z" fill="white"/>
<path d="M37.5059 33.362L36.6919 33.0765C36.9015 32.4741 36.9872 31.8356 36.9436 31.1993C36.9001 30.5629 36.7283 29.942 36.4386 29.3738L33.4754 23.5712C33.4461 23.5139 33.4301 23.4508 33.4284 23.3864C33.4267 23.3221 33.4394 23.2582 33.4655 23.1995C33.4917 23.1407 33.5307 23.0885 33.5797 23.0468C33.6286 23.005 33.6863 22.9748 33.7485 22.9582L39.6538 21.3836C39.8462 21.3333 40.011 21.209 40.1123 21.0378C40.2135 20.8666 40.2431 20.6623 40.1946 20.4694C40.146 20.2765 40.0232 20.1106 39.853 20.0078C39.6827 19.905 39.4787 19.8735 39.2854 19.9203L32.1381 21.6286C31.9853 21.6647 31.8429 21.7355 31.7218 21.8355C31.6008 21.9355 31.5044 22.062 31.4401 22.2053C31.3759 22.3485 31.3454 22.5046 31.3512 22.6615C31.3569 22.8184 31.3987 22.9719 31.4733 23.11L33.5958 27.0529C33.6496 27.1532 33.6617 27.2706 33.6293 27.3796C33.597 27.4887 33.5229 27.5806 33.4232 27.6353L30.6839 29.1452L30.2676 28.3894L32.6325 27.0857L30.7145 23.519C30.5773 23.2644 30.5005 22.9816 30.49 22.6926C30.4795 22.4035 30.5357 22.1159 30.6541 21.8521C30.7726 21.5882 30.9501 21.3551 31.173 21.1708C31.3959 20.9865 31.6582 20.8559 31.9396 20.7891L39.0835 19.0813C39.4994 18.9762 39.94 19.0406 40.3084 19.2604C40.6767 19.4802 40.9427 19.8373 41.0478 20.2531C41.1529 20.669 41.0885 21.1096 40.8687 21.478C40.6489 21.8464 40.2918 22.1124 39.8759 22.2175L34.4861 23.654L37.2074 28.9808C37.55 29.6532 37.7531 30.388 37.8044 31.1409C37.8557 31.8938 37.7542 32.6494 37.5059 33.362Z" fill="white"/>
<path d="M28.7599 29.2285L23.5176 32.1172L23.9338 32.8725L29.1761 29.9838L28.7599 29.2285Z" fill="white"/>
<path d="M41.4132 30.4936C40.7733 30.4936 40.1477 30.3038 39.6157 29.9483C39.0836 29.5928 38.6689 29.0875 38.424 28.4963C38.1791 27.9051 38.1151 27.2545 38.2399 26.6269C38.3647 25.9993 38.6729 25.4228 39.1254 24.9703C39.5779 24.5179 40.1544 24.2097 40.782 24.0849C41.4096 23.96 42.0601 24.0241 42.6513 24.269C43.2425 24.5139 43.7478 24.9286 44.1033 25.4606C44.4588 25.9927 44.6486 26.6182 44.6486 27.2581C44.6477 28.1159 44.3065 28.9384 43.6999 29.5449C43.0934 30.1515 42.271 30.4926 41.4132 30.4936ZM41.4132 24.8855C40.9439 24.8855 40.4852 25.0246 40.095 25.2854C39.7048 25.5461 39.4007 25.9166 39.2211 26.3502C39.0415 26.7837 38.9946 27.2608 39.0861 27.721C39.1777 28.1813 39.4036 28.604 39.7354 28.9359C40.0673 29.2677 40.49 29.4936 40.9503 29.5852C41.4105 29.6767 41.8876 29.6298 42.3211 29.4502C42.7547 29.2706 43.1252 28.9665 43.3859 28.5763C43.6467 28.1861 43.7858 27.7274 43.7858 27.2581C43.785 26.6291 43.5348 26.0261 43.09 25.5813C42.6452 25.1365 42.0422 24.8863 41.4132 24.8855Z" fill="white"/>
</svg>
