<svg width="27" height="26" viewBox="0 0 27 26" fill="none" xmlns="http://www.w3.org/2000/svg">
<path d="M24.7648 3.1275C23.3888 1.64851 21.4607 0.806985 19.4406 0.803866C17.4189 0.806206 15.4888 1.64728 14.1107 3.12655L13.6411 3.62285L13.1714 3.12655C10.4368 0.183446 5.83415 0.0144283 2.8911 2.74896C2.76068 2.87018 2.63473 2.99608 2.51351 3.12655C-0.387315 6.25545 -0.387315 11.091 2.51351 14.2199L12.9508 25.2267C13.3119 25.6079 13.9137 25.6243 14.2949 25.2632C14.3074 25.2514 14.3195 25.2392 14.3313 25.2267L24.7649 14.2199C27.6655 11.0913 27.6655 6.25606 24.7648 3.1275ZM23.3891 12.9107H23.3882L13.6411 23.1912L3.89306 12.9107C1.677 10.5199 1.677 6.82556 3.89306 4.4348C5.90551 2.25361 9.3052 2.11685 11.4864 4.1293C11.5923 4.22701 11.6942 4.3289 11.7919 4.4348L12.9508 5.65748C13.3328 6.03696 13.9494 6.03696 14.3313 5.65748L15.4903 4.43575C17.5027 2.25456 20.9024 2.11779 23.0836 4.13024C23.1895 4.22795 23.2914 4.32984 23.3891 4.43575C25.6244 6.8303 25.6408 10.5314 23.3891 12.9107Z" fill="#4152CA"/>
</svg>
