<svg width="106" height="100" viewBox="0 0 106 100" fill="none" xmlns="http://www.w3.org/2000/svg">
<path d="M68.0982 64.6503V65.6057C67.4653 65.6057 66.8748 65.5657 66.2415 65.5261C60.9393 65.0803 56.0324 62.6944 52.571 58.8786C49.0876 62.6886 44.1705 65.0724 38.8586 65.5261C38.2255 65.5657 37.635 65.6057 37.002 65.6057V64.6503C37.002 53.3586 49.9586 46.3015 60.324 51.9474C65.1347 54.5674 68.0982 59.4099 68.0982 64.6503Z" fill="#C77F67" stroke="#191919" stroke-width="2.11077" stroke-linecap="round" stroke-linejoin="round"/>
<path d="M37.0048 65.6056V67.4365C37.1306 71.106 36.1191 74.7302 34.0938 77.8652" stroke="#191919" stroke-width="2.11077" stroke-linecap="round" stroke-linejoin="round"/>
<path d="M68.0987 65.6056V67.4365C67.96 71.1019 68.9573 74.726 70.9682 77.8652" stroke="#191919" stroke-width="2.11077" stroke-linecap="round" stroke-linejoin="round"/>
<path d="M66.2405 65.526C65.6553 75.4694 53.8801 81.086 45.045 75.6365C41.3961 73.3856 39.099 69.6323 38.8574 65.526C44.1696 65.0723 49.0862 62.6885 52.5701 58.8785C56.031 62.6948 60.9379 65.0806 66.2405 65.526Z" fill="#FFDDA1" stroke="#191919" stroke-width="2.11077" stroke-linecap="round" stroke-linejoin="round"/>
<path d="M73.1442 95.777C65.1239 80.8179 42.9453 79.6595 33.2233 93.692C32.7574 94.3645 32.3316 95.0604 31.9473 95.777" fill="#FF808C"/>
<path d="M73.1442 95.777C65.1239 80.8179 42.9453 79.6595 33.2233 93.692C32.7574 94.3645 32.3316 95.0604 31.9473 95.777" stroke="#191919" stroke-width="2.11077" stroke-linecap="round" stroke-linejoin="round"/>
<path d="M71.9753 37.8217L75.7723 40.3135L71.7178 49.106C71.0642 50.5885 72.356 52.1827 74.0441 51.976C74.3338 51.9406 74.6125 51.8514 74.8652 51.7135L84.671 46.511L94.4769 51.7135C95.9552 52.5144 97.7987 51.5052 97.7947 49.8964C97.7943 49.6252 97.7377 49.3569 97.6287 49.106L93.5693 40.3135L100.894 35.497C102.081 34.4962 101.674 32.6591 100.162 32.1903C99.9306 32.1182 99.6864 32.0855 99.4426 32.0938H91.0041L86.6709 21.2907C85.8847 19.8462 83.7356 19.746 82.8023 21.1105C82.7626 21.1691 82.7259 21.2291 82.6919 21.2907L78.3548 32.0897H74.0847" fill="#FFEF5E"/>
<path d="M91.0209 32.0898L86.6713 21.2908C85.8847 19.846 83.736 19.7461 82.8023 21.1106C82.7626 21.1692 82.7259 21.2292 82.6919 21.2908L78.3547 32.0898H74.0852L71.9753 37.8177L75.7728 40.3095L71.7178 49.1023C71.5358 49.5264 71.5089 49.996 71.6419 50.4356L91.1096 32.0898H91.0209Z" fill="#FFF9BF"/>
<path d="M34.0015 37.822L30.2043 40.3138L34.2629 49.1064C34.917 50.5889 33.6246 52.1831 31.9368 51.976C31.6475 51.941 31.3681 51.8514 31.1155 51.7139L21.3437 46.5114L11.5254 51.7139C10.0595 52.5235 8.21408 51.5323 8.20371 49.9298C8.20172 49.6473 8.26103 49.3668 8.37759 49.1064L12.4366 40.3134L5.11199 35.4973C3.92147 34.5006 4.32136 32.662 5.83143 32.1879C6.07134 32.1124 6.32362 32.0794 6.5763 32.0899H15.0146L19.3606 21.2872C20.154 19.8424 22.3074 19.7496 23.2369 21.1198C23.2739 21.1742 23.3078 21.2298 23.3392 21.2872L27.6724 32.0899H31.8918" fill="#FFEF5E"/>
<path d="M8.30181 49.9623L27.5457 31.8071L23.3263 21.2908C22.5404 19.846 20.3909 19.7461 19.4579 21.1106C19.4181 21.1692 19.3815 21.2292 19.3476 21.2908L15.0144 32.0898H6.57608C4.98524 32.0365 3.93002 33.6274 4.67608 34.9536C4.79069 35.157 4.94227 35.3395 5.12455 35.493L12.4491 40.3095L8.39014 49.1023C8.29545 49.3794 8.26559 49.6727 8.30181 49.9623Z" fill="#FFF9BF"/>
<path d="M55.0265 5.36878L59.3637 16.1678H67.8026C69.393 16.1111 70.4517 17.7001 69.7084 19.0278C69.594 19.2327 69.4412 19.4167 69.2583 19.571L61.9333 24.3912L65.9927 33.1842C66.6463 34.6666 65.354 36.2608 63.6664 36.054C63.3767 36.0183 63.0975 35.9294 62.8449 35.7916L53.039 30.5892L43.2292 35.7916C41.7558 36.5949 39.9131 35.5922 39.9122 33.9867C39.9118 33.7112 39.9696 33.4383 40.0817 33.1842L44.1281 24.3912L36.8162 19.5751C35.6225 18.5864 36.0108 16.7496 37.5153 16.2687C37.7572 16.1914 38.0123 16.1572 38.2673 16.1678H46.706L51.0475 5.36878C51.8337 3.92393 53.9829 3.82408 54.9161 5.18861C54.9563 5.24715 54.9934 5.30723 55.0265 5.36878Z" fill="#FFEF5E"/>
<path d="M59.3655 16.1681L55.0283 5.36915C54.2351 3.92432 52.0811 3.8316 51.1514 5.2021C51.1152 5.25619 51.0807 5.3121 51.0494 5.36915L46.7078 16.1681H38.269C36.6786 16.1149 35.6234 17.7057 36.3695 19.0319C36.484 19.2354 36.6356 19.4178 36.8179 19.5714L44.1298 24.3879L40.0835 33.1808C39.9001 33.6414 39.9001 34.1489 40.0835 34.6095L59.6186 16.1681H59.3655Z" fill="#FFF9BF"/>
<path d="M55.0265 5.36878L59.3637 16.1678H67.8026C69.393 16.1111 70.4517 17.7001 69.7084 19.0278C69.594 19.2327 69.4412 19.4167 69.2583 19.571L61.9333 24.3912L65.9927 33.1842C66.6463 34.6666 65.354 36.2608 63.6664 36.054C63.3767 36.0183 63.0975 35.9294 62.8449 35.7916L53.039 30.5892L43.2292 35.7916C41.7558 36.5949 39.9131 35.5922 39.9122 33.9867C39.9118 33.7112 39.9696 33.4383 40.0817 33.1842L44.1281 24.3912L36.8162 19.5751C35.6225 18.5864 36.0108 16.7496 37.5153 16.2687C37.7572 16.1914 38.0123 16.1572 38.2673 16.1678H46.706L51.0475 5.36878C51.8337 3.92393 53.9829 3.82408 54.9161 5.18861C54.9563 5.24715 54.9934 5.30723 55.0265 5.36878Z" stroke="#191919" stroke-width="2.11077" stroke-linecap="round" stroke-linejoin="round"/>
<path d="M34.0015 37.822L30.2043 40.3138L34.2629 49.1064C34.917 50.5889 33.6246 52.1831 31.9368 51.976C31.6475 51.941 31.3681 51.8514 31.1155 51.7139L21.3437 46.5114L11.5254 51.7139C10.0595 52.5235 8.21408 51.5323 8.20371 49.9298C8.20172 49.6473 8.26103 49.3668 8.37759 49.1064L12.4366 40.3134L5.11199 35.4973C3.92147 34.5006 4.32136 32.662 5.83143 32.1879C6.07134 32.1124 6.32362 32.0794 6.5763 32.0899H15.0146L19.3606 21.2872C20.154 19.8424 22.3074 19.7496 23.2369 21.1198C23.2739 21.1742 23.3078 21.2298 23.3392 21.2872L27.6724 32.0899H31.8918" stroke="#191919" stroke-width="2.11077" stroke-linecap="round" stroke-linejoin="round"/>
<path d="M71.9753 37.8217L75.7723 40.3135L71.7178 49.106C71.0642 50.5885 72.356 52.1827 74.0441 51.976C74.3338 51.9406 74.6125 51.8514 74.8652 51.7135L84.671 46.511L94.4769 51.7135C95.9552 52.5144 97.7987 51.5052 97.7947 49.8964C97.7943 49.6252 97.7377 49.3569 97.6287 49.106L93.5693 40.3135L100.894 35.497C102.081 34.4962 101.674 32.6591 100.162 32.1903C99.9306 32.1182 99.6864 32.0855 99.4426 32.0938H91.0041L86.6709 21.2907C85.8847 19.8462 83.7356 19.746 82.8023 21.1105C82.7626 21.1691 82.7259 21.2291 82.6919 21.2907L78.3548 32.0897H74.0847" stroke="#191919" stroke-width="2.11077" stroke-linecap="round" stroke-linejoin="round"/>
</svg>
