<svg width="26" height="26" viewBox="0 0 26 26" fill="none" xmlns="http://www.w3.org/2000/svg">
<path d="M23.3398 8.09985C23.6165 8.23006 23.7549 8.40096 23.7549 8.61255V22.1624C23.7549 22.3088 23.7061 22.4309 23.6084 22.5286C23.5107 22.6262 23.3805 22.675 23.2178 22.675H3.44238C3.27962 22.675 3.14941 22.6262 3.05176 22.5286C2.9541 22.4309 2.90527 22.3088 2.90527 22.1624V8.61255C2.98665 8.38468 3.16569 8.21379 3.44238 8.09985L19.4824 3.92505C19.8079 3.92505 20.0114 4.06339 20.0928 4.34009L21.1426 8.09985H23.3398ZM18.4326 6.31763L11.2549 8.09985H18.9453L18.4326 6.31763ZM21.6553 20.5999V10.175H5.00488V20.5999H21.6553ZM18.5303 16.5227C18.1234 16.5227 17.7612 16.364 17.4438 16.0466C17.1265 15.7292 16.9678 15.3671 16.9678 14.9602C16.9678 14.5533 17.1265 14.1912 17.4438 13.8738C17.7612 13.5564 18.1234 13.3977 18.5303 13.3977C18.9372 13.3977 19.2993 13.5564 19.6167 13.8738C19.9341 14.1912 20.0928 14.5533 20.0928 14.9602C20.0928 15.3834 19.9463 15.7496 19.6533 16.0588C19.3604 16.3681 18.986 16.5227 18.5303 16.5227Z" fill="black"/>
</svg>
