<svg width="17" height="17" viewBox="0 0 17 17" fill="none" xmlns="http://www.w3.org/2000/svg">
<path d="M5.08437 12.675V8.45626H9.31875V12.675H5.08437ZM6.49062 9.84689V11.2688H7.9125V9.84689H6.49062ZM12.1 3.19064H14.9125V15.4719H2.2875V3.19064H5.1V2.83126C5.1 2.63334 5.16771 2.46668 5.30312 2.33126C5.43854 2.19584 5.60521 2.12814 5.80312 2.12814C5.99062 2.12814 6.15208 2.19584 6.2875 2.33126C6.42291 2.46668 6.49062 2.63334 6.49062 2.83126V3.19064H7.9125V2.83126C7.9125 2.63334 7.98021 2.46668 8.11562 2.33126C8.25104 2.19584 8.41771 2.12814 8.61562 2.12814C8.81354 2.12814 8.98021 2.19584 9.11562 2.33126C9.25104 2.46668 9.31875 2.63334 9.31875 2.83126V3.19064H10.7094V2.83126C10.7094 2.63334 10.7771 2.46668 10.9125 2.33126C11.0479 2.19584 11.2146 2.12814 11.4125 2.12814C11.6 2.12814 11.7615 2.19584 11.8969 2.33126C12.0323 2.46668 12.1 2.63334 12.1 2.83126V3.19064ZM13.5219 14.0656V4.59689H12.1V5.64376H10.6937V4.59689H9.31875L9.30312 5.64376H7.9125V4.59689H6.49062V5.64376H5.08437V4.59689H3.67812V14.0656H13.5219Z" fill="#333333"/>
</svg>
