<svg width="26" height="26" viewBox="0 0 26 26" fill="none" xmlns="http://www.w3.org/2000/svg">
<path d="M13.5498 2.80225C16.1051 2.85107 18.2699 3.78695 20.0439 5.60986C21.818 7.43278 22.7051 9.62191 22.7051 12.1772V22.0649C22.7051 22.4067 22.5342 22.5776 22.1924 22.5776H16.9678C16.626 22.5776 16.4551 22.4067 16.4551 22.0649V14.7651C16.4551 14.6187 16.5039 14.4966 16.6016 14.3989C16.6992 14.3013 16.8213 14.2524 16.9678 14.2524H20.6299V12.1772V11.9575C20.5648 9.97184 19.8324 8.29541 18.4326 6.92822C17.0329 5.56104 15.3646 4.87744 13.4277 4.87744H13.2324C11.2305 4.9751 9.52962 5.74007 8.12988 7.17236C6.73014 8.60466 6.03027 10.3136 6.03027 12.2993V12.4702V14.2524H9.69238C9.83887 14.2524 9.96094 14.3013 10.0586 14.3989C10.1562 14.4966 10.2051 14.6187 10.2051 14.7651V22.0649C10.2051 22.4067 10.0342 22.5776 9.69238 22.5776H4.46777C4.12598 22.5776 3.95508 22.4067 3.95508 22.0649V12.4702C3.95508 9.81722 4.89095 7.54264 6.7627 5.64648C8.63444 3.75033 10.8968 2.80225 13.5498 2.80225Z" fill="black"/>
</svg>
