<svg width="25" height="25" viewBox="0 0 25 25" fill="none" xmlns="http://www.w3.org/2000/svg">
<path d="M6.69 9.89221C6.69 9.48596 6.83844 9.1344 7.13531 8.83752C7.43219 8.54065 7.78375 8.39221 8.19 8.39221C8.59625 8.39221 8.94781 8.54065 9.24469 8.83752C9.54156 9.1344 9.69 9.48596 9.69 9.89221C9.69 10.3141 9.54156 10.6696 9.24469 10.9586C8.94781 11.2477 8.59625 11.3922 8.19 11.3922C7.78375 11.3922 7.43219 11.2477 7.13531 10.9586C6.83844 10.6696 6.69 10.3141 6.69 9.89221ZM7.18219 16.4078C7.02594 16.4078 6.89703 16.3571 6.79547 16.2555C6.69391 16.1539 6.64313 16.0328 6.64313 15.8922C6.64313 15.7672 6.69 15.6344 6.78375 15.4938L8.3775 14.111C8.48688 14.0016 8.6275 13.9469 8.79938 13.9469C8.95563 13.9469 9.08844 14.0016 9.19781 14.111L10.2994 15.1891C10.3931 15.2985 10.5259 15.3531 10.6978 15.3531C10.8541 15.3531 10.9869 15.2985 11.0963 15.1891L14.0963 12.4938C14.19 12.4 14.3228 12.3531 14.4947 12.3531C14.6666 12.3531 14.7994 12.4 14.8931 12.4938L18.4791 15.4938C18.5728 15.5719 18.6197 15.6891 18.6197 15.8453C18.6197 16.0016 18.5728 16.1344 18.4791 16.2438C18.3853 16.3531 18.2525 16.4078 18.0806 16.4078H11.9869H9.59625H7.18219ZM22.1822 4.40784C22.5259 4.40784 22.6978 4.5719 22.6978 4.90002V19.9C22.6978 20.2281 22.5259 20.3922 22.1822 20.3922H3.19781C2.85406 20.3922 2.68219 20.2281 2.68219 19.9V4.90002C2.68219 4.5719 2.85406 4.40784 3.19781 4.40784H22.1822ZM20.6822 18.4V6.40002H4.69781V18.4H20.6822Z" fill="black"/>
</svg>
