<svg width="26" height="26" viewBox="0 0 26 26" fill="none" xmlns="http://www.w3.org/2000/svg">
<path d="M19.1162 23.6804C18.5465 23.6804 17.9321 23.6275 17.2729 23.5217C16.6138 23.4159 15.7796 23.2043 14.7705 22.887C13.7614 22.5696 12.6668 22.0406 11.4868 21.3C10.3068 20.5595 9.17155 19.644 8.08105 18.5535C6.97428 17.4304 6.04248 16.2626 5.28564 15.05C4.52881 13.8375 3.99577 12.7144 3.68652 11.6809C3.37728 10.6474 3.16976 9.80916 3.06396 9.16626C2.95817 8.52336 2.90527 7.92521 2.90527 7.37183C2.90527 7.29045 2.90934 7.20907 2.91748 7.12769C2.92562 7.0463 2.92969 6.9812 2.92969 6.93237V6.85913L2.97852 6.34644L7.66602 2.87964L13.3301 8.56812L11.4502 11.4001C12.264 13.158 13.5417 14.4275 15.2832 15.2087L18.5791 13.7927L23.7549 18.9441L20.2637 23.5828L19.7754 23.656C19.6289 23.6723 19.4092 23.6804 19.1162 23.6804ZM5.24902 7.56714C5.24902 8.02287 5.29785 8.52336 5.39551 9.0686C5.49316 9.61385 5.67627 10.3137 5.94482 11.1682C6.21338 12.0227 6.67725 12.9586 7.33643 13.9758C7.99561 14.9931 8.7972 15.9819 9.74121 16.9421C10.6852 17.9024 11.6618 18.704 12.6709 19.3469C13.68 19.9898 14.6118 20.4456 15.4663 20.7141C16.3208 20.9827 17.0166 21.1617 17.5537 21.2512C18.0908 21.3407 18.5872 21.3855 19.043 21.3855L20.7031 19.2126L18.0664 16.5759L15.4297 17.699L15.0146 17.5525C13.6475 17.0479 12.4471 16.2789 11.4136 15.2454C10.38 14.2118 9.60286 13.0115 9.08203 11.6443L8.91113 11.1072L10.376 8.86108L7.44629 5.9314L5.24902 7.56714Z" fill="black"/>
</svg>
