<svg width="17" height="16" viewBox="0 0 17 16" fill="none" xmlns="http://www.w3.org/2000/svg">
<path d="M4.95937 2.84377C4.95937 2.84377 5.21198 2.59116 5.71719 2.08595C6.22239 1.58074 7.18333 1.32814 8.6 1.32814C10.0167 1.32814 11.2302 1.83335 12.2406 2.84377C13.251 3.85418 13.7562 5.06772 13.7562 6.48439C13.7562 7.05731 13.6391 7.66668 13.4047 8.31252C13.1703 8.95835 12.9073 9.52345 12.6156 10.0078C12.324 10.4922 11.9229 11.0391 11.4125 11.6485C10.9021 12.2578 10.5089 12.7083 10.2328 13C9.95677 13.2917 9.57916 13.6771 9.1 14.1563L8.6 14.6719L8.1 14.1406C7.63125 13.6823 7.25364 13.3021 6.96719 13C6.68073 12.6979 6.2875 12.2448 5.7875 11.6406C5.2875 11.0365 4.88906 10.4896 4.59219 10C4.29531 9.51043 4.02969 8.94533 3.79531 8.3047C3.56094 7.66408 3.44375 7.05731 3.44375 6.48439C3.44375 5.06772 3.94896 3.85418 4.95937 2.84377ZM6.95156 7.97658C6.95156 7.97658 7.06484 8.08986 7.2914 8.31642C7.51797 8.54298 7.95416 8.65627 8.6 8.65627C9.24583 8.65627 9.79531 8.4297 10.2484 7.97658C10.7016 7.52345 10.9281 6.97397 10.9281 6.32814C10.9281 5.68231 10.7016 5.13022 10.2484 4.67189C9.79531 4.21356 9.24583 3.98439 8.6 3.98439C7.95416 3.98439 7.40469 4.21356 6.95156 4.67189C6.49844 5.13022 6.27187 5.68231 6.27187 6.32814C6.27187 6.97397 6.49844 7.52345 6.95156 7.97658Z" fill="#333333"/>
</svg>
