<svg width="26" height="26" viewBox="0 0 26 26" fill="none" xmlns="http://www.w3.org/2000/svg">
<path d="M19.8975 9.26697C20.4997 9.26697 21.0164 9.47856 21.4478 9.90173C21.8791 10.3249 22.0947 10.8457 22.0947 11.4642V21.3275C22.0947 21.9297 21.8791 22.4465 21.4478 22.8778C21.0164 23.3091 20.4997 23.5248 19.8975 23.5248H6.7627C6.16048 23.5248 5.64372 23.3091 5.2124 22.8778C4.78109 22.4465 4.56543 21.9297 4.56543 21.3275V11.4642C4.56543 10.8457 4.78109 10.3249 5.2124 9.90173C5.64372 9.47856 6.16048 9.26697 6.7627 9.26697H6.81152C6.97428 7.68819 7.45443 6.32914 8.25195 5.18982C9.47266 3.51339 11.1654 2.67517 13.3301 2.67517C15.4948 2.67517 17.1875 3.51339 18.4082 5.18982C19.2057 6.32914 19.6859 7.68819 19.8486 9.26697H19.8975ZM10.0342 6.48376C9.51335 7.19991 9.17155 8.12764 9.00879 9.26697H17.6514C17.4886 8.12764 17.1468 7.19991 16.626 6.48376C15.861 5.40955 14.7624 4.87244 13.3301 4.87244C11.8978 4.87244 10.7992 5.40955 10.0342 6.48376ZM19.8975 21.3275V11.4642H6.7627V21.3275H19.8975ZM14.4287 18.5931H12.2314V14.1986H14.4287V18.5931Z" fill="black"/>
</svg>
