<svg width="17" height="17" viewBox="0 0 17 17" fill="none" xmlns="http://www.w3.org/2000/svg">
<path d="M11.2406 11.2563C11.074 11.9229 10.7615 12.7198 10.3031 13.6469C10.6885 13.5219 11.0896 13.324 11.5062 13.0531L10.6312 14.9125C9.87083 15.1417 9.18333 15.2563 8.56875 15.2563C7.81875 15.2563 6.975 15.1 6.0375 14.7875C4.77708 14.2667 3.77708 13.4386 3.0375 12.3031C2.29792 11.1677 1.92812 9.93334 1.92812 8.60001C1.92812 7.70418 2.09479 6.85522 2.42812 6.05313C2.94896 4.79272 3.77708 3.79272 4.9125 3.05313C6.04791 2.31355 7.28229 1.94376 8.61562 1.94376C9.49062 1.94376 10.3396 2.11563 11.1625 2.45938C12.4229 2.98022 13.4229 3.80574 14.1625 4.93595C14.9021 6.06616 15.2719 7.29793 15.2719 8.63126C15.2719 9.51668 15.1052 10.3708 14.7719 11.1938L13.8969 9.31876C13.9385 9.14168 13.9594 8.89688 13.9594 8.58438C13.9594 8.16772 13.8969 7.72501 13.7719 7.25626H11.5062C11.5062 7.41251 11.5167 7.63386 11.5375 7.92032C11.5583 8.20678 11.5687 8.42813 11.5687 8.58438C11.5687 9.16772 11.5479 9.61043 11.5062 9.91251H13.0375L12.3656 11.2563H11.2406ZM13.1625 5.91251C12.6 4.83959 11.6469 4.04272 10.3031 3.52188C10.7615 4.44897 11.074 5.24584 11.2406 5.91251H13.1625ZM8.56875 3.25626C7.94375 4.26668 7.52187 5.15209 7.30312 5.91251H9.83437C9.61562 5.06876 9.19375 4.18334 8.56875 3.25626ZM3.42812 9.91251H5.69375C5.69375 9.76668 5.68333 9.54793 5.6625 9.25626C5.64167 8.96459 5.63125 8.74063 5.63125 8.58438C5.63125 8.01147 5.65208 7.56876 5.69375 7.25626H3.42812C3.33437 7.69376 3.2875 8.13647 3.2875 8.58438C3.2875 9.04272 3.33437 9.48543 3.42812 9.91251ZM3.95937 11.2563C4.55312 12.35 5.51146 13.1469 6.83437 13.6469C6.39687 12.7927 6.08437 11.9958 5.89687 11.2563H3.95937ZM5.89687 5.91251C6.08437 5.17293 6.39687 4.37605 6.83437 3.52188C5.57396 4.01147 4.61562 4.80834 3.95937 5.91251H5.89687ZM8.56875 13.9125C9.20416 12.8917 9.62604 12.0063 9.83437 11.2563H7.30312C7.52187 12.1 7.94375 12.9854 8.56875 13.9125ZM7.0375 9.91251H10.1C10.1625 9.48543 10.2302 9.04272 10.3031 8.58438C10.3031 8.26147 10.2562 7.81876 10.1625 7.25626H7.0375C6.94375 7.81876 6.89687 8.26147 6.89687 8.58438C6.89687 8.92813 6.94375 9.37084 7.0375 9.91251ZM11.8969 13.725L13.5687 10.2563C14.4958 12.1625 15.0479 13.3188 15.225 13.725C14.6312 13.5375 14.2094 13.4021 13.9594 13.3188V15.2563H13.1625V13.3188C13.0062 13.3708 12.7953 13.4386 12.5297 13.5219C12.2641 13.6052 12.0531 13.6729 11.8969 13.725Z" fill="#333333"/>
</svg>
