<svg width="21" height="21" viewBox="0 0 21 21" fill="none" xmlns="http://www.w3.org/2000/svg">
<path d="M17.2602 16.8601H3.93984C3.48411 16.8601 3.09023 16.6974 2.7582 16.3719C2.42617 16.0463 2.26015 15.6557 2.26015 15.2V6.86014C2.26015 6.40441 2.42617 6.01378 2.7582 5.68826C3.09023 5.36274 3.48411 5.19998 3.93984 5.19998H6.49844L8.17812 3.53983H13.0219L14.7016 5.19998H17.2602C17.7159 5.19998 18.1098 5.36274 18.4418 5.68826C18.7738 6.01378 18.9398 6.40441 18.9398 6.86014V15.2C18.9398 15.6557 18.7738 16.0463 18.4418 16.3719C18.1098 16.6974 17.7159 16.8601 17.2602 16.8601ZM3.93984 6.86014V15.2H17.2602V6.86014H13.9984L12.3383 5.19998H8.86172L7.20156 6.86014H3.93984ZM12.9535 12.9637C12.9535 12.9637 12.7891 13.128 12.4604 13.4568C12.1316 13.7856 11.5115 13.95 10.6 13.95C9.68854 13.95 8.90404 13.6212 8.24648 12.9637C7.58893 12.3061 7.26015 11.5216 7.26015 10.6101C7.26015 9.69868 7.58568 8.91743 8.23672 8.26639C8.88776 7.61535 9.67552 7.28983 10.6 7.28983C11.5245 7.28983 12.3122 7.61535 12.9633 8.26639C13.6143 8.91743 13.9398 9.69868 13.9398 10.6101C13.9398 11.5216 13.6111 12.3061 12.9535 12.9637ZM11.7719 9.43826C11.7719 9.43826 11.6905 9.35688 11.5277 9.19412C11.365 9.03136 11.0557 8.94998 10.6 8.94998C10.1443 8.94998 9.75364 9.11274 9.42812 9.43826C9.1026 9.76378 8.93984 10.1544 8.93984 10.6101C8.93984 11.0659 9.1026 11.4597 9.42812 11.7918C9.75364 12.1238 10.1443 12.2898 10.6 12.2898C11.0557 12.2898 11.4464 12.1238 11.7719 11.7918C12.0974 11.4597 12.2602 11.0659 12.2602 10.6101C12.2602 10.1544 12.0974 9.76378 11.7719 9.43826Z" fill="black"/>
</svg>
