<svg width="66" height="26" viewBox="0 0 66 26" fill="none" xmlns="http://www.w3.org/2000/svg">
<g clip-path="url(#clip0_61_1745)">
<g opacity="0.3">
<path d="M17.732 6.57725L18.2172 6.09211L17.7224 5.61683C16.4999 4.44258 14.8519 3.53709 12.5591 3.53709C8.42265 3.53709 4.93604 6.9038 4.93604 11.0643C4.93604 15.225 8.42265 18.5916 12.5591 18.5916C14.7739 18.5916 16.4828 17.8575 17.8247 16.4687C19.2318 15.0585 19.6372 13.1189 19.6372 11.6166C19.6372 11.1475 19.5977 10.6973 19.5211 10.314L19.4129 9.77349H11.8867V12.9959H16.2171C16.0625 13.5308 15.8297 13.9181 15.5455 14.2027C14.9817 14.7598 14.1269 15.3767 12.5591 15.3767C10.181 15.3767 8.31302 13.4659 8.31302 11.0643C8.31302 8.66283 10.181 6.7521 12.5591 6.7521C13.8467 6.7521 14.7782 7.2548 15.4791 7.91071L15.9541 8.35516L16.4141 7.8952L17.732 6.57725Z" fill="black" stroke="black" stroke-width="1.34483"/>
<path d="M24.3622 18.5843C27.1317 18.5843 29.3861 16.4153 29.3861 13.5015C29.3861 10.5715 27.1302 8.4187 24.3622 8.4187C21.5943 8.4187 19.3384 10.5715 19.3384 13.5015C19.3384 16.4153 21.5928 18.5843 24.3622 18.5843ZM24.3622 11.5011C25.2713 11.5011 26.1343 12.2516 26.1343 13.5015C26.1343 14.7392 25.2689 15.5018 24.3622 15.5018C23.4568 15.5018 22.5902 14.7331 22.5902 13.5015C22.5902 12.2577 23.4544 11.5011 24.3622 11.5011Z" fill="black" stroke="black" stroke-width="1.34483"/>
<path d="M34.1215 15.5018H34.1177C33.2123 15.5018 32.3456 14.7331 32.3456 13.5015C32.3456 12.2577 33.2098 11.5011 34.1177 11.5011C35.0267 11.5011 35.8897 12.2516 35.8897 13.5015C35.8897 14.7428 35.0219 15.5068 34.1215 15.5018ZM34.1103 18.5843C36.8798 18.5843 39.1342 16.4153 39.1342 13.5015C39.1342 10.5715 36.8783 8.4187 34.1103 8.4187C31.3423 8.4187 29.0864 10.5715 29.0864 13.5015C29.0864 16.416 31.349 18.5843 34.1103 18.5843Z" fill="black" stroke="black" stroke-width="1.34483"/>
<path d="M48.6472 9.35615V8.68376H45.4616V8.79362C44.9685 8.55892 44.3838 8.41134 43.741 8.41134C41.1557 8.41134 38.8423 10.6688 38.8423 13.5162C38.8423 15.4231 39.8859 17.0557 41.3556 17.9216L41.2966 17.9461L39.6105 18.6456L38.9893 18.9033L39.2472 19.5244C39.8055 20.8696 41.2892 22.5455 43.7779 22.5455C45.0425 22.5455 46.2766 22.1739 47.1973 21.282C48.1237 20.3846 48.6472 19.0437 48.6472 17.2786V9.35615ZM42.1746 18.3077C42.6724 18.4874 43.2006 18.5843 43.741 18.5843C44.3514 18.5843 44.9118 18.4527 45.3916 18.2354C45.3131 18.5843 45.1749 18.837 45.0104 19.0138C44.7583 19.2847 44.3647 19.4631 43.7779 19.4631C42.9603 19.4631 42.415 18.8825 42.1746 18.3077ZM43.9104 11.5011C44.782 11.5011 45.5941 12.2617 45.5941 13.5236C45.5941 14.7605 44.7912 15.5092 43.9104 15.5092C42.9755 15.5092 42.1236 14.7258 42.1236 13.5236C42.1236 12.2905 42.9838 11.5011 43.9104 11.5011ZM52.0412 4.68073V4.00832H48.7599V18.3266H52.0412V4.68073Z" fill="black" stroke="black" stroke-width="1.34483"/>
<path d="M59.37 14.3999L58.8157 14.0303L58.441 14.5813C58.032 15.1828 57.5353 15.5165 56.825 15.5165C56.4389 15.5165 56.1441 15.4286 55.9108 15.2815C55.848 15.2419 55.7868 15.1962 55.7273 15.1438L60.8376 13.0256L61.4495 12.7719L61.2051 12.1563L61.0087 11.6619C60.6028 10.5793 59.3144 8.42609 56.6042 8.42609C53.9295 8.42609 51.8306 10.5452 51.8306 13.5089C51.8306 16.3308 53.9125 18.5917 56.8176 18.5917C59.1525 18.5917 60.5034 17.158 61.0568 16.3363L61.4343 15.776L60.8721 15.4012L59.37 14.3999ZM57.0689 11.5217L55.3338 12.2403C55.674 11.7254 56.2399 11.4717 56.6704 11.4717C56.8186 11.4717 56.9516 11.4903 57.0689 11.5217Z" fill="black" stroke="black" stroke-width="1.34483"/>
</g>
<path d="M12.559 17.9192C8.78181 17.9192 5.6084 14.8415 5.6084 11.0643C5.6084 7.28719 8.78181 4.2095 12.559 4.2095C14.6501 4.2095 16.1373 5.02679 17.2565 6.10177L15.9386 7.41973C15.136 6.66872 14.0463 6.07968 12.559 6.07968C9.79789 6.07968 7.64056 8.30327 7.64056 11.0643C7.64056 13.8255 9.79789 16.0491 12.559 16.0491C14.3482 16.0491 15.3642 15.3275 16.0195 14.6796C16.557 14.142 16.9031 13.3763 17.0356 12.3235H12.559V10.4459H18.8616C18.9279 10.7772 18.9647 11.1821 18.9647 11.6166C18.9647 13.0229 18.5819 14.7606 17.3449 15.9975C16.1373 17.2492 14.6059 17.9192 12.559 17.9192ZM28.7135 13.5015C28.7135 16.0417 26.7623 17.9118 24.3619 17.9118C21.9617 17.9118 20.0105 16.0417 20.0105 13.5015C20.0105 10.9465 21.9617 9.09112 24.3619 9.09112C26.7623 9.09112 28.7135 10.9465 28.7135 13.5015ZM26.8065 13.5015C26.8065 11.9111 25.6725 10.8287 24.3619 10.8287C23.0514 10.8287 21.9175 11.9185 21.9175 13.5015C21.9175 15.0698 23.0514 16.1742 24.3619 16.1742C25.6725 16.1742 26.8065 15.0771 26.8065 13.5015ZM38.4617 13.5015C38.4617 16.0417 36.5105 17.9118 34.1102 17.9118C31.7173 17.9118 29.7587 16.0417 29.7587 13.5015C29.7587 10.9465 31.7099 9.09112 34.1102 9.09112C36.5105 9.09112 38.4617 10.9465 38.4617 13.5015ZM36.562 13.5015C36.562 11.9111 35.4282 10.8287 34.1176 10.8287C32.807 10.8287 31.6731 11.9185 31.6731 13.5015C31.6731 15.0698 32.807 16.1742 34.1176 16.1742C35.4282 16.1816 36.562 15.0771 36.562 13.5015ZM47.9748 9.35614V17.2786C47.9748 20.5404 46.053 21.8731 43.7779 21.8731C41.6353 21.8731 40.3542 20.4373 39.8682 19.2666L41.5543 18.5671C41.8562 19.2887 42.5925 20.1355 43.7779 20.1355C45.2357 20.1355 46.1341 19.2299 46.1341 17.5437V16.9105H46.0677C45.6334 17.448 44.794 17.9118 43.7411 17.9118C41.5323 17.9118 39.5147 15.9902 39.5147 13.5162C39.5147 11.0276 41.5396 9.08377 43.7411 9.08377C44.794 9.08377 45.6334 9.555 46.0677 10.0703H46.1341V9.35614H47.9748ZM46.2666 13.5236C46.2666 11.97 45.2284 10.8287 43.9104 10.8287C42.5704 10.8287 41.4512 11.9626 41.4512 13.5236C41.4512 15.0624 42.5704 16.1816 43.9104 16.1816C45.2284 16.1816 46.2666 15.0624 46.2666 13.5236ZM51.3689 4.68072V17.6542H49.4324V4.68072H51.3689ZM58.9968 14.9593L60.4989 15.9607C60.0129 16.6823 58.8423 17.9193 56.8174 17.9193C54.3067 17.9193 52.5027 15.9828 52.5027 13.5089C52.5027 10.8876 54.3287 9.09847 56.6039 9.09847C58.8937 9.09847 60.0129 10.9171 60.3811 11.9038L60.5799 12.4044L54.6822 14.849C55.1313 15.7325 55.8382 16.1889 56.8247 16.1889C57.8114 16.1889 58.4962 15.6957 58.9968 14.9593ZM54.3656 13.3689L58.3121 11.7344C58.0912 11.1821 57.4433 10.7993 56.6702 10.7993C55.6835 10.7993 54.314 11.6682 54.3656 13.3689Z" fill="white"/>
</g>
<defs>
<clipPath id="clip0_61_1745">
<rect width="66" height="26" fill="white"/>
</clipPath>
</defs>
</svg>
