<svg width="228" height="211" viewBox="0 0 228 211" fill="none" xmlns="http://www.w3.org/2000/svg">
<path d="M131.065 119.169C129.257 119.588 127.495 120.349 125.888 121.405C121.701 124.091 119.257 127.893 120.429 129.897C121.601 131.9 125.945 131.346 130.131 128.661C131.76 127.641 133.208 126.343 134.387 124.848C134.934 124.126 135.035 123.231 134.645 122.567L133.122 119.964C132.735 119.297 131.928 118.986 131.065 119.169Z" fill="#D5D6DB"/>
<path d="M120.568 83.2663C119.257 83.5702 117.979 84.1225 116.814 84.8886C113.779 86.8355 112.005 89.5922 112.854 91.0439C113.703 92.4955 116.854 92.0935 119.889 90.1468C121.07 89.4071 122.12 88.4658 122.975 87.3815C123.371 86.8581 123.444 86.2099 123.161 85.728L122.059 83.8433C121.778 83.36 121.193 83.1336 120.568 83.2663Z" fill="#D5D6DB"/>
<path d="M103.525 84.8977C103.233 84.8679 102.922 84.948 102.652 85.1218L95.5223 89.6968C94.9259 90.0783 94.6851 90.8049 94.985 91.32C95.0536 91.438 95.1476 91.5385 95.262 91.6156L112.747 103.484L136.521 88.229L103.525 84.8977Z" fill="#029BC5"/>
<path d="M178.49 82.8212L113.896 123.594L75.7142 138.967L56.2563 142.97L54.1309 139.388L161.793 72.713C165.002 70.7176 168.572 69.4786 172.144 69.1217C173.708 68.9737 175.252 69.0115 176.74 69.2335C178.059 69.42 179.309 69.7914 180.454 70.3365C181.731 70.9544 184.167 71.0053 184.952 72.2519C184.954 72.2499 186.794 77.9891 178.49 82.8212Z" fill="#E1E6E9"/>
<path d="M114.844 118.456L86.7826 162.862C86.4318 163.485 86.636 164.178 87.2382 164.409C87.6077 164.551 88.0609 164.489 88.4423 164.246L95.5593 159.71C96.9281 158.837 98.1414 157.733 99.1242 156.466L153.458 92.8309L114.844 118.456Z" fill="#029BC5"/>
<path d="M44.35 116.934C43.8846 116.78 43.3297 116.867 42.8604 117.168L36.968 120.951C36.1652 121.466 35.8423 122.445 36.2467 123.138C36.3238 123.27 36.4241 123.385 36.5444 123.48L52.9647 136.474L70.3215 125.543L44.35 116.934Z" fill="#029BC5"/>
<path d="M58.5434 138.929L49.6476 151.31C49.5171 151.488 49.5468 151.71 49.7138 151.805C49.8342 151.874 49.999 151.86 50.1332 151.769L55.6304 148.271C55.6731 148.244 55.7118 148.21 55.7438 148.171L68.7333 132.45L58.5434 138.929Z" fill="#029BC5"/>
<path d="M175.638 69.827C174.104 69.5955 172.512 69.5574 170.899 69.7127C169.321 71.9097 168.309 74.3708 167.962 76.8506C167.936 77.3484 168.338 77.7029 168.86 77.6425C169.023 77.6235 169.185 77.5653 169.33 77.4731L179.468 70.9781C178.288 70.4088 176.998 70.0212 175.638 69.827Z" fill="#029BC5"/>
<path d="M153.578 81.7515L160.213 77.5208L166.339 87.9293L159.704 92.16L153.578 81.7515Z" fill="#D5D6DB"/>
<path d="M149.426 85.8445C148.627 86.3557 148.304 87.3268 148.706 88.0132L149.358 89.1254C149.786 89.794 150.771 89.9029 151.556 89.3685C152.304 88.8595 152.608 87.9446 152.251 87.2745L151.6 86.1624C151.198 85.4766 150.225 85.3341 149.426 85.8445Z" fill="#3A556A"/>
<path d="M143.489 89.5323C142.689 90.0435 142.367 91.0146 142.769 91.7011L143.42 92.8132C143.849 93.4818 144.833 93.5907 145.619 93.0563C146.366 92.5474 146.67 91.6324 146.314 90.9624L145.662 89.8502C145.26 89.1646 144.288 89.0221 143.489 89.5323Z" fill="#3A556A"/>
<path d="M137.547 93.223C136.749 93.7349 136.428 94.7048 136.829 95.3906L137.481 96.5027C137.909 97.1713 138.894 97.2802 139.679 96.7458C140.427 96.2369 140.731 95.322 140.374 94.652L139.723 93.5399C139.321 92.8534 138.347 92.7116 137.547 93.223Z" fill="#3A556A"/>
<path d="M131.61 96.909C130.812 97.4209 130.49 98.3908 130.892 99.0767L131.543 100.189C131.972 100.857 132.956 100.966 133.742 100.432C134.489 99.923 134.793 99.008 134.437 98.338L133.785 97.2259C133.383 96.5396 132.409 96.3978 131.61 96.909Z" fill="#3A556A"/>
<path d="M125.671 100.596C124.873 101.109 124.551 102.079 124.953 102.765L125.605 103.878C126.006 104.564 126.98 104.706 127.779 104.194C128.578 103.683 128.9 102.713 128.498 102.027L127.847 100.915C127.446 100.228 126.473 100.085 125.673 100.595C125.672 100.596 125.672 100.596 125.671 100.596Z" fill="#3A556A"/>
<path d="M119.734 104.284C118.935 104.796 118.613 105.767 119.015 106.453L119.667 107.566C120.069 108.252 121.042 108.393 121.841 107.882C122.64 107.371 122.962 106.401 122.561 105.715L121.909 104.602C121.508 103.916 120.535 103.773 119.736 104.283C119.735 104.284 119.734 104.284 119.734 104.284Z" fill="#3A556A"/>
<path d="M113.796 107.974C112.998 108.486 112.676 109.456 113.078 110.143L113.73 111.255C114.132 111.94 115.106 112.081 115.904 111.569C116.701 111.058 117.023 110.09 116.623 109.405L115.971 108.292C115.57 107.606 114.596 107.463 113.796 107.974Z" fill="#3A556A"/>
<path d="M107.857 111.66C107.058 112.172 106.737 113.142 107.138 113.829L107.79 114.941C108.193 115.627 109.167 115.767 109.965 115.255C110.762 114.744 111.083 113.776 110.683 113.091L110.032 111.978C109.63 111.292 108.657 111.149 107.857 111.66Z" fill="#3A556A"/>
<path d="M101.919 115.348C101.121 115.86 100.799 116.83 101.201 117.516L101.853 118.629C102.255 119.314 103.229 119.455 104.027 118.943C104.824 118.432 105.146 117.464 104.746 116.779L104.094 115.666C103.692 114.98 102.719 114.837 101.919 115.348Z" fill="#3A556A"/>
<path d="M95.98 119.036C95.181 119.547 94.8589 120.517 95.2606 121.203L95.2615 121.204L95.9131 122.317C96.3159 123.002 97.2898 123.142 98.088 122.631C98.8849 122.12 99.2063 121.152 98.8064 120.467L98.1547 119.354C97.7531 118.667 96.7797 118.525 95.98 119.036Z" fill="#3A556A"/>
<path d="M90.0425 122.723C89.2435 123.234 88.9214 124.204 89.3231 124.89L89.324 124.892L89.9757 126.004C90.3784 126.69 91.3524 126.83 92.1506 126.318C92.9474 125.807 93.2688 124.839 92.8689 124.154L92.2173 123.041C91.8153 122.355 90.8419 122.213 90.0425 122.723Z" fill="#3A556A"/>
</svg>
