<svg width="18" height="18" viewBox="0 0 18 18" fill="none" xmlns="http://www.w3.org/2000/svg">
<path d="M15 6H10.791L11.6332 3.47475C11.7847 3.01875 11.7082 2.51325 11.427 2.12325C11.1457 1.73325 10.6897 1.5 10.209 1.5H8.99997C8.77722 1.5 8.56647 1.599 8.42322 1.77L4.89822 6H2.99997C2.17272 6 1.49997 6.67275 1.49997 7.5V14.25C1.49997 15.0772 2.17272 15.75 2.99997 15.75H12.9802C13.2854 15.749 13.5831 15.6554 13.8339 15.4816C14.0847 15.3077 14.2769 15.0619 14.385 14.7765L16.4527 9.26325C16.4841 9.17904 16.5001 9.08987 16.5 9V7.5C16.5 6.67275 15.8272 6 15 6ZM2.99997 7.5H4.49997V14.25H2.99997V7.5ZM15 8.86425L12.9802 14.25H5.99997V7.0215L9.35097 3H10.2105L9.03897 6.51225C9.00094 6.62499 8.99033 6.74516 9.00803 6.86282C9.02572 6.98047 9.07121 7.09222 9.14072 7.18878C9.21022 7.28534 9.30175 7.36395 9.4077 7.41807C9.51366 7.47219 9.63099 7.50028 9.74997 7.5H15V8.86425Z" fill="#9E9E9E"/>
</svg>
