<svg width="30" height="26" viewBox="0 0 30 26" fill="none" xmlns="http://www.w3.org/2000/svg">
<path d="M12.5 0C5.59627 0 0 5.59627 0 12.5C0 19.4037 5.59627 25 12.5 25C19.4037 25 25 19.4037 25 12.5C25 5.59627 19.4037 0 12.5 0ZM20.5645 10.8619V11.2112C20.5645 11.5071 20.3972 11.7777 20.1326 11.9098L19.3569 12.2979C19.2337 12.3595 19.0964 12.3875 18.9589 12.3789C18.8214 12.3703 18.6886 12.3255 18.5741 12.249L17.6562 11.6371C17.5572 11.5712 17.4445 11.5287 17.3266 11.5128C17.2087 11.497 17.0887 11.5083 16.9758 11.5459L16.8422 11.5902C16.3533 11.753 16.1537 12.3357 16.4395 12.7646L17.1069 13.7656C17.2515 13.9829 17.4955 14.1134 17.7566 14.1134H18.1704C18.6018 14.1134 18.9516 14.4632 18.9516 14.8947V15.4662C18.9516 15.6351 18.8967 15.7999 18.7954 15.935L17.8508 17.1941C17.7792 17.2898 17.7303 17.4007 17.7082 17.5181L17.4914 18.6689C17.4602 18.8347 17.376 18.9859 17.2515 19.1003C16.7739 19.5377 16.3508 20.0312 15.9914 20.5701L15.3347 21.5554C15.2069 21.747 15.0339 21.9042 14.8309 22.0128C14.6279 22.1215 14.4011 22.1784 14.1709 22.1784C13.6411 22.1784 13.1568 21.879 12.9199 21.4052C12.6437 20.853 12.5 20.244 12.5 19.6265V18.12C12.5 17.6885 12.1502 17.3387 11.7188 17.3387H10.4143C9.68397 17.3387 8.98387 17.0484 8.46724 16.5323C7.95099 16.0158 7.66093 15.3154 7.66079 14.5852V13.8765C7.66079 13.0101 8.06905 12.1941 8.7621 11.6739L10.1522 10.631C10.6289 10.2736 11.2086 10.0803 11.8044 10.0801H11.8493C12.2767 10.0801 12.6986 10.1794 13.0806 10.371L13.8226 10.7419C14.0081 10.8347 14.2223 10.8498 14.4189 10.7843L16.8034 9.98942C17.1225 9.88306 17.3377 9.58468 17.3377 9.24849C17.3377 8.81704 16.9879 8.46724 16.5565 8.46724H16.0479C15.8407 8.46724 15.6421 8.38508 15.4955 8.23841L15.1467 7.88962C15.0741 7.81706 14.988 7.7595 14.8932 7.72023C14.7984 7.68097 14.6969 7.66077 14.5943 7.66079H10.0554C9.62399 7.66079 9.27419 7.31099 9.27419 6.87954V6.65776C9.27419 6.2994 9.51815 5.9869 9.86593 5.8997L10.5943 5.71774C10.7828 5.67036 10.9471 5.55494 11.0549 5.39315L11.4622 4.78276C11.6069 4.56552 11.8508 4.43498 12.1119 4.43498H13.3322C13.7636 4.43498 14.1134 4.08518 14.1134 3.65373V2.55998C18.1064 3.20716 21.3135 6.2006 22.2747 10.0806H21.3458C20.9143 10.0806 20.5645 10.4304 20.5645 10.8619Z" fill="black"/>
<path d="M25.3831 16.313L25.3831 16.3129C25.2425 16.1373 25.0643 15.9955 24.8615 15.8981C24.6588 15.8006 24.4367 15.75 24.2118 15.75H24.2117H20.0338C19.4204 15.75 18.8689 16.1234 18.6411 16.6929L18.6411 16.6929L18.6405 16.6944L17.7488 18.9657C17.1689 19.1717 16.75 19.7213 16.75 20.375V22.5625C16.75 22.8732 17.0018 23.125 17.3125 23.125H18.0146C18.1383 24.1808 19.036 25 20.125 25C21.214 25 22.1117 24.1808 22.2354 23.125H24.2646C24.3883 24.1808 25.286 25 26.375 25C27.464 25 28.3617 24.1808 28.4854 23.125H29.1875C29.4982 23.125 29.75 22.8732 29.75 22.5625V21C29.75 19.8264 28.7986 18.875 27.625 18.875H27.4327L25.3831 16.313ZM20.125 23.5625C19.7461 23.5625 19.4375 23.2539 19.4375 22.875C19.4375 22.4961 19.7461 22.1875 20.125 22.1875C20.5039 22.1875 20.8125 22.4961 20.8125 22.875C20.8125 23.2539 20.5039 23.5625 20.125 23.5625ZM21.2812 18.875H19.653L20.203 17.5H21.2812V18.875ZM22.7188 18.875V17.5H24.0916L25.1916 18.875H22.7188ZM26.375 23.5625C25.9961 23.5625 25.6875 23.2539 25.6875 22.875C25.6875 22.4961 25.9961 22.1875 26.375 22.1875C26.7539 22.1875 27.0625 22.4961 27.0625 22.875C27.0625 23.2539 26.7539 23.5625 26.375 23.5625Z" fill="black" stroke="black" stroke-width="0.5"/>
</svg>
