<svg width="28" height="27" viewBox="0 0 28 27" fill="none" xmlns="http://www.w3.org/2000/svg">
<path d="M24.7465 3.70856L15.6019 23.6604C15.5253 23.8275 15.3956 23.9646 15.2329 24.0501C15.0702 24.1357 14.8838 24.1649 14.7027 24.1332C14.5216 24.1015 14.3562 24.0107 14.2322 23.875C14.1082 23.7393 14.0327 23.5663 14.0175 23.3831L13.2444 14.1083L3.96953 13.3352C3.78635 13.3199 3.61338 13.2444 3.47767 13.1205C3.34196 12.9965 3.25116 12.831 3.21948 12.65C3.18779 12.4689 3.21701 12.2825 3.30256 12.1198C3.3881 11.9571 3.52516 11.8273 3.69229 11.7508L23.6441 2.60622C23.7984 2.53554 23.9705 2.51374 24.1375 2.54375C24.3045 2.57377 24.4583 2.65416 24.5783 2.77413C24.6983 2.8941 24.7787 3.04791 24.8087 3.2149C24.8387 3.38189 24.8169 3.55407 24.7462 3.70831L24.7465 3.70856Z" fill="#080809"/>
</svg>
