<svg width="92" height="84" viewBox="0 0 92 84" fill="none" xmlns="http://www.w3.org/2000/svg">
<path d="M46.0003 80.4927C69.2852 80.4927 88.1632 63.2562 88.1632 41.9962C88.1632 20.7363 69.2852 3.5 46.0003 3.5C22.7158 3.5 3.83789 20.7363 3.83789 41.9962C3.83789 63.2562 22.7158 80.4927 46.0003 80.4927Z" fill="#66E1FF"/>
<path d="M16.5363 52.045C16.5351 45.3215 18.4627 38.7146 22.1272 32.8825C25.7918 27.0503 31.0654 22.1962 37.4231 18.8034C43.7808 15.4105 51.0008 13.5972 58.365 13.5439C65.7289 13.4906 72.9793 15.1993 79.3951 18.4997C75.5798 13.9814 70.7122 10.2939 65.1447 7.70385C59.5771 5.11385 53.4484 3.68617 47.2024 3.52408C40.956 3.362 34.7486 4.46957 29.0288 6.76666C23.3089 9.06374 18.2199 12.4929 14.1296 16.8061C10.0394 21.1193 7.05033 26.2087 5.37861 31.706C3.70693 37.2033 3.39442 42.9713 4.46371 48.5923C5.53298 54.2136 7.95729 59.5473 11.5613 64.2082C15.1653 68.8688 19.8589 72.7398 25.3024 75.5412C19.6061 68.8142 16.5221 60.5483 16.5363 52.045Z" fill="#C2F3FF"/>
<path d="M8.96289 60.4143L38.6673 60.4178" stroke="#191919" stroke-width="3.14613" stroke-linecap="round" stroke-linejoin="round"/>
<path d="M11.2148 20.2446H80.8162" stroke="#191919" stroke-width="3.14613" stroke-linecap="round" stroke-linejoin="round"/>
<path d="M42.3331 40.3303H3.87695" stroke="#191919" stroke-width="3.14613" stroke-linecap="round" stroke-linejoin="round"/>
<path d="M43.7192 80.4461C35.5695 80.0363 27.7256 77.4749 21.1391 73.074C14.5527 68.6728 9.50687 62.621 6.61405 55.6525C3.72123 48.684 3.10579 41.0988 4.8424 33.8174C6.57901 26.5359 10.593 19.8711 16.3973 14.6319C22.2015 9.39267 29.5465 5.80426 37.5409 4.30213C45.5354 2.80002 53.8354 3.44876 61.4338 6.16963C69.0322 8.89049 75.6022 13.5665 80.3467 19.6302C85.0912 25.694 87.8063 32.8847 88.1621 40.3298" stroke="#191919" stroke-width="3.14613" stroke-linecap="round" stroke-linejoin="round"/>
<path d="M43.3193 3.59741C21.3216 25.3562 21.7213 53.6694 43.7191 80.4493" stroke="#191919" stroke-width="3.14613" stroke-linecap="round" stroke-linejoin="round"/>
<path d="M48.6758 3.59741C57.3422 11.8171 62.9112 22.3465 64.573 33.6547" stroke="#191919" stroke-width="3.14613" stroke-linecap="round" stroke-linejoin="round"/>
<path d="M64.4385 74.0015C68.8426 74.0015 73.0661 72.4044 76.18 69.561C79.2938 66.718 81.0433 62.8617 81.0433 58.8409C81.0433 54.8197 79.2938 50.9634 76.18 48.1204C73.0661 45.2773 68.8426 43.6799 64.4385 43.6799C60.0347 43.6799 55.8112 45.2773 52.6973 48.1204C49.5831 50.9634 47.834 54.8197 47.834 58.8409C47.834 62.8617 49.5831 66.718 52.6973 69.561C55.8112 72.4044 60.0347 74.0015 64.4385 74.0015Z" fill="#E3E3E3"/>
<path d="M52.6991 69.561C49.7869 66.684 48.2076 62.8893 48.2923 58.9728C48.3766 55.056 50.1185 51.3211 53.1526 48.5509C56.1863 45.781 60.2768 44.1906 64.5667 44.1136C68.8562 44.0362 73.0123 45.4782 76.1633 48.1368L52.6991 69.561Z" fill="white"/>
<path d="M64.4385 74.0015C68.8426 74.0015 73.0661 72.4044 76.18 69.561C79.2938 66.718 81.0433 62.8617 81.0433 58.8409C81.0433 54.8197 79.2938 50.9634 76.18 48.1204C73.0661 45.2773 68.8426 43.6799 64.4385 43.6799C60.0347 43.6799 55.8112 45.2773 52.6973 48.1204C49.5831 50.9634 47.834 54.8197 47.834 58.8409C47.834 62.8617 49.5831 66.718 52.6973 69.561C55.8112 72.4044 60.0347 74.0015 64.4385 74.0015Z" stroke="#191919" stroke-width="3.14613" stroke-linecap="round" stroke-linejoin="round"/>
<path d="M88.1618 80.4998L76.2539 69.6274" stroke="#191919" stroke-width="3.14613" stroke-linecap="round" stroke-linejoin="round"/>
</svg>
