<svg width="186" height="48" viewBox="0 0 186 48" fill="none" xmlns="http://www.w3.org/2000/svg">
<circle cx="24.2352" cy="24.0174" r="23.9422" fill="#F5F5F5"/>
<g clip-path="url(#clip0_42_893)">
<path d="M33.087 16.2385C32.5964 16.0949 20.5946 14.9 16.3797 20.5944C14.5129 23.1171 14.4849 26.5752 16.2861 30.872C15.8292 31.8204 15.4292 32.8194 15.1032 33.8735C15.0041 34.1939 15.1834 34.5335 15.5033 34.6323C15.563 34.6508 15.6234 34.6595 15.683 34.6595C15.9417 34.6595 16.1819 34.4924 16.262 34.2322C19.4746 23.846 29.9146 18.8213 33.1161 17.552C33.4277 17.4284 33.844 16.46 33.087 16.2385Z" fill="#84829A"/>
<path d="M18.2129 32.1724C19.9506 32.9013 21.688 33.275 23.3037 33.275C24.7559 33.275 26.1102 32.9764 27.2773 32.3709C29.626 31.1525 31.0613 28.8219 31.4278 25.6302C31.8013 22.3775 32.2661 20.3401 32.654 19.0938C29.2019 20.6861 21.8 24.8137 18.2129 32.1724Z" fill="#84829A"/>
</g>
<circle cx="161.237" cy="24.0174" r="23.9422" fill="#F5F5F5"/>
<path d="M168.345 17.6891L159.942 26.1232C159.845 26.0673 159.744 26.0206 159.639 25.9835L154.091 24.1058C153.923 24.0638 153.775 23.9669 153.668 23.8305C153.562 23.6941 153.504 23.5261 153.504 23.3532C153.504 23.1802 153.562 23.0122 153.668 22.8759C153.775 22.7395 153.923 22.6426 154.091 22.6006L167.856 17.7046C167.946 17.674 168.04 17.6583 168.135 17.658C168.206 17.6569 168.277 17.6674 168.345 17.6891Z" fill="#84829A"/>
<path d="M168.879 18.73L163.983 32.5101C163.929 32.6707 163.824 32.8092 163.684 32.9045C163.544 32.9997 163.377 33.0465 163.208 33.0377C163.036 33.0455 162.867 32.9965 162.727 32.8983C162.587 32.8 162.483 32.6581 162.432 32.4946L160.585 26.9469C160.548 26.8419 160.501 26.7406 160.445 26.6443L168.895 18.2412C168.943 18.4016 168.937 18.573 168.879 18.73Z" fill="#84829A"/>
<circle cx="96.0613" cy="24.0174" r="23.9422" fill="#F5F5F5"/>
<g clip-path="url(#clip1_42_893)">
<path d="M103.379 14.7068C103.275 14.7067 103.173 14.7308 103.081 14.7769L98.0412 17.2975L92.3424 14.7643C92.3331 14.7603 92.3225 14.7596 92.3125 14.7557C92.2868 14.7461 92.2606 14.7381 92.234 14.7317C92.2075 14.7246 92.1806 14.719 92.1535 14.7151C92.0995 14.7106 92.0452 14.7106 91.9913 14.7151C91.9641 14.719 91.9373 14.7246 91.9108 14.7317C91.8842 14.7381 91.858 14.7461 91.8323 14.7557C91.8223 14.7596 91.8117 14.7603 91.8024 14.7643L85.8169 17.4245C85.5767 17.5312 85.4218 17.7695 85.4219 18.0323V32.6635C85.422 32.8885 85.5358 33.0982 85.7245 33.2208C85.9131 33.3436 86.1511 33.3626 86.3569 33.2713L92.0724 30.7308L97.7878 33.2713C97.7978 33.2753 97.8084 33.2713 97.8184 33.2773C97.9794 33.3493 98.1642 33.3452 98.3218 33.266C98.3325 33.2614 98.3444 33.266 98.3551 33.2587L103.675 30.5985C103.901 30.4858 104.043 30.2553 104.043 30.0032V15.3722C104.043 15.0049 103.746 14.7069 103.379 14.7068ZM91.4073 29.571L86.752 31.6399V18.4646L91.4073 16.3957V29.571ZM97.3928 31.6399L92.7374 29.571V16.3957L97.3928 18.4646V31.6399ZM102.713 29.5923L98.7229 31.5874V18.4433L102.713 16.4482V29.5923Z" fill="#84829A"/>
</g>
<defs>
<clipPath id="clip0_42_893">
<rect width="18.6217" height="18.6217" fill="white" transform="translate(14.9238 16.0369)"/>
</clipPath>
<clipPath id="clip1_42_893">
<rect width="18.6217" height="18.6217" fill="white" transform="translate(85.4199 14.7051)"/>
</clipPath>
</defs>
</svg>
