<svg width="36" height="25" viewBox="0 0 36 25" fill="none" xmlns="http://www.w3.org/2000/svg">
<g clip-path="url(#clip0_187_3354)">
<rect x="0.94043" y="0.189941" width="35" height="24" rx="4" fill="#F2F2F2"/>
<g clip-path="url(#clip1_187_3354)">
<path d="M15.6859 18.5472L15.9396 16.9522H15.3741H12.7061L14.5621 5.1637C14.5671 5.12718 14.5851 5.09369 14.6129 5.06945C14.642 5.04693 14.6776 5.03424 14.7144 5.0332H19.2166C20.7174 5.0332 21.7469 5.34495 22.2906 5.9612C22.5312 6.21968 22.6989 6.53743 22.7764 6.88195C22.8609 7.30064 22.8609 7.73201 22.7764 8.1507V8.5132L23.0301 8.6582C23.2233 8.75448 23.3976 8.88463 23.5449 9.04245C23.7665 9.30997 23.9095 9.63373 23.9581 9.9777C24.0124 10.4273 23.9928 10.8828 23.9001 11.3262C23.8045 11.8647 23.6156 12.3824 23.3419 12.8559C23.1207 13.2356 22.8217 13.5642 22.4646 13.8202C22.1052 14.0653 21.7051 14.2445 21.2829 14.3494C20.8089 14.469 20.3216 14.5274 19.8329 14.5234H19.4776C19.2286 14.5234 18.9875 14.6107 18.7961 14.7699C18.6037 14.932 18.4774 15.159 18.4409 15.4079V15.5529L17.9986 18.3659V18.4747C18.0039 18.4936 18.0039 18.5137 17.9986 18.5327H17.9551L15.6859 18.5472Z" fill="#253D80"/>
<path d="M23.269 8.22314L23.2255 8.49139C22.631 11.5364 20.5938 12.5949 17.9983 12.5949H16.6788C16.3613 12.5945 16.0907 12.8251 16.0408 13.1386L15.3665 17.4306L15.1708 18.6486C15.1561 18.7461 15.1844 18.8453 15.2483 18.9203C15.3123 18.9954 15.4056 19.0391 15.5043 19.0401H17.8533C18.1318 19.0398 18.3687 18.8368 18.4115 18.5616V18.4456L18.8538 15.6399V15.4876C18.8933 15.2135 19.1278 15.0099 19.4048 15.0091H19.789C22.0583 15.0091 23.8418 14.0884 24.3565 11.3841C24.635 10.4598 24.4632 9.45845 23.8925 8.67989C23.7114 8.49416 23.5007 8.33981 23.269 8.22314Z" fill="#189BD7"/>
<path d="M22.6468 7.97682L22.3713 7.90432L22.0668 7.84632C21.6829 7.7889 21.295 7.76224 20.9068 7.76657H17.3688C17.2862 7.7643 17.2042 7.78169 17.1296 7.81732C16.9615 7.89602 16.8443 8.05408 16.8178 8.23782L16.0928 13.001V13.1388C16.1428 12.8253 16.4134 12.5946 16.7308 12.595H18.0503C20.6458 12.595 22.6831 11.5365 23.2776 8.49157L23.3211 8.22332C23.1649 8.14262 23.0025 8.07473 22.8353 8.02032L22.6468 7.97682Z" fill="#242E65"/>
<path d="M16.817 8.23754C16.8434 8.05381 16.9606 7.89574 17.1287 7.81704C17.2033 7.78141 17.2853 7.76402 17.368 7.76629H20.906C21.2942 7.76196 21.6821 7.78863 22.066 7.84604L22.3705 7.90404L22.646 7.97654L22.7837 8.02004C22.9509 8.07445 23.1133 8.14234 23.2695 8.22304C23.5051 7.31724 23.2892 6.35339 22.6895 5.63479C21.9645 4.86629 20.7755 4.54004 19.224 4.54004H14.7145C14.397 4.53965 14.1264 4.77027 14.0765 5.08379L12.1987 16.981C12.1819 17.0932 12.2146 17.2072 12.2883 17.2934C12.362 17.3796 12.4695 17.4296 12.583 17.4305H15.367L16.092 13.0007L16.817 8.23754Z" fill="#253D80"/>
</g>
</g>
<defs>
<clipPath id="clip0_187_3354">
<rect x="0.94043" y="0.189941" width="35" height="24" rx="4" fill="white"/>
</clipPath>
<clipPath id="clip1_187_3354">
<rect width="35" height="24" fill="white" transform="translate(0.94043 0.189941)"/>
</clipPath>
</defs>
</svg>
