<svg width="134" height="48" viewBox="0 0 134 48" fill="none" xmlns="http://www.w3.org/2000/svg">
<rect x="0.632812" y="0.973633" width="133.012" height="46.5543" rx="23.2771" fill="#080809"/>
<path d="M29.6155 32.8925C26.4481 32.8743 23.8281 26.4086 23.8281 23.1157C23.8281 17.7369 27.8632 16.5593 29.4183 16.5593C30.1191 16.5593 30.8674 16.8345 31.5274 17.0781C31.989 17.2479 32.4663 17.4233 32.7318 17.4233C32.8907 17.4233 33.2652 17.2741 33.5958 17.1432C34.3009 16.8625 35.1783 16.5137 36.2 16.5137C36.2018 16.5137 36.2042 16.5137 36.206 16.5137C36.9689 16.5137 39.2821 16.6811 40.6728 18.7696L40.9985 19.2591L40.5297 19.6129C39.86 20.1182 38.6379 21.0401 38.6379 22.8661C38.6379 25.0289 40.0219 25.8606 40.6868 26.2606C40.9803 26.4372 41.2841 26.6193 41.2841 27.0175C41.2841 27.2775 39.209 32.8603 36.1957 32.8603C35.4583 32.8603 34.9371 32.6387 34.4774 32.4432C34.0122 32.2453 33.611 32.0748 32.9479 32.0748C32.6118 32.0748 32.1868 32.2338 31.7368 32.4024C31.1219 32.6319 30.4259 32.8925 29.6362 32.8925H29.6155Z" fill="white"/>
<path d="M36.5197 11.6128C36.5982 14.4425 34.5745 16.4056 32.5532 16.2824C32.2202 14.0243 34.5743 11.6128 36.5197 11.6128Z" fill="white"/>
<path d="M52.5478 18.2654H53.9445L52.0451 12.6789H50.417L48.5176 18.2654H49.9142L50.1935 17.3875H52.2685L52.5478 18.2654ZM50.5766 16.1904L51.231 14.1393L51.8854 16.1904H50.5766Z" fill="white"/>
<path d="M56.7709 14.275L55.9409 16.8049L55.1109 14.275H53.7861L55.2625 18.2654H56.6193L58.0957 14.275H56.7709Z" fill="white"/>
<path d="M61.2761 14.275V14.6501C61.0127 14.3468 60.6217 14.1633 60.087 14.1633C59.0415 14.1633 58.1796 15.0811 58.1796 16.2702C58.1796 17.4593 59.0415 18.3771 60.087 18.3771C60.6217 18.3771 61.0127 18.1936 61.2761 17.8903V18.2654H62.4732V14.275H61.2761ZM60.3264 17.2439C59.7757 17.2439 59.3767 16.8688 59.3767 16.2702C59.3767 15.6716 59.7757 15.2966 60.3264 15.2966C60.877 15.2966 61.2761 15.6716 61.2761 16.2702C61.2761 16.8688 60.877 17.2439 60.3264 17.2439Z" fill="white"/>
<path d="M63.3514 18.2654H64.5486V12.4395H63.3514V18.2654Z" fill="white"/>
<path d="M66.0231 13.9239C66.4142 13.9239 66.7414 13.5967 66.7414 13.2056C66.7414 12.8145 66.4142 12.4873 66.0231 12.4873C65.6321 12.4873 65.3049 12.8145 65.3049 13.2056C65.3049 13.5967 65.6321 13.9239 66.0231 13.9239ZM65.4246 18.2654H66.6217V14.275H65.4246V18.2654Z" fill="white"/>
<path d="M69.8839 14.1633C69.3492 14.1633 68.9582 14.3468 68.6948 14.6501V12.6789H67.4977V18.2654H68.6948V17.8903C68.9582 18.1936 69.3492 18.3771 69.8839 18.3771C70.9294 18.3771 71.7913 17.4593 71.7913 16.2702C71.7913 15.0811 70.9294 14.1633 69.8839 14.1633ZM69.6445 17.2439C69.0938 17.2439 68.6948 16.8688 68.6948 16.2702C68.6948 15.6716 69.0938 15.2966 69.6445 15.2966C70.1952 15.2966 70.5942 15.6716 70.5942 16.2702C70.5942 16.8688 70.1952 17.2439 69.6445 17.2439Z" fill="white"/>
<path d="M72.4701 18.2654H73.6672V12.4395H72.4701V18.2654Z" fill="white"/>
<path d="M75.6126 16.749H78.4457C78.4777 16.5974 78.4936 16.4378 78.4936 16.2702C78.4936 15.0651 77.6317 14.1633 76.4665 14.1633C75.2056 14.1633 74.3437 15.0811 74.3437 16.2702C74.3437 17.4593 75.1896 18.3771 76.5543 18.3771C77.3125 18.3771 77.9031 18.0978 78.2941 17.5551L77.3364 17.0044C77.1768 17.18 76.8975 17.3077 76.5703 17.3077C76.1313 17.3077 75.7642 17.164 75.6126 16.749ZM75.5886 15.8552C75.7004 15.4482 76.0036 15.2247 76.4585 15.2247C76.8177 15.2247 77.1768 15.3923 77.3045 15.8552H75.5886Z" fill="white"/>
<path d="M83.0832 18.3771C84.2563 18.3771 85.1981 17.4593 85.1981 16.2702C85.1981 15.0811 84.2563 14.1633 83.0832 14.1633C81.91 14.1633 80.9683 15.0811 80.9683 16.2702C80.9683 17.4593 81.91 18.3771 83.0832 18.3771ZM83.0832 17.2119C82.5644 17.2119 82.1654 16.8368 82.1654 16.2702C82.1654 15.7036 82.5644 15.3285 83.0832 15.3285C83.6019 15.3285 84.001 15.7036 84.001 16.2702C84.001 16.8368 83.6019 17.2119 83.0832 17.2119Z" fill="white"/>
<path d="M88.2135 14.1633C87.6868 14.1633 87.2878 14.3548 87.0723 14.6501V14.275H85.8752V18.2654H87.0723V16.0866C87.0723 15.52 87.3756 15.2646 87.8145 15.2646C88.1976 15.2646 88.5088 15.4961 88.5088 15.9909V18.2654H89.7059V15.8153C89.7059 14.7379 89.0196 14.1633 88.2135 14.1633Z" fill="white"/>
<path d="M94.8615 15.4242V14.275H94.0395V13.1577L92.8424 13.5169V14.275H92.204V15.4242H92.8424V16.8368C92.8424 17.9541 93.2973 18.425 94.8615 18.2654V17.18C94.3348 17.2119 94.0395 17.18 94.0395 16.8368V15.4242H94.8615Z" fill="white"/>
<path d="M97.8777 14.1633C97.351 14.1633 96.9519 14.3548 96.7365 14.6501V12.6789H95.5393V18.2654H96.7365V16.0866C96.7365 15.52 97.0397 15.2646 97.4787 15.2646C97.8617 15.2646 98.173 15.4961 98.173 15.9909V18.2654H99.3701V15.8153C99.3701 14.7379 98.6838 14.1633 97.8777 14.1633Z" fill="white"/>
<path d="M101.262 16.749H104.095C104.127 16.5974 104.143 16.4378 104.143 16.2702C104.143 15.0651 103.281 14.1633 102.116 14.1633C100.855 14.1633 99.9927 15.0811 99.9927 16.2702C99.9927 17.4593 100.839 18.3771 102.203 18.3771C102.961 18.3771 103.552 18.0978 103.943 17.5551L102.985 17.0044C102.826 17.18 102.546 17.3077 102.219 17.3077C101.78 17.3077 101.413 17.164 101.262 16.749ZM101.238 15.8552C101.349 15.4482 101.653 15.2247 102.108 15.2247C102.467 15.2247 102.826 15.3923 102.953 15.8552H101.238Z" fill="white"/>
<path d="M55.2347 32.8967H57.5624L54.3967 23.5859H51.6833L48.5176 32.8967H50.8453L51.3108 31.4336H54.7691L55.2347 32.8967ZM51.9493 29.4384L53.04 26.02L54.1307 29.4384H51.9493Z" fill="white"/>
<path d="M62.2669 26.0599C61.3757 26.0599 60.7239 26.3658 60.285 26.8713V26.2461H58.2898V35.557H60.285V32.2716C60.7239 32.777 61.3757 33.0829 62.2669 33.0829C64.0093 33.0829 65.4459 31.5533 65.4459 29.5714C65.4459 27.5895 64.0093 26.0599 62.2669 26.0599ZM61.8678 31.1942C60.9501 31.1942 60.285 30.569 60.285 29.5714C60.285 28.5738 60.9501 27.9487 61.8678 27.9487C62.7856 27.9487 63.4507 28.5738 63.4507 29.5714C63.4507 30.569 62.7856 31.1942 61.8678 31.1942Z" fill="white"/>
<path d="M70.5542 26.0599C69.663 26.0599 69.0112 26.3658 68.5723 26.8713V26.2461H66.5771V35.557H68.5723V32.2716C69.0112 32.777 69.663 33.0829 70.5542 33.0829C72.2966 33.0829 73.7331 31.5533 73.7331 29.5714C73.7331 27.5895 72.2966 26.0599 70.5542 26.0599ZM70.1551 31.1942C69.2373 31.1942 68.5723 30.569 68.5723 29.5714C68.5723 28.5738 69.2373 27.9487 70.1551 27.9487C71.0729 27.9487 71.738 28.5738 71.738 29.5714C71.738 30.569 71.0729 31.1942 70.1551 31.1942Z" fill="white"/>
<path d="M74.8644 32.8967H76.8596V23.1868H74.8644V32.8967Z" fill="white"/>
<path d="M80.1019 30.3695H84.8239C84.8771 30.1168 84.9037 29.8507 84.9037 29.5714C84.9037 27.5629 83.4671 26.0599 81.5252 26.0599C79.4236 26.0599 77.987 27.5895 77.987 29.5714C77.987 31.5533 79.397 33.0829 81.6715 33.0829C82.9351 33.0829 83.9194 32.6174 84.5711 31.7129L82.975 30.7951C82.709 31.0878 82.2434 31.3006 81.6981 31.3006C80.9665 31.3006 80.3547 31.0612 80.1019 30.3695ZM80.062 28.8798C80.2482 28.2014 80.7537 27.829 81.5119 27.829C82.1104 27.829 82.709 28.1083 82.9218 28.8798H80.062Z" fill="white"/>
<path d="M92.6859 33.0829C94.7077 33.0829 96.1442 32.0188 96.1442 30.2232C96.1442 28.2546 94.5614 27.7625 93.1515 27.3368C91.7016 26.8979 91.4755 26.6052 91.4755 26.1796C91.4755 25.8072 91.808 25.4746 92.4731 25.4746C93.3244 25.4746 93.7633 25.887 94.0825 26.552L95.8782 25.5012C95.1999 24.1312 94.0027 23.3997 92.4731 23.3997C90.8637 23.3997 89.3473 24.4371 89.3473 26.2328C89.3473 28.0152 90.704 28.6802 92.0874 29.066C93.484 29.4517 94.016 29.6778 94.016 30.2498C94.016 30.6089 93.7633 31.0079 92.7524 31.0079C91.7016 31.0079 91.1297 30.4892 90.7971 29.7177L88.9616 30.7818C89.4803 32.1519 90.7306 33.0829 92.6859 33.0829Z" fill="white"/>
<path d="M100.844 28.1615V26.2461H99.4737V24.3839L97.4785 24.9825V26.2461H96.4144V28.1615H97.4785V30.5158C97.4785 32.378 98.2367 33.1627 100.844 32.8967V31.0878C99.9658 31.141 99.4737 31.0878 99.4737 30.5158V28.1615H100.844Z" fill="white"/>
<path d="M105.036 33.0829C106.991 33.0829 108.561 31.5533 108.561 29.5714C108.561 27.5895 106.991 26.0599 105.036 26.0599C103.081 26.0599 101.511 27.5895 101.511 29.5714C101.511 31.5533 103.081 33.0829 105.036 33.0829ZM105.036 31.141C104.171 31.141 103.506 30.5158 103.506 29.5714C103.506 28.627 104.171 28.0019 105.036 28.0019C105.9 28.0019 106.565 28.627 106.565 29.5714C106.565 30.5158 105.9 31.141 105.036 31.141Z" fill="white"/>
<path d="M111.684 27.4299V26.2461H109.689V32.8967H111.684V29.8906C111.684 28.5738 112.855 28.2413 113.679 28.3743V26.1131C112.842 26.1131 111.95 26.5387 111.684 27.4299Z" fill="white"/>
<path d="M116.2 30.3695H120.922C120.975 30.1168 121.001 29.8507 121.001 29.5714C121.001 27.5629 119.565 26.0599 117.623 26.0599C115.521 26.0599 114.085 27.5895 114.085 29.5714C114.085 31.5533 115.495 33.0829 117.769 33.0829C119.033 33.0829 120.017 32.6174 120.669 31.7129L119.073 30.7951C118.807 31.0878 118.341 31.3006 117.796 31.3006C117.064 31.3006 116.452 31.0612 116.2 30.3695ZM116.16 28.8798C116.346 28.2014 116.851 27.829 117.61 27.829C118.208 27.829 118.807 28.1083 119.02 28.8798H116.16Z" fill="white"/>
</svg>
