<svg width="134" height="48" viewBox="0 0 134 48" fill="none" xmlns="http://www.w3.org/2000/svg">
<rect x="0.633789" y="0.463379" width="133.012" height="46.5543" rx="23.2771" fill="#080809"/>
<path d="M29.6165 32.3823C26.4491 32.364 23.8291 25.8983 23.8291 22.6055C23.8291 17.2266 27.8642 16.0491 29.4192 16.0491C30.12 16.0491 30.8684 16.3243 31.5284 16.5678C31.9899 16.7377 32.4673 16.9131 32.7328 16.9131C32.8917 16.9131 33.2661 16.7639 33.5968 16.633C34.3019 16.3523 35.1792 16.0034 36.2009 16.0034C36.2028 16.0034 36.2052 16.0034 36.207 16.0034C36.9699 16.0034 39.2831 16.1708 40.6738 18.2593L40.9995 18.7488L40.5307 19.1026C39.8609 19.608 38.6389 20.5298 38.6389 22.3559C38.6389 24.5186 40.0229 25.3503 40.6878 25.7504C40.9813 25.927 41.2851 26.109 41.2851 26.5072C41.2851 26.7672 39.21 32.35 36.1967 32.35C35.4593 32.35 34.9381 32.1284 34.4784 31.933C34.0132 31.7351 33.6119 31.5646 32.9489 31.5646C32.6128 31.5646 32.1878 31.7235 31.7378 31.8922C31.1229 32.1217 30.4269 32.3823 29.6372 32.3823H29.6165Z" fill="white"/>
<path d="M36.5207 11.1025C36.5992 13.9322 34.5755 15.8953 32.5542 15.7722C32.2211 13.514 34.5752 11.1025 36.5207 11.1025Z" fill="white"/>
<path d="M52.5488 17.7551H53.9454L52.046 12.1686H50.418L48.5186 17.7551H49.9152L50.1945 16.8773H52.2695L52.5488 17.7551ZM50.5776 15.6801L51.232 13.6291L51.8864 15.6801H50.5776Z" fill="white"/>
<path d="M56.7719 13.7648L55.9419 16.2947L55.1119 13.7648H53.7871L55.2635 17.7551H56.6202L58.0967 13.7648H56.7719Z" fill="white"/>
<path d="M61.2771 13.7648V14.1399C61.0137 13.8366 60.6226 13.653 60.0879 13.653C59.0425 13.653 58.1805 14.5708 58.1805 15.7599C58.1805 16.9491 59.0425 17.8669 60.0879 17.8669C60.6226 17.8669 61.0137 17.6833 61.2771 17.38V17.7551H62.4742V13.7648H61.2771ZM60.3274 16.7336C59.7767 16.7336 59.3776 16.3585 59.3776 15.7599C59.3776 15.1614 59.7767 14.7863 60.3274 14.7863C60.878 14.7863 61.2771 15.1614 61.2771 15.7599C61.2771 16.3585 60.878 16.7336 60.3274 16.7336Z" fill="white"/>
<path d="M63.3524 17.7551H64.5495V11.9292H63.3524V17.7551Z" fill="white"/>
<path d="M66.0241 13.4136C66.4152 13.4136 66.7424 13.0864 66.7424 12.6953C66.7424 12.3043 66.4152 11.9771 66.0241 11.9771C65.633 11.9771 65.3058 12.3043 65.3058 12.6953C65.3058 13.0864 65.633 13.4136 66.0241 13.4136ZM65.4255 17.7551H66.6227V13.7648H65.4255V17.7551Z" fill="white"/>
<path d="M69.8849 13.653C69.3502 13.653 68.9591 13.8366 68.6958 14.1399V12.1686H67.4987V17.7551H68.6958V17.38C68.9591 17.6833 69.3502 17.8669 69.8849 17.8669C70.9304 17.8669 71.7923 16.9491 71.7923 15.7599C71.7923 14.5708 70.9304 13.653 69.8849 13.653ZM69.6455 16.7336C69.0948 16.7336 68.6958 16.3585 68.6958 15.7599C68.6958 15.1614 69.0948 14.7863 69.6455 14.7863C70.1961 14.7863 70.5952 15.1614 70.5952 15.7599C70.5952 16.3585 70.1961 16.7336 69.6455 16.7336Z" fill="white"/>
<path d="M72.471 17.7551H73.6681V11.9292H72.471V17.7551Z" fill="white"/>
<path d="M75.6136 16.2388H78.4467C78.4786 16.0872 78.4946 15.9275 78.4946 15.7599C78.4946 14.5549 77.6327 13.653 76.4675 13.653C75.2065 13.653 74.3446 14.5708 74.3446 15.7599C74.3446 16.9491 75.1906 17.8669 76.5553 17.8669C77.3135 17.8669 77.904 17.5875 78.2951 17.0448L77.3374 16.4942C77.1778 16.6698 76.8985 16.7974 76.5713 16.7974C76.1323 16.7974 75.7652 16.6538 75.6136 16.2388ZM75.5896 15.345C75.7014 14.9379 76.0046 14.7145 76.4595 14.7145C76.8187 14.7145 77.1778 14.8821 77.3055 15.345H75.5896Z" fill="white"/>
<path d="M83.0841 17.8669C84.2573 17.8669 85.199 16.9491 85.199 15.7599C85.199 14.5708 84.2573 13.653 83.0841 13.653C81.911 13.653 80.9693 14.5708 80.9693 15.7599C80.9693 16.9491 81.911 17.8669 83.0841 17.8669ZM83.0841 16.7017C82.5654 16.7017 82.1664 16.3266 82.1664 15.7599C82.1664 15.1933 82.5654 14.8182 83.0841 14.8182C83.6029 14.8182 84.0019 15.1933 84.0019 15.7599C84.0019 16.3266 83.6029 16.7017 83.0841 16.7017Z" fill="white"/>
<path d="M88.2145 13.653C87.6878 13.653 87.2887 13.8446 87.0733 14.1399V13.7648H85.8762V17.7551H87.0733V15.5764C87.0733 15.0098 87.3765 14.7544 87.8155 14.7544C88.1986 14.7544 88.5098 14.9858 88.5098 15.4806V17.7551H89.7069V15.305C89.7069 14.2276 89.0206 13.653 88.2145 13.653Z" fill="white"/>
<path d="M94.8625 14.914V13.7648H94.0405V12.6475L92.8434 13.0066V13.7648H92.2049V14.914H92.8434V16.3266C92.8434 17.4439 93.2983 17.9147 94.8625 17.7551V16.6698C94.3358 16.7017 94.0405 16.6698 94.0405 16.3266V14.914H94.8625Z" fill="white"/>
<path d="M97.8787 13.653C97.3519 13.653 96.9529 13.8446 96.7374 14.1399V12.1686H95.5403V17.7551H96.7374V15.5764C96.7374 15.0098 97.0407 14.7544 97.4796 14.7544C97.8627 14.7544 98.174 14.9858 98.174 15.4806V17.7551H99.3711V15.305C99.3711 14.2276 98.6847 13.653 97.8787 13.653Z" fill="white"/>
<path d="M101.263 16.2388H104.096C104.128 16.0872 104.144 15.9275 104.144 15.7599C104.144 14.5549 103.282 13.653 102.117 13.653C100.856 13.653 99.9936 14.5708 99.9936 15.7599C99.9936 16.9491 100.84 17.8669 102.204 17.8669C102.962 17.8669 103.553 17.5875 103.944 17.0448L102.986 16.4942C102.827 16.6698 102.547 16.7974 102.22 16.7974C101.781 16.7974 101.414 16.6538 101.263 16.2388ZM101.239 15.345C101.35 14.9379 101.654 14.7145 102.109 14.7145C102.468 14.7145 102.827 14.8821 102.954 15.345H101.239Z" fill="white"/>
<path d="M55.2357 32.3865H57.5634L54.3977 23.0756H51.6842L48.5186 32.3865H50.8463L51.3118 30.9233H54.7701L55.2357 32.3865ZM51.9503 28.9282L53.041 25.5097L54.1317 28.9282H51.9503Z" fill="white"/>
<path d="M62.2679 25.5496C61.3767 25.5496 60.7249 25.8556 60.286 26.361V25.7359H58.2908V35.0467H60.286V31.7613C60.7249 32.2668 61.3767 32.5727 62.2679 32.5727C64.0103 32.5727 65.4468 31.043 65.4468 29.0612C65.4468 27.0793 64.0103 25.5496 62.2679 25.5496ZM61.8688 30.6839C60.951 30.6839 60.286 30.0588 60.286 29.0612C60.286 28.0636 60.951 27.4384 61.8688 27.4384C62.7866 27.4384 63.4517 28.0636 63.4517 29.0612C63.4517 30.0588 62.7866 30.6839 61.8688 30.6839Z" fill="white"/>
<path d="M70.5551 25.5496C69.664 25.5496 69.0122 25.8556 68.5733 26.361V25.7359H66.5781V35.0467H68.5733V31.7613C69.0122 32.2668 69.664 32.5727 70.5551 32.5727C72.2976 32.5727 73.7341 31.043 73.7341 29.0612C73.7341 27.0793 72.2976 25.5496 70.5551 25.5496ZM70.1561 30.6839C69.2383 30.6839 68.5733 30.0588 68.5733 29.0612C68.5733 28.0636 69.2383 27.4384 70.1561 27.4384C71.0739 27.4384 71.7389 28.0636 71.7389 29.0612C71.7389 30.0588 71.0739 30.6839 70.1561 30.6839Z" fill="white"/>
<path d="M74.8653 32.3865H76.8605V22.6766H74.8653V32.3865Z" fill="white"/>
<path d="M80.1029 29.8592H84.8248C84.878 29.6065 84.9046 29.3405 84.9046 29.0612C84.9046 27.0527 83.4681 25.5496 81.5261 25.5496C79.4245 25.5496 77.988 27.0793 77.988 29.0612C77.988 31.043 79.3979 32.5727 81.6725 32.5727C82.9361 32.5727 83.9204 32.1071 84.5721 31.2027L82.976 30.2849C82.7099 30.5775 82.2444 30.7903 81.6991 30.7903C80.9675 30.7903 80.3556 30.5509 80.1029 29.8592ZM80.063 28.3695C80.2492 27.6911 80.7547 27.3187 81.5128 27.3187C82.1114 27.3187 82.7099 27.598 82.9228 28.3695H80.063Z" fill="white"/>
<path d="M92.6869 32.5727C94.7087 32.5727 96.1452 31.5086 96.1452 29.7129C96.1452 27.7443 94.5624 27.2522 93.1524 26.8266C91.7026 26.3876 91.4765 26.095 91.4765 25.6694C91.4765 25.2969 91.809 24.9644 92.4741 24.9644C93.3254 24.9644 93.7643 25.3767 94.0835 26.0418L95.8792 24.991C95.2008 23.621 94.0037 22.8894 92.4741 22.8894C90.8646 22.8894 89.3483 23.9269 89.3483 25.7226C89.3483 27.5049 90.705 28.17 92.0883 28.5557C93.485 28.9415 94.017 29.1676 94.017 29.7395C94.017 30.0987 93.7643 30.4977 92.7534 30.4977C91.7026 30.4977 91.1307 29.9789 90.7981 29.2075L88.9626 30.2716C89.4813 31.6416 90.7316 32.5727 92.6869 32.5727Z" fill="white"/>
<path d="M100.845 27.6512V25.7359H99.4747V23.8737L97.4795 24.4722V25.7359H96.4154V27.6512H97.4795V30.0056C97.4795 31.8677 98.2377 32.6525 100.845 32.3865V30.5775C99.9668 30.6307 99.4747 30.5775 99.4747 30.0056V27.6512H100.845Z" fill="white"/>
<path d="M105.037 32.5727C106.992 32.5727 108.562 31.043 108.562 29.0612C108.562 27.0793 106.992 25.5496 105.037 25.5496C103.081 25.5496 101.512 27.0793 101.512 29.0612C101.512 31.043 103.081 32.5727 105.037 32.5727ZM105.037 30.6307C104.172 30.6307 103.507 30.0056 103.507 29.0612C103.507 28.1168 104.172 27.4916 105.037 27.4916C105.901 27.4916 106.566 28.1168 106.566 29.0612C106.566 30.0056 105.901 30.6307 105.037 30.6307Z" fill="white"/>
<path d="M111.685 26.9197V25.7359H109.69V32.3865H111.685V29.3804C111.685 28.0636 112.856 27.731 113.68 27.8641V25.6028C112.842 25.6028 111.951 26.0285 111.685 26.9197Z" fill="white"/>
<path d="M116.201 29.8592H120.923C120.976 29.6065 121.002 29.3405 121.002 29.0612C121.002 27.0527 119.566 25.5496 117.624 25.5496C115.522 25.5496 114.086 27.0793 114.086 29.0612C114.086 31.043 115.496 32.5727 117.77 32.5727C119.034 32.5727 120.018 32.1071 120.67 31.2027L119.074 30.2849C118.808 30.5775 118.342 30.7903 117.797 30.7903C117.065 30.7903 116.453 30.5509 116.201 29.8592ZM116.161 28.3695C116.347 27.6911 116.852 27.3187 117.611 27.3187C118.209 27.3187 118.808 27.598 119.021 28.3695H116.161Z" fill="white"/>
</svg>
