<svg width="17" height="17" viewBox="0 0 17 17" fill="none" xmlns="http://www.w3.org/2000/svg">
<path d="M12.3958 15.5834C11.6294 15.5922 10.9029 15.242 10.4325 14.6368C9.9621 14.0317 9.8019 13.2413 9.99956 12.5007L5.56539 9.96627C4.79917 10.6683 3.67604 10.8168 2.75365 10.3382C1.83126 9.85961 1.30609 8.85576 1.4389 7.82512C1.57171 6.79448 2.33421 5.95656 3.34779 5.72742C4.36138 5.49828 5.41016 5.92672 5.97339 6.80002L9.99885 4.49864C9.94677 4.30186 9.91917 4.0994 9.91668 3.89585C9.90653 2.71061 10.7297 1.68099 11.8881 1.43002C13.0465 1.17904 14.222 1.77563 14.7033 2.85879C15.1847 3.94196 14.8396 5.21422 13.8769 5.90575C12.9143 6.59728 11.5984 6.51816 10.7256 5.71627L6.36864 8.20606C6.36432 8.38975 6.33865 8.57231 6.29214 8.75006L10.7256 11.2838C11.5418 10.5347 12.7562 10.4191 13.6991 11.0007C14.642 11.5822 15.0837 12.7194 14.7807 13.7849C14.4777 14.8505 13.5036 15.585 12.3958 15.5834ZM12.3958 12.0417C11.809 12.0417 11.3333 12.5174 11.3333 13.1042C11.3333 13.691 11.809 14.1667 12.3958 14.1667C12.9827 14.1667 13.4583 13.691 13.4583 13.1042C13.4583 12.5174 12.9827 12.0417 12.3958 12.0417ZM3.89585 7.08335C3.30904 7.08335 2.83335 7.55905 2.83335 8.14585C2.83335 8.73265 3.30904 9.20835 3.89585 9.20835C4.48265 9.20835 4.95835 8.73265 4.95835 8.14585C4.95835 7.55905 4.48265 7.08335 3.89585 7.08335ZM12.3958 2.83335C11.809 2.83335 11.3333 3.30905 11.3333 3.89585C11.3333 4.48265 11.809 4.95835 12.3958 4.95835C12.9827 4.95835 13.4583 4.48265 13.4583 3.89585C13.4583 3.30905 12.9827 2.83335 12.3958 2.83335Z" fill="#9E9E9E"/>
</svg>
