<svg width="82" height="82" viewBox="0 0 82 82" fill="none" xmlns="http://www.w3.org/2000/svg">
<g filter="url(#filter0_d_42_742)">
<path fill-rule="evenodd" clip-rule="evenodd" d="M40.8241 65.1971C55.8836 65.1971 68.0916 52.989 68.0916 37.9296C68.0916 22.8702 55.8836 10.6621 40.8241 10.6621C25.7647 10.6621 13.5566 22.8702 13.5566 37.9296C13.5566 52.989 25.7647 65.1971 40.8241 65.1971Z" fill="white"/>
</g>
<path d="M51.0501 34.1233C50.2568 34.4835 49.4115 34.7222 48.5301 34.8381C49.4368 34.2778 50.1288 33.3974 50.4541 32.3362C49.6088 32.8579 48.6755 33.2263 47.6808 33.4319C46.8781 32.5474 45.7341 31.9995 44.4861 31.9995C42.0648 31.9995 40.1155 34.0336 40.1155 36.5272C40.1155 36.886 40.1448 37.231 40.2168 37.5594C36.5808 37.3759 33.3635 35.5723 31.2021 32.8247C30.8248 33.5023 30.6035 34.2778 30.6035 35.1127C30.6035 36.6804 31.3835 38.07 32.5461 38.8745C31.8435 38.8607 31.1541 38.6496 30.5701 38.317C30.5701 38.3308 30.5701 38.3488 30.5701 38.3667C30.5701 40.5664 32.0861 42.3935 34.0741 42.8144C33.7181 42.9151 33.3301 42.9634 32.9275 42.9634C32.6475 42.9634 32.3648 42.9468 32.0995 42.8861C32.6661 44.6787 34.2741 45.9966 36.1861 46.0394C34.6981 47.2441 32.8088 47.97 30.7635 47.97C30.4048 47.97 30.0608 47.9534 29.7168 47.9079C31.6541 49.2009 33.9501 49.9392 36.4261 49.9392C44.4741 49.9392 48.8741 43.0393 48.8741 37.0585C48.8741 36.8584 48.8675 36.6652 48.8581 36.4734C49.7261 35.8358 50.4555 35.0396 51.0501 34.1233Z" fill="#080809"/>
<defs>
<filter id="filter0_d_42_742" x="0.255425" y="0.021137" width="81.1376" height="81.1376" filterUnits="userSpaceOnUse" color-interpolation-filters="sRGB">
<feFlood flood-opacity="0" result="BackgroundImageFix"/>
<feColorMatrix in="SourceAlpha" type="matrix" values="0 0 0 0 0 0 0 0 0 0 0 0 0 0 0 0 0 0 127 0" result="hardAlpha"/>
<feOffset dy="2.66024"/>
<feGaussianBlur stdDeviation="6.65061"/>
<feColorMatrix type="matrix" values="0 0 0 0 0 0 0 0 0 0 0 0 0 0 0 0 0 0 0.1 0"/>
<feBlend mode="normal" in2="BackgroundImageFix" result="effect1_dropShadow_42_742"/>
<feBlend mode="normal" in="SourceGraphic" in2="effect1_dropShadow_42_742" result="shape"/>
</filter>
</defs>
</svg>
