<svg width="82" height="82" viewBox="0 0 82 82" fill="none" xmlns="http://www.w3.org/2000/svg">
<g filter="url(#filter0_d_42_745)">
<path fill-rule="evenodd" clip-rule="evenodd" d="M40.9277 65.535C55.9871 65.535 68.1951 53.3269 68.1951 38.2675C68.1951 23.2081 55.9871 11 40.9277 11C25.8682 11 13.6602 23.2081 13.6602 38.2675C13.6602 53.3269 25.8682 65.535 40.9277 65.535Z" fill="white"/>
</g>
<path fill-rule="evenodd" clip-rule="evenodd" d="M44.3982 35.2686C43.9725 35.1339 43.4829 35.0441 43.0359 35.0441C42.4824 35.0441 41.2904 35.4257 41.2904 36.1665V37.9398H44.1215V40.9252H41.2904V49.1631H38.4381V40.9252H37.0332V37.9398H38.4381V36.4358C38.4381 34.1687 39.4172 32.2832 41.78 32.2832C42.5889 32.2832 44.0363 32.3281 44.8239 32.6199L44.3982 35.2686Z" fill="#080809"/>
<defs>
<filter id="filter0_d_42_745" x="0.358941" y="0.359028" width="81.1376" height="81.1376" filterUnits="userSpaceOnUse" color-interpolation-filters="sRGB">
<feFlood flood-opacity="0" result="BackgroundImageFix"/>
<feColorMatrix in="SourceAlpha" type="matrix" values="0 0 0 0 0 0 0 0 0 0 0 0 0 0 0 0 0 0 127 0" result="hardAlpha"/>
<feOffset dy="2.66024"/>
<feGaussianBlur stdDeviation="6.65061"/>
<feColorMatrix type="matrix" values="0 0 0 0 0 0 0 0 0 0 0 0 0 0 0 0 0 0 0.1 0"/>
<feBlend mode="normal" in2="BackgroundImageFix" result="effect1_dropShadow_42_745"/>
<feBlend mode="normal" in="SourceGraphic" in2="effect1_dropShadow_42_745" result="shape"/>
</filter>
</defs>
</svg>
