<svg width="263" height="1529" viewBox="0 0 263 1529" fill="none" xmlns="http://www.w3.org/2000/svg">
<g filter="url(#filter0_d_181_2040)">
<path fill-rule="evenodd" clip-rule="evenodd" d="M221.824 1509.69C236.884 1509.69 249.092 1497.48 249.092 1482.42C249.092 1467.36 236.884 1455.15 221.824 1455.15C206.765 1455.15 194.557 1467.36 194.557 1482.42C194.557 1497.48 206.765 1509.69 221.824 1509.69Z" fill="white"/>
</g>
<path d="M231.862 1.58254C231.069 1.85092 230.223 2.02882 229.342 2.11519C230.249 1.69771 230.941 1.04166 231.266 0.250903C230.421 0.639597 229.487 0.91415 228.493 1.06737C227.69 0.408231 226.546 0 225.299 0C222.878 0 220.929 1.5157 220.929 3.37382C220.929 3.64118 220.958 3.89825 221.03 4.14298C217.394 4.00622 214.177 2.66224 212.016 0.614918C211.639 1.11981 211.418 1.69771 211.418 2.31982C211.418 3.48796 212.198 4.52345 213.36 5.12294C212.658 5.11266 211.968 4.95533 211.384 4.70751C211.384 4.7178 211.384 4.73116 211.384 4.74453C211.384 6.38363 212.9 7.74508 214.888 8.05871C214.532 8.13378 214.144 8.16977 213.741 8.16977C213.462 8.16977 213.179 8.15743 212.914 8.11218C213.48 9.44793 215.088 10.4299 217 10.4618C215.512 11.3595 213.623 11.9004 211.578 11.9004C211.219 11.9004 210.875 11.8881 210.531 11.8541C212.468 12.8176 214.764 13.3678 217.24 13.3678C225.287 13.3678 229.686 8.22632 229.686 3.76971C229.686 3.62061 229.679 3.47665 229.67 3.33372C230.538 2.85865 231.267 2.26532 231.862 1.58254Z" fill="#080809"/>
<g filter="url(#filter1_d_181_2040)">
<path fill-rule="evenodd" clip-rule="evenodd" d="M40.9277 1507.02C55.9871 1507.02 68.1951 1494.82 68.1951 1479.76C68.1951 1464.7 55.9871 1452.49 40.9277 1452.49C25.8682 1452.49 13.6602 1464.7 13.6602 1479.76C13.6602 1494.82 25.8682 1507.02 40.9277 1507.02Z" fill="white"/>
</g>
<path fill-rule="evenodd" clip-rule="evenodd" d="M44.3972 1476.76C43.9715 1476.62 43.4819 1476.53 43.0349 1476.53C42.4815 1476.53 41.2894 1476.92 41.2894 1477.66V1479.43H44.1205V1482.41H41.2894V1490.65H38.4371V1482.41H37.0322V1479.43H38.4371V1477.93C38.4371 1475.66 39.4163 1473.77 41.779 1473.77C42.5879 1473.77 44.0354 1473.82 44.8229 1474.11L44.3972 1476.76Z" fill="#080809"/>
<g filter="url(#filter2_d_181_2040)">
<path fill-rule="evenodd" clip-rule="evenodd" d="M131.376 1512.35C147.905 1512.35 161.304 1498.95 161.304 1482.42C161.304 1465.89 147.905 1452.49 131.376 1452.49C114.847 1452.49 101.448 1465.89 101.448 1482.42C101.448 1498.95 114.847 1512.35 131.376 1512.35Z" fill="url(#paint0_angular_181_2040)"/>
</g>
<g clip-path="url(#clip0_181_2040)">
<path d="M139.565 1471.11H124.518C122.799 1471.11 121.4 1472.51 121.4 1474.23V1489.27C121.4 1490.99 122.799 1492.39 124.518 1492.39H139.565C141.284 1492.39 142.682 1490.99 142.682 1489.27V1474.23C142.682 1472.51 141.284 1471.11 139.565 1471.11ZM141.435 1489.27C141.435 1490.31 140.596 1491.14 139.565 1491.14H124.518C123.487 1491.14 122.647 1490.31 122.647 1489.27V1474.23C122.647 1473.2 123.487 1472.36 124.518 1472.36H139.565C140.596 1472.36 141.435 1473.2 141.435 1474.23V1489.27Z" fill="white"/>
<path d="M138.899 1473.65C138.212 1473.65 137.652 1474.2 137.652 1474.89C137.652 1475.58 138.212 1476.14 138.899 1476.14C139.587 1476.14 140.146 1475.58 140.146 1474.89C140.146 1474.2 139.587 1473.65 138.899 1473.65Z" fill="white"/>
<path d="M132.041 1476.14C128.947 1476.14 126.43 1478.66 126.43 1481.75C126.43 1484.85 128.947 1487.36 132.041 1487.36C135.135 1487.36 137.653 1484.85 137.653 1481.75C137.653 1478.66 135.135 1476.14 132.041 1476.14ZM132.041 1486.12C129.634 1486.12 127.677 1484.16 127.677 1481.75C127.677 1479.35 129.634 1477.39 132.041 1477.39C134.448 1477.39 136.406 1479.35 136.406 1481.75C136.406 1484.16 134.448 1486.12 132.041 1486.12Z" fill="white"/>
</g>
<defs>
<filter id="filter0_d_181_2040" x="181.255" y="1444.51" width="81.1376" height="81.1376" filterUnits="userSpaceOnUse" color-interpolation-filters="sRGB">
<feFlood flood-opacity="0" result="BackgroundImageFix"/>
<feColorMatrix in="SourceAlpha" type="matrix" values="0 0 0 0 0 0 0 0 0 0 0 0 0 0 0 0 0 0 127 0" result="hardAlpha"/>
<feOffset dy="2.66024"/>
<feGaussianBlur stdDeviation="6.65061"/>
<feColorMatrix type="matrix" values="0 0 0 0 0 0 0 0 0 0 0 0 0 0 0 0 0 0 0.1 0"/>
<feBlend mode="normal" in2="BackgroundImageFix" result="effect1_dropShadow_181_2040"/>
<feBlend mode="normal" in="SourceGraphic" in2="effect1_dropShadow_181_2040" result="shape"/>
</filter>
<filter id="filter1_d_181_2040" x="0.358941" y="1441.85" width="81.1376" height="81.1376" filterUnits="userSpaceOnUse" color-interpolation-filters="sRGB">
<feFlood flood-opacity="0" result="BackgroundImageFix"/>
<feColorMatrix in="SourceAlpha" type="matrix" values="0 0 0 0 0 0 0 0 0 0 0 0 0 0 0 0 0 0 127 0" result="hardAlpha"/>
<feOffset dy="2.66024"/>
<feGaussianBlur stdDeviation="6.65061"/>
<feColorMatrix type="matrix" values="0 0 0 0 0 0 0 0 0 0 0 0 0 0 0 0 0 0 0.1 0"/>
<feBlend mode="normal" in2="BackgroundImageFix" result="effect1_dropShadow_181_2040"/>
<feBlend mode="normal" in="SourceGraphic" in2="effect1_dropShadow_181_2040" result="shape"/>
</filter>
<filter id="filter2_d_181_2040" x="88.147" y="1441.85" width="86.4579" height="86.4579" filterUnits="userSpaceOnUse" color-interpolation-filters="sRGB">
<feFlood flood-opacity="0" result="BackgroundImageFix"/>
<feColorMatrix in="SourceAlpha" type="matrix" values="0 0 0 0 0 0 0 0 0 0 0 0 0 0 0 0 0 0 127 0" result="hardAlpha"/>
<feOffset dy="2.66024"/>
<feGaussianBlur stdDeviation="6.65061"/>
<feColorMatrix type="matrix" values="0 0 0 0 0 0 0 0 0 0 0 0 0 0 0 0 0 0 0.1 0"/>
<feBlend mode="normal" in2="BackgroundImageFix" result="effect1_dropShadow_181_2040"/>
<feBlend mode="normal" in="SourceGraphic" in2="effect1_dropShadow_181_2040" result="shape"/>
</filter>
<radialGradient id="paint0_angular_181_2040" cx="0" cy="0" r="1" gradientUnits="userSpaceOnUse" gradientTransform="translate(131.376 1482.42) rotate(90) scale(0.665061)">
<stop stop-color="#B8D2F1"/>
<stop offset="0.166667" stop-color="#F289AA"/>
<stop offset="0.294697" stop-color="#C68BF0"/>
<stop offset="0.427083" stop-color="#D164DA"/>
<stop offset="0.614583" stop-color="#C963E8"/>
<stop offset="0.71875" stop-color="#BFC2E8"/>
<stop offset="0.802083" stop-color="#FFC999"/>
<stop offset="0.875" stop-color="#D0D8C9"/>
<stop offset="0.928149" stop-color="#BAD0F1"/>
<stop offset="0.997133" stop-color="#CED8CB"/>
<stop offset="1" stop-color="white" stop-opacity="0"/>
</radialGradient>
<clipPath id="clip0_181_2040">
<rect width="21.2819" height="21.2819" fill="white" transform="translate(121.4 1471.11)"/>
</clipPath>
</defs>
</svg>
