<svg width="87" height="87" viewBox="0 0 87 87" fill="none" xmlns="http://www.w3.org/2000/svg">
<g filter="url(#filter0_d_42_748)">
<path fill-rule="evenodd" clip-rule="evenodd" d="M43.375 70.8555C59.9036 70.8555 73.3027 57.4564 73.3027 40.9277C73.3027 24.3991 59.9036 11 43.375 11C26.8464 11 13.4473 24.3991 13.4473 40.9277C13.4473 57.4564 26.8464 70.8555 43.375 70.8555Z" fill="url(#paint0_angular_42_748)"/>
</g>
<g clip-path="url(#clip0_42_748)">
<path d="M51.5629 29.6196H36.5159C34.7971 29.6196 33.3984 31.0183 33.3984 32.7371V47.7841C33.3984 49.5033 34.7971 50.9016 36.5159 50.9016H51.5629C53.2821 50.9016 54.6804 49.5033 54.6804 47.7841V32.7371C54.6804 31.0183 53.2821 29.6196 51.5629 29.6196ZM53.4334 47.7841C53.4334 48.8154 52.5942 49.6546 51.5629 49.6546H36.5159C35.4846 49.6546 34.6454 48.8154 34.6454 47.7841V32.7371C34.6454 31.7058 35.4846 30.8666 36.5159 30.8666H51.5629C52.5942 30.8666 53.4334 31.7058 53.4334 32.7371V47.7841Z" fill="white"/>
<path d="M50.8974 32.1558C50.2099 32.1558 49.6504 32.7152 49.6504 33.4028C49.6504 34.0903 50.2099 34.6497 50.8974 34.6497C51.5849 34.6497 52.1444 34.0903 52.1444 33.4028C52.1444 32.7152 51.5849 32.1558 50.8974 32.1558Z" fill="white"/>
<path d="M44.0392 34.6509C40.945 34.6509 38.4277 37.1681 38.4277 40.2623C38.4277 43.3565 40.945 45.8738 44.0392 45.8738C47.1334 45.8738 49.6506 43.3565 49.6506 40.2623C49.6506 37.1681 47.1334 34.6509 44.0392 34.6509ZM44.0392 44.6268C41.6325 44.6268 39.6747 42.669 39.6747 40.2623C39.6747 37.8556 41.6325 35.8979 44.0392 35.8979C46.4459 35.8979 48.4036 37.8556 48.4036 40.2623C48.4036 42.669 46.4459 44.6268 44.0392 44.6268Z" fill="white"/>
</g>
<defs>
<filter id="filter0_d_42_748" x="0.14605" y="0.359028" width="86.4579" height="86.4579" filterUnits="userSpaceOnUse" color-interpolation-filters="sRGB">
<feFlood flood-opacity="0" result="BackgroundImageFix"/>
<feColorMatrix in="SourceAlpha" type="matrix" values="0 0 0 0 0 0 0 0 0 0 0 0 0 0 0 0 0 0 127 0" result="hardAlpha"/>
<feOffset dy="2.66024"/>
<feGaussianBlur stdDeviation="6.65061"/>
<feColorMatrix type="matrix" values="0 0 0 0 0 0 0 0 0 0 0 0 0 0 0 0 0 0 0.1 0"/>
<feBlend mode="normal" in2="BackgroundImageFix" result="effect1_dropShadow_42_748"/>
<feBlend mode="normal" in="SourceGraphic" in2="effect1_dropShadow_42_748" result="shape"/>
</filter>
<radialGradient id="paint0_angular_42_748" cx="0" cy="0" r="1" gradientUnits="userSpaceOnUse" gradientTransform="translate(43.375 40.9277) rotate(90) scale(0.665061)">
<stop stop-color="#B8D2F1"/>
<stop offset="0.166667" stop-color="#F289AA"/>
<stop offset="0.294697" stop-color="#C68BF0"/>
<stop offset="0.427083" stop-color="#D164DA"/>
<stop offset="0.614583" stop-color="#C963E8"/>
<stop offset="0.71875" stop-color="#BFC2E8"/>
<stop offset="0.802083" stop-color="#FFC999"/>
<stop offset="0.875" stop-color="#D0D8C9"/>
<stop offset="0.928149" stop-color="#BAD0F1"/>
<stop offset="0.997133" stop-color="#CED8CB"/>
<stop offset="1" stop-color="white" stop-opacity="0"/>
</radialGradient>
<clipPath id="clip0_42_748">
<rect width="21.2819" height="21.2819" fill="white" transform="translate(33.3984 29.6216)"/>
</clipPath>
</defs>
</svg>
