<svg width="15" height="14" viewBox="0 0 15 14" fill="none" xmlns="http://www.w3.org/2000/svg">
<path d="M6.94741 1.05786C7.12149 0.656425 7.69078 0.656426 7.86486 1.05787L9.42721 4.66077C9.49966 4.82785 9.65722 4.94232 9.8385 4.9596L13.7479 5.33211C14.1834 5.37362 14.3594 5.91506 14.0314 6.20467L11.0876 8.8039C10.9511 8.92444 10.8909 9.10966 10.9305 9.28741L11.7843 13.1205C11.8794 13.5476 11.4188 13.8823 11.042 13.6598L7.66033 11.6633C7.50351 11.5707 7.30876 11.5707 7.15194 11.6633L3.77024 13.6598C3.39345 13.8823 2.93288 13.5476 3.02801 13.1205L3.88178 9.28741C3.92137 9.10966 3.86119 8.92444 3.72467 8.8039L0.7809 6.20466C0.452901 5.91505 0.628825 5.37362 1.06441 5.33211L4.97377 4.9596C5.15505 4.94232 5.31261 4.82785 5.38506 4.66077L6.94741 1.05786Z" fill="#FBBC04"/>
</svg>
