<svg width="15" height="14" viewBox="0 0 15 14" fill="none" xmlns="http://www.w3.org/2000/svg">
<path d="M7.00997 1.05786C7.18405 0.656425 7.75334 0.656426 7.92742 1.05787L9.48977 4.66077C9.56222 4.82785 9.71978 4.94232 9.90106 4.9596L13.8104 5.33211C14.246 5.37362 14.4219 5.91506 14.0939 6.20467L11.1502 8.8039C11.0136 8.92444 10.9535 9.10966 10.9931 9.28741L11.8468 13.1205C11.942 13.5476 11.4814 13.8823 11.1046 13.6598L7.72289 11.6633C7.56607 11.5707 7.37132 11.5707 7.2145 11.6633L3.8328 13.6598C3.45601 13.8823 2.99544 13.5476 3.09057 13.1205L3.94434 9.28741C3.98393 9.10966 3.92375 8.92444 3.78724 8.8039L0.843461 6.20466C0.515462 5.91505 0.691386 5.37362 1.12697 5.33211L5.03633 4.9596C5.21761 4.94232 5.37517 4.82785 5.44762 4.66077L7.00997 1.05786Z" fill="#FBBC04"/>
</svg>
