<svg width="15" height="14" viewBox="0 0 15 14" fill="none" xmlns="http://www.w3.org/2000/svg">
<path d="M7.03084 1.05786C7.20492 0.656425 7.77422 0.656426 7.9483 1.05787L9.51064 4.66077C9.58309 4.82785 9.74065 4.94232 9.92194 4.9596L13.8313 5.33211C14.2669 5.37362 14.4428 5.91506 14.1148 6.20467L11.171 8.8039C11.0345 8.92444 10.9743 9.10966 11.0139 9.28741L11.8677 13.1205C11.9628 13.5476 11.5023 13.8823 11.1255 13.6598L7.74376 11.6633C7.58695 11.5707 7.39219 11.5707 7.23537 11.6633L3.85368 13.6598C3.47688 13.8823 3.01631 13.5476 3.11144 13.1205L3.96521 9.28741C4.0048 9.10966 3.94462 8.92444 3.80811 8.8039L0.864335 6.20466C0.536336 5.91505 0.71226 5.37362 1.14784 5.33211L5.0572 4.9596C5.23849 4.94232 5.39605 4.82785 5.4685 4.66077L7.03084 1.05786Z" fill="#FBBC04"/>
</svg>
