<svg width="15" height="14" viewBox="0 0 15 14" fill="none" xmlns="http://www.w3.org/2000/svg">
<path d="M6.98912 1.05786C7.1632 0.656425 7.7325 0.656426 7.90658 1.05787L9.46892 4.66077C9.54137 4.82785 9.69893 4.94232 9.88022 4.9596L13.7896 5.33211C14.2252 5.37362 14.4011 5.91506 14.0731 6.20467L11.1293 8.8039C10.9928 8.92444 10.9326 9.10966 10.9722 9.28741L11.826 13.1205C11.9211 13.5476 11.4605 13.8823 11.0837 13.6598L7.70205 11.6633C7.54523 11.5707 7.35047 11.5707 7.19366 11.6633L3.81196 13.6598C3.43517 13.8823 2.9746 13.5476 3.06972 13.1205L3.92349 9.28741C3.96309 9.10966 3.9029 8.92444 3.76639 8.8039L0.822617 6.20466C0.494618 5.91505 0.670542 5.37362 1.10613 5.33211L5.01548 4.9596C5.19677 4.94232 5.35433 4.82785 5.42678 4.66077L6.98912 1.05786Z" fill="#FBBC04"/>
</svg>
