<svg width="15" height="14" viewBox="0 0 15 14" fill="none" xmlns="http://www.w3.org/2000/svg">
<path d="M6.96828 1.05786C7.14236 0.656425 7.71166 0.656426 7.88574 1.05787L9.44808 4.66077C9.52053 4.82785 9.67809 4.94232 9.85938 4.9596L13.7687 5.33211C14.2043 5.37362 14.3802 5.91506 14.0522 6.20467L11.1085 8.8039C10.972 8.92444 10.9118 9.10966 10.9514 9.28741L11.8051 13.1205C11.9003 13.5476 11.4397 13.8823 11.0629 13.6598L7.6812 11.6633C7.52438 11.5707 7.32963 11.5707 7.17281 11.6633L3.79112 13.6598C3.41432 13.8823 2.95375 13.5476 3.04888 13.1205L3.90265 9.28741C3.94224 9.10966 3.88206 8.92444 3.74555 8.8039L0.801774 6.20466C0.473775 5.91505 0.649699 5.37362 1.08528 5.33211L4.99464 4.9596C5.17593 4.94232 5.33349 4.82785 5.40594 4.66077L6.96828 1.05786Z" fill="#FBBC04"/>
</svg>
