<svg width="90" height="82" viewBox="0 0 90 82" fill="none" xmlns="http://www.w3.org/2000/svg">
<path fill-rule="evenodd" clip-rule="evenodd" d="M19.3804 0C7.66892 8.12459 0 21.6667 0 37C0 61.8528 20.1472 82 45 82C69.8528 82 90 61.8528 90 37C90 21.6667 82.3311 8.12459 70.6196 0C69.1041 1.05138 67.5208 2.01204 65.8777 2.87411C77.3481 9.90648 85 22.5596 85 37C85 59.0914 67.0914 77 45 77C22.9086 77 5 59.0914 5 37C5 22.5596 12.6519 9.90648 24.1223 2.87411C22.4792 2.01204 20.8959 1.05138 19.3804 0Z" fill="#22C55E"/>
</svg>
