<svg width="17" height="17" viewBox="0 0 17 17" fill="none" xmlns="http://www.w3.org/2000/svg">
<path fill-rule="evenodd" clip-rule="evenodd" d="M8.72998 3.40002C7.27129 3.40002 5.87234 3.97949 4.84089 5.01094C3.80944 6.04239 3.22998 7.44133 3.22998 8.90002C3.22998 10.3587 3.80944 11.7577 4.84089 12.7891C5.87234 13.8206 7.27129 14.4 8.72998 14.4C10.1887 14.4 11.5876 13.8206 12.6191 12.7891C13.6505 11.7577 14.23 10.3587 14.23 8.90002C14.23 7.44133 13.6505 6.04239 12.6191 5.01094C11.5876 3.97949 10.1887 3.40002 8.72998 3.40002ZM2.22998 8.90002C2.22998 5.31002 5.13998 2.40002 8.72998 2.40002C12.32 2.40002 15.23 5.31002 15.23 8.90002C15.23 12.49 12.32 15.4 8.72998 15.4C5.13998 15.4 2.22998 12.49 2.22998 8.90002ZM8.22998 5.23336H9.22998V8.69336L11.4166 10.88L10.71 11.5867L8.22998 9.10669V5.23336Z" fill="black"/>
</svg>
