<svg width="19" height="19" viewBox="0 0 19 19" fill="none" xmlns="http://www.w3.org/2000/svg">
<path fill-rule="evenodd" clip-rule="evenodd" d="M6.94043 4.51251C6.79269 4.51251 6.6464 4.54161 6.50991 4.59815C6.37342 4.65468 6.2494 4.73755 6.14493 4.84202C6.04047 4.94648 5.9576 5.0705 5.90107 5.20699C5.84453 5.34348 5.81543 5.48978 5.81543 5.63751C5.81543 5.78525 5.84453 5.93154 5.90107 6.06803C5.9576 6.20452 6.04047 6.32854 6.14493 6.43301C6.2494 6.53747 6.37342 6.62034 6.50991 6.67688C6.6464 6.73341 6.79269 6.76251 6.94043 6.76251C7.2388 6.76251 7.52495 6.64399 7.73592 6.43301C7.9469 6.22203 8.06543 5.93588 8.06543 5.63751C8.06543 5.33914 7.9469 5.053 7.73592 4.84202C7.52495 4.63104 7.2388 4.51251 6.94043 4.51251ZM4.69043 5.63751C4.69043 5.04078 4.92748 4.46848 5.34944 4.04652C5.7714 3.62457 6.34369 3.38751 6.94043 3.38751C7.53717 3.38751 8.10946 3.62457 8.53142 4.04652C8.95338 4.46848 9.19043 5.04078 9.19043 5.63751C9.19043 6.23425 8.95338 6.80655 8.53142 7.2285C8.10946 7.65046 7.53717 7.88751 6.94043 7.88751C6.34369 7.88751 5.7714 7.65046 5.34944 7.2285C4.92748 6.80655 4.69043 6.23425 4.69043 5.63751ZM12.9404 6.01251C12.6421 6.01251 12.3559 6.13104 12.1449 6.34202C11.934 6.553 11.8154 6.83914 11.8154 7.13751C11.8154 7.43588 11.934 7.72203 12.1449 7.93301C12.3559 8.14399 12.6421 8.26251 12.9404 8.26251C13.2388 8.26251 13.5249 8.14399 13.7359 7.93301C13.9469 7.72203 14.0654 7.43588 14.0654 7.13751C14.0654 6.83914 13.9469 6.553 13.7359 6.34202C13.5249 6.13104 13.2388 6.01251 12.9404 6.01251ZM10.6904 7.13751C10.6904 6.54078 10.9275 5.96848 11.3494 5.54652C11.7714 5.12457 12.3437 4.88751 12.9404 4.88751C13.5372 4.88751 14.1095 5.12457 14.5314 5.54652C14.9534 5.96848 15.1904 6.54078 15.1904 7.13751C15.1904 7.73425 14.9534 8.30655 14.5314 8.7285C14.1095 9.15046 13.5372 9.38751 12.9404 9.38751C12.3437 9.38751 11.7714 9.15046 11.3494 8.7285C10.9275 8.30655 10.6904 7.73425 10.6904 7.13751ZM6.94043 9.01251C7.70708 9.00742 8.46531 9.17248 9.16046 9.49581C9.85562 9.81913 10.4704 10.2927 10.9604 10.8823C12.0369 10.4409 13.2299 10.3719 14.3501 10.686C15.4703 11.0002 16.4534 11.6795 17.1434 12.6163L17.2529 12.7655V16.5125H2.62793V11.2648L2.73818 11.1155C3.22341 10.4587 3.85698 9.92582 4.58725 9.56036C5.31753 9.1949 6.12383 9.00718 6.94043 9.01251ZM9.75293 15.3875H16.1279V13.1413C15.7441 12.6654 15.2586 12.2814 14.707 12.0177C14.1555 11.7539 13.5518 11.617 12.9404 11.617C12.329 11.617 11.7254 11.7539 11.1738 12.0177C10.6223 12.2814 10.1368 12.6654 9.75293 13.1413V15.3875ZM8.62793 15.3875H3.75293V11.642C4.13649 11.1682 4.6219 10.7869 5.17309 10.5264C5.72427 10.2659 6.32707 10.133 6.93668 10.1375H6.94418C7.50769 10.1329 8.06597 10.2458 8.58332 10.4693C9.10068 10.6927 9.56571 11.0216 9.94868 11.435C9.48372 11.7607 9.07466 12.1596 8.73743 12.6163L8.62793 12.7655V15.3875Z" fill="black"/>
</svg>
