<svg width="17" height="17" viewBox="0 0 17 17" fill="none" xmlns="http://www.w3.org/2000/svg">
<path fill-rule="evenodd" clip-rule="evenodd" d="M11.8457 5.86182V13.7131H10.8457V10.9638H9.521V7.69315C9.521 7.00648 9.823 6.52782 10.2243 6.23715C10.5503 6.00601 10.9381 5.87783 11.3377 5.86915L11.8457 5.86182ZM10.8457 9.96382V7.02382L10.811 7.04782C10.6603 7.15715 10.521 7.33782 10.521 7.69448V9.96382H10.8457Z" fill="black"/>
<path d="M6.75704 13.7135H7.75704V8.56678C7.9206 8.52501 8.06993 8.45945 8.20504 8.37012C8.45971 8.20078 8.62704 7.97012 8.73571 7.73212C8.94238 7.27745 8.96038 6.74012 8.96038 6.37012V5.87012H7.96038V6.37012C7.96038 6.74078 7.93371 7.08012 7.82571 7.31678C7.80696 7.35859 7.78395 7.39836 7.75704 7.43545V5.87012H6.75704V7.39012C6.74016 7.36496 6.72502 7.33867 6.71171 7.31145C6.59438 7.08212 6.55371 6.74478 6.55371 6.37012V5.87012H5.55371V6.37012C5.55371 6.77278 5.58971 7.31278 5.82038 7.76545C5.94038 8.00078 6.11771 8.22278 6.37571 8.38345C6.49304 8.4559 6.62016 8.51212 6.75704 8.55212V13.7135Z" fill="black"/>
<path fill-rule="evenodd" clip-rule="evenodd" d="M13.2445 0.611328L3.45722 3.39466H3.37988V16.1887H14.0199V3.39466H13.2452L13.2445 0.611328ZM12.2445 3.39466V1.93466L7.11322 3.39533L12.2445 3.39466ZM13.0192 4.39466H4.37988V15.1887H13.0199L13.0192 4.39466Z" fill="black"/>
</svg>
