<svg width="19" height="19" viewBox="0 0 19 19" fill="none" xmlns="http://www.w3.org/2000/svg">
<path fill-rule="evenodd" clip-rule="evenodd" d="M6.33517 3.01251C6.40904 3.01271 6.48215 3.02746 6.55032 3.05591C6.61849 3.08436 6.68039 3.12595 6.73248 3.17833C6.78457 3.2307 6.82584 3.29282 6.85393 3.36114C6.88202 3.42946 6.89637 3.50265 6.89617 3.57651L6.89467 4.13751H8.77867V3.57501C8.77867 3.42583 8.83794 3.28276 8.94342 3.17727C9.04891 3.07178 9.19199 3.01251 9.34117 3.01251C9.49036 3.01251 9.63343 3.07178 9.73892 3.17727C9.84441 3.28276 9.90367 3.42583 9.90367 3.57501V4.13751H11.7577L11.7562 3.57651C11.756 3.50265 11.7703 3.42946 11.7984 3.36114C11.8265 3.29282 11.8678 3.2307 11.9199 3.17833C11.972 3.12596 12.0339 3.08436 12.102 3.05591C12.1702 3.02746 12.2433 3.01271 12.3172 3.01251C12.391 3.01232 12.4642 3.02667 12.5325 3.05476C12.6009 3.08284 12.663 3.12411 12.7154 3.17621C12.7677 3.2283 12.8093 3.2902 12.8378 3.35837C12.8662 3.42654 12.881 3.49965 12.8812 3.57351L12.8827 4.13751H15.8962V16.8875H2.76367V4.13751H5.76967L5.77117 3.57351C5.77137 3.49965 5.78611 3.42654 5.81456 3.35837C5.84301 3.2902 5.88461 3.2283 5.93698 3.17621C5.98936 3.12411 6.05148 3.08284 6.1198 3.05476C6.18812 3.02667 6.2613 3.01232 6.33517 3.01251ZM5.76667 5.26251H3.88867V15.7625H14.7712V5.26251H12.8864L12.8909 6.57276L11.7659 6.57651L11.7614 5.26251H9.90367V6.57501H8.77867V5.26251H6.89167L6.88867 6.57651L5.76367 6.57351L5.76667 5.26251ZM5.76367 9.76251H9.88867V13.8875H5.76367V9.76251ZM6.88867 10.8875V12.7625H8.76367V10.8875H6.88867Z" fill="black"/>
</svg>
