<svg width="17" height="17" viewBox="0 0 17 17" fill="none" xmlns="http://www.w3.org/2000/svg">
<path fill-rule="evenodd" clip-rule="evenodd" d="M8.8999 2.70007C7.44121 2.70007 6.04227 3.27954 5.01082 4.31099C3.97936 5.34244 3.3999 6.74138 3.3999 8.20007C3.3999 9.65876 3.97936 11.0577 5.01082 12.0892C6.04227 13.1206 7.44121 13.7001 8.8999 13.7001C10.3586 13.7001 11.7575 13.1206 12.789 12.0892C13.8204 11.0577 14.3999 9.65876 14.3999 8.20007C14.3999 6.74138 13.8204 5.34244 12.789 4.31099C11.7575 3.27954 10.3586 2.70007 8.8999 2.70007ZM2.3999 8.20007C2.3999 4.61007 5.3099 1.70007 8.8999 1.70007C12.4899 1.70007 15.3999 4.61007 15.3999 8.20007C15.3999 11.7901 12.4899 14.7001 8.8999 14.7001C5.3099 14.7001 2.3999 11.7901 2.3999 8.20007ZM8.3999 4.53341H9.3999V7.99341L11.5866 10.1801L10.8799 10.8867L8.3999 8.40674V4.53341Z" fill="black"/>
</svg>
