<svg width="25" height="24" viewBox="0 0 25 24" fill="none" xmlns="http://www.w3.org/2000/svg">
<path fill-rule="evenodd" clip-rule="evenodd" d="M12.8301 3.74994C10.642 3.74994 8.54362 4.61913 6.99645 6.16631C5.44927 7.71348 4.58008 9.8119 4.58008 11.9999C4.58008 14.188 5.44927 16.2864 6.99645 17.8336C8.54362 19.3807 10.642 20.2499 12.8301 20.2499C15.0181 20.2499 17.1165 19.3807 18.6637 17.8336C20.2109 16.2864 21.0801 14.188 21.0801 11.9999C21.0801 9.8119 20.2109 7.71348 18.6637 6.16631C17.1165 4.61913 15.0181 3.74994 12.8301 3.74994ZM3.08008 11.9999C3.08008 6.61494 7.44508 2.24994 12.8301 2.24994C18.2151 2.24994 22.5801 6.61494 22.5801 11.9999C22.5801 17.3849 18.2151 21.7499 12.8301 21.7499C7.44508 21.7499 3.08008 17.3849 3.08008 11.9999ZM12.0801 6.49994H13.5801V11.6899L16.8601 14.9699L15.8001 16.0299L12.0801 12.3099V6.49994Z" fill="#2C2C2C"/>
</svg>
