<svg width="17" height="16" viewBox="0 0 17 16" fill="none" xmlns="http://www.w3.org/2000/svg">
<path fill-rule="evenodd" clip-rule="evenodd" d="M8.44311 7.9786V4.37793H9.44311V8.3926L7.42444 10.4113L6.71777 9.7046L8.44311 7.9786ZM14.6811 9.9286L11.0698 13.5393L9.14311 11.6126L9.84977 10.9059L11.0698 12.1253L13.9738 9.22126L14.6811 9.9286Z" fill="#333333"/>
<path d="M14.4369 7.99993C14.4368 6.55597 13.8682 5.17008 12.8542 4.14215C11.8401 3.11421 10.462 2.52689 9.0182 2.50726V1.50726C12.5695 1.54726 15.4362 4.4386 15.4362 7.99993C15.4362 8.05993 15.4355 8.11949 15.4342 8.1786H14.4335C14.4353 8.1186 14.4369 8.05904 14.4369 7.99993ZM8.92086 13.4926C7.81048 13.4879 6.7276 13.1467 5.81498 12.5142C4.90237 11.8816 4.20288 10.9874 3.80872 9.94927C3.41457 8.91118 3.34426 7.77802 3.60706 6.69917C3.86987 5.62032 4.45345 4.64644 5.28086 3.90593L4.62886 3.14793C3.94313 3.75652 3.39435 4.5037 3.01879 5.3401C2.64322 6.1765 2.44943 7.08308 2.4502 7.99993C2.4502 11.5779 5.34553 14.4799 8.92086 14.4926V13.4926Z" fill="#333333"/>
<path fill-rule="evenodd" clip-rule="evenodd" d="M4.44363 3.82196H2.22363V2.82196H5.44363V6.04196H4.44363V3.82196Z" fill="#333333"/>
</svg>
