<svg width="17" height="16" viewBox="0 0 17 16" fill="none" xmlns="http://www.w3.org/2000/svg">
<path fill-rule="evenodd" clip-rule="evenodd" d="M8.75 2.50024C7.29131 2.50024 5.89236 3.07971 4.86091 4.11116C3.82946 5.14261 3.25 6.54155 3.25 8.00024C3.25 9.45893 3.82946 10.8579 4.86091 11.8893C5.89236 12.9208 7.29131 13.5002 8.75 13.5002C10.2087 13.5002 11.6076 12.9208 12.6391 11.8893C13.6705 10.8579 14.25 9.45893 14.25 8.00024C14.25 6.54155 13.6705 5.14261 12.6391 4.11116C11.6076 3.07971 10.2087 2.50024 8.75 2.50024ZM2.25 8.00024C2.25 4.41024 5.16 1.50024 8.75 1.50024C12.34 1.50024 15.25 4.41024 15.25 8.00024C15.25 11.5902 12.34 14.5002 8.75 14.5002C5.16 14.5002 2.25 11.5902 2.25 8.00024ZM8.25 4.33358H9.25V7.79358L11.4367 9.98024L10.73 10.6869L8.25 8.20691V4.33358Z" fill="black"/>
</svg>
