<svg width="17" height="17" viewBox="0 0 17 17" fill="none" xmlns="http://www.w3.org/2000/svg">
<path fill-rule="evenodd" clip-rule="evenodd" d="M8.55957 3.1001C7.10088 3.1001 5.70193 3.67956 4.67048 4.71101C3.63903 5.74246 3.05957 7.14141 3.05957 8.6001C3.05957 10.0588 3.63903 11.4577 4.67048 12.4892C5.70193 13.5206 7.10088 14.1001 8.55957 14.1001C10.0183 14.1001 11.4172 13.5206 12.4487 12.4892C13.4801 11.4577 14.0596 10.0588 14.0596 8.6001C14.0596 7.14141 13.4801 5.74246 12.4487 4.71101C11.4172 3.67956 10.0183 3.1001 8.55957 3.1001ZM2.05957 8.6001C2.05957 5.0101 4.96957 2.1001 8.55957 2.1001C12.1496 2.1001 15.0596 5.0101 15.0596 8.6001C15.0596 12.1901 12.1496 15.1001 8.55957 15.1001C4.96957 15.1001 2.05957 12.1901 2.05957 8.6001ZM8.05957 4.93343H9.05957V8.39343L11.2462 10.5801L10.5396 11.2868L8.05957 8.80676V4.93343Z" fill="black"/>
</svg>
