<svg width="20" height="21" viewBox="0 0 20 21" fill="none" xmlns="http://www.w3.org/2000/svg">
<path d="M7.84368 19.5216L1.48535 12.9466L3.04368 11.3882L5.86868 11.8882C5.93535 11.8882 6.28535 11.8882 6.47702 11.7132L8.26869 9.97991C8.28535 9.93825 8.30202 9.87158 8.30202 9.84658C8.30202 9.82991 8.24368 9.76325 8.08535 9.68825L2.08535 6.92158L4.36868 4.68825L11.727 6.01325C11.8937 6.02991 12.1354 6.02991 12.2437 6.01325L14.9187 3.31325C15.6354 2.66325 17.0687 1.85491 18.052 2.82991C19.027 3.80491 18.252 5.22991 17.6437 5.92158L15.0104 8.61325C14.9937 8.66325 14.9687 8.81325 15.0187 9.12158L16.2854 16.4799L14.0354 18.5049L11.2937 12.8049C11.2533 12.755 11.202 12.7151 11.1437 12.6882L9.06869 14.6299C9.06869 14.6299 9.06035 14.7549 9.07702 14.8799L9.53535 17.8966L7.83535 19.5216H7.84368ZM3.23535 12.9632L7.87702 17.7549L8.21035 17.4382L7.85202 15.0632C7.71868 14.1966 8.06035 13.8132 8.27702 13.6632L10.2937 11.7966C10.6687 11.4466 11.052 11.4132 11.2937 11.4382C11.902 11.5049 12.277 12.0132 12.352 12.1132L12.402 12.1966L14.4437 16.4466L14.9354 15.9966L13.7854 9.32158C13.6104 8.30491 13.9437 7.86325 14.152 7.68825L16.727 5.06325C16.9354 4.82158 17.4687 4.01325 17.1687 3.70491C16.8687 3.40491 16.0354 3.97158 15.7854 4.20491L13.0604 6.94658C12.6687 7.32158 11.9354 7.29658 11.5354 7.23825L4.78535 6.02991L4.26035 6.54658L8.60202 8.54658C9.21035 8.82158 9.42702 9.22991 9.50202 9.52158C9.66869 10.1466 9.31035 10.6716 9.26868 10.7299L9.19368 10.8216L7.32702 12.6299C6.67702 13.2216 5.78535 13.1466 5.69368 13.1299L3.46868 12.7382L3.24368 12.9632H3.23535Z" fill="#333333"/>
</svg>
