<svg width="17" height="17" viewBox="0 0 17 17" fill="none" xmlns="http://www.w3.org/2000/svg">
<path fill-rule="evenodd" clip-rule="evenodd" d="M8.45996 3.09999C7.00127 3.09999 5.60232 3.67945 4.57087 4.7109C3.53942 5.74235 2.95996 7.1413 2.95996 8.59999C2.95996 10.0587 3.53942 11.4576 4.57087 12.4891C5.60232 13.5205 7.00127 14.1 8.45996 14.1C9.91865 14.1 11.3176 13.5205 12.349 12.4891C13.3805 11.4576 13.96 10.0587 13.96 8.59999C13.96 7.1413 13.3805 5.74235 12.349 4.7109C11.3176 3.67945 9.91865 3.09999 8.45996 3.09999ZM1.95996 8.59999C1.95996 5.00999 4.86996 2.09999 8.45996 2.09999C12.05 2.09999 14.96 5.00999 14.96 8.59999C14.96 12.19 12.05 15.1 8.45996 15.1C4.86996 15.1 1.95996 12.19 1.95996 8.59999ZM7.95996 4.93332H8.95996V8.39332L11.1466 10.58L10.44 11.2867L7.95996 8.80666V4.93332Z" fill="black"/>
</svg>
