<svg width="25" height="24" viewBox="0 0 25 24" fill="none" xmlns="http://www.w3.org/2000/svg">
<path fill-rule="evenodd" clip-rule="evenodd" d="M4.43994 9.79898C4.43994 5.55198 7.92794 2.09198 12.1899 2.09198C16.4519 2.09198 19.9399 5.55198 19.9399 9.79898C19.9399 12.079 18.8019 14.276 17.4689 16.122C16.1589 17.935 14.5859 19.51 13.4919 20.605L13.4089 20.688L13.4069 20.69L12.1819 21.908L10.9689 20.665L10.9389 20.635L10.9269 20.622C9.82694 19.53 8.22194 17.935 6.89194 16.092C5.56794 14.254 4.43994 12.068 4.43994 9.79898ZM12.1899 3.59198C8.74794 3.59198 5.93994 6.38898 5.93994 9.79898C5.93994 11.595 6.84694 13.464 8.10994 15.214C9.36194 16.95 10.8879 18.47 11.9959 19.571L12.0389 19.613L12.1989 19.777L12.3469 19.628L12.3489 19.626L12.4099 19.566C13.5129 18.461 15.0149 16.958 16.2529 15.244C17.5239 13.484 18.4399 11.604 18.4399 9.79898C18.4399 6.38898 15.6319 3.59198 12.1899 3.59198ZM13.8889 8.60498C13.7024 8.15451 13.3445 7.79661 12.894 7.61001C12.4436 7.42341 11.9374 7.4234 11.4869 7.60998C11.2639 7.70236 11.0612 7.83778 10.8905 8.00849C10.7198 8.1792 10.5844 8.38186 10.492 8.60491C10.3054 9.05537 10.3054 9.56151 10.4919 10.012C10.5843 10.2351 10.7198 10.4378 10.8905 10.6086C11.0612 10.7794 11.2639 10.9149 11.487 11.0073C11.7101 11.0997 11.9492 11.1473 12.1907 11.1474C12.4322 11.1474 12.6713 11.0999 12.8944 11.0075C13.1176 10.9151 13.3203 10.7797 13.4911 10.6089C13.6618 10.4382 13.7973 10.2355 13.8898 10.0124C13.9822 9.78931 14.0298 9.5502 14.0298 9.30871C14.0299 9.06722 13.9813 8.8281 13.8889 8.60498ZM10.9139 6.22498C11.3189 6.05722 11.753 5.97087 12.1914 5.97086C12.6298 5.97085 13.0638 6.05718 13.4688 6.22493C13.8738 6.39268 14.2418 6.63856 14.5518 6.94853C14.8618 7.2585 15.1077 7.62648 15.2754 8.03148C15.4432 8.43648 15.5296 8.87055 15.5296 9.30892C15.5296 9.74729 15.4432 10.1814 15.2755 10.5864C15.1077 10.9914 14.8619 11.3594 14.5519 11.6693C14.2419 11.9793 13.8739 12.2252 13.4689 12.393C13.0639 12.5607 12.6297 12.6471 12.1913 12.6471C11.7529 12.647 11.3187 12.5607 10.9137 12.3929C10.0957 12.054 9.44576 11.404 9.10694 10.586C8.76813 9.76792 8.76816 8.84877 9.10704 8.03074C9.44592 7.2127 10.0959 6.56379 10.9139 6.22498Z" fill="#E0E0E0"/>
</svg>
