<svg width="17" height="17" viewBox="0 0 17 17" fill="none" xmlns="http://www.w3.org/2000/svg">
<path fill-rule="evenodd" clip-rule="evenodd" d="M8.29004 2.69971C6.83135 2.69971 5.4324 3.27917 4.40095 4.31062C3.3695 5.34207 2.79004 6.74102 2.79004 8.19971C2.79004 9.6584 3.3695 11.0573 4.40095 12.0888C5.4324 13.1202 6.83135 13.6997 8.29004 13.6997C9.74873 13.6997 11.1477 13.1202 12.1791 12.0888C13.2106 11.0573 13.79 9.6584 13.79 8.19971C13.79 6.74102 13.2106 5.34207 12.1791 4.31062C11.1477 3.27917 9.74873 2.69971 8.29004 2.69971ZM1.79004 8.19971C1.79004 4.60971 4.70004 1.69971 8.29004 1.69971C11.88 1.69971 14.79 4.60971 14.79 8.19971C14.79 11.7897 11.88 14.6997 8.29004 14.6997C4.70004 14.6997 1.79004 11.7897 1.79004 8.19971ZM7.79004 4.53304H8.79004V7.99304L10.9767 10.1797L10.27 10.8864L7.79004 8.40637V4.53304Z" fill="black"/>
</svg>
