<svg width="33" height="33" viewBox="0 0 33 33" fill="none" xmlns="http://www.w3.org/2000/svg">
<path d="M16.3 5.87065C14.9969 5.87074 13.7066 6.12748 12.5028 6.62622C11.299 7.12497 10.2052 7.85594 9.28381 8.7774C8.36247 9.69887 7.63164 10.7928 7.13306 11.9967C6.63448 13.2006 6.37791 14.4909 6.378 15.794C6.37809 17.097 6.63483 18.3873 7.13357 19.5912C7.63231 20.795 8.36329 21.8888 9.28475 22.8102C10.2062 23.7315 11.3001 24.4623 12.504 24.9609C13.7079 25.4595 14.9983 25.7161 16.3013 25.716C18.933 25.7158 21.4568 24.6702 23.3175 22.8092C25.1783 20.9482 26.2235 18.4243 26.2233 15.7927C26.2232 13.161 25.1776 10.6372 23.3166 8.77646C21.4556 6.91573 18.9317 5.87047 16.3 5.87065ZM16.3 24.604C15.1299 24.6243 13.9674 24.4115 12.8805 23.9777C11.7935 23.544 10.8039 22.8982 9.96917 22.0779C9.13449 21.2576 8.47153 20.2793 8.01899 19.2001C7.56644 18.1208 7.33337 16.9623 7.33337 15.792C7.33337 14.6217 7.56644 13.4631 8.01899 12.3839C8.47153 11.3046 9.13449 10.3263 9.96917 9.50605C10.8039 8.68576 11.7935 8.03992 12.8805 7.60622C13.9674 7.17251 15.1299 6.95963 16.3 6.97998C18.6185 7.0085 20.8323 7.94953 22.4618 9.59913C24.0912 11.2487 25.0049 13.474 25.0049 15.7927C25.0049 18.1113 24.0912 20.3366 22.4618 21.9862C20.8323 23.6358 18.6185 24.5755 16.3 24.604ZM14.0907 16.4667C14.0907 16.7886 13.9628 17.0974 13.7351 17.3251C13.5074 17.5527 13.1986 17.6807 12.8767 17.6807C12.5547 17.6807 12.2459 17.5527 12.0182 17.3251C11.7906 17.0974 11.6627 16.7886 11.6627 16.4667C11.6627 16.1447 11.7906 15.8359 12.0182 15.6082C12.2459 15.3806 12.5547 15.2527 12.8767 15.2527C13.1986 15.2527 13.5074 15.3806 13.7351 15.6082C13.9628 15.8359 14.0907 16.1447 14.0907 16.4667ZM20.936 16.4667C20.936 16.6261 20.9046 16.7839 20.8436 16.9312C20.7826 17.0785 20.6932 17.2123 20.5804 17.3251C20.4677 17.4378 20.3339 17.5272 20.1866 17.5882C20.0393 17.6493 19.8814 17.6807 19.722 17.6807C19.5626 17.6807 19.4047 17.6493 19.2574 17.5882C19.1101 17.5272 18.9763 17.4378 18.8636 17.3251C18.7508 17.2123 18.6614 17.0785 18.6004 16.9312C18.5394 16.7839 18.508 16.6261 18.508 16.4667C18.508 16.1449 18.6358 15.8362 18.8634 15.6087C19.0909 15.3812 19.3995 15.2533 19.7213 15.2533C20.0431 15.2533 20.3517 15.3812 20.5793 15.6087C20.8068 15.8362 20.9347 16.1449 20.9347 16.4667M22.028 13.9373L23.148 12.72H20.664C19.3781 11.842 17.8571 11.3726 16.3 11.3733C14.7442 11.3702 13.224 11.8388 11.94 12.7173H9.44933L10.5693 13.9347C9.90099 14.5491 9.50409 15.4038 9.46596 16.3109C9.42783 17.2179 9.75158 18.103 10.366 18.7713C10.9804 19.4397 11.8352 19.8366 12.7422 19.8747C13.6493 19.9128 14.5343 19.5891 15.2027 18.9747L16.3 20.1693L17.3973 18.976C17.7255 19.2953 18.1143 19.5455 18.5409 19.7119C18.9674 19.8783 19.423 19.9575 19.8807 19.9447C20.3384 19.9319 20.7889 19.8275 21.2055 19.6375C21.6221 19.4476 21.9964 19.1761 22.3062 18.8389C22.616 18.5018 22.8551 18.106 23.0092 17.6749C23.1634 17.2438 23.2295 16.7861 23.2037 16.329C23.1779 15.8718 23.0607 15.4245 22.859 15.0135C22.6572 14.6025 22.3751 14.2361 22.0293 13.936M12.876 18.7813C12.5717 18.7813 12.2703 18.7214 11.9892 18.6049C11.708 18.4885 11.4526 18.3178 11.2374 18.1026C11.0222 17.8874 10.8515 17.6319 10.7351 17.3508C10.6186 17.0696 10.5587 16.7683 10.5587 16.464C10.5587 16.1597 10.6186 15.8583 10.7351 15.5772C10.8515 15.296 11.0222 15.0406 11.2374 14.8254C11.4526 14.6102 11.708 14.4395 11.9892 14.323C12.2703 14.2066 12.5717 14.1467 12.876 14.1467C13.4906 14.1467 14.08 14.3908 14.5146 14.8254C14.9492 15.26 15.1933 15.8494 15.1933 16.464C15.1933 17.0786 14.9492 17.668 14.5146 18.1026C14.08 18.5372 13.4906 18.7813 12.876 18.7813ZM16.3 16.4C16.3 14.876 15.1907 13.568 13.728 13.0093C14.5427 12.6687 15.417 12.4933 16.3 12.4933C17.1825 12.493 18.0563 12.668 18.8707 13.008C17.4093 13.568 16.3013 14.8747 16.3013 16.3987M19.7227 18.7813C19.4184 18.7812 19.117 18.7212 18.8359 18.6047C18.5548 18.4881 18.2994 18.3174 18.0843 18.1021C17.8691 17.8869 17.6985 17.6314 17.5821 17.3502C17.4658 17.069 17.4059 16.7676 17.406 16.4633C17.4061 16.159 17.4661 15.8577 17.5827 15.5766C17.6992 15.2954 17.87 15.04 18.0852 14.8249C18.3004 14.6098 18.556 14.4392 18.8371 14.3228C19.1183 14.2064 19.4197 14.1466 19.724 14.1467C20.3386 14.1467 20.928 14.3908 21.3626 14.8254C21.7972 15.26 22.0413 15.8494 22.0413 16.464C22.0413 17.0786 21.7972 17.668 21.3626 18.1026C20.928 18.5372 20.3373 18.7813 19.7227 18.7813ZM8.44933 23.74C8.44933 23.74 7.94667 22.4787 6.588 21.2027C5.228 19.9267 3.51733 19.6933 3.51733 19.6933C3.51733 19.6933 4.12667 21.0533 5.57067 22.4133C7.01867 23.7693 8.44933 23.74 8.44933 23.74ZM11.8733 25.62C11.8733 25.62 11.1747 24.9387 9.90133 24.4427C8.628 23.9467 7.42 24.188 7.42 24.188C7.42 24.188 8.21733 24.908 9.57333 25.4347C10.928 25.964 11.8733 25.62 11.8733 25.62ZM15.1973 26.2933C15.1973 26.2933 14.4707 25.9947 13.388 26.032C12.3053 26.0693 11.5013 26.6587 11.5013 26.6587C11.5013 26.6587 12.312 26.9547 13.4653 26.916C14.6187 26.8773 15.1973 26.2933 15.1973 26.2933ZM6.95067 20.6893C6.95067 20.6893 6.71733 19.3453 5.652 17.8173C4.58533 16.288 2.96533 15.7133 2.96533 15.7133C2.96533 15.7133 3.28267 17.1773 4.41733 18.8053C5.55067 20.432 6.95067 20.6893 6.95067 20.6893ZM5.61333 16.5947C5.61333 16.5947 5.87333 15.2333 5.43467 13.404C4.99733 11.576 3.70933 10.4573 3.70933 10.4573C3.70933 10.4573 3.48267 11.9613 3.94933 13.9093C4.416 15.856 5.61333 16.5947 5.61333 16.5947Z" fill="black"/>
<path d="M24.1492 23.74C24.1492 23.74 24.6519 22.4787 26.0105 21.2027C27.3705 19.9267 29.0812 19.6933 29.0812 19.6933C29.0812 19.6933 28.4719 21.0533 27.0279 22.4133C25.5799 23.7693 24.1492 23.74 24.1492 23.74ZM20.7265 25.62C20.7265 25.62 21.4252 24.9387 22.6985 24.4427C23.9719 23.9467 25.1799 24.188 25.1799 24.188C25.1799 24.188 24.3825 24.908 23.0265 25.4347C21.6719 25.964 20.7265 25.62 20.7265 25.62ZM17.4025 26.2933C17.4025 26.2933 18.1292 25.9947 19.2119 26.032C20.2945 26.0693 21.0985 26.6587 21.0985 26.6587C21.0985 26.6587 20.2879 26.9547 19.1345 26.916C17.9812 26.8773 17.4025 26.2933 17.4025 26.2933ZM25.6492 20.6893C25.6492 20.6893 25.8825 19.3453 26.9479 17.8173C28.0145 16.288 29.6345 15.7133 29.6345 15.7133C29.6345 15.7133 29.3172 17.1773 28.1825 18.8053C27.0492 20.432 25.6492 20.6893 25.6492 20.6893ZM26.9865 16.5947C26.9865 16.5947 26.7265 15.2333 27.1639 13.404C27.6039 11.576 28.8879 10.4573 28.8879 10.4573C28.8879 10.4573 29.1145 11.9613 28.6479 13.9093C28.1825 15.856 26.9865 16.5947 26.9865 16.5947ZM16.2999 27.3293C16.4461 27.3293 16.5863 27.2712 16.6897 27.1678C16.7931 27.0644 16.8512 26.9242 16.8512 26.778C16.8512 26.6318 16.7931 26.4915 16.6897 26.3881C16.5863 26.2847 16.4461 26.2267 16.2999 26.2267C16.1536 26.2267 16.0134 26.2847 15.91 26.3881C15.8066 26.4915 15.7485 26.6318 15.7485 26.778C15.7485 26.9242 15.8066 27.0644 15.91 27.1678C16.0134 27.2712 16.1536 27.3293 16.2999 27.3293Z" fill="black"/>
</svg>
