<svg width="17" height="17" viewBox="0 0 17 17" fill="none" xmlns="http://www.w3.org/2000/svg">
<path fill-rule="evenodd" clip-rule="evenodd" d="M7.205 3.19805V2.20605H6.29167V3.29605H6.299V6.64272H5.80167V5.40405H5.795V4.49805H4.88167V5.40339H4.43633V4.49805H3.523V5.40339H3.08633V4.49805H2.173V5.40339H2.15967V14.1941H7.713V10.2874C7.715 10.2827 7.72167 10.2621 7.747 10.2387C7.77767 10.2107 7.875 10.1401 8.131 10.1401H9.48167C9.54446 10.1504 9.60388 10.1755 9.655 10.2134C9.68167 10.2347 9.70211 10.2596 9.71633 10.2881C9.72967 10.3154 9.745 10.3614 9.745 10.4347V14.1947H15.441V5.40272H15.431V4.49805H14.5177V5.40339H14.0303V4.49805H13.117V5.40339H12.6603V4.49805H11.747V5.40339H11.7423V6.64339H11.0983V3.19805H11.0917V2.20605H10.1783V3.19805H9.77034V2.20605H8.857V3.19805H8.54234V2.20605H7.629V3.19805H7.205ZM7.21234 4.11139V7.55606H4.88833V6.31605H3.07233V13.2814H6.799V10.2594C6.80433 10.0427 6.90033 9.77739 7.12567 9.56806C7.35967 9.35206 7.697 9.22672 8.13033 9.22672H9.52233L9.54033 9.22806C9.72967 9.24339 9.99567 9.31739 10.225 9.50005C10.4717 9.69805 10.6577 10.0094 10.6577 10.4347V13.2814H14.527V6.31672H12.655V7.55672H10.1843V4.11072L7.21234 4.11139Z" fill="black"/>
</svg>
