<svg width="17" height="17" viewBox="0 0 17 17" fill="none" xmlns="http://www.w3.org/2000/svg">
<path fill-rule="evenodd" clip-rule="evenodd" d="M8.80291 3.49536L15.3656 14.3047H2.23291L5.25624 9.54469L8.80291 3.49536ZM6.09291 10.0934L4.05291 13.3054H13.5876L11.8782 10.4894L11.8302 10.5294C11.5396 10.7614 11.0976 10.972 10.4762 10.972C10.1102 10.972 9.79624 10.8487 9.52958 10.7C9.31087 10.5726 9.10045 10.4314 8.89958 10.2774L8.80691 10.2094C8.34958 9.87669 7.96691 9.63869 7.47624 9.63869C6.89758 9.63869 6.53758 9.78203 6.33424 9.90203C6.24547 9.95453 6.16427 10.0189 6.09291 10.0934ZM11.3429 9.60803L8.81691 5.44803L6.92558 8.6747C7.09447 8.65114 7.27802 8.63914 7.47624 8.63869C8.31958 8.63869 8.93624 9.0667 9.39558 9.4007L9.49824 9.47603C9.69424 9.61936 9.85424 9.73603 10.0169 9.82736C10.1982 9.92803 10.3422 9.97203 10.4762 9.97203C10.8549 9.97203 11.0796 9.84936 11.2056 9.74803C11.2722 9.6947 11.3162 9.64403 11.3416 9.60936L11.3429 9.60803Z" fill="black"/>
</svg>
