<svg width="17" height="17" viewBox="0 0 17 17" fill="none" xmlns="http://www.w3.org/2000/svg">
<path fill-rule="evenodd" clip-rule="evenodd" d="M8.73975 2.90001C7.28106 2.90001 5.88211 3.47947 4.85066 4.51092C3.81921 5.54237 3.23975 6.94132 3.23975 8.40001C3.23975 9.8587 3.81921 11.2576 4.85066 12.2891C5.88211 13.3205 7.28106 13.9 8.73975 13.9C10.1984 13.9 11.5974 13.3205 12.6288 12.2891C13.6603 11.2576 14.2397 9.8587 14.2397 8.40001C14.2397 6.94132 13.6603 5.54237 12.6288 4.51092C11.5974 3.47947 10.1984 2.90001 8.73975 2.90001ZM2.23975 8.40001C2.23975 4.81001 5.14975 1.90001 8.73975 1.90001C12.3297 1.90001 15.2397 4.81001 15.2397 8.40001C15.2397 11.99 12.3297 14.9 8.73975 14.9C5.14975 14.9 2.23975 11.99 2.23975 8.40001ZM8.23975 4.73334H9.23975V8.19334L11.4264 10.38L10.7197 11.0867L8.23975 8.60668V4.73334Z" fill="black"/>
</svg>
