<svg width="25" height="24" viewBox="0 0 25 24" fill="none" xmlns="http://www.w3.org/2000/svg">
<path fill-rule="evenodd" clip-rule="evenodd" d="M8.60721 2.75C8.70571 2.75026 8.80318 2.76992 8.89408 2.80786C8.98497 2.84579 9.0675 2.90126 9.13696 2.97109C9.20642 3.04092 9.26144 3.12374 9.29889 3.21484C9.33634 3.30593 9.35548 3.40351 9.35522 3.502L9.35322 4.25H11.8652V3.5C11.8652 3.30109 11.9442 3.11032 12.0849 2.96967C12.2255 2.82902 12.4163 2.75 12.6152 2.75C12.8141 2.75 13.0049 2.82902 13.1455 2.96967C13.2862 3.11032 13.3652 3.30109 13.3652 3.5V4.25H15.8372L15.8352 3.502C15.835 3.40351 15.8541 3.30593 15.8915 3.21484C15.929 3.12374 15.984 3.04092 16.0535 2.97109C16.1229 2.90126 16.2055 2.84579 16.2964 2.80786C16.3872 2.76992 16.4847 2.75027 16.5832 2.75C16.6817 2.74974 16.7793 2.76888 16.8704 2.80633C16.9615 2.84378 17.0443 2.8988 17.1141 2.96826C17.184 3.03772 17.2394 3.12025 17.2774 3.21114C17.3153 3.30204 17.335 3.39951 17.3352 3.498L17.3372 4.25H21.3552V21.25H3.84521V4.25H7.85321L7.85522 3.498C7.85548 3.39951 7.87514 3.30204 7.91307 3.21114C7.951 3.12025 8.00647 3.03772 8.0763 2.96826C8.14613 2.8988 8.22895 2.84378 8.32005 2.80633C8.41114 2.76888 8.50872 2.74974 8.60721 2.75ZM7.84922 5.75H5.34521V19.75H19.8552V5.75H17.3422L17.3482 7.497L15.8482 7.502L15.8422 5.75H13.3652V7.5H11.8652V5.75H9.34921L9.34521 7.502L7.84521 7.498L7.84922 5.75ZM7.84521 11.75H13.3452V17.25H7.84521V11.75ZM9.34521 13.25V15.75H11.8452V13.25H9.34521Z" fill="#E0E0E0"/>
</svg>
