<svg width="17" height="17" viewBox="0 0 17 17" fill="none" xmlns="http://www.w3.org/2000/svg">
<path fill-rule="evenodd" clip-rule="evenodd" d="M8.63965 3.1001C7.18096 3.1001 5.78201 3.67956 4.75056 4.71101C3.71911 5.74246 3.13965 7.14141 3.13965 8.6001C3.13965 10.0588 3.71911 11.4577 4.75056 12.4892C5.78201 13.5206 7.18096 14.1001 8.63965 14.1001C10.0983 14.1001 11.4973 13.5206 12.5287 12.4892C13.5602 11.4577 14.1396 10.0588 14.1396 8.6001C14.1396 7.14141 13.5602 5.74246 12.5287 4.71101C11.4973 3.67956 10.0983 3.1001 8.63965 3.1001ZM2.13965 8.6001C2.13965 5.0101 5.04965 2.1001 8.63965 2.1001C12.2296 2.1001 15.1396 5.0101 15.1396 8.6001C15.1396 12.1901 12.2296 15.1001 8.63965 15.1001C5.04965 15.1001 2.13965 12.1901 2.13965 8.6001ZM8.13965 4.93343H9.13965V8.39343L11.3263 10.5801L10.6196 11.2868L8.13965 8.80676V4.93343Z" fill="black"/>
</svg>
