<svg width="18" height="19" viewBox="0 0 18 19" fill="none" xmlns="http://www.w3.org/2000/svg">
<path fill-rule="evenodd" clip-rule="evenodd" d="M9.00719 5.44626C8.75855 5.44626 8.52009 5.54503 8.34427 5.72085C8.16846 5.89667 8.06969 6.13512 8.06969 6.38376C8.06969 6.6324 8.16846 6.87086 8.34427 7.04667C8.52009 7.22249 8.75855 7.32126 9.00719 7.32126C9.25583 7.32126 9.49428 7.22249 9.6701 7.04667C9.84592 6.87086 9.94469 6.6324 9.94469 6.38376C9.94469 6.13512 9.84592 5.89667 9.6701 5.72085C9.49428 5.54503 9.25583 5.44626 9.00719 5.44626ZM6.94469 6.38376C6.94469 5.83675 7.16199 5.31215 7.54878 4.92535C7.93557 4.53856 8.46018 4.32126 9.00719 4.32126C9.5542 4.32126 10.0788 4.53856 10.4656 4.92535C10.8524 5.31215 11.0697 5.83675 11.0697 6.38376C11.0697 6.93077 10.8524 7.45538 10.4656 7.84217C10.0788 8.22896 9.5542 8.44626 9.00719 8.44626C8.46018 8.44626 7.93557 8.22896 7.54878 7.84217C7.16199 7.45538 6.94469 6.93077 6.94469 6.38376ZM3.94469 6.94626C3.69605 6.94626 3.45759 7.04503 3.28177 7.22085C3.10596 7.39667 3.00719 7.63512 3.00719 7.88376C3.00719 8.1324 3.10596 8.37086 3.28177 8.54667C3.45759 8.72249 3.69605 8.82126 3.94469 8.82126C4.19333 8.82126 4.43178 8.72249 4.6076 8.54667C4.78342 8.37086 4.88219 8.1324 4.88219 7.88376C4.88219 7.63512 4.78342 7.39667 4.6076 7.22085C4.43178 7.04503 4.19333 6.94626 3.94469 6.94626ZM1.88219 7.88376C1.88219 7.33675 2.09949 6.81215 2.48628 6.42535C2.87307 6.03856 3.39768 5.82126 3.94469 5.82126C4.4917 5.82126 5.0163 6.03856 5.40309 6.42535C5.78989 6.81215 6.00719 7.33675 6.00719 7.88376C6.00719 8.43077 5.78989 8.95538 5.40309 9.34217C5.0163 9.72896 4.4917 9.94626 3.94469 9.94626C3.39768 9.94626 2.87307 9.72896 2.48628 9.34217C2.09949 8.95538 1.88219 8.43077 1.88219 7.88376ZM14.0697 6.94626C13.821 6.94626 13.5826 7.04503 13.4068 7.22085C13.231 7.39667 13.1322 7.63512 13.1322 7.88376C13.1322 8.1324 13.231 8.37086 13.4068 8.54667C13.5826 8.72249 13.821 8.82126 14.0697 8.82126C14.3183 8.82126 14.5568 8.72249 14.7326 8.54667C14.9084 8.37086 15.0072 8.1324 15.0072 7.88376C15.0072 7.63512 14.9084 7.39667 14.7326 7.22085C14.5568 7.04503 14.3183 6.94626 14.0697 6.94626ZM12.0072 7.88376C12.0072 7.33675 12.2245 6.81215 12.6113 6.42535C12.9981 6.03856 13.5227 5.82126 14.0697 5.82126C14.6167 5.82126 15.1413 6.03856 15.5281 6.42535C15.9149 6.81215 16.1322 7.33675 16.1322 7.88376C16.1322 8.43077 15.9149 8.95538 15.5281 9.34217C15.1413 9.72896 14.6167 9.94626 14.0697 9.94626C13.5227 9.94626 12.9981 9.72896 12.6113 9.34217C12.2245 8.95538 12.0072 8.43077 12.0072 7.88376ZM10.3624 11.1988C9.93725 10.9986 9.47183 10.8985 9.00194 10.9063H8.98619C8.21494 10.8969 7.46834 11.1777 6.89444 11.693C7.20044 11.915 7.47569 12.1775 7.71344 12.4745L7.83719 12.629V15.5623L0.929688 15.5803V12.629L1.05344 12.4745C1.61295 11.7763 2.37779 11.2715 3.23981 11.0317C4.10184 10.7919 5.01745 10.8291 5.85719 11.138C6.25529 10.7049 6.73994 10.3603 7.27974 10.1264C7.81954 9.89257 8.40244 9.77472 8.99069 9.78051C9.5824 9.77166 10.1693 9.88796 10.7129 10.1218C11.2566 10.3556 11.7446 10.7016 12.1452 11.1373C12.9846 10.8291 13.8996 10.7924 14.761 11.0323C15.6224 11.2723 16.3867 11.7767 16.9459 12.4745L17.0697 12.629V15.5623L10.1622 15.5803V12.629L10.2859 12.4745C10.5234 12.1782 10.7994 11.9149 11.1064 11.6915C10.8838 11.4917 10.6331 11.3254 10.3624 11.198M4.38344 12.0005C3.94481 12.0009 3.51111 12.0929 3.1101 12.2706C2.70909 12.4483 2.34961 12.7078 2.05469 13.0325V14.4515L6.71219 14.4395V13.0325C6.41733 12.7077 6.05788 12.4481 5.65687 12.2702C5.25586 12.0924 4.82212 12.0003 4.38344 11.9998M13.6159 11.9998C13.1773 12.0002 12.7436 12.0922 12.3426 12.2699C11.9416 12.4476 11.5821 12.7071 11.2872 13.0318V14.4508L15.9447 14.4388V13.0325C15.6498 12.7077 15.2904 12.4481 14.8894 12.2702C14.4884 12.0924 14.0546 12.0003 13.6159 11.9998Z" fill="black"/>
</svg>
