<svg width="17" height="16" viewBox="0 0 17 16" fill="none" xmlns="http://www.w3.org/2000/svg">
<path fill-rule="evenodd" clip-rule="evenodd" d="M8.87988 2.49951C7.42119 2.49951 6.02225 3.07897 4.9908 4.11042C3.95935 5.14187 3.37988 6.54082 3.37988 7.99951C3.37988 9.4582 3.95935 10.8571 4.9908 11.8886C6.02225 12.92 7.42119 13.4995 8.87988 13.4995C10.3386 13.4995 11.7375 12.92 12.769 11.8886C13.8004 10.8571 14.3799 9.4582 14.3799 7.99951C14.3799 6.54082 13.8004 5.14187 12.769 4.11042C11.7375 3.07897 10.3386 2.49951 8.87988 2.49951ZM2.37988 7.99951C2.37988 4.40951 5.28988 1.49951 8.87988 1.49951C12.4699 1.49951 15.3799 4.40951 15.3799 7.99951C15.3799 11.5895 12.4699 14.4995 8.87988 14.4995C5.28988 14.4995 2.37988 11.5895 2.37988 7.99951ZM8.37988 4.33285H9.37988V7.79284L11.5666 9.97951L10.8599 10.6862L8.37988 8.20618V4.33285Z" fill="black"/>
</svg>
