<svg width="18" height="19" viewBox="0 0 18 19" fill="none" xmlns="http://www.w3.org/2000/svg">
<path fill-rule="evenodd" clip-rule="evenodd" d="M9 3.76251C7.35897 3.76251 5.78516 4.41441 4.62478 5.57479C3.4644 6.73517 2.8125 8.30899 2.8125 9.95001C2.8125 11.591 3.4644 13.1649 4.62478 14.3252C5.78516 15.4856 7.35897 16.1375 9 16.1375C10.641 16.1375 12.2148 15.4856 13.3752 14.3252C14.5356 13.1649 15.1875 11.591 15.1875 9.95001C15.1875 8.30899 14.5356 6.73517 13.3752 5.57479C12.2148 4.41441 10.641 3.76251 9 3.76251ZM1.6875 9.95001C1.6875 5.91126 4.96125 2.63751 9 2.63751C13.0388 2.63751 16.3125 5.91126 16.3125 9.95001C16.3125 13.9888 13.0388 17.2625 9 17.2625C4.96125 17.2625 1.6875 13.9888 1.6875 9.95001ZM8.4375 5.82501H9.5625V9.71751L12.0225 12.1775L11.2275 12.9725L8.4375 10.1825V5.82501Z" fill="black"/>
</svg>
