<svg width="17" height="17" viewBox="0 0 17 17" fill="none" xmlns="http://www.w3.org/2000/svg">
<path fill-rule="evenodd" clip-rule="evenodd" d="M2.2998 3.36667H15.2998V6.336L14.9425 6.44267C14.5645 6.55602 14.2332 6.78821 13.9976 7.10478C13.7621 7.42134 13.6349 7.80541 13.6349 8.2C13.6349 8.59459 13.7621 8.97866 13.9976 9.29523C14.2332 9.61179 14.5645 9.84398 14.9425 9.95734L15.2998 10.064V13.0333H2.2998V10.064L2.65714 9.95734C3.03509 9.84398 3.36643 9.61179 3.60199 9.29523C3.83754 8.97866 3.96476 8.59459 3.96476 8.2C3.96476 7.80541 3.83754 7.42134 3.60199 7.10478C3.36643 6.78821 3.03509 6.55602 2.65714 6.44267L2.2998 6.336V3.36667ZM3.2998 4.36667V5.61734C3.79693 5.84161 4.21876 6.2046 4.51467 6.66272C4.81057 7.12084 4.96797 7.65463 4.96797 8.2C4.96797 8.74538 4.81057 9.27916 4.51467 9.73728C4.21876 10.1954 3.79693 10.5584 3.2998 10.7827V12.0333H14.2998V10.7827C13.8027 10.5584 13.3808 10.1954 13.0849 9.73728C12.789 9.27916 12.6316 8.74538 12.6316 8.2C12.6316 7.65463 12.789 7.12084 13.0849 6.66272C13.3808 6.2046 13.8027 5.84161 14.2998 5.61734V4.36667H3.2998Z" fill="black"/>
<path d="M8.79997 9.86668C8.97678 9.86668 9.14635 9.93692 9.27137 10.0619C9.3964 10.187 9.46663 10.3565 9.46663 10.5333C9.46663 10.7102 9.3964 10.8797 9.27137 11.0048C9.14635 11.1298 8.97678 11.2 8.79997 11.2C8.62316 11.2 8.45359 11.1298 8.32856 11.0048C8.20354 10.8797 8.1333 10.7102 8.1333 10.5333C8.1333 10.3565 8.20354 10.187 8.32856 10.0619C8.45359 9.93692 8.62316 9.86668 8.79997 9.86668ZM8.79997 7.53335C8.97678 7.53335 9.14635 7.60358 9.27137 7.72861C9.3964 7.85363 9.46663 8.0232 9.46663 8.20001C9.46663 8.37682 9.3964 8.54639 9.27137 8.67142C9.14635 8.79644 8.97678 8.86668 8.79997 8.86668C8.62316 8.86668 8.45359 8.79644 8.32856 8.67142C8.20354 8.54639 8.1333 8.37682 8.1333 8.20001C8.1333 8.0232 8.20354 7.85363 8.32856 7.72861C8.45359 7.60358 8.62316 7.53335 8.79997 7.53335ZM8.79997 5.20001C8.97678 5.20001 9.14635 5.27025 9.27137 5.39527C9.3964 5.5203 9.46663 5.68987 9.46663 5.86668C9.46663 6.04349 9.3964 6.21306 9.27137 6.33808C9.14635 6.46311 8.97678 6.53335 8.79997 6.53335C8.62316 6.53335 8.45359 6.46311 8.32856 6.33808C8.20354 6.21306 8.1333 6.04349 8.1333 5.86668C8.1333 5.68987 8.20354 5.5203 8.32856 5.39527C8.45359 5.27025 8.62316 5.20001 8.79997 5.20001Z" fill="black"/>
</svg>
