<svg width="20" height="21" viewBox="0 0 20 21" fill="none" xmlns="http://www.w3.org/2000/svg">
<path d="M3.54167 7.82503C3.81793 7.82503 4.08289 7.71529 4.27824 7.51994C4.47359 7.32458 4.58333 7.05963 4.58333 6.78337C4.58333 6.5071 4.47359 6.24215 4.27824 6.0468C4.08289 5.85145 3.81793 5.7417 3.54167 5.7417C3.2654 5.7417 3.00045 5.85145 2.8051 6.0468C2.60975 6.24215 2.5 6.5071 2.5 6.78337C2.5 7.05963 2.60975 7.32458 2.8051 7.51994C3.00045 7.71529 3.2654 7.82503 3.54167 7.82503ZM3.54167 11.9917C3.81793 11.9917 4.08289 11.882 4.27824 11.6866C4.47359 11.4913 4.58333 11.2263 4.58333 10.95C4.58333 10.6738 4.47359 10.4088 4.27824 10.2135C4.08289 10.0181 3.81793 9.90837 3.54167 9.90837C3.2654 9.90837 3.00045 10.0181 2.8051 10.2135C2.60975 10.4088 2.5 10.6738 2.5 10.95C2.5 11.2263 2.60975 11.4913 2.8051 11.6866C3.00045 11.882 3.2654 11.9917 3.54167 11.9917ZM3.54167 16.1584C3.81793 16.1584 4.08289 16.0486 4.27824 15.8533C4.47359 15.6579 4.58333 15.393 4.58333 15.1167C4.58333 14.8404 4.47359 14.5755 4.27824 14.3801C4.08289 14.1848 3.81793 14.075 3.54167 14.075C3.2654 14.075 3.00045 14.1848 2.8051 14.3801C2.60975 14.5755 2.5 14.8404 2.5 15.1167C2.5 15.393 2.60975 15.6579 2.8051 15.8533C3.00045 16.0486 3.2654 16.1584 3.54167 16.1584Z" fill="#333333"/>
<path fill-rule="evenodd" clip-rule="evenodd" d="M17.5 7.4082H6.25V6.1582H17.5V7.4082ZM17.5 11.5749H6.25V10.3249H17.5V11.5749ZM17.5 15.7415H6.25V14.4915H17.5V15.7415Z" fill="#333333"/>
</svg>
