<svg width="68" height="12" viewBox="0 0 68 12" fill="none" xmlns="http://www.w3.org/2000/svg">
<path fill-rule="evenodd" clip-rule="evenodd" d="M8 0C4.694 0 2 2.694 2 6C2 9.306 4.694 12 8 12C11.306 12 14 9.31 14 6C14 2.694 11.31 0 8 0Z" fill="#00AA6C"/>
<path fill-rule="evenodd" clip-rule="evenodd" d="M21 0C17.694 0 15 2.694 15 6C15 9.306 17.694 12 21 12C24.306 12 27 9.31 27 6C27 2.694 24.31 0 21 0Z" fill="#00AA6C"/>
<path fill-rule="evenodd" clip-rule="evenodd" d="M34 0C30.694 0 28 2.694 28 6C28 9.306 30.694 12 34 12C37.306 12 40 9.31 40 6C40 2.694 37.31 0 34 0Z" fill="#00AA6C"/>
<path fill-rule="evenodd" clip-rule="evenodd" d="M47 0C43.694 0 41 2.694 41 6C41 9.306 43.694 12 47 12C50.306 12 53 9.31 53 6C53 2.694 50.31 0 47 0Z" fill="#00AA6C"/>
<path fill-rule="evenodd" clip-rule="evenodd" d="M60 0C56.694 0 54 2.694 54 6C54 9.306 56.694 12 60 12C63.306 12 66 9.31 66 6C66 2.694 63.31 0 60 0Z" fill="#00AA6C"/>
</svg>
