<svg width="20" height="21" viewBox="0 0 20 21" fill="none" xmlns="http://www.w3.org/2000/svg">
<path fill-rule="evenodd" clip-rule="evenodd" d="M3.54199 9.11586C3.54199 5.57669 6.44866 2.69336 10.0003 2.69336C13.552 2.69336 16.4587 5.57669 16.4587 9.11586C16.4587 11.0159 15.5103 12.8467 14.3995 14.385C13.3078 15.8959 11.997 17.2084 11.0853 18.1209L11.0162 18.19L11.0145 18.1917L9.99366 19.2067L8.98283 18.1709L8.95783 18.1459L8.94783 18.135C8.03116 17.225 6.69366 15.8959 5.58533 14.36C4.48199 12.8284 3.54199 11.0067 3.54199 9.11586ZM10.0003 3.94336C7.13199 3.94336 4.79199 6.27419 4.79199 9.11586C4.79199 10.6125 5.54783 12.17 6.60033 13.6284C7.64366 15.075 8.91533 16.3417 9.83866 17.2592L9.87449 17.2942L10.0078 17.4309L10.1312 17.3067L10.1328 17.305L10.1837 17.255C11.1028 16.3342 12.3545 15.0817 13.3862 13.6534C14.4453 12.1867 15.2087 10.62 15.2087 9.11586C15.2087 6.27419 12.8687 3.94336 10.0003 3.94336ZM11.4162 8.12086C11.2607 7.74547 10.9624 7.44722 10.5871 7.29172C10.2117 7.13622 9.78988 7.13621 9.41449 7.29169C9.22862 7.36868 9.05973 7.48152 8.91746 7.62378C8.7752 7.76604 8.66235 7.93493 8.58535 8.1208C8.42985 8.49619 8.42984 8.91797 8.58533 9.29336C8.66231 9.47929 8.77517 9.64823 8.91745 9.79055C9.05973 9.93286 9.22864 10.0458 9.41455 10.1228C9.60047 10.1998 9.79973 10.2395 10.001 10.2395C10.2022 10.2395 10.4015 10.1999 10.5874 10.1229C10.7733 10.046 10.9423 9.9331 11.0846 9.79082C11.2269 9.64854 11.3398 9.47962 11.4168 9.29371C11.4939 9.1078 11.5335 8.90854 11.5336 8.7073C11.5336 8.50606 11.4931 8.30679 11.4162 8.12086ZM8.93699 6.13753C9.27449 5.99772 9.63622 5.92576 10.0015 5.92576C10.3668 5.92575 10.7286 5.9977 11.0661 6.13749C11.4036 6.27728 11.7102 6.48218 11.9685 6.74048C12.2269 6.99879 12.4318 7.30545 12.5716 7.64294C12.7114 7.98044 12.7833 8.34217 12.7833 8.70748C12.7834 9.07278 12.7114 9.43451 12.5716 9.77202C12.4318 10.1095 12.2269 10.4162 11.9686 10.6745C11.7103 10.9328 11.4037 11.1377 11.0662 11.2775C10.7286 11.4173 10.3668 11.4893 10.0015 11.4893C9.63611 11.4892 9.27433 11.4173 8.93679 11.2774C8.2551 10.995 7.7135 10.4534 7.43116 9.77169C7.14881 9.08998 7.14884 8.32402 7.43124 7.64232C7.71364 6.96063 8.25528 6.41987 8.93699 6.13753Z" fill="#333333"/>
</svg>
