<svg width="25" height="24" viewBox="0 0 25 24" fill="none" xmlns="http://www.w3.org/2000/svg">
<path fill-rule="evenodd" clip-rule="evenodd" d="M8.83008 4.74994C8.6331 4.74994 8.43804 4.78874 8.25605 4.86412C8.07406 4.9395 7.90871 5.04999 7.76942 5.18928C7.63013 5.32857 7.51964 5.49393 7.44426 5.67591C7.36888 5.8579 7.33008 6.05296 7.33008 6.24994C7.33008 6.44692 7.36888 6.64198 7.44426 6.82396C7.51964 7.00595 7.63013 7.17131 7.76942 7.3106C7.90871 7.44989 8.07406 7.56038 8.25605 7.63576C8.43804 7.71114 8.6331 7.74994 8.83008 7.74994C9.2279 7.74994 9.60943 7.5919 9.89074 7.3106C10.172 7.02929 10.3301 6.64776 10.3301 6.24994C10.3301 5.85211 10.172 5.47058 9.89074 5.18928C9.60943 4.90797 9.2279 4.74994 8.83008 4.74994ZM5.83008 6.24994C5.83008 5.45429 6.14615 4.69123 6.70876 4.12862C7.27137 3.56601 8.03443 3.24994 8.83008 3.24994C9.62573 3.24994 10.3888 3.56601 10.9514 4.12862C11.514 4.69123 11.8301 5.45429 11.8301 6.24994C11.8301 7.04559 11.514 7.80865 10.9514 8.37126C10.3888 8.93387 9.62573 9.24994 8.83008 9.24994C8.03443 9.24994 7.27137 8.93387 6.70876 8.37126C6.14615 7.80865 5.83008 7.04559 5.83008 6.24994ZM16.8301 6.74994C16.4323 6.74994 16.0507 6.90797 15.7694 7.18928C15.4881 7.47058 15.3301 7.85211 15.3301 8.24994C15.3301 8.64776 15.4881 9.02929 15.7694 9.3106C16.0507 9.5919 16.4323 9.74994 16.8301 9.74994C17.2279 9.74994 17.6094 9.5919 17.8907 9.3106C18.172 9.02929 18.3301 8.64776 18.3301 8.24994C18.3301 7.85211 18.172 7.47058 17.8907 7.18928C17.6094 6.90797 17.2279 6.74994 16.8301 6.74994ZM13.8301 8.24994C13.8301 7.45429 14.1461 6.69123 14.7088 6.12862C15.2714 5.56601 16.0344 5.24994 16.8301 5.24994C17.6257 5.24994 18.3888 5.56601 18.9514 6.12862C19.514 6.69123 19.8301 7.45429 19.8301 8.24994C19.8301 9.04559 19.514 9.80865 18.9514 10.3713C18.3888 10.9339 17.6257 11.2499 16.8301 11.2499C16.0344 11.2499 15.2714 10.9339 14.7088 10.3713C14.1461 9.80865 13.8301 9.04559 13.8301 8.24994ZM8.83008 10.7499C9.85228 10.7431 10.8633 10.9632 11.7901 11.3943C12.717 11.8254 13.5367 12.4568 14.1901 13.2429C15.6254 12.6545 17.2161 12.5624 18.7097 12.9813C20.2032 13.4002 21.5141 14.306 22.4341 15.5549L22.5801 15.7539V20.7499H3.08008V13.7529L3.22708 13.5539C3.87405 12.6782 4.71881 11.9677 5.69251 11.4804C6.66621 10.9931 7.74128 10.7428 8.83008 10.7499ZM12.5801 19.2499H21.0801V16.2549C20.5683 15.6204 19.921 15.1085 19.1855 14.7568C18.4501 14.4052 17.6453 14.2226 16.8301 14.2226C16.0149 14.2226 15.21 14.4052 14.4746 14.7568C13.7392 15.1085 13.0918 15.6204 12.5801 16.2549V19.2499ZM11.0801 19.2499H4.58008V14.2559C5.0915 13.6242 5.73871 13.1157 6.47362 12.7684C7.20854 12.4211 8.01226 12.2439 8.82508 12.2499H8.83508C9.58643 12.2437 10.3308 12.3944 11.0206 12.6923C11.7104 12.9902 12.3304 13.4287 12.8411 13.9799C12.2211 14.4142 11.6757 14.9461 11.2261 15.5549L11.0801 15.7539V19.2499Z" fill="#2C2C2C"/>
</svg>
