<svg width="17" height="16" viewBox="0 0 17 16" fill="none" xmlns="http://www.w3.org/2000/svg">
<path fill-rule="evenodd" clip-rule="evenodd" d="M11.9487 1.48068H5.56934V12.832H11.9487V1.48068ZM4.56934 0.480679V13.832H12.9487V0.480679H4.56934Z" fill="black"/>
<path fill-rule="evenodd" clip-rule="evenodd" d="M7.80292 10.8V13.7273H9.79626V10.8007L7.80292 10.8ZM14.0196 15.5193H3.57959V14.5193H14.0196V15.5193ZM7.25892 2.73734V4.22068H6.25892V2.73734H7.25892ZM9.25892 2.73734V4.22068H8.25892V2.73734H9.25892ZM11.2589 2.73734V4.22068H10.2589V2.73734H11.2589ZM7.25892 5.40734V6.89068H6.25892V5.40734H7.25892ZM9.25892 5.40734V6.89068H8.25892V5.40734H9.25892ZM11.2589 5.40734V6.89068H10.2589V5.40734H11.2589ZM7.25892 8.07734V9.56068H6.25892V8.07734H7.25892ZM9.25892 8.07734V9.56068H8.25892V8.07734H9.25892ZM11.2589 8.07734V9.56068H10.2589V8.07734H11.2589Z" fill="black"/>
</svg>
