<svg width="17" height="16" viewBox="0 0 17 16" fill="none" xmlns="http://www.w3.org/2000/svg">
<path fill-rule="evenodd" clip-rule="evenodd" d="M8.7998 2.50001C7.34111 2.50001 5.94217 3.07947 4.91072 4.11092C3.87927 5.14237 3.2998 6.54132 3.2998 8.00001C3.2998 9.4587 3.87927 10.8576 4.91072 11.8891C5.94217 12.9205 7.34111 13.5 8.7998 13.5C10.2585 13.5 11.6574 12.9205 12.6889 11.8891C13.7203 10.8576 14.2998 9.4587 14.2998 8.00001C14.2998 6.54132 13.7203 5.14237 12.6889 4.11092C11.6574 3.07947 10.2585 2.50001 8.7998 2.50001ZM2.2998 8.00001C2.2998 4.41001 5.2098 1.50001 8.7998 1.50001C12.3898 1.50001 15.2998 4.41001 15.2998 8.00001C15.2998 11.59 12.3898 14.5 8.7998 14.5C5.2098 14.5 2.2998 11.59 2.2998 8.00001ZM8.2998 4.33334H9.2998V7.79334L11.4865 9.98001L10.7798 10.6867L8.2998 8.20668V4.33334Z" fill="black"/>
</svg>
