<svg width="17" height="16" viewBox="0 0 17 16" fill="none" xmlns="http://www.w3.org/2000/svg">
<path fill-rule="evenodd" clip-rule="evenodd" d="M8.60986 2.5C7.15117 2.5 5.75223 3.07946 4.72078 4.11091C3.68933 5.14236 3.10986 6.54131 3.10986 8C3.10986 9.45869 3.68933 10.8576 4.72078 11.8891C5.75223 12.9205 7.15117 13.5 8.60986 13.5C10.0686 13.5 11.4675 12.9205 12.499 11.8891C13.5304 10.8576 14.1099 9.45869 14.1099 8C14.1099 6.54131 13.5304 5.14236 12.499 4.11091C11.4675 3.07946 10.0686 2.5 8.60986 2.5ZM2.10986 8C2.10986 4.41 5.01986 1.5 8.60986 1.5C12.1999 1.5 15.1099 4.41 15.1099 8C15.1099 11.59 12.1999 14.5 8.60986 14.5C5.01986 14.5 2.10986 11.59 2.10986 8ZM8.10986 4.33333H9.10986V7.79333L11.2965 9.98L10.5899 10.6867L8.10986 8.20667V4.33333Z" fill="black"/>
</svg>
