<svg width="17" height="17" viewBox="0 0 17 17" fill="none" xmlns="http://www.w3.org/2000/svg">
<path fill-rule="evenodd" clip-rule="evenodd" d="M4.77887 2.93177C3.81384 3.52971 3.01749 4.36419 2.4653 5.3561C1.91311 6.34802 1.62337 7.46451 1.62354 8.59977C1.62354 12.2818 4.6082 15.2664 8.2902 15.2664C11.9722 15.2664 14.9569 12.2818 14.9569 8.59977C14.9569 4.91777 11.9722 1.93311 8.2902 1.93311V2.93311C9.62972 2.93321 10.9259 3.40783 11.9487 4.27276C12.9716 5.13769 13.655 6.337 13.8776 7.65788C14.1003 8.97877 13.8478 10.3358 13.165 11.4883C12.4822 12.6407 11.4132 13.514 10.1478 13.9532C8.88229 14.3924 7.50214 14.3691 6.25221 13.8874C5.00228 13.4058 3.96339 12.4969 3.31986 11.3221C2.67634 10.1473 2.4698 8.78251 2.73689 7.46989C3.00398 6.15727 3.72742 4.9817 4.77887 4.15177V2.93177Z" fill="black"/>
<path fill-rule="evenodd" clip-rule="evenodd" d="M4.51852 3.56641H2.15186V2.56641H5.51852V5.93307H4.51852V3.56641ZM7.85919 8.96641V5.39307H8.85919V9.03107C8.85919 9.23907 8.78119 9.43907 8.64119 9.59241L6.79852 11.6137L6.05919 10.9404L7.85919 8.96641Z" fill="black"/>
</svg>
