<svg width="18" height="19" viewBox="0 0 18 19" fill="none" xmlns="http://www.w3.org/2000/svg">
<path fill-rule="evenodd" clip-rule="evenodd" d="M5.04975 3.57351C3.96409 4.2462 3.0682 5.18498 2.44699 6.30088C1.82577 7.41679 1.49981 8.67285 1.5 9.95001C1.5 14.0923 4.85775 17.45 9 17.45C13.1422 17.45 16.5 14.0923 16.5 9.95001C16.5 5.80776 13.1422 2.45001 9 2.45001V3.57501C10.507 3.57513 11.9652 4.10908 13.1159 5.08212C14.2666 6.05517 15.0353 7.40439 15.2858 8.89038C15.5363 10.3764 15.2523 11.9031 14.4841 13.1996C13.716 14.496 12.5134 15.4785 11.0897 15.9726C9.6661 16.4667 8.11344 16.4405 6.70726 15.8986C5.30109 15.3568 4.13233 14.3343 3.40837 13.0127C2.68441 11.691 2.45205 10.1556 2.75252 8.67889C3.053 7.20219 3.86688 5.87968 5.04975 4.94601V3.57351Z" fill="black"/>
<path fill-rule="evenodd" clip-rule="evenodd" d="M4.75723 4.28751H2.09473V3.16251H5.88223V6.95001H4.75723V4.28751ZM8.51548 10.3625V6.34251H9.64048V10.4353C9.64048 10.6693 9.55273 10.8943 9.39523 11.0668L7.32223 13.3408L6.49048 12.5833L8.51548 10.3625Z" fill="black"/>
</svg>
