<svg width="17" height="17" viewBox="0 0 17 17" fill="none" xmlns="http://www.w3.org/2000/svg">
<path fill-rule="evenodd" clip-rule="evenodd" d="M15.613 3.62402H15.633V2.62402H4.39164V3.62402H4.41231L4.41698 3.84869C4.42164 4.07269 4.47631 4.37536 4.62231 4.66936V8.76869L4.06098 8.14602H1.96631V9.14602H3.61631L4.76298 10.4167V13.15H5.09631C5.17293 13.6581 5.42929 14.1219 5.81879 14.4571C6.2083 14.7923 6.70511 14.9766 7.21898 14.9766C7.73284 14.9766 8.22965 14.7923 8.61916 14.4571C9.00867 14.1219 9.26502 13.6581 9.34164 13.15H13.1143C13.0278 13.353 12.9939 13.5746 13.0157 13.7942C13.0376 14.0138 13.1145 14.2243 13.2393 14.4063C13.3641 14.5883 13.5328 14.7359 13.7298 14.8354C13.9267 14.9349 14.1456 14.9831 14.3662 14.9756C14.5867 14.968 14.8018 14.9049 14.9915 14.7922C15.1813 14.6795 15.3395 14.5207 15.4515 14.3306C15.5636 14.1405 15.6259 13.9252 15.6327 13.7046C15.6395 13.484 15.5905 13.2653 15.4903 13.0687V9.29736H15.475V4.54402H15.459C15.5636 4.29136 15.6043 4.04069 15.6083 3.84869L15.613 3.62402ZM5.62231 9.29736V5.52802C5.79253 5.58091 5.98209 5.6078 6.19098 5.60869C6.75764 5.60869 7.17764 5.39669 7.46431 5.09336C7.75164 5.39669 8.17231 5.60869 8.73898 5.60869C9.30564 5.60869 9.72564 5.39669 10.0123 5.09336C10.2996 5.39669 10.7203 5.60869 11.2863 5.60869C11.853 5.60869 12.273 5.39669 12.5603 5.09336C12.847 5.39669 13.2683 5.60869 13.8336 5.60869C14.0736 5.60869 14.287 5.57069 14.475 5.50402V9.29736H5.62231ZM7.21898 10.6834C6.65698 10.6834 6.14564 10.8994 5.76298 11.2527V10.2974H14.4903V12.1494H9.25564C9.11284 11.7222 8.83934 11.3509 8.47383 11.0878C8.10832 10.8247 7.66932 10.6832 7.21898 10.6834ZM14.6123 3.62336H13.065L13.0603 3.84069C13.0656 3.97402 13.1136 4.17869 13.2303 4.33802C13.3323 4.47869 13.501 4.60869 13.8343 4.60869C14.1676 4.60869 14.3356 4.47869 14.4383 4.33802C14.5583 4.17336 14.605 3.96136 14.6083 3.82802L14.6123 3.62336ZM12.0556 3.62336H10.517L10.513 3.84069C10.5183 3.97402 10.5663 4.17869 10.6823 4.33802C10.785 4.47869 10.953 4.60869 11.2863 4.60869C11.6196 4.60869 11.7883 4.47869 11.8903 4.33802C12.0063 4.17802 12.055 3.97469 12.0603 3.84069L12.0556 3.62336ZM9.50831 3.62336H7.96898L7.96498 3.83469C7.96898 3.96802 8.01698 4.17602 8.13498 4.33802C8.23698 4.47869 8.40564 4.60869 8.73898 4.60869C9.07231 4.60869 9.24031 4.47869 9.34298 4.33802C9.45898 4.17802 9.50698 3.97469 9.51231 3.84069L9.50831 3.62336ZM6.96031 3.62336H5.41298L5.41764 3.82802C5.42031 3.96136 5.46764 4.17336 5.58764 4.33802C5.68964 4.47869 5.85831 4.60869 6.19164 4.60869C6.52498 4.60869 6.69298 4.47869 6.79564 4.33802C6.89789 4.18926 6.95675 4.01499 6.96564 3.83469L6.96031 3.62336ZM8.36564 12.83C8.36564 13.1341 8.24483 13.4258 8.02979 13.6408C7.81475 13.8559 7.52309 13.9767 7.21898 13.9767C6.91486 13.9767 6.6232 13.8559 6.40816 13.6408C6.19312 13.4258 6.07231 13.1341 6.07231 12.83C6.07231 12.5259 6.19312 12.2342 6.40816 12.0192C6.6232 11.8042 6.91486 11.6834 7.21898 11.6834C7.52309 11.6834 7.81475 11.8042 8.02979 12.0192C8.24483 12.2342 8.36564 12.5259 8.36564 12.83ZM14.6336 13.664C14.6336 13.7469 14.6007 13.8263 14.5422 13.8849C14.4836 13.9434 14.4041 13.9764 14.3213 13.9764C14.2385 13.9764 14.159 13.9434 14.1005 13.8849C14.0419 13.8263 14.009 13.7469 14.009 13.664C14.009 13.5812 14.0419 13.5017 14.1005 13.4432C14.159 13.3846 14.2385 13.3517 14.3213 13.3517C14.4041 13.3517 14.4836 13.3846 14.5422 13.4432C14.6007 13.5017 14.6336 13.5812 14.6336 13.664Z" fill="black"/>
</svg>
