<svg width="21" height="20" viewBox="0 0 21 20" fill="none" xmlns="http://www.w3.org/2000/svg">
<path fill-rule="evenodd" clip-rule="evenodd" d="M3.61479 4.30502C4.50401 3.48175 5.6713 3.0246 6.88312 3.02502C8.09562 3.02502 9.26395 3.48169 10.1515 4.30502L10.1556 4.30919L10.4398 4.57752L10.7165 4.31336C11.6064 3.4877 12.7758 3.02924 13.9898 3.03002C15.2048 3.03002 16.3748 3.48836 17.2631 4.31336L17.2665 4.31669C18.1773 5.17669 18.5981 6.25336 18.574 7.36836C18.549 8.47086 18.0915 9.57086 17.324 10.5225C16.5873 11.4359 14.949 12.975 13.5348 14.2542C12.6678 15.0377 11.7919 15.8114 10.9073 16.575L10.8498 16.6242L10.4456 16.9709L10.039 16.6275C7.782 14.7168 5.62629 12.6896 3.58062 10.5542L3.56312 10.5367L3.54645 10.5175C2.10895 8.75502 1.71062 6.08419 3.61312 4.30669L3.61479 4.30502ZM10.4398 15.3267L10.8331 14.9834C11.4587 14.4362 12.0798 13.884 12.6965 13.3267C14.1298 12.03 15.6881 10.56 16.3506 9.73836C16.9815 8.95586 17.3065 8.11502 17.324 7.34086C17.3406 6.58086 17.0631 5.84502 16.4098 5.22752C15.7516 4.61757 14.8872 4.27884 13.9898 4.27919C13.0898 4.27919 12.2256 4.61836 11.5706 5.22586L10.4456 6.30252L9.29979 5.21919C8.64177 4.61153 7.7788 4.27438 6.88312 4.27502C5.98693 4.27462 5.12359 4.6124 4.46562 5.22086C3.20979 6.39419 3.33812 8.27002 4.50062 9.70836C6.38816 11.6762 8.37022 13.5512 10.4398 15.3267Z" fill="black"/>
</svg>
