<svg width="17" height="17" viewBox="0 0 17 17" fill="none" xmlns="http://www.w3.org/2000/svg">
<path fill-rule="evenodd" clip-rule="evenodd" d="M7.205 3.29803V2.30603H6.29167V3.39603H6.299V6.7427H5.80167V5.50403H5.795V4.59803H4.88167V5.50336H4.43633V4.59803H3.523V5.50336H3.08633V4.59803H2.173V5.50336H2.15967V14.294H7.713V10.3874C7.715 10.3827 7.72167 10.362 7.747 10.3387C7.77767 10.3107 7.875 10.24 8.131 10.24H9.48167C9.54446 10.2503 9.60388 10.2755 9.655 10.3134C9.68167 10.3347 9.70211 10.3596 9.71633 10.388C9.72967 10.4154 9.745 10.4614 9.745 10.5347V14.2947H15.441V5.5027H15.431V4.59803H14.5177V5.50336H14.0303V4.59803H13.117V5.50336H12.6603V4.59803H11.747V5.50336H11.7423V6.74336H11.0983V3.29803H11.0917V2.30603H10.1783V3.29803H9.77034V2.30603H8.857V3.29803H8.54234V2.30603H7.629V3.29803H7.205ZM7.21234 4.21136V7.65603H4.88833V6.41603H3.07233V13.3814H6.799V10.3594C6.80433 10.1427 6.90033 9.87736 7.12567 9.66803C7.35967 9.45203 7.697 9.3267 8.13033 9.3267H9.52233L9.54033 9.32803C9.72967 9.34336 9.99567 9.41736 10.225 9.60003C10.4717 9.79803 10.6577 10.1094 10.6577 10.5347V13.3814H14.527V6.4167H12.655V7.6567H10.1843V4.2107L7.21234 4.21136Z" fill="black"/>
</svg>
