<svg width="17" height="17" viewBox="0 0 17 17" fill="none" xmlns="http://www.w3.org/2000/svg">
<path fill-rule="evenodd" clip-rule="evenodd" d="M8.05957 3.30005C6.60088 3.30005 5.20193 3.87951 4.17048 4.91096C3.13903 5.94241 2.55957 7.34136 2.55957 8.80005C2.55957 10.2587 3.13903 11.6577 4.17048 12.6891C5.20193 13.7206 6.60088 14.3 8.05957 14.3C9.51826 14.3 10.9172 13.7206 11.9487 12.6891C12.9801 11.6577 13.5596 10.2587 13.5596 8.80005C13.5596 7.34136 12.9801 5.94241 11.9487 4.91096C10.9172 3.87951 9.51826 3.30005 8.05957 3.30005ZM1.55957 8.80005C1.55957 5.21005 4.46957 2.30005 8.05957 2.30005C11.6496 2.30005 14.5596 5.21005 14.5596 8.80005C14.5596 12.39 11.6496 15.3 8.05957 15.3C4.46957 15.3 1.55957 12.39 1.55957 8.80005ZM7.55957 5.13338H8.55957V8.59338L10.7462 10.78L10.0396 11.4867L7.55957 9.00672V5.13338Z" fill="black"/>
</svg>
