<svg width="18" height="19" viewBox="0 0 18 19" fill="none" xmlns="http://www.w3.org/2000/svg">
<path fill-rule="evenodd" clip-rule="evenodd" d="M6.98281 8.31501H10.1163C10.0646 7.12176 9.84931 6.07026 9.54181 5.30226C9.36406 4.85751 9.16606 4.53501 8.97481 4.33251C8.81656 4.16526 8.68981 4.10751 8.59981 4.09251H8.50006C8.41006 4.10751 8.28331 4.16526 8.12506 4.33251C7.93381 4.53501 7.73581 4.85751 7.55806 5.30226C7.25056 6.07026 7.03531 7.12176 6.98281 8.31501ZM6.70231 4.46001C6.63481 4.59601 6.57181 4.73751 6.51331 4.88451C6.14581 5.80401 5.91031 7.00251 5.85781 8.31501H3.79156C3.89187 7.47234 4.21414 6.67142 4.72541 5.99411C5.23669 5.31681 5.91939 4.7874 6.70231 4.46001ZM8.42731 2.96826C6.88017 2.99908 5.40678 3.63525 4.32342 4.7402C3.24006 5.84516 2.6331 7.33082 2.63281 8.87826C2.63232 9.65494 2.78492 10.4241 3.0819 11.1418C3.37887 11.8594 3.81439 12.5115 4.36355 13.0607C4.91271 13.61 5.56474 14.0456 6.28237 14.3426C6.99999 14.6397 7.76913 14.7924 8.54581 14.792C8.98381 14.792 9.19906 14.7815 9.37831 14.7365C9.47131 14.7133 9.50731 14.6998 9.53806 14.6885C9.58156 14.6735 9.61231 14.6615 9.77206 14.6338L9.57706 13.526C9.4171 13.553 9.25958 13.5928 9.10606 13.6453C9.08281 13.6505 9.00706 13.667 8.54881 13.667C8.45806 13.667 8.31406 13.622 8.12431 13.4218C7.93306 13.2193 7.73506 12.8975 7.55731 12.4528C7.24981 11.684 7.03456 10.6333 6.98206 9.44001H10.1343C10.1252 9.65289 10.0969 9.86451 10.0496 10.0723C10.0253 10.1765 9.99724 10.2798 9.96556 10.382L9.95656 10.412L9.95356 10.424C9.92806 10.5095 9.88681 10.6475 9.87856 10.7825L11.0021 10.8485V10.853C11.0021 10.853 11.0073 10.8268 11.0351 10.7323L11.0441 10.7023C11.0726 10.6078 11.1116 10.4788 11.1461 10.3235C11.2001 10.0888 11.2466 9.80001 11.2601 9.44001H13.3106C13.2894 9.68211 13.2404 9.92095 13.1643 10.1518C13.1231 10.2718 13.0818 10.3618 13.0398 10.454L13.0368 10.4615L13.0293 10.4765C12.9948 10.5523 12.9303 10.6925 12.9086 10.841L14.0216 11.0053L14.0178 11.0248C14.0178 11.0248 14.0268 11.0008 14.0606 10.9273L14.0666 10.9138C14.1086 10.8215 14.1693 10.6888 14.2286 10.517C14.3546 10.1495 14.4611 9.64101 14.4611 8.87751C14.4612 7.33078 13.8549 5.84565 12.7724 4.74085C11.6899 3.63606 10.2175 2.99967 8.67106 2.96826C8.58995 2.96165 8.50843 2.96165 8.42731 2.96826ZM10.3968 4.46076C10.4638 4.59626 10.5268 4.73751 10.5858 4.88451C10.9533 5.80401 11.1896 7.00251 11.2421 8.31501H13.3046C13.2052 7.47234 12.8836 6.67124 12.3726 5.99383C11.8617 5.31642 11.1798 4.78706 10.3968 4.46001M6.70531 13.2995C6.63572 13.1588 6.57167 13.0155 6.51331 12.8698C6.14581 11.9495 5.90956 10.7518 5.85706 9.43926H3.79156C3.89134 10.2833 4.21376 11.0856 4.72577 11.7639C5.23779 12.4422 5.92098 12.9722 6.70531 13.2995Z" fill="black"/>
<path fill-rule="evenodd" clip-rule="evenodd" d="M15.3672 10.2073H8.80469V15.1933H12.7459L15.3672 16.937V10.2073ZM14.2422 11.3323V14.8378L13.0857 14.0683H9.93044V11.3323H14.2422Z" fill="black"/>
</svg>
