<svg width="68" height="12" viewBox="0 0 68 12" fill="none" xmlns="http://www.w3.org/2000/svg">
<path fill-rule="evenodd" clip-rule="evenodd" d="M8 0C4.694 0 2 2.694 2 6C2 9.306 4.694 12 8 12C11.306 12 14 9.31 14 6C14 2.694 11.31 0 8 0Z" fill="#00AA6C"/>
<path fill-rule="evenodd" clip-rule="evenodd" d="M21 0C17.694 0 15 2.694 15 6C15 9.306 17.694 12 21 12C24.306 12 27 9.31 27 6C27 2.694 24.31 0 21 0Z" fill="#00AA6C"/>
<path fill-rule="evenodd" clip-rule="evenodd" d="M34 0C30.694 0 28 2.694 28 6C28 9.306 30.694 12 34 12C37.306 12 40 9.31 40 6C40 2.694 37.31 0 34 0Z" fill="#00AA6C"/>
<path fill-rule="evenodd" clip-rule="evenodd" d="M47 0C43.694 0 41 2.694 41 6C41 9.306 43.694 12 47 12C50.306 12 53 9.31 53 6C53 2.694 50.31 0 47 0Z" fill="#00AA6C"/>
<path fill-rule="evenodd" clip-rule="evenodd" d="M60 0C56.6945 0 54 2.6945 54 6C54 9.31 56.6945 12 60 12C63.31 12 66 9.3105 66 6C66 2.6895 63.3105 0 60 0ZM60 1C60.6569 0.998946 61.3076 1.12756 61.9147 1.37846C62.5218 1.62936 63.0734 1.99761 63.5379 2.46212C64.0024 2.92662 64.3706 3.47823 64.6215 4.08534C64.8724 4.69244 65.0011 5.34309 65 6C65.0016 6.65705 64.8733 7.30795 64.6226 7.91529C64.3719 8.52263 64.0037 9.07446 63.5391 9.53906C63.0745 10.0037 62.5226 10.3719 61.9153 10.6226C61.3079 10.8733 60.6571 11.0016 60 11V1Z" fill="#00AA6C"/>
</svg>
