<svg width="17" height="17" viewBox="0 0 17 17" fill="none" xmlns="http://www.w3.org/2000/svg">
<path fill-rule="evenodd" clip-rule="evenodd" d="M9.85197 3.56068L11.6333 1.78001L12.34 2.48668L10.5593 4.26801C10.1066 4.72068 9.85597 5.24268 9.81264 5.73401C9.78397 6.06735 9.84864 6.40268 10.0306 6.71535L13.3 3.44668L14.0066 4.15335L10.736 7.42401C11.0513 7.61135 11.3853 7.68201 11.7133 7.66001C12.192 7.62868 12.6913 7.39735 13.1106 6.97801C13.6793 6.40871 14.2469 5.83826 14.8133 5.26668L14.964 5.11468L15.6753 5.81801L15.524 5.97135C14.9562 6.54354 14.3873 7.11465 13.8173 7.68468C13.2513 8.25068 12.5326 8.60735 11.7793 8.65735C11.1492 8.69938 10.5244 8.51811 10.0146 8.14535L9.19397 8.96668L14.3406 14.1133L13.6333 14.82L9.65331 10.84L7.65331 12.84L6.48664 11.6733L3.33997 14.82L2.63331 14.1133L5.77997 10.9667L2.85197 8.03935C2.55787 7.74529 2.32458 7.39618 2.16541 7.01195C2.00624 6.62772 1.92432 6.21591 1.92432 5.80001C1.92432 5.38412 2.00624 4.97231 2.16541 4.58808C2.32458 4.20385 2.55787 3.85474 2.85197 3.56068L3.31997 3.09268L8.48664 8.25935L9.30864 7.43801C8.93398 6.92005 8.75946 6.28399 8.81731 5.64735C8.88397 4.88268 9.26331 4.15001 9.85197 3.56068ZM8.94664 10.1333L3.33864 4.52535C3.03502 4.94271 2.89035 5.45474 2.93068 5.96928C2.97101 6.48382 3.19369 6.96706 3.55864 7.33201L7.65331 11.426L8.94664 10.1333Z" fill="black"/>
</svg>
