<svg width="17" height="16" viewBox="0 0 17 16" fill="none" xmlns="http://www.w3.org/2000/svg">
<path fill-rule="evenodd" clip-rule="evenodd" d="M9.85197 3.26065L11.6333 1.47998L12.34 2.18665L10.5593 3.96798C10.1066 4.42065 9.85597 4.94265 9.81264 5.43398C9.78397 5.76731 9.84864 6.10265 10.0306 6.41531L13.3 3.14665L14.0066 3.85331L10.736 7.12398C11.0513 7.31131 11.3853 7.38198 11.7133 7.35998C12.192 7.32865 12.6913 7.09731 13.1106 6.67798C13.6793 6.10867 14.2469 5.53823 14.8133 4.96665L14.964 4.81465L15.6753 5.51798L15.524 5.67131C14.9562 6.2435 14.3873 6.81461 13.8173 7.38465C13.2513 7.95065 12.5326 8.30731 11.7793 8.35731C11.1492 8.39935 10.5244 8.21807 10.0146 7.84531L9.19397 8.66665L14.3406 13.8133L13.6333 14.52L9.65331 10.54L7.65331 12.54L6.48664 11.3733L3.33997 14.52L2.63331 13.8133L5.77997 10.6666L2.85197 7.73931C2.55787 7.44526 2.32458 7.09614 2.16541 6.71192C2.00624 6.32769 1.92432 5.91587 1.92432 5.49998C1.92432 5.08409 2.00624 4.67227 2.16541 4.28804C2.32458 3.90382 2.55787 3.55471 2.85197 3.26065L3.31997 2.79265L8.48664 7.95931L9.30864 7.13798C8.93398 6.62002 8.75946 5.98395 8.81731 5.34731C8.88397 4.58265 9.26331 3.84998 9.85197 3.26065ZM8.94664 9.83331L3.33864 4.22531C3.03502 4.64267 2.89035 5.15471 2.93068 5.66925C2.97101 6.18379 3.19369 6.66703 3.55864 7.03198L7.65331 11.126L8.94664 9.83331Z" fill="black"/>
</svg>
