<svg width="17" height="17" viewBox="0 0 17 17" fill="none" xmlns="http://www.w3.org/2000/svg">
<path fill-rule="evenodd" clip-rule="evenodd" d="M8.68994 3.09961C7.23125 3.09961 5.8323 3.67907 4.80085 4.71052C3.7694 5.74197 3.18994 7.14092 3.18994 8.59961C3.18994 10.0583 3.7694 11.4572 4.80085 12.4887C5.8323 13.5201 7.23125 14.0996 8.68994 14.0996C10.1486 14.0996 11.5476 13.5201 12.579 12.4887C13.6105 11.4572 14.1899 10.0583 14.1899 8.59961C14.1899 7.14092 13.6105 5.74197 12.579 4.71052C11.5476 3.67907 10.1486 3.09961 8.68994 3.09961ZM2.18994 8.59961C2.18994 5.00961 5.09994 2.09961 8.68994 2.09961C12.2799 2.09961 15.1899 5.00961 15.1899 8.59961C15.1899 12.1896 12.2799 15.0996 8.68994 15.0996C5.09994 15.0996 2.18994 12.1896 2.18994 8.59961ZM8.18994 4.93294H9.18994V8.39294L11.3766 10.5796L10.6699 11.2863L8.18994 8.80628V4.93294Z" fill="black"/>
</svg>
