<svg width="21" height="21" viewBox="0 0 21 21" fill="none" xmlns="http://www.w3.org/2000/svg">
<path fill-rule="evenodd" clip-rule="evenodd" d="M7.44559 10.1442C7.77711 10.1442 8.09505 10.0125 8.32947 9.77805C8.56389 9.54363 8.69559 9.22569 8.69559 8.89417C8.69559 8.56264 8.56389 8.2447 8.32947 8.01028C8.09505 7.77586 7.77711 7.64417 7.44559 7.64417C7.11407 7.64417 6.79612 7.77586 6.5617 8.01028C6.32728 8.2447 6.19559 8.56264 6.19559 8.89417C6.19559 9.22569 6.32728 9.54363 6.5617 9.77805C6.79612 10.0125 7.11407 10.1442 7.44559 10.1442ZM5.77892 14.3108C5.36225 14.3108 5.19559 13.8942 5.44559 13.5608L6.77892 12.3942C6.94559 12.2275 7.27892 12.2275 7.44559 12.3942L8.36225 13.3108C8.52892 13.4775 8.86225 13.4775 9.02892 13.3108L11.5289 11.0608C11.6939 10.8942 12.0289 10.8942 12.1956 11.0608L15.1956 13.5608C15.4456 13.8108 15.2789 14.3108 14.8623 14.3108H5.77892Z" fill="white"/>
<path fill-rule="evenodd" clip-rule="evenodd" d="M17.1613 5.73083H3.13379V16.1692H17.1613V5.73083ZM1.88379 4.48083V17.4192H18.4113V4.48083H1.88379Z" fill="white"/>
</svg>
