<svg width="35" height="35" viewBox="0 0 35 35" fill="none" xmlns="http://www.w3.org/2000/svg">
<path fill-rule="evenodd" clip-rule="evenodd" d="M11.9334 7.32935C11.6544 7.32935 11.378 7.38431 11.1202 7.4911C10.8624 7.59789 10.6282 7.75442 10.4308 7.95174C10.2335 8.14907 10.077 8.38333 9.97019 8.64114C9.8634 8.89896 9.80843 9.17529 9.80843 9.45435C9.80843 9.7334 9.8634 10.0097 9.97019 10.2675C10.077 10.5254 10.2335 10.7596 10.4308 10.9569C10.6282 11.1543 10.8624 11.3108 11.1202 11.4176C11.378 11.5244 11.6544 11.5793 11.9334 11.5793C12.497 11.5793 13.0375 11.3555 13.436 10.9569C13.8345 10.5584 14.0584 10.0179 14.0584 9.45435C14.0584 8.89076 13.8345 8.35026 13.436 7.95174C13.0375 7.55323 12.497 7.32935 11.9334 7.32935ZM7.68343 9.45435C7.68343 8.32718 8.1312 7.24617 8.92823 6.44914C9.72526 5.65211 10.8063 5.20435 11.9334 5.20435C13.0606 5.20435 14.1416 5.65211 14.9386 6.44914C15.7357 7.24617 16.1834 8.32718 16.1834 9.45435C16.1834 10.5815 15.7357 11.6625 14.9386 12.4595C14.1416 13.2566 13.0606 13.7043 11.9334 13.7043C10.8063 13.7043 9.72526 13.2566 8.92823 12.4595C8.1312 11.6625 7.68343 10.5815 7.68343 9.45435ZM23.2668 10.1627C22.7032 10.1627 22.1627 10.3866 21.7642 10.7851C21.3656 11.1836 21.1418 11.7241 21.1418 12.2877C21.1418 12.8513 21.3656 13.3918 21.7642 13.7903C22.1627 14.1888 22.7032 14.4127 23.2668 14.4127C23.8303 14.4127 24.3708 14.1888 24.7694 13.7903C25.1679 13.3918 25.3918 12.8513 25.3918 12.2877C25.3918 11.7241 25.1679 11.1836 24.7694 10.7851C24.3708 10.3866 23.8303 10.1627 23.2668 10.1627ZM19.0168 12.2877C19.0168 11.1605 19.4645 10.0795 20.2616 9.28248C21.0586 8.48545 22.1396 8.03768 23.2668 8.03768C24.3939 8.03768 25.4749 8.48545 26.272 9.28248C27.069 10.0795 27.5168 11.1605 27.5168 12.2877C27.5168 13.4148 27.069 14.4959 26.272 15.2929C25.4749 16.0899 24.3939 16.5377 23.2668 16.5377C22.1396 16.5377 21.0586 16.0899 20.2616 15.2929C19.4645 14.4959 19.0168 13.4148 19.0168 12.2877ZM11.9334 15.8293C13.3815 15.8197 14.8138 16.1315 16.1268 16.7422C17.4399 17.353 18.6011 18.2474 19.5268 19.3611C21.5601 18.5275 23.8136 18.397 25.9295 18.9904C28.0454 19.5838 29.9025 20.8671 31.2058 22.6364L31.4126 22.9183V29.996H3.7876V20.0836L3.99585 19.8017C4.91239 18.561 6.10914 17.5545 7.48854 16.8642C8.86795 16.1739 10.391 15.8193 11.9334 15.8293ZM17.2459 27.871H29.2876V23.6281C28.5626 22.7292 27.6455 22.004 26.6037 21.5058C25.5618 21.0076 24.4216 20.749 23.2668 20.749C22.1119 20.749 20.9717 21.0076 19.9299 21.5058C18.888 22.004 17.9709 22.7292 17.2459 23.6281V27.871ZM15.1209 27.871H5.9126V20.7962C6.63711 19.9011 7.55399 19.1809 8.59512 18.6889C9.63625 18.1969 10.7749 17.9458 11.9263 17.9543H11.9405C13.0049 17.9455 14.0595 18.159 15.0367 18.581C16.0139 19.003 16.8923 19.6243 17.6157 20.4052C16.7374 21.0203 15.9648 21.7739 15.3278 22.6364L15.1209 22.9183V27.871Z" fill="black"/>
</svg>
