<svg width="17" height="17" viewBox="0 0 17 17" fill="none" xmlns="http://www.w3.org/2000/svg">
<path fill-rule="evenodd" clip-rule="evenodd" d="M11.8457 5.76202V13.6134H10.8457V10.864H9.521V7.59336C9.521 6.90669 9.823 6.42802 10.2243 6.13736C10.5503 5.90621 10.9381 5.77804 11.3377 5.76936L11.8457 5.76202ZM10.8457 9.86402V6.92402L10.811 6.94802C10.6603 7.05736 10.521 7.23802 10.521 7.59469V9.86402H10.8457Z" fill="black"/>
<path d="M6.75704 13.6134H7.75704V8.46669C7.9206 8.42491 8.06993 8.35935 8.20504 8.27002C8.45971 8.10069 8.62704 7.87002 8.73571 7.63202C8.94238 7.17735 8.96038 6.64002 8.96038 6.27002V5.77002H7.96038V6.27002C7.96038 6.64069 7.93371 6.98002 7.82571 7.21669C7.80696 7.2585 7.78395 7.29826 7.75704 7.33535V5.77002H6.75704V7.29002C6.74016 7.26486 6.72502 7.23857 6.71171 7.21135C6.59438 6.98202 6.55371 6.64469 6.55371 6.27002V5.77002H5.55371V6.27002C5.55371 6.67269 5.58971 7.21269 5.82038 7.66535C5.94038 7.90069 6.11771 8.12269 6.37571 8.28335C6.49304 8.3558 6.62016 8.41202 6.75704 8.45202V13.6134Z" fill="black"/>
<path fill-rule="evenodd" clip-rule="evenodd" d="M13.2445 0.511353L3.45722 3.29469H3.37988V16.0887H14.0199V3.29469H13.2452L13.2445 0.511353ZM12.2445 3.29469V1.83469L7.11322 3.29535L12.2445 3.29469ZM13.0192 4.29469H4.37988V15.0887H13.0199L13.0192 4.29469Z" fill="black"/>
</svg>
