<svg width="17" height="17" viewBox="0 0 17 17" fill="none" xmlns="http://www.w3.org/2000/svg">
<path fill-rule="evenodd" clip-rule="evenodd" d="M15.613 3.52393H15.633V2.52393H4.39164V3.52393H4.41231L4.41698 3.74859C4.42164 3.97259 4.47631 4.27526 4.62231 4.56926V8.66859L4.06098 8.04593H1.96631V9.04593H3.61631L4.76298 10.3166V13.0499H5.09631C5.17293 13.558 5.42929 14.0218 5.81879 14.357C6.2083 14.6922 6.70511 14.8765 7.21898 14.8765C7.73284 14.8765 8.22965 14.6922 8.61916 14.357C9.00867 14.0218 9.26502 13.558 9.34164 13.0499H13.1143C13.0278 13.2529 12.9939 13.4745 13.0157 13.6941C13.0376 13.9137 13.1145 14.1242 13.2393 14.3062C13.3641 14.4882 13.5328 14.6358 13.7298 14.7353C13.9267 14.8348 14.1456 14.883 14.3662 14.8755C14.5867 14.8679 14.8018 14.8048 14.9915 14.6921C15.1813 14.5794 15.3395 14.4206 15.4515 14.2305C15.5636 14.0404 15.6259 13.8251 15.6327 13.6045C15.6395 13.3839 15.5905 13.1652 15.4903 12.9686V9.19726H15.475V4.44393H15.459C15.5636 4.19126 15.6043 3.94059 15.6083 3.74859L15.613 3.52393ZM5.62231 9.19726V5.42793C5.79253 5.48081 5.98209 5.5077 6.19098 5.50859C6.75764 5.50859 7.17764 5.29659 7.46431 4.99326C7.75164 5.29659 8.17231 5.50859 8.73898 5.50859C9.30564 5.50859 9.72564 5.29659 10.0123 4.99326C10.2996 5.29659 10.7203 5.50859 11.2863 5.50859C11.853 5.50859 12.273 5.29659 12.5603 4.99326C12.847 5.29659 13.2683 5.50859 13.8336 5.50859C14.0736 5.50859 14.287 5.47059 14.475 5.40393V9.19726H5.62231ZM7.21898 10.5833C6.65698 10.5833 6.14564 10.7993 5.76298 11.1526V10.1973H14.4903V12.0493H9.25564C9.11284 11.6221 8.83934 11.2508 8.47383 10.9877C8.10832 10.7246 7.66932 10.5831 7.21898 10.5833ZM14.6123 3.52326H13.065L13.0603 3.74059C13.0656 3.87393 13.1136 4.07859 13.2303 4.23793C13.3323 4.37859 13.501 4.50859 13.8343 4.50859C14.1676 4.50859 14.3356 4.37859 14.4383 4.23793C14.5583 4.07326 14.605 3.86126 14.6083 3.72793L14.6123 3.52326ZM12.0556 3.52326H10.517L10.513 3.74059C10.5183 3.87393 10.5663 4.07859 10.6823 4.23793C10.785 4.37859 10.953 4.50859 11.2863 4.50859C11.6196 4.50859 11.7883 4.37859 11.8903 4.23793C12.0063 4.07793 12.055 3.87459 12.0603 3.74059L12.0556 3.52326ZM9.50831 3.52326H7.96898L7.96498 3.73459C7.96898 3.86793 8.01698 4.07593 8.13498 4.23793C8.23698 4.37859 8.40564 4.50859 8.73898 4.50859C9.07231 4.50859 9.24031 4.37859 9.34298 4.23793C9.45898 4.07793 9.50698 3.87459 9.51231 3.74059L9.50831 3.52326ZM6.96031 3.52326H5.41298L5.41764 3.72793C5.42031 3.86126 5.46764 4.07326 5.58764 4.23793C5.68964 4.37859 5.85831 4.50859 6.19164 4.50859C6.52498 4.50859 6.69298 4.37859 6.79564 4.23793C6.89789 4.08916 6.95675 3.91489 6.96564 3.73459L6.96031 3.52326ZM8.36564 12.7299C8.36564 13.034 8.24483 13.3257 8.02979 13.5407C7.81475 13.7558 7.52309 13.8766 7.21898 13.8766C6.91486 13.8766 6.6232 13.7558 6.40816 13.5407C6.19312 13.3257 6.07231 13.034 6.07231 12.7299C6.07231 12.4258 6.19312 12.1342 6.40816 11.9191C6.6232 11.7041 6.91486 11.5833 7.21898 11.5833C7.52309 11.5833 7.81475 11.7041 8.02979 11.9191C8.24483 12.1342 8.36564 12.4258 8.36564 12.7299ZM14.6336 13.5639C14.6336 13.6468 14.6007 13.7262 14.5422 13.7848C14.4836 13.8434 14.4041 13.8763 14.3213 13.8763C14.2385 13.8763 14.159 13.8434 14.1005 13.7848C14.0419 13.7262 14.009 13.6468 14.009 13.5639C14.009 13.4811 14.0419 13.4016 14.1005 13.3431C14.159 13.2845 14.2385 13.2516 14.3213 13.2516C14.4041 13.2516 14.4836 13.2845 14.5422 13.3431C14.6007 13.4016 14.6336 13.4811 14.6336 13.5639Z" fill="black"/>
</svg>
