<svg width="20" height="21" viewBox="0 0 20 21" fill="none" xmlns="http://www.w3.org/2000/svg">
<path fill-rule="evenodd" clip-rule="evenodd" d="M2.71025 5.45418C2.71025 5.06252 3.02691 4.74585 3.41858 4.74585H16.4386C16.8302 4.74585 17.1469 5.06252 17.1469 5.45418V10.995C17.7136 11.4633 18.1636 12.1558 18.1636 13.115V17.1542H16.9136V15.7583H3.08691V17.1533H1.83691V13.0917C1.85775 12.5467 2.09025 11.7683 2.71108 11.1333L2.71025 5.45418ZM4.90608 10.11C5.12497 10.0811 5.35719 10.0667 5.60275 10.0667H8.84941C8.43025 9.66502 7.75775 9.29168 6.82191 9.29168C5.91358 9.29168 5.29775 9.68085 4.90608 10.11ZM11.0627 10.0667H14.7861L14.8161 10.07C14.9522 10.0822 15.1011 10.105 15.2627 10.1383C15.2067 10.0688 15.1451 10.0039 15.0786 9.94418C14.7061 9.60252 14.0952 9.29168 13.2002 9.29168C12.3019 9.29168 11.7419 9.51918 11.3836 9.77835C11.2666 9.86261 11.159 9.95929 11.0627 10.0667ZM15.8961 8.99835C15.2911 8.45585 14.3861 8.04168 13.2002 8.04168C12.0777 8.04168 11.2519 8.33085 10.6502 8.76502C10.3652 8.97168 10.1419 9.20252 9.96608 9.43335C9.35275 8.71585 8.29525 8.04168 6.82108 8.04168C5.46358 8.04168 4.54358 8.63502 3.95941 9.29418V5.99585H15.8961V8.99835ZM3.08608 14.5083H16.9144V13.1142C16.9144 12.5283 16.6186 12.1242 16.1744 11.8267C15.7077 11.515 15.1219 11.3592 14.7244 11.3158H5.60358C4.67191 11.3158 4.09525 11.58 3.73941 11.8808C3.26441 12.2825 3.10191 12.8167 3.08691 13.1275L3.08608 14.5083Z" fill="#333333"/>
</svg>
