<svg width="35" height="35" viewBox="0 0 35 35" fill="none" xmlns="http://www.w3.org/2000/svg">
<path fill-rule="evenodd" clip-rule="evenodd" d="M8.98242 12.3923C9.54601 12.3923 10.0865 12.1685 10.485 11.7699C10.8835 11.3714 11.1074 10.8309 11.1074 10.2673C11.1074 9.70375 10.8835 9.16325 10.485 8.76473C10.0865 8.36622 9.54601 8.14233 8.98242 8.14233C8.41884 8.14233 7.87833 8.36622 7.47982 8.76473C7.08131 9.16325 6.85742 9.70375 6.85742 10.2673C6.85742 10.8309 7.08131 11.3714 7.47982 11.7699C7.87833 12.1685 8.41884 12.3923 8.98242 12.3923ZM8.98242 14.5173C10.1096 14.5173 11.1906 14.0696 11.9876 13.2725C12.7847 12.4755 13.2324 11.3945 13.2324 10.2673C13.2324 9.14016 12.7847 8.05916 11.9876 7.26213C11.1906 6.4651 10.1096 6.01733 8.98242 6.01733C7.85525 6.01733 6.77425 6.4651 5.97722 7.26213C5.18019 8.05916 4.73242 9.14016 4.73242 10.2673C4.73242 11.3945 5.18019 12.4755 5.97722 13.2725C6.77425 14.0696 7.85525 14.5173 8.98242 14.5173ZM26.2176 12.3923C26.7812 12.3923 27.3217 12.1685 27.7202 11.7699C28.1187 11.3714 28.3426 10.8309 28.3426 10.2673C28.3426 9.70375 28.1187 9.16325 27.7202 8.76473C27.3217 8.36622 26.7812 8.14233 26.2176 8.14233C25.654 8.14233 25.1135 8.36622 24.715 8.76473C24.3165 9.16325 24.0926 9.70375 24.0926 10.2673C24.0926 10.8309 24.3165 11.3714 24.715 11.7699C25.1135 12.1685 25.654 12.3923 26.2176 12.3923ZM26.2176 14.5173C27.3448 14.5173 28.4258 14.0696 29.2228 13.2725C30.0198 12.4755 30.4676 11.3945 30.4676 10.2673C30.4676 9.14016 30.0198 8.05916 29.2228 7.26213C28.4258 6.4651 27.3448 6.01733 26.2176 6.01733C25.0904 6.01733 24.0094 6.4651 23.2124 7.26213C22.4154 8.05916 21.9676 9.14016 21.9676 10.2673C21.9676 11.3945 22.4154 12.4755 23.2124 13.2725C24.0094 14.0696 25.0904 14.5173 26.2176 14.5173ZM17.736 15.5232C18.1512 15.5232 18.5493 15.3582 18.8429 15.0647C19.1365 14.7711 19.3014 14.3729 19.3014 13.9578C19.3014 13.5426 19.1365 13.1444 18.8429 12.8508C18.5493 12.5573 18.1512 12.3923 17.736 12.3923C17.3208 12.3923 16.9227 12.5573 16.6291 12.8508C16.3355 13.1444 16.1706 13.5426 16.1706 13.9578C16.1706 14.3729 16.3355 14.7711 16.6291 15.0647C16.9227 15.3582 17.3208 15.5232 17.736 15.5232ZM17.736 17.6482C18.7148 17.6482 19.6534 17.2594 20.3455 16.5673C21.0376 15.8752 21.4264 14.9365 21.4264 13.9578C21.4264 12.979 21.0376 12.0403 20.3455 11.3482C19.6534 10.6561 18.7148 10.2673 17.736 10.2673C16.7572 10.2673 15.8186 10.6561 15.1265 11.3482C14.4344 12.0403 14.0456 12.979 14.0456 13.9578C14.0456 14.9365 14.4344 15.8752 15.1265 16.5673C15.8186 17.2594 16.7572 17.6482 17.736 17.6482Z" fill="black"/>
<path fill-rule="evenodd" clip-rule="evenodd" d="M2.97466 27.0507V20.5623C3.91249 19.4573 5.52041 18.2362 7.51082 17.8636C9.47149 17.4967 11.9733 17.9231 14.7868 20.4561C13.7243 20.9887 12.9027 21.7523 12.3884 22.4252L12.1702 22.7114V27.0507H2.97466ZM12.1688 29.1757H0.851074V19.8285L1.06924 19.5423C2.19691 18.069 4.32757 16.2967 7.12266 15.774C9.98999 15.2385 13.3588 16.0559 16.7985 19.429L17.1172 19.7407V19.7959C17.4473 19.7683 17.7791 19.7698 18.1089 19.8002L18.3044 19.5423C19.4321 18.069 21.5627 16.2967 24.3578 15.774C27.2252 15.2385 30.5954 16.0559 34.0337 19.429L34.3524 19.7407V29.1757H23.3052V29.1827H12.1702L12.1688 29.1757ZM23.3038 27.0507H32.226V20.6417C29.3303 17.9443 26.7548 17.4882 24.746 17.8636C22.8434 18.2177 21.2893 19.3511 20.3387 20.4136C21.2086 20.823 22.0968 21.4407 22.9851 22.3119L23.3038 22.6236V27.0507ZM14.2938 27.0577V23.4537C14.8577 22.8304 15.77 22.1745 16.8707 21.9691C17.9857 21.7608 19.4632 21.9832 21.1774 23.5288V27.0563L14.2938 27.0577Z" fill="black"/>
</svg>
