<svg width="17" height="16" viewBox="0 0 17 16" fill="none" xmlns="http://www.w3.org/2000/svg">
<path fill-rule="evenodd" clip-rule="evenodd" d="M8.38965 2.5C6.93096 2.5 5.53201 3.07946 4.50056 4.11091C3.46911 5.14236 2.88965 6.54131 2.88965 8C2.88965 9.45869 3.46911 10.8576 4.50056 11.8891C5.53201 12.9205 6.93096 13.5 8.38965 13.5C9.84834 13.5 11.2473 12.9205 12.2787 11.8891C13.3102 10.8576 13.8896 9.45869 13.8896 8C13.8896 6.54131 13.3102 5.14236 12.2787 4.11091C11.2473 3.07946 9.84834 2.5 8.38965 2.5ZM1.88965 8C1.88965 4.41 4.79965 1.5 8.38965 1.5C11.9796 1.5 14.8896 4.41 14.8896 8C14.8896 11.59 11.9796 14.5 8.38965 14.5C4.79965 14.5 1.88965 11.59 1.88965 8ZM7.88965 4.33333H8.88965V7.79333L11.0763 9.98L10.3696 10.6867L7.88965 8.20667V4.33333Z" fill="black"/>
</svg>
