<svg width="17" height="17" viewBox="0 0 17 17" fill="none" xmlns="http://www.w3.org/2000/svg">
<path fill-rule="evenodd" clip-rule="evenodd" d="M8.25977 2.90002C6.80107 2.90002 5.40213 3.47949 4.37068 4.51094C3.33923 5.54239 2.75977 6.94133 2.75977 8.40002C2.75977 9.85872 3.33923 11.2577 4.37068 12.2891C5.40213 13.3206 6.80107 13.9 8.25977 13.9C9.71846 13.9 11.1174 13.3206 12.1489 12.2891C13.1803 11.2577 13.7598 9.85872 13.7598 8.40002C13.7598 6.94133 13.1803 5.54239 12.1489 4.51094C11.1174 3.47949 9.71846 2.90002 8.25977 2.90002ZM1.75977 8.40002C1.75977 4.81002 4.66977 1.90002 8.25977 1.90002C11.8498 1.90002 14.7598 4.81002 14.7598 8.40002C14.7598 11.99 11.8498 14.9 8.25977 14.9C4.66977 14.9 1.75977 11.99 1.75977 8.40002ZM7.75977 4.73336H8.75977V8.19336L10.9464 10.38L10.2398 11.0867L7.75977 8.60669V4.73336Z" fill="black"/>
</svg>
