<svg width="21" height="20" viewBox="0 0 21 20" fill="none" xmlns="http://www.w3.org/2000/svg">
<path fill-rule="evenodd" clip-rule="evenodd" d="M12.2056 3.8844L12.2023 3.91774L12.1998 3.95107L12.1948 4.01107C12.1922 4.04353 12.1877 4.0758 12.1814 4.10774L11.3231 8.28857H16.9606C16.9921 8.28867 17.0233 8.29548 17.052 8.30854C17.0808 8.32161 17.1064 8.34063 17.1272 8.36436C17.148 8.38808 17.1635 8.41595 17.1727 8.44613C17.1819 8.47631 17.1846 8.50811 17.1806 8.5394L16.0881 15.6502V15.6519C16.0796 15.7047 16.0525 15.7528 16.0117 15.7875C15.9709 15.8222 15.9191 15.8412 15.8656 15.8411H6.51309V9.25774L10.8664 5.0769L11.7223 4.2744C11.7773 4.2294 11.8339 4.1769 11.8723 4.14024L11.8906 4.12357C11.9489 4.06857 12.0006 4.0219 12.0531 3.98024C12.0987 3.94059 12.1501 3.90826 12.2056 3.8844ZM12.7823 2.64274C12.9873 2.72357 13.1239 2.8419 13.2073 2.92107C13.3906 3.09274 13.4656 3.30857 13.4981 3.43607C13.5348 3.5794 13.5464 3.72107 13.5464 3.8344V3.86607L13.5439 3.89774C13.536 3.97541 13.5294 4.05319 13.5239 4.13107C13.516 4.213 13.504 4.29449 13.4881 4.37524L12.9589 6.9544H16.9606C17.1835 6.95433 17.4038 7.00214 17.6065 7.09461C17.8093 7.18707 17.9899 7.32202 18.136 7.49033C18.2821 7.65864 18.3903 7.85637 18.4534 8.07015C18.5164 8.28392 18.5328 8.50875 18.5014 8.7294L18.4998 8.7369L17.4064 15.8519C17.35 16.2221 17.1621 16.5596 16.8771 16.8026C16.5922 17.0456 16.2292 17.1779 15.8548 17.1752H5.17975V8.6894L9.95059 4.10607L10.8514 3.26274L10.8764 3.24357L10.9031 3.2194C10.9198 3.20524 10.9348 3.19024 10.9556 3.17107L10.9806 3.14774C11.0414 3.09107 11.1264 3.0119 11.2239 2.9344C11.4056 2.79107 11.7156 2.58024 12.1139 2.55274C12.3556 2.53607 12.5781 2.56107 12.7823 2.64274ZM2.32975 8.3444C2.4173 8.3444 2.50399 8.36165 2.58487 8.39515C2.66576 8.42865 2.73925 8.47776 2.80116 8.53967C2.86306 8.60157 2.91217 8.67506 2.94567 8.75595C2.97918 8.83683 2.99642 8.92352 2.99642 9.01107V17.4527H1.66309V9.01107C1.66309 8.92352 1.68033 8.83683 1.71383 8.75595C1.74734 8.67506 1.79644 8.60157 1.85835 8.53967C1.92025 8.47776 1.99375 8.42865 2.07463 8.39515C2.15551 8.36165 2.2422 8.3444 2.32975 8.3444Z" fill="black"/>
</svg>
