<svg width="17" height="16" viewBox="0 0 17 16" fill="none" xmlns="http://www.w3.org/2000/svg">
<path fill-rule="evenodd" clip-rule="evenodd" d="M8.93994 2.50001C7.48125 2.50001 6.0823 3.07947 5.05085 4.11092C4.0194 5.14237 3.43994 6.54132 3.43994 8.00001C3.43994 9.4587 4.0194 10.8576 5.05085 11.8891C6.0823 12.9205 7.48125 13.5 8.93994 13.5C10.3986 13.5 11.7976 12.9205 12.829 11.8891C13.8605 10.8576 14.4399 9.4587 14.4399 8.00001C14.4399 6.54132 13.8605 5.14237 12.829 4.11092C11.7976 3.07947 10.3986 2.50001 8.93994 2.50001ZM2.43994 8.00001C2.43994 4.41001 5.34994 1.50001 8.93994 1.50001C12.5299 1.50001 15.4399 4.41001 15.4399 8.00001C15.4399 11.59 12.5299 14.5 8.93994 14.5C5.34994 14.5 2.43994 11.59 2.43994 8.00001ZM8.43994 4.33334H9.43994V7.79334L11.6266 9.98001L10.9199 10.6867L8.43994 8.20668V4.33334Z" fill="black"/>
</svg>
