<svg width="35" height="35" viewBox="0 0 35 35" fill="none" xmlns="http://www.w3.org/2000/svg">
<path fill-rule="evenodd" clip-rule="evenodd" d="M23.1139 28.5395L23.5389 28.8214L23.9639 28.4672C24.6723 28.0465 30.6223 24.145 30.6223 21.102C30.6223 18.8367 28.7055 16.9937 26.3694 16.9937C25.3098 16.9937 24.3904 17.4881 23.682 17.9145C23.6166 17.9492 23.5436 17.9674 23.4695 17.9674C23.3954 17.9674 23.3225 17.9492 23.257 17.9145C22.6195 17.4895 21.6959 16.9937 20.707 16.9937C18.3695 16.9937 16.457 18.9047 16.457 21.1714C16.457 24.145 22.4056 28.1159 23.1139 28.5395ZM23.4922 26.2402C24.4181 25.6104 25.3038 24.9234 26.1442 24.1832C26.8709 23.5344 27.5099 22.8657 27.9504 22.2467C28.4222 21.5837 28.4987 21.2111 28.4987 21.102C28.4987 20.082 27.6062 19.1187 26.3709 19.1187C25.9444 19.1187 25.4642 19.3227 24.7799 19.7349L24.7119 19.776L24.6411 19.8114C24.2776 19.9979 23.8748 20.0948 23.4662 20.094C23.0576 20.0933 22.6551 19.9949 22.2923 19.8072L22.1804 19.7505L22.0769 19.6811C21.837 19.5154 21.5807 19.3749 21.3119 19.2617C21.1213 19.1774 20.9167 19.1289 20.7084 19.1187C19.5184 19.1187 18.5834 20.1032 18.5834 21.1714C18.5834 21.2536 18.65 21.6148 19.1274 22.2835C19.5709 22.904 20.2126 23.5755 20.9422 24.2314C21.8772 25.0715 22.8476 25.7897 23.4922 26.2402Z" fill="black"/>
<path fill-rule="evenodd" clip-rule="evenodd" d="M11.7068 6.38013C13.3643 6.38013 14.9141 7.21029 15.9809 7.92429C16.0907 7.98381 16.2137 8.01498 16.3386 8.01498C16.4635 8.01498 16.5865 7.98381 16.6963 7.92429C17.8835 7.20746 19.4248 6.38013 21.2013 6.38013C25.1198 6.38013 28.3328 9.46846 28.3328 13.268C28.3328 14.2086 27.9942 15.1975 27.4332 16.1905L25.8324 14.6634C26.0959 14.0981 26.2078 13.632 26.2078 13.268C26.2078 10.7151 24.019 8.50371 21.2027 8.50371C20.058 8.50371 18.9559 9.04204 17.7914 9.74329L17.7234 9.78438L17.6525 9.81979C16.8139 10.2448 15.8619 10.2476 15.0147 9.81554L14.9042 9.75888L14.7994 9.68946C13.819 9.03496 12.7126 8.50513 11.7068 8.50513C8.93437 8.50513 6.70312 10.7831 6.70312 13.3855C6.70312 13.9706 7.02329 14.8773 7.88462 16.0857C8.71479 17.2474 9.87504 18.4515 11.1373 19.5863C12.7503 21.0233 14.461 22.3468 16.2571 23.5473L17.9245 25.1368C17.5704 25.372 17.3069 25.5363 17.1666 25.6199L16.4555 26.2149L15.7429 25.7417C14.5571 25.0305 4.57812 18.3722 4.57812 13.3855C4.57812 9.58463 7.78546 6.38013 11.7068 6.38013Z" fill="black"/>
</svg>
