<svg width="21" height="20" viewBox="0 0 21 20" fill="none" xmlns="http://www.w3.org/2000/svg">
<path fill-rule="evenodd" clip-rule="evenodd" d="M8.86898 3.95831C8.62275 3.95831 8.37893 4.00681 8.15145 4.10104C7.92396 4.19527 7.71726 4.33338 7.54315 4.50749C7.36904 4.6816 7.23093 4.8883 7.1367 5.11578C7.04248 5.34327 6.99398 5.58708 6.99398 5.83331C6.99398 6.07954 7.04248 6.32336 7.1367 6.55084C7.23093 6.77833 7.36904 6.98503 7.54315 7.15914C7.71726 7.33325 7.92396 7.47136 8.15145 7.56559C8.37893 7.65981 8.62275 7.70831 8.86898 7.70831C9.36626 7.70831 9.84317 7.51077 10.1948 7.15914C10.5464 6.80751 10.744 6.33059 10.744 5.83331C10.744 5.33603 10.5464 4.85912 10.1948 4.50749C9.84317 4.15586 9.36626 3.95831 8.86898 3.95831ZM5.74398 5.83331C5.74398 5.00451 6.07322 4.20966 6.65927 3.6236C7.24532 3.03755 8.04018 2.70831 8.86898 2.70831C9.69778 2.70831 10.4926 3.03755 11.0787 3.6236C11.6647 4.20966 11.994 5.00451 11.994 5.83331C11.994 6.66211 11.6647 7.45697 11.0787 8.04302C10.4926 8.62907 9.69778 8.95831 8.86898 8.95831C8.04018 8.95831 7.24532 8.62907 6.65927 8.04302C6.07322 7.45697 5.74398 6.66211 5.74398 5.83331ZM15.744 5.20831V3.33331H16.994V5.20831H18.869V6.45831H16.994V8.33331H15.744V6.45831H13.869V5.20831H15.744ZM2.55648 13.0658C4.00898 11.3308 6.29981 10.2083 8.88148 10.2083C11.4498 10.2083 13.7315 11.3183 15.1798 13.0366L15.3273 13.2116V17.2916H2.41064V13.24L2.55648 13.0658ZM3.66064 13.7V16.0416H14.0773V13.675C12.8648 12.3375 11.0023 11.4583 8.88231 11.4583C6.74898 11.4583 4.87814 12.3483 3.66064 13.7Z" fill="black"/>
</svg>
