<svg width="21" height="20" viewBox="0 0 21 20" fill="none" xmlns="http://www.w3.org/2000/svg">
<path fill-rule="evenodd" clip-rule="evenodd" d="M7.3948 9.19415C7.72633 9.19415 8.04427 9.06246 8.27869 8.82804C8.51311 8.59362 8.6448 8.27567 8.6448 7.94415C8.6448 7.61263 8.51311 7.29469 8.27869 7.06027C8.04427 6.82585 7.72633 6.69415 7.3948 6.69415C7.06328 6.69415 6.74534 6.82585 6.51092 7.06027C6.2765 7.29469 6.14481 7.61263 6.14481 7.94415C6.14481 8.27567 6.2765 8.59362 6.51092 8.82804C6.74534 9.06246 7.06328 9.19415 7.3948 9.19415ZM5.72814 13.3608C5.31147 13.3608 5.14481 12.9442 5.39481 12.6108L6.72814 11.4442C6.89481 11.2775 7.22814 11.2775 7.3948 11.4442L8.31147 12.3608C8.47814 12.5275 8.81147 12.5275 8.97814 12.3608L11.4781 10.1108C11.6431 9.94415 11.9781 9.94415 12.1448 10.1108L15.1448 12.6108C15.3948 12.8608 15.2281 13.3608 14.8115 13.3608H5.72814Z" fill="white"/>
<path fill-rule="evenodd" clip-rule="evenodd" d="M17.1105 4.78082H3.08301V15.2192H17.1105V4.78082ZM1.83301 3.53082V16.4692H18.3605V3.53082H1.83301Z" fill="white"/>
</svg>
