<svg width="30" height="30" viewBox="0 0 30 30" fill="none" xmlns="http://www.w3.org/2000/svg">
<path d="M15 0C6.71563 0 0 6.71563 0 15C0 23.2844 6.71563 30 15 30C23.2844 30 30 23.2844 30 15C30 6.71563 23.2844 0 15 0ZM15 7.91667C11.0938 7.91667 7.91667 11.0938 7.91667 15C7.91667 15.6896 7.35625 16.25 6.66667 16.25C5.97708 16.25 5.41667 15.6896 5.41667 15C5.41667 9.71562 9.71667 5.41667 15 5.41667C15.6896 5.41667 16.25 5.97708 16.25 6.66667C16.25 7.35625 15.6896 7.91667 15 7.91667Z" fill="#8B4513" fill-opacity="0.5"/>
</svg>
