<svg width="30" height="30" viewBox="0 0 30 30" fill="none" xmlns="http://www.w3.org/2000/svg">
<path d="M22.6667 30C21.75 30 20.9655 29.6739 20.3133 29.0216C19.6611 28.3694 19.3344 27.5844 19.3333 26.6666V3.33333C19.3333 2.41666 19.66 1.63222 20.3133 0.979999C20.9667 0.327778 21.7511 0.00111111 22.6667 0H26C26.9166 0 27.7016 0.326666 28.355 0.979999C29.0083 1.63333 29.3344 2.41778 29.3333 3.33333V26.6666C29.3333 27.5833 29.0072 28.3683 28.355 29.0216C27.7028 29.675 26.9178 30.0011 26 30H22.6667ZM5.70833 16.6667L7.20833 18.1667C7.51388 18.4722 7.66666 18.8544 7.66666 19.3133C7.66666 19.7722 7.49999 20.1678 7.16666 20.5C6.86111 20.8055 6.47222 20.9583 5.99999 20.9583C5.52777 20.9583 5.13889 20.8055 4.83333 20.5L0.5 16.1667C0.166666 15.8333 0 15.4444 0 15C0 14.5555 0.166666 14.1667 0.5 13.8333L4.83333 9.49999C5.13889 9.19444 5.52111 9.03499 5.98 9.02166C6.43888 9.00833 6.83444 9.16777 7.16666 9.49999C7.47222 9.80555 7.62499 10.1944 7.62499 10.6667C7.62499 11.1389 7.47222 11.5278 7.16666 11.8333L5.70833 13.3333H14.3333C14.8055 13.3333 15.2017 13.4933 15.5217 13.8133C15.8417 14.1333 16.0011 14.5289 16 15C15.9989 15.4711 15.8389 15.8672 15.52 16.1883C15.2011 16.5094 14.8055 16.6689 14.3333 16.6667H5.70833Z" fill="black"/>
</svg>
