<svg width="57" height="100" viewBox="0 0 57 100" fill="none" xmlns="http://www.w3.org/2000/svg">
<path d="M23.3754 92.0534L27.4241 98.1246C27.4242 98.1246 27.4242 98.1247 27.4243 98.1248C27.7582 98.625 28.4946 98.6251 28.8286 98.125L23.3754 92.0534ZM23.3754 92.0534V63.6654C24.9235 63.8795 26.5075 64.0012 28.1255 64.0012C29.7436 64.0012 31.3276 63.8795 32.8757 63.6654V92.0536L28.829 98.1246L23.3754 92.0534ZM1.5 28.1255C1.5 13.4205 13.4205 1.5 28.1255 1.5C42.8306 1.5 54.7511 13.4205 54.7511 28.1255C54.7511 42.8306 42.8306 54.7511 28.1255 54.7511C13.4205 54.7511 1.5 42.8306 1.5 28.1255ZM16.344 28.1255C16.344 21.6296 21.6296 16.344 28.1255 16.344C30.247 16.344 31.9693 14.6217 31.9693 12.5002C31.9693 10.3788 30.247 8.65645 28.1255 8.65645C17.3908 8.65645 8.65645 17.3886 8.65645 28.1255C8.65645 30.247 10.3788 31.9693 12.5002 31.9693C14.6217 31.9693 16.344 30.247 16.344 28.1255Z" stroke="#22C55E" stroke-width="3"/>
</svg>
