<svg width="95" height="87" viewBox="0 0 95 87" fill="none" xmlns="http://www.w3.org/2000/svg">
<path d="M90.3067 7.93603C88.8196 6.78977 86.9209 6.25902 85.0277 6.46051C83.1345 6.662 81.4016 7.57929 80.2109 9.01059L77.0689 12.7877C76.1331 13.921 74.8498 14.7415 73.4017 15.1322C71.9537 15.5231 70.415 15.4643 69.0035 14.9645L35.4778 3.23194C31.311 1.78646 26.7835 1.60845 22.5082 2.72198C18.2328 3.83555 14.4159 6.18694 11.574 9.45793L6.07098 15.8223C5.40904 16.5109 4.89947 17.3219 4.5733 18.206C4.24719 19.0902 4.1112 20.0289 4.17374 20.9654C4.23627 21.9017 4.49589 22.8158 4.93692 23.6528C5.37794 24.4894 5.99112 25.2309 6.73913 25.8321C7.48719 26.4334 8.35442 26.8823 9.2881 27.1503C10.2218 27.4184 11.2025 27.5013 12.1703 27.3933C13.1383 27.2853 14.0733 26.9888 14.9184 26.5221C15.7636 26.0549 16.5012 25.4271 17.0866 24.6774L22.6087 18.3127C23.5578 17.2228 24.8315 16.4397 26.2576 16.0694C27.6838 15.6991 29.1936 15.7593 30.5831 16.242L38.6053 19.0506L29.5964 43.3737C29.1199 44.7512 28.2052 45.9493 26.9821 46.7989C25.7588 47.6479 24.2891 48.105 22.7811 48.1055H9.18405C7.27874 48.1055 5.4514 48.834 4.10414 50.1315C2.75692 51.4285 2 53.1878 2 55.0229C2 56.8575 2.75692 58.6173 4.10414 59.9143C5.4514 61.2117 7.27874 61.9408 9.18405 61.9408H22.7811C26.8248 61.9465 30.7882 60.855 34.2172 58.7909C37.6461 56.7273 40.4019 53.7751 42.1684 50.2728L47.552 52.3484C49.1618 52.9728 50.4842 54.1352 51.2763 55.6227C52.0684 57.1106 52.2762 58.8232 51.8621 60.4466L47.7192 76.4038C47.2571 78.1829 47.548 80.0667 48.5279 81.6399C49.5078 83.2132 51.0965 84.3472 52.9447 84.7927C53.5165 84.9291 54.1038 84.9986 54.6926 85C56.2939 84.9986 57.8486 84.4827 59.1099 83.5333C60.3722 82.5844 61.268 81.2566 61.6565 79.761L65.7944 63.7855C67.0397 58.9172 66.4203 53.7804 64.0494 49.3162C61.6786 44.8529 57.7154 41.3622 52.8871 39.4856L47.1064 37.2629L52.1065 23.7594L64.08 27.9517C68.316 29.4357 72.929 29.6035 77.2697 28.4314C81.6099 27.2588 85.4593 24.8052 88.2758 21.4164L91.4178 17.667C92.0086 16.958 92.4492 16.1438 92.7131 15.2709C92.9775 14.398 93.0601 13.4835 92.957 12.5797C92.8543 11.676 92.5669 10.8006 92.1118 10.0039C91.6571 9.20702 91.0437 8.50434 90.3067 7.93603Z" stroke="#191919" stroke-width="2.11077" stroke-linecap="round" stroke-linejoin="round"/>
</svg>
