<svg width="1105" height="410" viewBox="0 0 1105 410" fill="none" xmlns="http://www.w3.org/2000/svg">
<path d="M42.2288 346.776L49.9922 322.938M66.2249 277.77L72.5768 252.677M102 239L118.5 230.5M208.79 192.453L232.786 184.925M260.311 149.795L272.31 137.248M291.365 119.683L296.306 103.373M308.304 65.7329L317.479 54.441M331.594 23.0745L337.24 13.0373M357.708 3H370.411M399.348 3L412.052 8.01863M428.99 39.3851L437.46 54.441M457.221 73.2609L468.513 78.2795M498.156 78.2795L509.448 83.2981M527.798 103.373L539.09 113.41M555.323 137.248L561.675 149.795M570.144 159.832L579.319 164.851M589.2 167.36H609.667M629.429 176.143L637.898 183.671M648.485 188.689H656.954M668.246 192.453L676.715 196.217M685.89 201.236L694.36 215.037M701.417 223.82L704.946 237.621M711.298 248.913L720.473 258.95M729.648 265.224L736.706 272.752M742.352 282.789L755.761 292.826M768.465 297.845H783.992M793.873 292.826L803.048 282.789M813.635 277.77L823.515 282.789M836.925 282.789L846.806 289.062M855.981 292.826L861.627 301.609M867.273 309.137L870.096 322.938M880.683 339.248L893.386 350.54M919.5 360.578L934.321 363.087M954.788 370.615L966.081 379.397M983.725 401.981L995.017 407M1016.19 401.981L1023.95 396.963M1026.78 379.397L1029.6 370.615M1031.72 355.559V282.789M1033.83 267.733V255.186M1036.66 240.13L1038.77 230.093M1041.6 217.547L1045.83 205M1047.95 189.944L1052.18 176.143M1059.24 161.087L1064.18 149.795M1069.83 141.012L1076.89 133.484M1085.36 124.702L1093.12 117.174L1103 107.137M2 394.453L21.0558 383.161" stroke="url(#paint0_linear_9_9983)" stroke-width="5"/>
<defs>
<linearGradient id="paint0_linear_9_9983" x1="2" y1="205" x2="1103" y2="205" gradientUnits="userSpaceOnUse">
<stop stop-color="#22C55E"/>
<stop offset="0.2" stop-color="#22C55E"/>
<stop offset="0.2"/>
</linearGradient>
</defs>
</svg>
